<svg width="40" height="40" viewBox="0 0 40 40" fill="none" xmlns="http://www.w3.org/2000/svg">
<path d="M21.3577 40H18.6423C17.6352 39.9987 16.6697 39.5981 15.9576 38.886C15.2454 38.1738 14.8448 37.2083 14.8435 36.2012C14.8233 35.9664 14.7352 35.7426 14.5898 35.557C14.4444 35.3715 14.2482 35.2323 14.025 35.1565L13.5099 34.9446C13.2982 34.8405 13.0609 34.8001 12.8267 34.8284C12.5925 34.8566 12.3716 34.9522 12.1907 35.1035C11.4778 35.8136 10.5126 36.2122 9.5065 36.2122C8.50035 36.2122 7.5352 35.8136 6.82234 35.1035L4.89648 33.1777C4.54375 32.8253 4.26393 32.4069 4.07301 31.9463C3.88209 31.4858 3.78383 30.9921 3.78383 30.4935C3.78383 29.9949 3.88209 29.5012 4.07301 29.0407C4.26393 28.5801 4.54375 28.1617 4.89648 27.8093C5.0484 27.6287 5.14435 27.4077 5.17257 27.1734C5.20079 26.9391 5.16006 26.7017 5.05537 26.4901C4.97833 26.3216 4.90612 26.1483 4.83871 25.975C4.76342 25.7515 4.62438 25.5549 4.43873 25.4095C4.25309 25.264 4.02895 25.1761 3.79394 25.1565C2.78767 25.1539 1.82341 24.7527 1.11233 24.0407C0.401239 23.3287 0.00127053 22.364 0 21.3577V18.6375C0.00127053 17.6312 0.401239 16.6664 1.11233 15.9544C1.82341 15.2425 2.78767 14.8413 3.79394 14.8387C4.02914 14.8197 4.25357 14.732 4.43932 14.5865C4.62508 14.441 4.76397 14.244 4.83871 14.0202C4.90612 13.8469 4.97833 13.6736 5.05537 13.5051C5.16006 13.2936 5.20079 13.0561 5.17257 12.8218C5.14435 12.5875 5.0484 12.3665 4.89648 12.1858C4.54375 11.8335 4.26393 11.4151 4.07301 10.9545C3.88209 10.4939 3.78383 10.0003 3.78383 9.50171C3.78383 9.00314 3.88209 8.50945 4.07301 8.04888C4.26393 7.58831 4.54375 7.16989 4.89648 6.81754L6.82234 4.89169C7.53458 4.18048 8.49997 3.78101 9.5065 3.78101C10.513 3.78101 11.4784 4.18048 12.1907 4.89169C12.3704 5.0453 12.5915 5.14235 12.8262 5.17062C13.061 5.19889 13.2988 5.15713 13.5099 5.05058L14.025 4.83873C14.2482 4.76291 14.4444 4.62371 14.5898 4.43817C14.7352 4.25263 14.8233 4.02876 14.8435 3.79394C14.8448 2.78728 15.2456 1.82231 15.9578 1.11095C16.6701 0.399583 17.6356 -8.08532e-07 18.6423 0H21.3577C22.3635 0.001274 23.3278 0.401396 24.039 1.11262C24.7503 1.82384 25.1504 2.78811 25.1517 3.79394C25.1719 4.02876 25.26 4.25263 25.4054 4.43817C25.5507 4.62371 25.747 4.76291 25.9701 4.83873C26.1483 4.90614 26.3168 4.97836 26.4901 5.05058C26.7002 5.15674 26.9368 5.19872 27.1705 5.17133C27.4042 5.14393 27.6247 5.04836 27.8045 4.89651C28.5176 4.18501 29.4838 3.78541 30.4911 3.78541C31.4984 3.78541 32.4646 4.18501 33.1777 4.89651L35.1035 6.82236C35.4562 7.17471 35.7361 7.59313 35.927 8.0537C36.1179 8.51427 36.2162 9.00793 36.2162 9.5065C36.2162 10.0051 36.1179 10.4988 35.927 10.9593C35.7361 11.4199 35.4562 11.8383 35.1035 12.1907C34.9516 12.3713 34.8556 12.5923 34.8274 12.8266C34.7992 13.0609 34.8399 13.2984 34.9446 13.5099L35.1613 14.025C35.2352 14.2485 35.3732 14.4452 35.5581 14.5908C35.743 14.7363 35.9667 14.8242 36.2012 14.8435C37.2083 14.8448 38.1738 15.2454 38.886 15.9576C39.5981 16.6697 39.9987 17.6352 40 18.6423V21.3529C39.9987 22.36 39.5981 23.3255 38.886 24.0376C38.1738 24.7497 37.2083 25.1504 36.2012 25.1517C35.9671 25.1722 35.744 25.2605 35.5593 25.4059C35.3746 25.5513 35.2362 25.7474 35.1613 25.9701L34.9446 26.4901C34.8403 26.7009 34.7998 26.9375 34.828 27.171C34.8563 27.4045 34.952 27.6247 35.1035 27.8045C35.8135 28.5174 36.2122 29.4825 36.2122 30.4887C36.2122 31.4948 35.8135 32.46 35.1035 33.1729L33.1777 35.0987C32.464 35.809 31.498 36.2078 30.4911 36.2078C29.4842 36.2078 28.5182 35.809 27.8045 35.0987C27.6252 34.9461 27.405 34.8496 27.1712 34.8214C26.9375 34.7931 26.7006 34.8343 26.4901 34.9398L25.975 35.1517C25.7512 35.2272 25.5543 35.3663 25.4081 35.5518C25.2619 35.7372 25.1728 35.9612 25.1517 36.1964C25.1517 37.2035 24.7522 38.1695 24.041 38.8826C23.3298 39.5956 22.3648 39.9975 21.3577 40ZM12.9273 31.9307C13.5241 31.932 14.1142 32.0566 14.6606 32.2966C14.805 32.3592 14.9446 32.4169 15.0891 32.4699C15.8547 32.7525 16.5169 33.2602 16.9887 33.9262C17.4604 34.5921 17.7197 35.3852 17.7323 36.2012C17.7323 36.4426 17.8282 36.674 17.9988 36.8447C18.1695 37.0153 18.4009 37.1112 18.6423 37.1112H21.3577C21.5982 37.1099 21.8284 37.0135 21.9981 36.843C22.1677 36.6725 22.2629 36.4418 22.2629 36.2012C22.2766 35.3848 22.5368 34.5916 23.0093 33.9257C23.4819 33.2598 24.1448 32.7523 24.9109 32.4699C25.0554 32.4169 25.195 32.3592 25.3346 32.2966C26.0781 31.9537 26.9083 31.8452 27.715 31.9854C28.5216 32.1255 29.2665 32.5078 29.8507 33.0814C30.0213 33.2516 30.2525 33.3472 30.4935 33.3472C30.7345 33.3472 30.9657 33.2516 31.1362 33.0814L33.0621 31.1555C33.2312 30.9843 33.326 30.7534 33.326 30.5128C33.326 30.2721 33.2312 30.0412 33.0621 29.87C32.4939 29.2833 32.1166 28.5383 31.98 27.733C31.8433 26.9278 31.9537 26.1 32.2966 25.3587C32.3592 25.2191 32.4169 25.0795 32.4699 24.935C32.7523 24.1689 33.2598 23.506 33.9257 23.0334C34.5916 22.5609 35.3848 22.3006 36.2012 22.287C36.4426 22.287 36.674 22.1911 36.8447 22.0204C37.0153 21.8498 37.1112 21.6183 37.1112 21.377V18.6375C37.1112 18.3961 37.0153 18.1647 36.8447 17.994C36.674 17.8234 36.4426 17.7275 36.2012 17.7275C35.3848 17.7138 34.5916 17.4536 33.9257 16.981C33.2598 16.5084 32.7523 15.8456 32.4699 15.0794C32.4169 14.9398 32.3592 14.7954 32.2966 14.6558C31.9537 13.9144 31.8433 13.0867 31.98 12.2814C32.1166 11.4762 32.4939 10.7312 33.0621 10.1444C33.2312 9.97323 33.326 9.74232 33.326 9.50171C33.326 9.26109 33.2312 9.03015 33.0621 8.85894L31.1362 6.93309C31.0521 6.84822 30.952 6.78085 30.8417 6.73488C30.7313 6.68891 30.613 6.66523 30.4935 6.66523C30.374 6.66523 30.2556 6.68891 30.1453 6.73488C30.035 6.78085 29.9349 6.84822 29.8507 6.93309C29.2633 7.50014 28.5184 7.87661 27.7134 8.01321C26.9085 8.1498 26.081 8.04016 25.3394 7.69863L24.9157 7.52046C24.1496 7.23803 23.4867 6.7306 23.0142 6.0647C22.5416 5.39879 22.2814 4.60555 22.2677 3.78912C22.2677 3.54905 22.1723 3.31883 22.0026 3.14908C21.8328 2.97934 21.6026 2.88399 21.3625 2.88399H18.6471C18.4066 2.88399 18.1759 2.97918 18.0053 3.14879C17.8348 3.3184 17.7384 3.54861 17.7371 3.78912C17.7248 4.60588 17.4651 5.39972 16.9923 6.06587C16.5196 6.73202 15.856 7.23918 15.0891 7.52046L14.6702 7.69381C13.9288 8.03835 13.1003 8.15007 12.2941 8.01426C11.4879 7.87846 10.7417 7.50151 10.1541 6.93309C10.0699 6.84822 9.96979 6.78085 9.85948 6.73488C9.74916 6.68891 9.63083 6.66523 9.51131 6.66523C9.3918 6.66523 9.27347 6.68891 9.16315 6.73488C9.05283 6.78085 8.95271 6.84822 8.86856 6.93309L6.9427 8.85894C6.77364 9.03015 6.67884 9.26109 6.67884 9.50171C6.67884 9.74232 6.77364 9.97323 6.9427 10.1444C7.51092 10.7312 7.88818 11.4762 8.02483 12.2814C8.16147 13.0867 8.05109 13.9144 7.70823 14.6558C7.64564 14.7954 7.58787 14.9398 7.53009 15.0794C7.24767 15.8456 6.7402 16.5084 6.0743 16.981C5.4084 17.4536 4.61518 17.7138 3.79875 17.7275C3.67925 17.7275 3.56092 17.751 3.45052 17.7968C3.34012 17.8425 3.2398 17.9095 3.15531 17.994C3.07081 18.0785 3.00378 18.1788 2.95805 18.2892C2.91232 18.3996 2.88878 18.518 2.88878 18.6375V21.3481C2.88878 21.5886 2.98399 21.8193 3.1536 21.9898C3.32321 22.1604 3.55343 22.2568 3.79394 22.2581C4.61037 22.2718 5.40358 22.5319 6.06949 23.0045C6.73539 23.4771 7.24285 24.14 7.52528 24.9061C7.58305 25.0506 7.64083 25.1902 7.70342 25.3298C8.04628 26.0711 8.15665 26.8989 8.02001 27.7041C7.88337 28.5094 7.50611 29.2544 6.93789 29.8411C6.76883 30.0123 6.67403 30.2432 6.67403 30.4839C6.67403 30.7245 6.76883 30.9554 6.93789 31.1266L8.86375 33.0525C9.03434 33.2227 9.2655 33.3183 9.5065 33.3183C9.7475 33.3183 9.97866 33.2227 10.1493 33.0525C10.5155 32.6916 10.9495 32.4067 11.4263 32.2142C11.903 32.0216 12.4132 31.9253 12.9273 31.9307Z" fill="url(#paint0_linear_70_97)"/>
<path d="M20 28.8686C18.2477 28.8638 16.5362 28.3398 15.0816 27.3627C13.6271 26.3857 12.4947 24.9994 11.8277 23.3791C11.1606 21.7587 10.9888 19.9771 11.3339 18.2591C11.6791 16.5412 12.5256 14.9641 13.7667 13.7271C15.0077 12.49 16.5876 11.6486 18.3066 11.3091C20.0257 10.9696 21.8068 11.1472 23.4249 11.8195C25.0431 12.4918 26.4257 13.6287 27.398 15.0864C28.3703 16.5442 28.8888 18.2574 28.8878 20.0096C28.8865 21.1751 28.6556 22.3289 28.2081 23.405C27.7607 24.4811 27.1055 25.4585 26.2801 26.2813C25.4546 27.104 24.4751 27.756 23.3975 28.1999C22.32 28.6439 21.1654 28.8711 20 28.8686ZM20 14.0347C18.8193 14.0394 17.6665 14.3939 16.6871 15.0533C15.7077 15.7127 14.9456 16.6476 14.497 17.7398C14.0485 18.8319 13.9336 20.0325 14.1669 21.19C14.4001 22.3474 14.9711 23.4098 15.8076 24.243C16.6442 25.0762 17.7089 25.6429 18.8672 25.8715C20.0256 26.1001 21.2257 25.9804 22.3161 25.5274C23.4065 25.0745 24.3382 24.3087 24.9937 23.3266C25.6492 22.3446 25.999 21.1903 25.999 20.0096C25.9984 19.2231 25.8426 18.4445 25.5406 17.7183C25.2386 16.9921 24.7963 16.3326 24.2391 15.7776C23.6818 15.2226 23.0206 14.783 22.2932 14.4839C21.5657 14.1848 20.7865 14.0321 20 14.0347Z" fill="url(#paint1_linear_70_97)"/>
<defs>
<linearGradient id="paint0_linear_70_97" x1="0" y1="0" x2="40" y2="40" gradientUnits="userSpaceOnUse">
<stop stop-color="white"/>
<stop offset="0.494766" stop-color="#41AFFF"/>
<stop offset="1" stop-color="#662483"/>
</linearGradient>
<linearGradient id="paint1_linear_70_97" x1="0" y1="0" x2="40" y2="40" gradientUnits="userSpaceOnUse">
<stop stop-color="white"/>
<stop offset="0.494766" stop-color="#41AFFF"/>
<stop offset="1" stop-color="#662483"/>
</linearGradient>
</defs>
</svg>