<svg width="161" height="36" viewBox="0 0 161 36" fill="none" xmlns="http://www.w3.org/2000/svg">
<path d="M21.5781 23C21.1988 23 20.8351 22.8444 20.567 22.5676C20.2988 22.2907 20.1481 21.9151 20.1481 21.5236V5.73098C20.1474 5.64056 20.1166 5.55317 20.0609 5.4834C20.0052 5.41362 19.928 5.3657 19.8422 5.34765C19.7563 5.32959 19.6671 5.34249 19.5894 5.38419C19.5117 5.4259 19.4503 5.49387 19.4153 5.57676L12.5923 22.233C12.5011 22.4588 12.347 22.6515 12.1495 22.7866C11.9519 22.9217 11.72 22.9931 11.4831 22.9918C11.2467 22.9919 11.0154 22.9202 10.8182 22.7857C10.621 22.6511 10.4664 22.4596 10.3738 22.2351L3.47917 5.43076C3.44419 5.34787 3.3827 5.2799 3.30501 5.2382C3.22731 5.1965 3.1381 5.18359 3.05229 5.20165C2.96649 5.21971 2.88929 5.26763 2.83359 5.3374C2.7779 5.40717 2.74708 5.49457 2.7463 5.58498V21.575C2.7463 21.9507 2.60173 22.3111 2.3444 22.5768C2.08707 22.8425 1.73806 22.9918 1.37414 22.9918C1.19378 22.992 1.01514 22.9556 0.848433 22.8845C0.681725 22.8134 0.530226 22.7091 0.402598 22.5775C0.274971 22.4459 0.17372 22.2897 0.104638 22.1176C0.0355567 21.9456 -1.89965e-07 21.7612 0 21.575V2.41618C-1.11349e-07 2.09871 0.0605923 1.78435 0.178314 1.49108C0.296036 1.1978 0.46858 0.931347 0.686083 0.706957C0.903586 0.482567 1.16178 0.304634 1.44592 0.183331C1.73005 0.0620271 2.03456 -0.000269308 2.34202 8.7985e-07C2.80288 -0.000405469 3.25355 0.139948 3.63733 0.403397C4.02111 0.666846 4.32085 1.04162 4.49883 1.48056L10.7482 16.8372C10.807 16.9824 10.906 17.1064 11.0329 17.1937C11.1597 17.2809 11.3087 17.3274 11.4612 17.3274C11.6136 17.3274 11.7626 17.2809 11.8895 17.1937C12.0163 17.1064 12.1154 16.9824 12.1741 16.8372L18.3976 1.51757C18.581 1.06795 18.8887 0.684157 19.2822 0.414222C19.6758 0.144286 20.1377 0.000199472 20.6102 8.7985e-07C21.244 8.7985e-07 21.8519 0.259977 22.3 0.72274C22.7482 1.1855 23 1.81315 23 2.46759V21.5153C23 21.7094 22.9629 21.9016 22.891 22.0808C22.819 22.2601 22.7135 22.4229 22.5805 22.5601C22.4475 22.6972 22.2896 22.8059 22.1159 22.88C21.9422 22.9541 21.756 22.992 21.5681 22.9918L21.5781 23Z" fill="white"/>
<path d="M36.7234 23H27.2746C26.9366 23 26.6124 22.8616 26.3733 22.6152C26.1343 22.3688 26 22.0346 26 21.6861V1.31388C26 0.965416 26.1343 0.631229 26.3733 0.38483C26.6124 0.138431 26.9366 0 27.2746 0H36.2207C36.5588 0 36.883 0.138431 37.122 0.38483C37.3611 0.631229 37.4953 0.965416 37.4953 1.31388V1.32827C37.4953 1.67673 37.3611 2.01092 37.122 2.25732C36.883 2.50372 36.5588 2.64214 36.2207 2.64214H30.1569C29.8187 2.64214 29.4943 2.78051 29.2549 3.02685C29.0156 3.27319 28.8808 3.60737 28.8803 3.95602V8.68515C28.8808 9.0338 29.0156 9.36798 29.2549 9.61432C29.4943 9.86066 29.8187 9.99902 30.1569 9.99902H35.5864C35.9245 9.99902 36.2487 10.1375 36.4877 10.3838C36.7267 10.6302 36.861 10.9644 36.861 11.3129C36.861 11.6614 36.7267 11.9955 36.4877 12.2419C36.2487 12.4883 35.9245 12.6268 35.5864 12.6268H30.1569C29.8187 12.6268 29.4943 12.7651 29.2549 13.0115C29.0156 13.2578 28.8808 13.592 28.8803 13.9406V19.0584C28.8808 19.407 29.0156 19.7412 29.2549 19.9876C29.4943 20.2339 29.8187 20.3723 30.1569 20.3723H36.7234C37.0616 20.3723 37.386 20.5106 37.6254 20.757C37.8647 21.0033 37.9995 21.3375 38 21.6861C37.9995 22.0348 37.8647 22.369 37.6254 22.6153C37.386 22.8616 37.0616 23 36.7234 23Z" fill="white"/>
<path d="M54.7788 2.64238H51.081C50.7572 2.64238 50.4465 2.78169 50.2175 3.02965C49.9885 3.27761 49.8598 3.61392 49.8598 3.9646V21.6798C49.8598 21.8534 49.8282 22.0252 49.7668 22.1855C49.7054 22.3458 49.6155 22.4914 49.502 22.6141C49.3886 22.7367 49.254 22.8339 49.1058 22.9001C48.9577 22.9663 48.7989 23.0003 48.6386 23H48.3215C48.1612 23.0003 48.0024 22.9663 47.8543 22.9001C47.7061 22.8339 47.5715 22.7367 47.4581 22.6141C47.3447 22.4914 47.2547 22.3458 47.1933 22.1855C47.1319 22.0252 47.1003 21.8534 47.1003 21.6798V3.9646C47.1003 3.61428 46.9719 3.27828 46.7433 3.03038C46.5147 2.78247 46.2045 2.64293 45.881 2.64238H42.2212C41.8973 2.64238 41.5867 2.50308 41.3577 2.25511C41.1287 2.00715 41 1.67084 41 1.32017C41 1.14663 41.0316 0.97479 41.093 0.814487C41.1544 0.654183 41.2444 0.508554 41.3578 0.385939C41.4712 0.263324 41.6059 0.166129 41.754 0.0999061C41.9022 0.0336828 42.0609 -0.000268709 42.2212 1.60146e-06H54.7788C54.9391 -0.000268709 55.0978 0.0336828 55.246 0.0999061C55.3941 0.166129 55.5288 0.263324 55.6422 0.385939C55.7556 0.508554 55.8456 0.654183 55.907 0.814487C55.9684 0.97479 56 1.14663 56 1.32017C56 1.67084 55.8713 2.00715 55.6423 2.25511C55.4133 2.50308 55.1027 2.64238 54.7788 2.64238Z" fill="white"/>
<path d="M121.533 23H121.513C121.208 23.0005 120.91 22.906 120.659 22.7291C120.409 22.5523 120.217 22.3016 120.111 22.0108L118.529 17.6922C118.423 17.4014 118.231 17.1507 117.981 16.9739C117.73 16.797 117.432 16.7025 117.127 16.703H109.801C109.491 16.7018 109.188 16.799 108.934 16.981C108.68 17.1631 108.488 17.421 108.385 17.7189L106.91 21.982C106.808 22.2801 106.616 22.5382 106.362 22.7203C106.108 22.9024 105.805 22.9995 105.494 22.998C105.253 22.9978 105.014 22.9381 104.8 22.8239C104.586 22.7097 104.403 22.5443 104.265 22.3421C104.128 22.1399 104.04 21.9069 104.011 21.6629C103.982 21.4189 104.011 21.1714 104.096 20.9414L111.379 1.4848C111.543 1.04816 111.834 0.67241 112.212 0.407273C112.591 0.142136 113.04 0.000115251 113.5 0C113.959 0.000115251 114.408 0.142136 114.787 0.407273C115.165 0.67241 115.456 1.04816 115.62 1.4848L122.903 20.9414C122.988 21.1692 123.018 21.4145 122.99 21.6565C122.962 21.8984 122.878 22.1301 122.743 22.3319C122.609 22.5337 122.429 22.6998 122.218 22.816C122.008 22.9323 121.773 22.9954 121.533 23ZM116.844 12.884L114.317 5.45592C114.256 5.27445 114.141 5.1169 113.987 5.00535C113.834 4.8938 113.65 4.83382 113.461 4.83382C113.272 4.83382 113.089 4.8938 112.935 5.00535C112.782 5.1169 112.666 5.27445 112.605 5.45592L110.079 12.884C110.032 13.0227 110.018 13.1708 110.038 13.316C110.059 13.4612 110.113 13.5992 110.197 13.7187C110.281 13.8382 110.391 13.9356 110.52 14.0029C110.648 14.0702 110.79 14.1054 110.934 14.1056H115.992C116.136 14.1052 116.278 14.0698 116.406 14.0024C116.534 13.935 116.644 13.8374 116.727 13.7179C116.811 13.5984 116.865 13.4603 116.885 13.3153C116.905 13.1702 116.891 13.0224 116.844 12.884Z" fill="white"/>
<path d="M139.778 2.64238H136.087C135.763 2.64238 135.453 2.78169 135.223 3.02965C134.994 3.27761 134.865 3.61392 134.865 3.9646V21.6798C134.865 21.8534 134.834 22.0252 134.772 22.1855C134.711 22.3458 134.621 22.4914 134.507 22.6141C134.394 22.7367 134.259 22.8339 134.111 22.9001C133.963 22.9663 133.804 23.0003 133.643 23H133.328C133.168 23.0003 133.009 22.9663 132.861 22.9001C132.712 22.8339 132.578 22.7367 132.464 22.6141C132.351 22.4914 132.261 22.3458 132.199 22.1855C132.138 22.0252 132.106 21.8534 132.106 21.6798V3.9646C132.106 3.79106 132.075 3.61917 132.014 3.45876C131.953 3.29835 131.863 3.15258 131.749 3.02977C131.636 2.90697 131.501 2.80954 131.353 2.74307C131.205 2.6766 131.046 2.64238 130.886 2.64238H127.222C126.898 2.64238 126.587 2.50308 126.358 2.25511C126.129 2.00715 126 1.67084 126 1.32017C126 1.14663 126.032 0.97479 126.093 0.814487C126.154 0.654183 126.245 0.508554 126.358 0.385939C126.472 0.263324 126.606 0.166129 126.754 0.0999061C126.903 0.0336828 127.062 -0.000268709 127.222 1.60146e-06H139.778C139.938 -0.000268709 140.097 0.0336828 140.246 0.0999061C140.394 0.166129 140.528 0.263324 140.642 0.385939C140.755 0.508554 140.846 0.654183 140.907 0.814487C140.968 0.97479 141 1.14663 141 1.32017C141 1.67084 140.871 2.00715 140.642 2.25511C140.413 2.50308 140.102 2.64238 139.778 2.64238Z" fill="white"/>
<path d="M159.564 23C159.376 23 159.189 22.9616 159.015 22.887C158.841 22.8124 158.683 22.703 158.549 22.5652C158.416 22.4273 158.31 22.2636 158.238 22.0835C158.166 21.9034 158.129 21.7103 158.129 21.5153V14.1126C158.129 13.7188 157.978 13.3412 157.708 13.0627C157.439 12.7843 157.074 12.6279 156.693 12.6279H148.307C147.926 12.6279 147.561 12.7843 147.292 13.0627C147.022 13.3412 146.871 13.7188 146.871 14.1126V21.5153C146.871 21.9091 146.72 22.2867 146.451 22.5652C146.181 22.8436 145.816 23 145.436 23C145.055 23 144.69 22.8436 144.42 22.5652C144.151 22.2867 144 21.9091 144 21.5153V1.48467C144 1.09091 144.151 0.713277 144.42 0.434848C144.69 0.156419 145.055 0 145.436 0C145.816 0 146.181 0.156419 146.451 0.434848C146.72 0.713277 146.871 1.09091 146.871 1.48467V8.50908C146.871 8.90302 147.022 9.28087 147.291 9.55962C147.561 9.83838 147.926 9.99526 148.307 9.9958H156.693C157.074 9.99526 157.439 9.83838 157.709 9.55962C157.978 9.28087 158.129 8.90302 158.129 8.50908V1.48467C158.129 1.2897 158.166 1.09664 158.238 0.916511C158.31 0.736383 158.416 0.572712 158.549 0.434848C158.683 0.296984 158.841 0.187625 159.015 0.113014C159.189 0.0384023 159.376 0 159.564 0C159.945 0 160.31 0.156419 160.58 0.434848C160.849 0.713277 161 1.09091 161 1.48467V21.5153C161 21.9091 160.849 22.2867 160.58 22.5652C160.31 22.8436 159.945 23 159.564 23Z" fill="white"/>
<path d="M69.7253 6.34908C69.6336 6.09539 69.4652 5.87625 69.2434 5.72184C69.0216 5.56742 68.7572 5.48533 68.4866 5.48686C68.216 5.48839 67.9526 5.57346 67.7326 5.73037C67.5125 5.88727 67.3467 6.1083 67.2579 6.36301L61.9056 21.5419C61.8033 21.8328 61.6128 22.0849 61.3605 22.2632C61.1082 22.4415 60.8064 22.5373 60.4971 22.5373C60.2547 22.5381 60.0158 22.48 59.801 22.3681C59.5862 22.2562 59.4019 22.0938 59.2642 21.895C59.1265 21.6962 59.0395 21.467 59.0106 21.2272C58.9818 20.9874 59.012 20.7441 59.0986 20.5185L66.3848 1.45139C66.5485 1.02481 66.8381 0.657725 67.2155 0.398599C67.5929 0.139473 68.0403 0.000488458 68.4986 6.58651e-08C68.9588 -0.000110799 69.4082 0.139737 69.7866 0.40086C70.165 0.661982 70.4545 1.03195 70.6163 1.46134L82.9052 33.9912C82.9898 34.2162 83.0184 34.4584 82.9885 34.6968C82.9587 34.9353 82.8713 35.1631 82.7338 35.3605C82.5963 35.558 82.4129 35.7193 82.1992 35.8307C81.9855 35.9421 81.7479 36.0001 81.5067 36C81.2008 36 80.9023 35.9059 80.652 35.7306C80.4017 35.5553 80.2118 35.3073 80.1082 35.0205C78.5219 30.6444 72.0608 12.8315 69.7253 6.34908Z" fill="url(#paint0_linear_255_2)"/>
<path d="M99.4928 23C99.1814 23.0006 98.8774 22.9032 98.6225 22.7214C98.3676 22.5395 98.1743 22.2819 98.0691 21.984L92.5563 6.24225C92.4767 6.01578 92.3301 5.81989 92.1366 5.68138C91.9431 5.54287 91.7122 5.46852 91.4756 5.46852C91.2389 5.46852 91.008 5.54287 90.8146 5.68138C90.6211 5.81989 90.4745 6.01578 90.3948 6.24225L85.112 21.2789C84.9335 21.7809 84.6077 22.2151 84.1786 22.5229C83.7495 22.8307 83.2377 22.9972 82.7125 23C82.192 23.0003 81.6837 22.8397 81.2552 22.5396C80.8266 22.2395 80.498 21.8139 80.313 21.3196L73.0986 2.07465C73.012 1.84358 72.9818 1.59463 73.0106 1.3491C73.0393 1.10358 73.1262 0.868788 73.2638 0.664853C73.4014 0.460918 73.5856 0.293911 73.8006 0.178121C74.0156 0.0623319 74.255 0.00121234 74.4983 5.33679e-07C74.8026 0.00211289 75.0992 0.0977692 75.349 0.274394C75.5988 0.451018 75.7902 0.70034 75.898 0.989575L81.6967 16.6521C81.7788 16.8747 81.9266 17.0661 82.1199 17.2C82.3132 17.3339 82.5426 17.4037 82.7765 17.3999C83.0104 17.3961 83.2374 17.3189 83.4264 17.1788C83.6154 17.0388 83.7572 16.8427 83.8322 16.6175L88.7872 1.92225C88.9763 1.36147 89.3332 0.874759 89.8078 0.530122C90.2825 0.185485 90.8512 0.000145719 91.4346 5.33679e-07C92.0089 -0.000356891 92.5695 0.178829 93.0402 0.513248C93.511 0.847667 93.8691 1.32114 94.066 1.86943L100.909 20.9375C100.992 21.1693 101.019 21.4179 100.987 21.6625C100.956 21.9071 100.867 22.1404 100.728 22.3427C100.589 22.545 100.405 22.7103 100.19 22.8247C99.9745 22.9392 99.7355 22.9993 99.4928 23Z" fill="url(#paint1_linear_255_2)"/>
<defs>
<linearGradient id="paint0_linear_255_2" x1="239.21" y1="33.3222" x2="223.325" y2="-45.4673" gradientUnits="userSpaceOnUse">
<stop stop-color="#1D71B8"/>
<stop offset="1" stop-color="#662483"/>
</linearGradient>
<linearGradient id="paint1_linear_255_2" x1="102.324" y1="22.8882" x2="62.5579" y2="-5.94632" gradientUnits="userSpaceOnUse">
<stop stop-color="#1D71B8"/>
<stop offset="1" stop-color="#662483"/>
</linearGradient>
</defs>
</svg>
