<svg width="10" height="162" viewBox="0 0 10 162" fill="none" xmlns="http://www.w3.org/2000/svg">
<path d="M9.084 158.521C9.084 159.065 8.988 159.541 8.796 159.949C8.604 160.357 8.344 160.677 8.016 160.909C7.688 161.133 7.324 161.261 6.924 161.293L6.924 160.729C7.364 160.665 7.756 160.461 8.1 160.117C8.444 159.765 8.616 159.233 8.616 158.521C8.616 158.105 8.54 157.745 8.388 157.441C8.236 157.129 8.028 156.889 7.764 156.721C7.5 156.553 7.208 156.469 6.888 156.469C6.48 156.469 6.156 156.569 5.916 156.769C5.676 156.961 5.496 157.205 5.376 157.501C5.256 157.789 5.128 158.181 4.992 158.677C4.848 159.221 4.704 159.661 4.56 159.997C4.416 160.325 4.196 160.605 3.9 160.837C3.596 161.061 3.184 161.173 2.664 161.173C2.264 161.173 1.9 161.069 1.572 160.861C1.236 160.645 0.971998 160.341 0.779997 159.949C0.587997 159.557 0.491997 159.105 0.491997 158.593C0.491997 157.849 0.675997 157.249 1.044 156.793C1.412 156.337 1.864 156.065 2.4 155.977L2.4 156.553C2.184 156.601 1.964 156.709 1.74 156.877C1.516 157.037 1.332 157.269 1.188 157.573C1.036 157.869 0.959998 158.225 0.959998 158.641C0.959998 159.201 1.116 159.673 1.428 160.057C1.732 160.441 2.14 160.633 2.652 160.633C3.06 160.633 3.388 160.533 3.636 160.333C3.876 160.133 4.06 159.889 4.188 159.601C4.308 159.305 4.432 158.909 4.56 158.413C4.712 157.861 4.86 157.425 5.004 157.105C5.14 156.777 5.36 156.501 5.664 156.277C5.96 156.045 6.364 155.929 6.876 155.929C7.252 155.929 7.608 156.029 7.944 156.229C8.28 156.429 8.556 156.725 8.772 157.117C8.98 157.501 9.084 157.969 9.084 158.521ZM4.8 130.649C3.968 130.649 3.228 130.477 2.58 130.133C1.924 129.781 1.412 129.301 1.044 128.693C0.675996 128.077 0.491996 127.389 0.491996 126.629C0.491996 125.669 0.715996 124.861 1.164 124.205C1.612 123.549 2.24 123.069 3.048 122.765L3.048 123.389C2.408 123.629 1.904 124.029 1.536 124.589C1.16 125.141 0.971996 125.821 0.971996 126.629C0.971996 127.277 1.128 127.865 1.44 128.393C1.744 128.921 2.188 129.337 2.772 129.641C3.348 129.945 4.024 130.097 4.8 130.097C5.568 130.097 6.24 129.945 6.816 129.641C7.384 129.337 7.824 128.921 8.136 128.393C8.448 127.865 8.604 127.277 8.604 126.629C8.604 125.821 8.42 125.141 8.052 124.589C7.676 124.029 7.168 123.629 6.528 123.389L6.528 122.765C7.336 123.069 7.964 123.549 8.412 124.205C8.86 124.861 9.084 125.669 9.084 126.629C9.084 127.389 8.904 128.077 8.544 128.693C8.176 129.301 7.668 129.781 7.02 130.133C6.364 130.477 5.624 130.649 4.8 130.649ZM9 92.5305L5.41199 94.6905L5.41199 94.7385L5.412 96.5385L9 96.5385L9 97.0785L0.575995 97.0785L0.575995 94.7625C0.575995 93.8265 0.795995 93.1265 1.23599 92.6625C1.67599 92.1905 2.25999 91.9545 2.98799 91.9545C3.63599 91.9545 4.17199 92.1385 4.59599 92.5065C5.01199 92.8665 5.26799 93.3945 5.364 94.0905L9 91.8825L9 92.5305ZM4.956 96.5385L4.956 94.7385C4.956 93.9945 4.77599 93.4385 4.41599 93.0705C4.05599 92.7025 3.57999 92.5185 2.98799 92.5185C1.69999 92.5185 1.05599 93.2665 1.05599 94.7625L1.05599 96.5385L4.956 96.5385ZM9.09599 62.5959C9.09599 63.3719 8.91599 64.0719 8.55599 64.6959C8.18799 65.3199 7.67599 65.8079 7.01999 66.1599C6.36399 66.5119 5.62399 66.6879 4.79999 66.6879C3.96799 66.6879 3.22799 66.5119 2.57999 66.1599C1.92399 65.8079 1.41599 65.3199 1.05599 64.6959C0.687994 64.0719 0.503994 63.3719 0.503994 62.5959C0.503994 61.8199 0.687993 61.1199 1.05599 60.4959C1.41599 59.8719 1.92399 59.3839 2.57999 59.0319C3.22799 58.6799 3.96799 58.5039 4.79999 58.5039C5.62399 58.5039 6.36399 58.6799 7.01999 59.0319C7.67599 59.3839 8.18799 59.8719 8.55599 60.4959C8.91599 61.1199 9.09599 61.8199 9.09599 62.5959ZM8.61599 62.5959C8.61599 61.9319 8.45999 61.3319 8.14799 60.7959C7.83599 60.2599 7.39199 59.8399 6.81599 59.5359C6.23999 59.2239 5.56799 59.0679 4.79999 59.0679C4.02399 59.0679 3.34799 59.2239 2.77199 59.5359C2.19599 59.8399 1.75199 60.2599 1.43999 60.7959C1.12799 61.3319 0.971993 61.9319 0.971993 62.5959C0.971993 63.2599 1.12799 63.8599 1.43999 64.3959C1.75199 64.9319 2.19599 65.3559 2.77199 65.6679C3.34799 65.9799 4.02399 66.1359 4.79999 66.1359C5.56799 66.1359 6.23999 65.9799 6.81599 65.6679C7.39199 65.3559 7.83599 64.9319 8.14799 64.3959C8.45999 63.8599 8.61599 63.2599 8.61599 62.5959ZM8.54399 32.3315L8.54399 29.1995L8.99999 29.1995L8.99999 32.8715L0.575992 32.8715L0.575992 32.3315L8.54399 32.3315ZM8.54399 3.43303L8.54399 0.301031L8.99999 0.301031L8.99999 3.97303L0.575991 3.97303L0.575991 3.43303L8.54399 3.43303Z" fill="white"/>
</svg>