<svg width="427" height="318" viewBox="0 0 427 318" fill="none" xmlns="http://www.w3.org/2000/svg">
<path d="M304.418 248.636C307.329 248.707 310.21 248.04 312.794 246.698L422.938 183.107C425.163 181.803 426.36 180.032 426.36 178.046C426.36 175.713 424.613 173.356 421.574 171.597L211.539 50.3497C205.832 47.0595 197.181 46.7006 192.192 49.5601L82.0476 113.151C79.8462 114.431 78.6258 116.202 78.6258 118.152C78.6258 120.485 80.3727 122.842 83.4116 124.601L293.495 245.884C296.845 247.711 300.603 248.658 304.418 248.636ZM312.602 246.243C307.816 249.019 299.31 248.636 293.734 245.442L83.6629 124.206C80.7555 122.531 79.0925 120.342 79.0925 118.224C79.0925 116.453 80.2889 114.826 82.287 113.642L192.431 50.0267C197.217 47.2509 205.724 47.6338 211.299 50.8163L421.383 172.064C424.278 173.739 425.941 175.928 425.941 178.046C425.941 179.817 424.804 181.444 422.747 182.628L312.602 246.243Z" fill="#41AFFF"/>
<path d="M78.8651 88.7794L94.6821 91.4953L192.312 35.1309C197.217 32.3073 205.772 32.6543 211.455 35.9206L398.208 143.756L426.168 148.542V158.46C426.168 160.267 425.116 162.05 422.878 163.246L312.698 226.909C307.804 229.744 299.25 229.385 293.555 226.119L83.5432 104.836C80.4922 103.077 78.9249 100.828 78.8771 98.6979L78.8651 88.7794Z" fill="url(#paint0_linear_164_848)"/>
<path d="M312.698 216.93L422.842 153.328C427.748 150.504 427.125 145.563 421.478 142.296L211.419 21.013C205.772 17.7467 197.217 17.4237 192.276 20.2234L82.1311 83.8143C77.2377 86.6499 77.8479 91.5792 83.5071 94.8455L293.555 216.141C299.274 219.395 307.828 219.754 312.698 216.93Z" fill="#C7C6F8"/>
<path d="M83.543 94.8453L293.555 216.141C299.214 219.395 307.768 219.73 312.698 216.93L422.842 153.327C423.669 152.928 424.392 152.343 424.956 151.619C425.521 150.895 425.911 150.051 426.096 149.152C426.396 151.186 425.343 153.184 422.842 154.62L312.698 218.211C307.804 221.046 299.25 220.687 293.555 217.421L83.543 96.1375C80.1571 94.1753 78.5898 91.6269 78.9247 89.2819C79.2119 91.244 80.7672 93.2421 83.543 94.8453Z" fill="white"/>
<path d="M312.507 214.466L418.727 153.124C423.513 150.384 422.866 145.598 417.399 142.44L211.228 23.4417C205.748 20.2831 197.469 19.9361 192.731 22.676L86.5106 84.0176C81.7248 86.7574 82.3589 91.5312 87.8386 94.6898L294.01 213.7C299.537 216.859 307.769 217.194 312.507 214.466Z" fill="url(#paint1_linear_164_848)"/>
<path style="mix-blend-mode:lighten" opacity="0.8" d="M304.478 213.939C307.337 214.013 310.166 213.354 312.698 212.025L418.918 150.671C419.873 150.231 420.691 149.54 421.285 148.672C421.879 147.804 422.227 146.792 422.292 145.742C422.292 143.445 420.581 141.136 417.59 139.413L211.419 20.4026C205.856 17.1962 197.409 16.8133 192.587 19.6369L86.3669 80.9785C85.4104 81.4217 84.5911 82.1145 83.9952 82.9841C83.3994 83.8537 83.049 84.8679 82.981 85.9198C82.981 88.217 84.6919 90.5261 87.683 92.249L293.842 211.259C297.103 213.039 300.763 213.961 304.478 213.939ZM312.327 211.463C307.697 214.143 299.549 213.796 294.189 210.697L88.006 91.6628C85.2422 90.0595 83.651 87.9657 83.651 85.9198C83.7209 84.9913 84.0386 84.0986 84.571 83.3347C85.1034 82.5708 85.8311 81.9637 86.678 81.5767L192.898 20.2352C197.54 17.5551 205.688 17.8422 211.048 21.0009L417.231 139.999C419.995 141.602 421.586 143.696 421.586 145.742C421.516 146.67 421.199 147.563 420.666 148.327C420.134 149.091 419.406 149.698 418.559 150.085L312.327 211.463Z" fill="url(#paint2_linear_164_848)"/>
<path style="mix-blend-mode:lighten" opacity="0.3" d="M304.478 205.07C307.337 205.144 310.166 204.485 312.698 203.156L418.918 141.802C419.873 141.362 420.691 140.671 421.285 139.803C421.879 138.935 422.227 137.923 422.292 136.873C422.292 134.576 420.581 132.267 417.59 130.544L211.419 11.5336C205.856 8.32715 197.409 7.94431 192.587 10.7679L86.3669 72.1095C85.4104 72.5526 84.5911 73.2455 83.9952 74.1151C83.3994 74.9847 83.049 75.9988 82.981 77.0508C82.981 79.348 84.6919 81.6571 87.683 83.38L293.842 202.39C297.103 204.17 300.763 205.092 304.478 205.07ZM312.327 202.594C307.697 205.274 299.549 204.927 294.189 201.828L88.006 82.7937C85.2422 81.1905 83.651 79.0967 83.651 77.0508C83.7209 76.1223 84.0386 75.2296 84.571 74.4657C85.1034 73.7018 85.8311 73.0947 86.678 72.7077L192.898 11.3661C197.54 8.6861 205.688 8.97323 211.048 12.1318L417.231 131.13C419.995 132.733 421.586 134.827 421.586 136.873C421.516 137.801 421.199 138.694 420.666 139.458C420.134 140.222 419.406 140.829 418.559 141.216L312.327 202.594Z" fill="url(#paint3_linear_164_848)"/>
<path style="mix-blend-mode:lighten" opacity="0.2" d="M304.478 196.201C307.337 196.275 310.166 195.616 312.698 194.287L418.918 132.933C419.873 132.493 420.691 131.802 421.285 130.934C421.879 130.066 422.227 129.054 422.292 128.004C422.292 125.707 420.581 123.398 417.59 121.675L211.419 2.6646C205.856 -0.54187 197.409 -0.924712 192.587 1.89889L86.3669 63.2405C85.4104 63.6836 84.5911 64.3765 83.9952 65.2461C83.3994 66.1157 83.049 67.1298 82.981 68.1818C82.981 70.479 84.6919 72.7881 87.683 74.511L293.842 193.521C297.103 195.3 300.763 196.223 304.478 196.201ZM312.327 193.725C307.697 196.405 299.549 196.058 294.189 192.959L88.006 73.9247C85.2422 72.3215 83.651 70.2277 83.651 68.1818C83.7209 67.2533 84.0386 66.3605 84.571 65.5966C85.1034 64.8327 85.8311 64.2257 86.678 63.8387L192.898 2.49711C197.54 -0.182918 205.688 0.104209 211.048 3.26282L417.231 122.261C419.995 123.864 421.586 125.958 421.586 128.004C421.516 128.932 421.199 129.825 420.666 130.589C420.134 131.353 419.406 131.96 418.559 132.347L312.327 193.725Z" fill="url(#paint4_linear_164_848)"/>
<g opacity="0.1">
<path style="mix-blend-mode:lighten" d="M312.507 211.726L418.727 150.384C423.513 147.644 422.866 142.859 417.399 139.7L211.228 20.7018C205.748 17.5432 197.469 17.1963 192.731 19.9361L86.5106 81.2777C81.7248 84.0176 82.3589 88.7914 87.8386 91.95L294.01 210.96C299.537 214.119 307.769 214.466 312.507 211.726Z" fill="url(#paint5_radial_164_848)"/>
</g>
<path d="M304.418 248.636C307.329 248.707 310.21 248.04 312.794 246.698L422.938 183.107C425.163 181.803 426.36 180.032 426.36 178.046C426.36 175.713 424.613 173.356 421.574 171.597L211.539 50.3497C205.832 47.0595 197.181 46.7006 192.192 49.5601L82.0476 113.151C79.8462 114.431 78.6258 116.202 78.6258 118.152C78.6258 120.485 80.3727 122.842 83.4116 124.601L293.495 245.884C296.845 247.711 300.603 248.658 304.418 248.636ZM312.602 246.243C307.816 249.019 299.31 248.636 293.734 245.442L83.6629 124.206C80.7555 122.531 79.0925 120.342 79.0925 118.224C79.0925 116.453 80.2889 114.826 82.287 113.642L192.431 50.0267C197.217 47.2509 205.724 47.6338 211.299 50.8163L421.383 172.064C424.278 173.739 425.941 175.928 425.941 178.046C425.941 179.817 424.804 181.444 422.747 182.628L312.602 246.243Z" fill="#41AFFF"/>
<path d="M78.8651 88.7794L94.6821 91.4953L192.312 35.1309C197.217 32.3073 205.772 32.6543 211.455 35.9206L398.208 143.756L426.168 148.542V158.46C426.168 160.267 425.116 162.05 422.878 163.246L312.698 226.909C307.804 229.744 299.25 229.385 293.555 226.119L83.5432 104.836C80.4922 103.077 78.9249 100.828 78.8771 98.6979L78.8651 88.7794Z" fill="url(#paint6_linear_164_848)"/>
<path d="M312.698 216.93L422.842 153.328C427.748 150.504 427.125 145.563 421.478 142.296L211.419 21.013C205.772 17.7467 197.217 17.4237 192.276 20.2234L82.1311 83.8143C77.2377 86.6499 77.8479 91.5792 83.5071 94.8455L293.555 216.141C299.274 219.395 307.828 219.754 312.698 216.93Z" fill="#C7C6F8"/>
<path d="M83.543 94.8453L293.555 216.141C299.214 219.395 307.768 219.73 312.698 216.93L422.842 153.327C423.669 152.928 424.392 152.343 424.956 151.619C425.521 150.895 425.911 150.051 426.096 149.152C426.396 151.186 425.343 153.184 422.842 154.62L312.698 218.211C307.804 221.046 299.25 220.687 293.555 217.421L83.543 96.1375C80.1571 94.1753 78.5898 91.6269 78.9247 89.2819C79.2119 91.244 80.7672 93.2421 83.543 94.8453Z" fill="white"/>
<path d="M312.507 214.466L418.727 153.124C423.513 150.384 422.866 145.598 417.399 142.44L211.228 23.4417C205.748 20.2831 197.469 19.9361 192.731 22.676L86.5106 84.0176C81.7248 86.7574 82.3589 91.5312 87.8386 94.6898L294.01 213.7C299.537 216.859 307.769 217.194 312.507 214.466Z" fill="url(#paint7_linear_164_848)"/>
<path style="mix-blend-mode:lighten" opacity="0.8" d="M304.478 213.939C307.337 214.013 310.166 213.354 312.698 212.025L418.918 150.671C419.873 150.231 420.691 149.54 421.285 148.672C421.879 147.804 422.227 146.792 422.292 145.742C422.292 143.445 420.581 141.136 417.59 139.413L211.419 20.4026C205.856 17.1962 197.409 16.8133 192.587 19.6369L86.3669 80.9785C85.4104 81.4217 84.5911 82.1145 83.9952 82.9841C83.3994 83.8537 83.049 84.8679 82.981 85.9198C82.981 88.217 84.6919 90.5261 87.683 92.249L293.842 211.259C297.103 213.039 300.763 213.961 304.478 213.939ZM312.327 211.463C307.697 214.143 299.549 213.796 294.189 210.697L88.006 91.6628C85.2422 90.0595 83.651 87.9657 83.651 85.9198C83.7209 84.9913 84.0386 84.0986 84.571 83.3347C85.1034 82.5708 85.8311 81.9637 86.678 81.5767L192.898 20.2352C197.54 17.5551 205.688 17.8422 211.048 21.0009L417.231 139.999C419.995 141.602 421.586 143.696 421.586 145.742C421.516 146.67 421.199 147.563 420.666 148.327C420.134 149.091 419.406 149.698 418.559 150.085L312.327 211.463Z" fill="url(#paint8_linear_164_848)"/>
<path style="mix-blend-mode:lighten" opacity="0.3" d="M304.478 205.07C307.337 205.144 310.166 204.485 312.698 203.156L418.918 141.802C419.873 141.362 420.691 140.671 421.285 139.803C421.879 138.935 422.227 137.923 422.292 136.873C422.292 134.576 420.581 132.267 417.59 130.544L211.419 11.5336C205.856 8.32715 197.409 7.94431 192.587 10.7679L86.3669 72.1095C85.4104 72.5526 84.5911 73.2455 83.9952 74.1151C83.3994 74.9847 83.049 75.9988 82.981 77.0508C82.981 79.348 84.6919 81.6571 87.683 83.38L293.842 202.39C297.103 204.17 300.763 205.092 304.478 205.07ZM312.327 202.594C307.697 205.274 299.549 204.927 294.189 201.828L88.006 82.7937C85.2422 81.1905 83.651 79.0967 83.651 77.0508C83.7209 76.1223 84.0386 75.2296 84.571 74.4657C85.1034 73.7018 85.8311 73.0947 86.678 72.7077L192.898 11.3661C197.54 8.6861 205.688 8.97323 211.048 12.1318L417.231 131.13C419.995 132.733 421.586 134.827 421.586 136.873C421.516 137.801 421.199 138.694 420.666 139.458C420.134 140.222 419.406 140.829 418.559 141.216L312.327 202.594Z" fill="url(#paint9_linear_164_848)"/>
<path style="mix-blend-mode:lighten" opacity="0.2" d="M304.478 196.201C307.337 196.275 310.166 195.616 312.698 194.287L418.918 132.933C419.873 132.493 420.691 131.802 421.285 130.934C421.879 130.066 422.227 129.054 422.292 128.004C422.292 125.707 420.581 123.398 417.59 121.675L211.419 2.6646C205.856 -0.54187 197.409 -0.924712 192.587 1.89889L86.3669 63.2405C85.4104 63.6836 84.5911 64.3765 83.9952 65.2461C83.3994 66.1157 83.049 67.1298 82.981 68.1818C82.981 70.479 84.6919 72.7881 87.683 74.511L293.842 193.521C297.103 195.3 300.763 196.223 304.478 196.201ZM312.327 193.725C307.697 196.405 299.549 196.058 294.189 192.959L88.006 73.9247C85.2422 72.3215 83.651 70.2277 83.651 68.1818C83.7209 67.2533 84.0386 66.3605 84.571 65.5966C85.1034 64.8327 85.8311 64.2257 86.678 63.8387L192.898 2.49711C197.54 -0.182918 205.688 0.104209 211.048 3.26282L417.231 122.261C419.995 123.864 421.586 125.958 421.586 128.004C421.516 128.932 421.199 129.825 420.666 130.589C420.134 131.353 419.406 131.96 418.559 132.347L312.327 193.725Z" fill="url(#paint10_linear_164_848)"/>
<g opacity="0.1">
<path style="mix-blend-mode:lighten" d="M312.507 211.726L418.727 150.384C423.513 147.644 422.866 142.859 417.399 139.7L211.228 20.7018C205.748 17.5432 197.469 17.1963 192.731 19.9361L86.5106 81.2777C81.7248 84.0176 82.3589 88.7914 87.8386 91.95L294.01 210.96C299.537 214.119 307.769 214.466 312.507 211.726Z" fill="url(#paint11_radial_164_848)"/>
</g>
<g filter="url(#filter0_d_164_848)">
<path d="M277.255 179.308C305.498 163.118 374.795 123.391 387.308 116.186L223.395 21.6674C210.882 28.8719 141.585 68.5993 113.343 84.7893C105.903 89.0542 101.358 96.9488 101.358 105.524V137.722C101.358 137.722 102.197 144.818 99.5634 148.957C97.3694 152.405 92.3848 155.669 92.3848 155.669L20 192.627L183.913 287.146L256.297 250.188C256.297 250.188 261.282 246.924 263.476 243.476C266.11 239.337 265.271 232.241 265.271 232.241V200.043C265.271 191.468 269.816 183.573 277.255 179.308Z" fill="#E4F4FF"/>
</g>
<path d="M129.842 217.208C133.252 215.007 134.903 211.906 139.325 210.151C141.6 209.247 155.961 209.018 152.919 211.828C149.761 214.745 144.981 217.589 138.694 217.762C132.843 217.923 128.905 218.888 124.799 221.259C121.988 222.881 120.391 224.118 125.292 224.392C131.261 224.726 134.31 222.042 138.968 220.768C143.585 219.506 142.433 222.699 141.791 224.55C141.19 226.285 149.294 223.168 150.808 224.819C152.452 226.611 150.089 228.304 154.289 225.879C157.814 223.844 158.31 222.59 161.908 224.898C166.272 227.698 161.546 230.322 158.071 232.241C156.561 233.075 154.722 233.723 153.138 234.519C152.663 234.758 152.098 234.892 151.607 234.963M151.607 234.963C150.442 235.131 149.701 234.944 151.607 234.963ZM151.607 234.963C151.941 234.966 152.356 234.975 152.864 234.994C156.878 235.142 160.71 235.466 164.704 235.722C167.237 235.884 165.334 236.475 164.43 237.146C162.099 238.876 170.077 239.212 171.282 239.994C172.062 240.501 171.171 241.41 171.227 241.988C171.288 242.622 173.277 243.425 173.995 243.839L180.162 247.4M107.594 208.099L187.514 254.242" stroke="#1F0E31" stroke-linecap="round"/>
<path d="M228.419 61.6789C227.897 61.3772 227.511 61.0546 227.261 60.7112C227.018 60.3718 226.937 60.0383 227.018 59.7106C227.099 59.3828 227.357 59.0894 227.791 58.8303L229.402 59.7603C229.126 59.944 228.999 60.1414 229.02 60.3526C229.048 60.5679 229.234 60.7747 229.577 60.9731C229.928 61.1757 230.283 61.289 230.642 61.3131C231.008 61.3332 231.322 61.2676 231.585 61.1162C231.798 60.9927 231.906 60.8519 231.908 60.6937C231.91 60.5355 231.846 60.3745 231.714 60.2109C231.596 60.0473 231.407 59.8344 231.145 59.5719C230.797 59.2112 230.534 58.9042 230.357 58.6507C230.194 58.3975 230.137 58.1291 230.184 57.8456C230.245 57.5623 230.503 57.2892 230.959 57.0263C231.386 56.7793 231.87 56.6283 232.409 56.5731C232.949 56.518 233.501 56.5584 234.068 56.6942C234.641 56.8261 235.186 57.0408 235.701 57.3384C236.474 57.7848 236.918 58.252 237.032 58.74C237.16 59.2282 236.925 59.674 236.326 60.0774L234.672 59.1226C234.907 58.971 234.999 58.7894 234.95 58.5779C234.915 58.3666 234.73 58.1638 234.393 57.9695C234.1 57.8001 233.791 57.7055 233.467 57.6858C233.15 57.6703 232.854 57.7422 232.578 57.9015C232.385 58.0131 232.287 58.1439 232.285 58.294C232.297 58.4442 232.358 58.599 232.468 58.7584C232.593 58.918 232.783 59.1309 233.037 59.3973C233.386 59.7581 233.645 60.0671 233.815 60.3245C233.985 60.5819 234.043 60.8543 233.989 61.1418C233.935 61.4293 233.683 61.7024 233.235 61.9614C232.848 62.1844 232.386 62.3317 231.847 62.403C231.308 62.4744 230.738 62.4521 230.137 62.3361C229.543 62.2162 228.971 61.9971 228.419 61.6789Z" fill="black"/>
<path d="M245.652 64.8281C246.382 65.2497 246.752 65.7141 246.761 66.2213C246.784 66.7287 246.409 67.2054 245.636 67.6516L242.273 69.5935L240.77 68.7256L243.936 66.8971C244.385 66.6382 244.608 66.3728 244.607 66.101C244.612 65.8252 244.411 65.5695 244.002 65.3339C243.594 65.0983 243.148 64.98 242.663 64.9789C242.192 64.9779 241.733 65.1069 241.284 65.3658L238.117 67.1943L236.614 66.3263L239.781 64.4979C240.229 64.239 240.453 63.9736 240.451 63.7018C240.456 63.4259 240.255 63.1702 239.847 62.9347C239.432 62.6949 238.982 62.5745 238.497 62.5734C238.026 62.5725 237.566 62.7015 237.118 62.9604L233.951 64.7888L232.448 63.9208L238.181 60.6106L239.684 61.4785L238.991 61.8789C239.426 61.851 239.862 61.8841 240.301 61.978C240.747 62.0761 241.152 62.2305 241.518 62.4413C241.983 62.7099 242.301 63.0054 242.473 63.3277C242.652 63.6461 242.666 63.9647 242.514 64.2836C243.039 64.2039 243.584 64.2118 244.149 64.307C244.721 64.4064 245.222 64.5801 245.652 64.8281Z" fill="black"/>
<path d="M246.2 68.5269C246.78 68.1923 247.412 67.9637 248.097 67.8411C248.789 67.7227 249.459 67.7116 250.109 67.8078C250.766 67.9081 251.348 68.105 251.856 68.3984C252.3 68.6547 252.6 68.9276 252.757 69.2173C252.921 69.5112 252.972 69.7917 252.911 70.0588L253.728 69.5867L255.242 70.4609L249.509 73.7711L247.995 72.897L248.833 72.413C248.371 72.4568 247.878 72.4312 247.355 72.3364C246.846 72.2417 246.37 72.0663 245.926 71.81C245.425 71.5207 245.091 71.1845 244.924 70.8014C244.764 70.4224 244.787 70.0332 244.992 69.6337C245.211 69.2344 245.614 68.8655 246.2 68.5269ZM250.861 71.2419C251.213 71.0387 251.442 70.8241 251.547 70.598C251.659 70.368 251.659 70.1448 251.547 69.9286C251.441 69.7084 251.249 69.5177 250.97 69.3565C250.691 69.1954 250.367 69.0844 250 69.0237C249.633 68.963 249.246 68.9629 248.841 69.0235C248.449 69.0843 248.081 69.2142 247.736 69.4134C247.391 69.6126 247.159 69.8292 247.04 70.0632C246.935 70.2974 246.932 70.5225 247.03 70.7386C247.135 70.9588 247.324 71.1474 247.596 71.3045C247.875 71.4657 248.202 71.5787 248.577 71.6435C248.958 71.7044 249.344 71.7044 249.736 71.6437C250.134 71.579 250.51 71.445 250.861 71.2419Z" fill="black"/>
<path d="M257.324 72.6904C257.821 72.6267 258.309 72.6339 258.79 72.7121C259.277 72.7943 259.721 72.9512 260.122 73.1827L258.601 74.061L258.203 73.8316C257.731 73.5588 257.266 73.4139 256.809 73.3969C256.359 73.384 255.868 73.5309 255.337 73.8376L252.48 75.4868L250.977 74.6188L256.711 71.3086L258.214 72.1765L257.324 72.6904Z" fill="black"/>
<path d="M261.612 75.5127L258.838 77.1141C258.645 77.2256 258.55 77.3342 258.554 77.4397C258.571 77.5453 258.694 77.6643 258.923 77.7966L259.621 78.1995L258.4 78.9046L257.455 78.3591C256.188 77.6275 256.148 76.9191 257.335 76.234L260.098 74.6386L259.389 74.2294L260.579 73.5423L261.288 73.9514L262.706 73.1328L264.22 74.007L262.802 74.8256L264.134 75.5944L262.944 76.2815L261.612 75.5127Z" fill="black"/>
<path d="M265.297 78.704C266.008 78.2937 266.807 78.0223 267.696 77.8898C268.598 77.7574 269.49 77.7669 270.374 77.9183C271.271 78.0698 272.077 78.3522 272.793 78.7656C273.631 79.2491 274.158 79.7923 274.374 80.395C274.59 80.9977 274.457 81.5825 273.976 82.1494L272.248 81.1513C272.421 80.8529 272.436 80.563 272.294 80.2816C272.158 80.0043 271.887 79.7478 271.479 79.5122C271.042 79.2601 270.552 79.0926 270.008 79.0098C269.478 78.927 268.937 78.9335 268.385 79.029C267.841 79.1287 267.327 79.3179 266.844 79.5968C266.368 79.8716 266.04 80.1684 265.86 80.487C265.695 80.8057 265.68 81.1199 265.816 81.4297C265.967 81.7396 266.26 82.0207 266.697 82.2728C267.105 82.5084 267.549 82.6652 268.03 82.7434C268.524 82.8216 269.03 82.8108 269.546 82.7108L271.275 83.709C270.286 83.9905 269.27 84.069 268.226 83.9443C267.196 83.8197 266.259 83.5136 265.414 83.0259C264.698 82.6126 264.206 82.1489 263.936 81.6349C263.681 81.121 263.665 80.6056 263.887 80.0887C264.117 79.5759 264.587 79.1143 265.297 78.704Z" fill="black"/>
<path d="M272.831 87.3437C272.258 87.0131 271.863 86.6458 271.647 86.2419C271.437 85.8339 271.424 85.424 271.608 85.0122C271.798 84.6045 272.187 84.2313 272.773 83.8927C273.36 83.5541 274.01 83.3318 274.723 83.2258C275.444 83.124 276.157 83.1376 276.864 83.2669C277.578 83.3921 278.221 83.6201 278.794 83.9507C279.366 84.2814 279.761 84.6527 279.978 85.0648C280.202 85.4728 280.222 85.8828 280.038 86.2946C279.862 86.7106 279.481 87.0879 278.894 87.4265C278.308 87.7651 277.651 87.9833 276.923 88.081C276.202 88.1829 275.482 88.1691 274.761 88.0397C274.054 87.9105 273.411 87.6785 272.831 87.3437ZM274.093 86.6148C274.366 86.7718 274.682 86.8827 275.042 86.9474C275.417 87.0122 275.803 87.0123 276.202 86.9475C276.6 86.8828 276.982 86.7449 277.348 86.5338C277.893 86.2191 278.16 85.8913 278.149 85.5504C278.152 85.2096 277.939 84.9153 277.51 84.6673C277.08 84.4193 276.57 84.2962 275.98 84.2981C275.404 84.3 274.843 84.4584 274.298 84.7731C273.753 85.0878 273.472 85.4114 273.454 85.7438C273.451 86.0765 273.664 86.3668 274.093 86.6148Z" fill="black"/>
<path d="M286.243 88.2635C286.952 88.6727 287.307 89.1288 287.309 89.6319C287.318 90.131 286.936 90.6036 286.163 91.0498L282.8 92.9917L281.296 92.1238L284.463 90.2954C284.919 90.0325 285.149 89.7631 285.154 89.4873C285.166 89.2075 284.968 88.9498 284.56 88.7142C284.145 88.4745 283.692 88.3561 283.2 88.3589C282.722 88.362 282.256 88.4949 281.8 88.7579L278.633 90.5863L277.13 89.7183L282.864 86.4081L284.367 87.276L283.653 87.6883C284.102 87.6606 284.549 87.6958 284.995 87.7938C285.455 87.8921 285.871 88.0486 286.243 88.2635Z" fill="black"/>
<path d="M290.523 92.2045L287.749 93.8059C287.556 93.9174 287.461 94.0259 287.465 94.1315C287.482 94.2371 287.605 94.3561 287.834 94.4883L288.532 94.8913L287.311 95.5964L286.366 95.0508C285.099 94.3193 285.059 93.6109 286.246 92.9258L289.009 91.3304L288.3 90.9212L289.49 90.234L290.199 90.6432L291.617 89.8246L293.131 90.6988L291.713 91.5174L293.045 92.2861L291.855 92.9733L290.523 92.2045Z" fill="black"/>
<path d="M294.739 94.2922C295.236 94.2285 295.725 94.2358 296.205 94.3139C296.693 94.3962 297.137 94.553 297.538 94.7845L296.016 95.6628L295.619 95.4334C295.146 95.1607 294.682 95.0158 294.224 94.9987C293.774 94.9858 293.283 95.1327 292.752 95.4395L289.896 97.0886L288.392 96.2207L294.126 92.9104L295.629 93.7783L294.739 94.2922Z" fill="black"/>
<path d="M295.235 96.8369C295.814 96.5023 296.446 96.2737 297.131 96.1512C297.823 96.0328 298.494 96.0216 299.143 96.1178C299.8 96.2181 300.382 96.415 300.891 96.7084C301.335 96.9647 301.635 97.2377 301.792 97.5274C301.956 97.8212 302.007 98.1017 301.945 98.3688L302.763 97.8967L304.277 98.7709L298.543 102.081L297.029 101.207L297.867 100.723C297.405 100.767 296.912 100.741 296.389 100.646C295.88 100.552 295.404 100.376 294.96 100.12C294.459 99.8307 294.125 99.4945 293.958 99.1114C293.799 98.7324 293.821 98.3432 294.026 97.9437C294.245 97.5444 294.648 97.1755 295.235 96.8369ZM299.896 99.5519C300.248 99.3487 300.476 99.1341 300.581 98.908C300.694 98.678 300.693 98.4549 300.581 98.2386C300.476 98.0185 300.283 97.8278 300.004 97.6666C299.725 97.5054 299.402 97.3944 299.034 97.3337C298.667 97.273 298.281 97.273 297.875 97.3336C297.484 97.3943 297.115 97.5243 296.77 97.7234C296.425 97.9226 296.193 98.1392 296.074 98.3732C295.969 98.6074 295.966 98.8325 296.064 99.0486C296.17 99.2688 296.358 99.4574 296.63 99.6145C296.91 99.7757 297.236 99.8887 297.611 99.9535C297.992 100.014 298.379 100.014 298.77 99.9537C299.169 99.889 299.544 99.755 299.896 99.5519Z" fill="black"/>
<path d="M302.492 101.051C303.085 100.708 303.728 100.482 304.42 100.371C305.119 100.257 305.811 100.258 306.496 100.375C307.189 100.488 307.821 100.71 308.394 101.04C309.131 101.466 309.56 101.921 309.681 102.405C309.816 102.889 309.645 103.364 309.168 103.83L307.546 102.893C307.709 102.7 307.755 102.504 307.686 102.305C307.63 102.105 307.452 101.919 307.151 101.745C306.722 101.497 306.23 101.389 305.676 101.419C305.129 101.446 304.579 101.618 304.027 101.937C303.482 102.252 303.183 102.569 303.13 102.889C303.084 103.205 303.276 103.487 303.705 103.735C304.314 104.086 304.973 104.164 305.684 103.969L307.305 104.905C306.519 105.169 305.7 105.265 304.848 105.195C303.995 105.125 303.204 104.88 302.474 104.458C301.901 104.127 301.514 103.764 301.311 103.369C301.116 102.969 301.114 102.569 301.305 102.17C301.503 101.766 301.898 101.393 302.492 101.051Z" fill="black"/>
<path d="M312.765 105.046L309.991 106.647C309.798 106.759 309.703 106.867 309.706 106.973C309.724 107.078 309.847 107.197 310.076 107.33L310.774 107.733L309.553 108.438L308.608 107.892C307.341 107.16 307.301 106.452 308.487 105.767L311.251 104.172L310.542 103.762L311.732 103.075L312.441 103.484L313.859 102.666L315.373 103.54L313.955 104.359L315.286 105.127L314.096 105.814L312.765 105.046Z" fill="black"/>
<path d="M312.817 110.43C312.331 110.149 311.977 109.849 311.756 109.53C311.542 109.207 311.465 108.896 311.526 108.597C311.594 108.301 311.793 108.046 312.123 107.83L313.637 108.704C313.445 108.848 313.373 109.018 313.422 109.213C313.477 109.413 313.652 109.597 313.945 109.767C314.231 109.932 314.509 110.028 314.776 110.055C315.052 110.087 315.275 110.052 315.448 109.953C315.634 109.845 315.672 109.708 315.561 109.54C315.464 109.373 315.256 109.133 314.937 108.822C314.597 108.506 314.339 108.233 314.163 108.004C313.994 107.779 313.92 107.541 313.94 107.29C313.967 107.043 314.174 106.807 314.56 106.584C314.878 106.401 315.26 106.288 315.709 106.244C316.164 106.204 316.643 106.241 317.146 106.356C317.656 106.475 318.15 106.673 318.63 106.95C319.339 107.359 319.732 107.785 319.809 108.228C319.893 108.668 319.667 109.067 319.131 109.426L317.692 108.595C317.898 108.452 317.977 108.29 317.929 108.111C317.895 107.932 317.732 107.758 317.438 107.589C317.166 107.432 316.907 107.338 316.66 107.306C316.42 107.28 316.214 107.316 316.041 107.416C315.848 107.527 315.8 107.671 315.897 107.846C316.001 108.018 316.212 108.255 316.531 108.559C316.857 108.866 317.104 109.133 317.273 109.358C317.442 109.583 317.509 109.821 317.475 110.072C317.455 110.323 317.259 110.56 316.887 110.784C316.555 110.975 316.162 111.09 315.707 111.13C315.258 111.174 314.779 111.136 314.27 111.017C313.774 110.899 313.29 110.703 312.817 110.43Z" fill="black"/>
<rect width="139.951" height="4.56984" rx="2.28492" transform="matrix(0.866025 0.5 -0.866025 0.5 195.44 59.2283)" fill="#1F0E31"/>
<rect width="132.525" height="4.56984" rx="2.28492" transform="matrix(0.866025 0.5 -0.866025 0.5 190 66.3687)" fill="#1F0E31"/>
<rect width="137.667" height="4.56984" rx="2.28492" transform="matrix(0.866025 0.5 -0.866025 0.5 178.621 70.0815)" fill="#1F0E31"/>
<rect width="86.2558" height="4.56984" rx="2.28492" transform="matrix(0.866025 0.5 -0.866025 0.5 191.978 88.0754)" fill="#1F0E31"/>
<path d="M331.075 35.5727L327.486 36.7691C327.486 48.3267 339.648 90.0547 352.316 102.873C364.985 104.683 373.557 99.1755 373.557 87.6179L373.557 60.0997L331.075 35.5727Z" fill="url(#paint12_linear_164_848)"/>
<path d="M327.486 36.769L327.486 64.2872C327.486 75.8448 336.058 91.251 348.727 104.069C361.396 105.88 369.968 100.372 369.968 88.8143L369.968 61.2961L327.486 36.769Z" fill="#C7C6F8"/>
<path d="M330.569 42.1104L330.569 65.9256C330.569 76.0471 337.853 89.1829 348.616 100.16C359.379 101.611 366.662 96.8855 366.662 86.764L366.662 62.9487L330.569 42.1104Z" fill="url(#paint13_linear_164_848)"/>
<path d="M357.154 68.2554L345.081 74.9787L340.051 66.4184L335.775 69.0106L340.805 77.5707L344.831 84.6583L345.081 85.1003L361.431 75.4878L357.154 68.2554Z" fill="#C7C6F8"/>
<ellipse opacity="0.2" cx="349.022" cy="113.064" rx="11.9644" ry="2.99111" transform="rotate(25.3388 349.022 113.064)" fill="url(#paint14_radial_164_848)"/>
<defs>
<filter id="filter0_d_164_848" x="0" y="11.6674" width="407.308" height="305.479" filterUnits="userSpaceOnUse" color-interpolation-filters="sRGB">
<feFlood flood-opacity="0" result="BackgroundImageFix"/>
<feColorMatrix in="SourceAlpha" type="matrix" values="0 0 0 0 0 0 0 0 0 0 0 0 0 0 0 0 0 0 127 0" result="hardAlpha"/>
<feOffset dy="10"/>
<feGaussianBlur stdDeviation="10"/>
<feComposite in2="hardAlpha" operator="out"/>
<feColorMatrix type="matrix" values="0 0 0 0 0.254167 0 0 0 0 0.68675 0 0 0 0 1 0 0 0 0.25 0"/>
<feBlend mode="normal" in2="BackgroundImageFix" result="effect1_dropShadow_164_848"/>
<feBlend mode="normal" in="SourceGraphic" in2="effect1_dropShadow_164_848" result="shape"/>
</filter>
<linearGradient id="paint0_linear_164_848" x1="426.18" y1="131.026" x2="78.8651" y2="131.026" gradientUnits="userSpaceOnUse">
<stop stop-color="#BCBEFF"/>
<stop offset="1" stop-color="#5761D7"/>
</linearGradient>
<linearGradient id="paint1_linear_164_848" x1="200.878" y1="20.8334" x2="303.772" y2="215.854" gradientUnits="userSpaceOnUse">
<stop stop-color="#0F054C"/>
<stop offset="1" stop-color="#1F0E31"/>
</linearGradient>
<linearGradient id="paint2_linear_164_848" x1="204.145" y1="180.164" x2="301.092" y2="51.4982" gradientUnits="userSpaceOnUse">
<stop stop-color="#41AFFF"/>
<stop offset="1" stop-color="#0F054C"/>
</linearGradient>
<linearGradient id="paint3_linear_164_848" x1="204.145" y1="171.295" x2="301.092" y2="42.6292" gradientUnits="userSpaceOnUse">
<stop stop-color="#41AFFF"/>
<stop offset="1" stop-color="#0F054C"/>
</linearGradient>
<linearGradient id="paint4_linear_164_848" x1="204.145" y1="162.426" x2="301.092" y2="33.7602" gradientUnits="userSpaceOnUse">
<stop stop-color="#41AFFF"/>
<stop offset="1" stop-color="#0F054C"/>
</linearGradient>
<radialGradient id="paint5_radial_164_848" cx="0" cy="0" r="1" gradientUnits="userSpaceOnUse" gradientTransform="translate(261.143 119.109) rotate(180) scale(271.844 271.844)">
<stop stop-color="#41AFFF"/>
<stop offset="1" stop-color="#0F054C"/>
</radialGradient>
<linearGradient id="paint6_linear_164_848" x1="426.18" y1="131.026" x2="78.8651" y2="131.026" gradientUnits="userSpaceOnUse">
<stop stop-color="#BCBEFF"/>
<stop offset="1" stop-color="#5761D7"/>
</linearGradient>
<linearGradient id="paint7_linear_164_848" x1="200.878" y1="20.8334" x2="303.772" y2="215.854" gradientUnits="userSpaceOnUse">
<stop stop-color="#0F054C"/>
<stop offset="1" stop-color="#1F0E31"/>
</linearGradient>
<linearGradient id="paint8_linear_164_848" x1="204.145" y1="180.164" x2="301.092" y2="51.4982" gradientUnits="userSpaceOnUse">
<stop stop-color="#41AFFF"/>
<stop offset="1" stop-color="#0F054C"/>
</linearGradient>
<linearGradient id="paint9_linear_164_848" x1="204.145" y1="171.295" x2="301.092" y2="42.6292" gradientUnits="userSpaceOnUse">
<stop stop-color="#41AFFF"/>
<stop offset="1" stop-color="#0F054C"/>
</linearGradient>
<linearGradient id="paint10_linear_164_848" x1="204.145" y1="162.426" x2="301.092" y2="33.7602" gradientUnits="userSpaceOnUse">
<stop stop-color="#41AFFF"/>
<stop offset="1" stop-color="#0F054C"/>
</linearGradient>
<radialGradient id="paint11_radial_164_848" cx="0" cy="0" r="1" gradientUnits="userSpaceOnUse" gradientTransform="translate(261.143 119.109) rotate(180) scale(271.844 271.844)">
<stop stop-color="#41AFFF"/>
<stop offset="1" stop-color="#0F054C"/>
</radialGradient>
<linearGradient id="paint12_linear_164_848" x1="350.522" y1="46.8001" x2="326.69" y2="88.0773" gradientUnits="userSpaceOnUse">
<stop stop-color="#BCBEFF"/>
<stop offset="1" stop-color="#5761D7"/>
</linearGradient>
<linearGradient id="paint13_linear_164_848" x1="330.594" y1="42.153" x2="361.406" y2="113.31" gradientUnits="userSpaceOnUse">
<stop stop-color="#0F054C"/>
<stop offset="1" stop-color="#1F0E31"/>
</linearGradient>
<radialGradient id="paint14_radial_164_848" cx="0" cy="0" r="1" gradientUnits="userSpaceOnUse" gradientTransform="translate(349.022 113.064) rotate(90) scale(2.99111 11.9644)">
<stop stop-color="#1F0E31"/>
<stop offset="1" stop-color="#1F0E31" stop-opacity="0"/>
</radialGradient>
</defs>
</svg>