<svg width="354" height="309" viewBox="0 0 354 309" fill="none" xmlns="http://www.w3.org/2000/svg">
<line x1="54.3321" y1="103.85" x2="91.9716" y2="127.098" stroke="#41AFFF" stroke-width="0.5"/>
<line x1="180.536" y1="241.124" x2="198.249" y2="252.194" stroke="#41AFFF" stroke-width="0.5"/>
<line x1="260.244" y1="195.735" x2="298.991" y2="220.09" stroke="#41AFFF" stroke-width="0.5"/>
<path d="M112.83 277.204C110.137 277.27 107.471 276.653 105.081 275.411L3.16613 216.571C1.10703 215.365 0 213.726 0 211.889C0 209.73 1.61629 207.549 4.42818 205.922L198.77 93.7336C204.051 90.6892 212.055 90.3571 216.671 93.0029L318.586 151.842C320.623 153.027 321.752 154.665 321.752 156.47C321.752 158.629 320.135 160.809 317.324 162.437L122.937 274.658C119.838 276.348 116.36 277.224 112.83 277.204ZM105.258 274.99C109.686 277.558 117.557 277.204 122.716 274.248L317.091 162.071C319.781 160.522 321.32 158.496 321.32 156.536C321.32 154.898 320.213 153.392 318.364 152.296L216.45 93.4347C212.021 90.8663 204.15 91.2206 198.991 94.1653L4.60528 206.353C1.92623 207.903 0.387439 209.929 0.387439 211.889C0.387439 213.527 1.43918 215.033 3.3433 216.129L105.258 274.99Z" fill="#41AFFF"/>
<path d="M321.53 129.292L306.895 131.805L216.56 79.6519C212.021 77.0392 204.106 77.3603 198.848 80.3825L26.049 180.161L0.177246 184.589V193.766C0.177246 195.438 1.15145 197.087 3.22162 198.194L105.169 257.1C109.697 259.724 117.613 259.392 122.882 256.37L317.202 144.148C320.025 142.521 321.475 140.44 321.519 138.469L321.53 129.292Z" fill="url(#paint0_linear_177_1086)"/>
<path d="M105.169 247.868L3.2548 189.017C-1.28408 186.404 -0.708405 181.832 4.51685 178.81L198.881 66.5889C204.106 63.5666 212.021 63.2677 216.594 65.8582L318.508 124.698C323.036 127.321 322.471 131.882 317.235 134.905L122.882 247.137C117.59 250.148 109.675 250.48 105.169 247.868Z" fill="#C7C6F8"/>
<path d="M317.202 134.905L122.882 247.137C117.646 250.148 109.73 250.458 105.169 247.868L3.25476 189.017C2.49004 188.647 1.82067 188.106 1.29851 187.436C0.776345 186.766 0.415371 185.985 0.243556 185.153C-0.033205 187.035 0.94103 188.884 3.25476 190.213L105.169 249.052C109.697 251.676 117.613 251.344 122.882 248.321L317.202 136.1C320.335 134.285 321.785 131.927 321.475 129.757C321.209 131.572 319.77 133.421 317.202 134.905Z" fill="white"/>
<path d="M105.346 245.587L7.0627 188.829C2.63452 186.294 3.2323 181.865 8.2915 178.943L199.058 68.8361C204.128 65.9135 211.789 65.5924 216.173 68.1276L314.456 124.886C318.884 127.421 318.297 131.838 313.227 134.761L122.461 244.878C117.347 247.801 109.73 248.111 105.346 245.587Z" fill="url(#paint1_linear_177_1086)"/>
<path style="mix-blend-mode:lighten" opacity="0.8" d="M112.774 245.1C110.13 245.168 107.511 244.558 105.169 243.329L6.88548 186.559C6.00194 186.151 5.24527 185.512 4.69565 184.709C4.14602 183.906 3.82398 182.969 3.76367 181.998C3.76367 179.873 5.34674 177.736 8.11435 176.142L198.88 66.0241C204.028 63.0572 211.844 62.703 216.305 65.3156L314.589 122.074C315.474 122.484 316.232 123.125 316.783 123.93C317.335 124.734 317.659 125.673 317.722 126.646C317.722 128.771 316.139 130.908 313.371 132.502L122.616 242.62C119.598 244.266 116.212 245.12 112.774 245.1ZM105.512 242.808C109.796 245.288 117.335 244.967 122.295 242.1L313.072 131.96C315.629 130.476 317.102 128.539 317.102 126.646C317.037 125.787 316.743 124.961 316.251 124.254C315.758 123.547 315.085 122.985 314.301 122.627L216.017 65.8691C211.722 63.3893 204.183 63.655 199.224 66.5776L8.44645 176.684C5.88918 178.168 4.41679 180.105 4.41679 181.998C4.48148 182.857 4.77545 183.683 5.26809 184.39C5.76072 185.097 6.43401 185.659 7.21765 186.017L105.512 242.808Z" fill="url(#paint2_linear_177_1086)"/>
<path style="mix-blend-mode:lighten" opacity="0.3" d="M112.774 236.893C110.13 236.962 107.511 236.352 105.169 235.122L6.88548 178.353C6.00194 177.945 5.24527 177.306 4.69565 176.503C4.14602 175.7 3.82398 174.763 3.76367 173.792C3.76367 171.666 5.34674 169.53 8.11435 167.936L198.88 57.8178C204.028 54.8509 211.844 54.4967 216.305 57.1093L314.589 113.868C315.474 114.278 316.232 114.919 316.783 115.723C317.335 116.528 317.659 117.466 317.722 118.44C317.722 120.565 316.139 122.702 313.371 124.296L122.616 234.414C119.598 236.06 116.212 236.913 112.774 236.893ZM105.512 234.602C109.796 237.082 117.335 236.761 122.295 233.893L313.072 123.753C315.629 122.27 317.102 120.333 317.102 118.44C317.037 117.58 316.743 116.754 316.251 116.048C315.758 115.341 315.085 114.779 314.301 114.421L216.017 57.6628C211.722 55.183 204.183 55.4487 199.224 58.3713L8.44645 168.478C5.88918 169.962 4.41679 171.899 4.41679 173.792C4.48148 174.651 4.77545 175.477 5.26809 176.184C5.76072 176.891 6.43401 177.452 7.21765 177.81L105.512 234.602Z" fill="url(#paint3_linear_177_1086)"/>
<path style="mix-blend-mode:lighten" opacity="0.2" d="M112.774 228.687C110.13 228.756 107.511 228.146 105.169 226.916L6.88548 170.147C6.00194 169.739 5.24527 169.1 4.69565 168.297C4.14602 167.494 3.82398 166.557 3.76367 165.586C3.76367 163.46 5.34674 161.323 8.11435 159.729L198.88 49.6115C204.028 46.6446 211.844 46.2904 216.305 48.903L314.589 105.661C315.474 106.071 316.232 106.712 316.783 107.517C317.335 108.322 317.659 109.26 317.722 110.233C317.722 112.359 316.139 114.495 313.371 116.09L122.616 226.207C119.598 227.854 116.212 228.707 112.774 228.687ZM105.512 226.396C109.796 228.875 117.335 228.554 122.295 225.687L313.072 115.547C315.629 114.064 317.102 112.126 317.102 110.233C317.037 109.374 316.743 108.548 316.251 107.841C315.758 107.134 315.085 106.573 314.301 106.215L216.017 49.4565C211.722 46.9767 204.183 47.2424 199.224 50.165L8.44645 160.272C5.88918 161.755 4.41679 163.693 4.41679 165.586C4.48148 166.445 4.77545 167.271 5.26809 167.978C5.76072 168.684 6.43401 169.246 7.21765 169.604L105.512 226.396Z" fill="url(#paint4_linear_177_1086)"/>
<g opacity="0.1">
<path style="mix-blend-mode:lighten" d="M105.346 243.052L7.0627 186.294C2.63452 183.758 3.2323 179.33 8.2915 176.408L199.058 66.3009C204.128 63.3783 211.789 63.0573 216.173 65.5924L314.456 122.351C318.884 124.886 318.297 129.303 313.227 132.225L122.461 242.343C117.347 245.266 109.73 245.587 105.346 243.052Z" fill="url(#paint5_radial_177_1086)"/>
</g>
<path opacity="0.4" d="M293.467 131.772C292.624 132.198 291.693 132.42 290.749 132.42C289.805 132.42 288.874 132.198 288.031 131.772C286.537 130.908 286.537 129.557 288.031 128.639C288.874 128.213 289.805 127.99 290.749 127.99C291.693 127.99 292.624 128.213 293.467 128.639C294.961 129.502 294.961 130.908 293.467 131.772Z" fill="#00080E"/>
<path opacity="0.4" d="M272.731 116.683L283.359 122.827C284.665 123.58 284.466 124.886 283.005 125.749C282.235 126.178 281.375 126.421 280.495 126.458C279.614 126.494 278.737 126.324 277.934 125.96L267.296 119.827C266 119.074 266.189 117.756 267.661 116.893C268.432 116.466 269.291 116.225 270.171 116.189C271.051 116.152 271.928 116.321 272.731 116.683Z" fill="#00080E"/>
<path opacity="0.4" d="M212.065 79.8402L222.693 85.9733C223.999 86.726 223.8 88.0323 222.339 88.9069C221.568 89.3335 220.709 89.5747 219.828 89.6112C218.948 89.6477 218.072 89.4786 217.268 89.1173L206.63 82.9731C205.334 82.2203 205.523 80.914 206.995 80.0506C207.764 79.6189 208.624 79.3749 209.505 79.3383C210.386 79.3018 211.263 79.4737 212.065 79.8402Z" fill="#00080E"/>
<g filter="url(#filter0_d_177_1086)">
<path d="M293.467 127.963C292.624 128.389 291.693 128.611 290.749 128.611C289.805 128.611 288.874 128.389 288.031 127.963C286.537 127.089 286.537 125.694 288.031 124.819C288.874 124.393 289.805 124.171 290.749 124.171C291.693 124.171 292.624 124.393 293.467 124.819C294.961 125.694 294.961 127.089 293.467 127.963Z" fill="#41AFFF"/>
</g>
<g filter="url(#filter1_d_177_1086)">
<path d="M272.731 112.852L283.359 118.996C284.665 119.738 284.466 121.055 283.005 121.919C282.235 122.348 281.375 122.591 280.495 122.627C279.614 122.664 278.737 122.493 277.934 122.129L267.296 115.985C266 115.232 266.189 113.926 267.661 113.062C268.431 112.633 269.291 112.391 270.171 112.354C271.052 112.318 271.929 112.488 272.731 112.852Z" fill="#41AFFF"/>
</g>
<g filter="url(#filter2_d_177_1086)">
<path d="M212.065 76.0208L222.693 82.1649C223.999 82.9177 223.8 84.224 222.339 85.0875C221.569 85.5166 220.709 85.7592 219.829 85.7958C218.948 85.8323 218.071 85.6617 217.268 85.2978L206.63 79.1648C205.334 78.412 205.523 77.0946 206.995 76.2311C207.765 75.802 208.625 75.5594 209.505 75.5229C210.386 75.4864 211.263 75.6569 212.065 76.0208Z" fill="#41AFFF"/>
</g>
<g opacity="0.3">
<path d="M353.07 262.004V257.045L351.697 256.281C351.31 258.617 348.553 260.167 346.251 260.488L330.553 269.665L323.711 272.134L301.847 260.853L302.356 260.565C300.485 259.691 299.478 257.698 298.47 255.871L296.998 256.746L296.124 257.001V262.082C296.181 262.659 296.39 263.212 296.728 263.684C297.066 264.156 297.522 264.531 298.05 264.772L319.936 277.414C321.378 278.141 322.971 278.519 324.586 278.519C326.201 278.519 327.793 278.141 329.235 277.414L351.133 264.772C351.653 264.533 352.102 264.164 352.438 263.701C352.774 263.237 352.984 262.695 353.048 262.126C353.053 262.086 353.053 262.045 353.048 262.004H353.07Z" fill="url(#paint6_linear_177_1086)"/>
<path opacity="0.3" d="M346.25 260.488L330.553 269.665L324.597 271.813V278.522C326.216 278.555 327.816 278.174 329.246 277.414L351.144 264.772C351.664 264.533 352.113 264.164 352.449 263.701C352.785 263.237 352.995 262.695 353.059 262.126C353.064 262.086 353.064 262.045 353.059 262.004V257.045L351.797 256.347H351.664C351.254 258.65 348.531 260.167 346.25 260.488Z" fill="#0F054C"/>
<path d="M319.936 272.366L298.039 259.724C295.47 258.252 295.47 255.838 298.039 254.355L319.936 241.712C321.378 240.986 322.971 240.608 324.586 240.608C326.2 240.608 327.793 240.986 329.235 241.712L351.132 254.355C353.69 255.838 353.69 258.252 351.132 259.724L329.246 272.366C327.804 273.099 326.209 273.482 324.591 273.482C322.973 273.482 321.378 273.099 319.936 272.366Z" fill="url(#paint7_linear_177_1086)"/>
<g opacity="0.3">
<path d="M319.936 272.366L298.039 259.724C295.47 258.252 295.47 255.838 298.039 254.355L319.936 241.712C321.378 240.986 322.971 240.608 324.586 240.608C326.2 240.608 327.793 240.986 329.235 241.712L351.132 254.355C353.69 255.838 353.69 258.252 351.132 259.724L329.246 272.366C327.804 273.099 326.209 273.482 324.591 273.482C322.973 273.482 321.378 273.099 319.936 272.366Z" fill="#0F054C"/>
</g>
</g>
<g opacity="0.3">
<path d="M255.572 291.507V286.548L254.2 285.784C253.812 288.131 251.056 289.67 248.753 289.991L233.055 299.168L226.214 301.637L204.349 290.356L204.859 290.068C202.988 289.194 201.98 287.201 200.973 285.374L199.501 286.26L198.626 286.503V291.596C198.684 292.174 198.892 292.726 199.23 293.198C199.568 293.67 200.024 294.045 200.552 294.286L222.45 306.928C223.89 307.66 225.483 308.041 227.099 308.041C228.715 308.041 230.308 307.66 231.749 306.928L253.646 294.286C254.174 294.045 254.63 293.67 254.968 293.198C255.306 292.726 255.514 292.174 255.572 291.596C255.578 291.552 255.578 291.507 255.572 291.463V291.507Z" fill="url(#paint8_linear_177_1086)"/>
<path opacity="0.3" d="M248.753 289.991L233.055 299.168L227.099 301.316V308.024C228.718 308.058 230.319 307.677 231.749 306.917L253.646 294.275C254.173 294.035 254.628 293.661 254.965 293.191C255.303 292.722 255.513 292.171 255.572 291.596C255.578 291.552 255.578 291.507 255.572 291.463V286.503L254.31 285.806H254.188C253.757 288.153 251.033 289.67 248.753 289.991Z" fill="#0F054C"/>
<path d="M222.45 301.88L200.552 289.238C197.984 287.754 197.984 285.341 200.552 283.869L222.45 271.226C223.89 270.495 225.483 270.114 227.099 270.114C228.715 270.114 230.308 270.495 231.749 271.226L253.646 283.846C256.215 285.319 256.215 287.732 253.646 289.216L231.749 301.88C230.306 302.606 228.714 302.985 227.099 302.985C225.484 302.985 223.892 302.606 222.45 301.88Z" fill="url(#paint9_linear_177_1086)"/>
<g opacity="0.3">
<path d="M222.45 301.88L200.552 289.238C197.984 287.754 197.984 285.341 200.552 283.869L222.45 271.226C223.89 270.495 225.483 270.114 227.099 270.114C228.715 270.114 230.308 270.495 231.749 271.226L253.646 283.846C256.215 285.319 256.215 287.732 253.646 289.216L231.749 301.88C230.306 302.606 228.714 302.985 227.099 302.985C225.484 302.985 223.892 302.606 222.45 301.88Z" fill="#0F054C"/>
</g>
</g>
<g opacity="0.3">
<path d="M68.2936 115.509V110.549L66.9209 109.786C66.5334 112.121 63.7769 113.66 61.4742 113.981L45.7873 123.159L38.9347 125.638L17.0817 114.358L17.5798 114.059C15.7089 113.195 14.7126 111.192 13.6941 109.376L12.2217 110.251L11.3472 110.494V115.587C11.3992 116.165 11.6054 116.718 11.9442 117.189C12.283 117.66 12.742 118.032 13.2734 118.266L35.1708 130.908C36.6116 131.639 38.2046 132.02 39.8203 132.02C41.4361 132.02 43.0291 131.639 44.47 130.908L66.4227 118.266C66.9434 118.029 67.3944 117.663 67.7318 117.201C68.0693 116.74 68.2818 116.199 68.3489 115.631V115.509H68.2936Z" fill="url(#paint10_linear_177_1086)"/>
<path opacity="0.3" d="M61.4737 113.981L45.7868 123.159L39.8198 125.373V132.082C41.4387 132.115 43.0393 131.734 44.4694 130.974L66.4222 118.266C66.9429 118.029 67.3938 117.663 67.7313 117.201C68.0688 116.74 68.2813 116.199 68.3484 115.631V115.509V110.549L67.0974 109.852H66.9646C66.4775 112.155 63.7542 113.671 61.4737 113.981Z" fill="#0F054C"/>
<path d="M35.1705 125.871L13.2842 113.229C10.7158 111.745 10.7158 109.343 13.2842 107.859L35.1816 95.2169C36.6224 94.4856 38.2153 94.1045 39.8311 94.1045C41.4469 94.1045 43.0399 94.4856 44.4807 95.2169L66.4224 107.826C68.9907 109.31 68.9907 111.712 66.4224 113.195L44.4696 125.871C43.0288 126.602 41.4358 126.983 39.82 126.983C38.2042 126.983 36.6113 126.602 35.1705 125.871Z" fill="url(#paint11_linear_177_1086)"/>
<g opacity="0.3">
<path d="M35.1705 125.871L13.2842 113.229C10.7158 111.745 10.7158 109.343 13.2842 107.859L35.1816 95.2169C36.6224 94.4856 38.2153 94.1045 39.8311 94.1045C41.4469 94.1045 43.0399 94.4856 44.4807 95.2169L66.4224 107.826C68.9907 109.31 68.9907 111.712 66.4224 113.195L44.4696 125.871C43.0288 126.602 41.4358 126.983 39.82 126.983C38.2042 126.983 36.6113 126.602 35.1705 125.871Z" fill="#0F054C"/>
</g>
</g>
<path opacity="0.3" d="M61.4741 81.5671L45.7873 90.7445L39.8535 92.8922V99.6009C41.4724 99.6342 43.073 99.2531 44.5031 98.4938L66.4226 85.8514C66.9448 85.6142 67.3967 85.2459 67.7343 84.7822C68.0718 84.3185 68.2836 83.7753 68.3489 83.2055V83.0837V78.1242L67.0979 77.4268H66.965C66.4779 79.7294 63.7547 81.2571 61.4741 81.5671Z" fill="#0F054C"/>
<path d="M17.5797 81.6447L38.3368 69.6554C38.799 69.4236 39.3088 69.3029 39.8258 69.3029C40.3428 69.3029 40.8527 69.4236 41.3148 69.6554L61.6955 81.4344L61.4741 81.5672C63.7768 81.2462 66.5333 79.6963 66.9208 77.3605L44.0381 64.6516L37.3959 62.8914L31.9713 66.0797L13.7051 76.973C14.7125 78.7775 15.7088 80.7701 17.5797 81.6447Z" fill="url(#paint12_linear_177_1086)"/>
<path opacity="0.3" d="M39.8533 63.5445L37.4178 62.8914L31.9933 66.0797L13.7271 76.973C14.7455 78.7996 15.7418 80.7923 17.6127 81.6668L38.3698 69.6776C38.8266 69.4364 39.3369 69.3146 39.8533 69.3233V63.5445Z" fill="#0F054C"/>
<path d="M63.2116 77.2608L41.3143 64.6515C40.8522 64.4198 40.3423 64.2991 39.8253 64.2991C39.3083 64.2991 38.7985 64.4198 38.3363 64.6515L16.4389 77.294C15.8854 77.6151 15.7083 78.0579 15.8854 78.4675C16.0101 78.2316 16.203 78.0387 16.4389 77.914L38.3363 65.2715C38.7985 65.0397 39.3083 64.919 39.8253 64.919C40.3423 64.919 40.8522 65.0397 41.3143 65.2715L63.2116 77.9361C63.4447 78.0609 63.634 78.2541 63.7541 78.4896C63.9312 78.0247 63.7541 77.5819 63.2116 77.2608Z" fill="white"/>
<path opacity="0.4" d="M41.315 64.6515C40.8528 64.4198 40.3429 64.2991 39.8259 64.2991C39.3089 64.2991 38.7991 64.4198 38.337 64.6515L16.4396 77.294C15.6093 77.77 15.6093 78.545 16.4396 79.0099L38.337 91.6634C38.7991 91.8952 39.3089 92.0159 39.8259 92.0159C40.3429 92.0159 40.8528 91.8952 41.315 91.6634L63.2123 79.0431C63.3895 78.9787 63.5427 78.8612 63.6509 78.7067C63.7591 78.5523 63.8171 78.3682 63.8171 78.1796C63.8171 77.991 63.7591 77.807 63.6509 77.6525C63.5427 77.4981 63.3895 77.3806 63.2123 77.3161L41.315 64.6515Z" fill="#42E8E0"/>
<path d="M39.8532 110.727C38.4156 110.753 36.9949 110.414 35.724 109.741L13.8266 97.099C13.3385 96.8744 12.9185 96.5246 12.6094 96.0852C12.3002 95.6457 12.1129 95.1323 12.0664 94.5971C12.1115 94.0628 12.2983 93.5502 12.6078 93.1123C12.9172 92.6744 13.338 92.3271 13.8266 92.1062L35.724 79.4638C37.005 78.8193 38.4192 78.4836 39.8532 78.4836C41.2873 78.4836 42.7014 78.8193 43.9825 79.4638L65.8799 92.1062C66.3699 92.3251 66.7919 92.672 67.1016 93.1102C67.4113 93.5485 67.5973 94.0621 67.64 94.5971C67.5957 95.133 67.4093 95.6474 67.0999 96.0872C66.7905 96.527 66.3693 96.8763 65.8799 97.099L43.9493 109.741C42.6882 110.408 41.2796 110.747 39.8532 110.727ZM39.8532 78.8549C38.4847 78.8311 37.1326 79.1549 35.9232 79.7959L13.9927 92.4383C13.555 92.6309 13.1777 92.9385 12.9009 93.3283C12.6241 93.7182 12.4581 94.1758 12.4206 94.6524C12.4593 95.1287 12.6258 95.5858 12.9024 95.9755C13.1791 96.3651 13.5557 96.673 13.9927 96.8665L35.89 109.509C37.1102 110.126 38.4583 110.447 39.8255 110.447C41.1928 110.447 42.5409 110.126 43.7611 109.509L65.6584 96.7558C66.094 96.5603 66.4694 96.252 66.7458 95.8627C67.0221 95.4734 67.1894 95.0174 67.2304 94.5417C67.1906 94.0657 67.0237 93.6092 66.7472 93.2197C66.4707 92.8303 66.0947 92.5222 65.6584 92.3276L43.7611 79.6851C42.5477 79.0879 41.2046 78.8026 39.8532 78.8549Z" fill="#41AFFF"/>
<path d="M39.8532 85.3813C38.4156 85.4073 36.9949 85.0683 35.724 84.396L13.8266 71.7535C13.3385 71.5289 12.9185 71.1791 12.6094 70.7397C12.3002 70.3003 12.1129 69.7869 12.0664 69.2516C12.1115 68.7173 12.2983 68.2047 12.6078 67.7668C12.9172 67.3289 13.338 66.9816 13.8266 66.7608L35.724 54.1183C37.005 53.4738 38.4192 53.1382 39.8532 53.1382C41.2873 53.1382 42.7014 53.4738 43.9825 54.1183L65.8799 66.7608C66.3699 66.9797 66.7919 67.3265 67.1016 67.7648C67.4113 68.2031 67.5973 68.7166 67.64 69.2516C67.5957 69.7875 67.4093 70.3019 67.0999 70.7417C66.7905 71.1815 66.3693 71.5308 65.8799 71.7535L43.9493 84.396C42.6882 85.0628 41.2796 85.4017 39.8532 85.3813ZM39.8532 53.5094C38.4847 53.4857 37.1326 53.8094 35.9232 54.4504L13.9927 67.0929C13.555 67.2855 13.1777 67.593 12.9009 67.9829C12.6241 68.3727 12.4581 68.8303 12.4206 69.307C12.4593 69.7833 12.6258 70.2403 12.9024 70.63C13.1791 71.0197 13.5557 71.3275 13.9927 71.5211L35.89 84.1635C37.1102 84.7803 38.4583 85.1017 39.8255 85.1017C41.1928 85.1017 42.5409 84.7803 43.7611 84.1635L65.6584 71.4103C66.094 71.2148 66.4694 70.9065 66.7458 70.5172C67.0221 70.128 67.1894 69.6719 67.2304 69.1963C67.1906 68.7203 67.0237 68.2637 66.7472 67.8743C66.4707 67.4848 66.0947 67.1767 65.6584 66.9822L43.7611 54.3397C42.5477 53.7425 41.2046 53.4571 39.8532 53.5094Z" fill="url(#paint13_linear_177_1086)"/>
<path d="M39.8532 77.632C38.4156 77.658 36.9949 77.319 35.724 76.6467L13.8266 64.0043C13.3385 63.7796 12.9185 63.4299 12.6094 62.9904C12.3002 62.551 12.1129 62.0376 12.0664 61.5023C12.1115 60.968 12.2983 60.4555 12.6078 60.0176C12.9172 59.5797 13.338 59.2324 13.8266 59.0115L35.724 46.369C37.005 45.7246 38.4192 45.3889 39.8532 45.3889C41.2873 45.3889 42.7014 45.7246 43.9825 46.369L65.8799 59.0115C66.3699 59.2304 66.7919 59.5772 67.1016 60.0155C67.4113 60.4538 67.5973 60.9674 67.64 61.5023C67.5957 62.0383 67.4093 62.5527 67.0999 62.9925C66.7905 63.4323 66.3693 63.7815 65.8799 64.0043L43.9493 76.6467C42.6882 77.3136 41.2796 77.6524 39.8532 77.632ZM39.8532 45.7601C38.4847 45.7364 37.1326 46.0602 35.9232 46.7011L13.9927 59.3436C13.555 59.5362 13.1777 59.8437 12.9009 60.2336C12.6241 60.6235 12.4581 61.081 12.4206 61.5577C12.4593 62.034 12.6258 62.4911 12.9024 62.8807C13.1791 63.2704 13.5557 63.5782 13.9927 63.7718L35.89 76.4142C37.1102 77.0311 38.4583 77.3524 39.8255 77.3524C41.1928 77.3524 42.5409 77.0311 43.7611 76.4142L65.6584 63.6611C66.094 63.4656 66.4694 63.1572 66.7458 62.768C67.0221 62.3787 67.1894 61.9226 67.2304 61.447C67.1906 60.971 67.0237 60.5145 66.7472 60.125C66.4707 59.7355 66.0947 59.4274 65.6584 59.2329L43.7611 46.5904C42.5477 45.9932 41.2046 45.7078 39.8532 45.7601Z" fill="url(#paint14_linear_177_1086)"/>
<path d="M39.8532 69.8827C38.4156 69.9087 36.9949 69.5698 35.724 68.8975L13.8266 56.255C13.3385 56.0304 12.9185 55.6806 12.6094 55.2412C12.3002 54.8018 12.1129 54.2883 12.0664 53.7531C12.1115 53.2188 12.2983 52.7062 12.6078 52.2683C12.9172 51.8304 13.338 51.4831 13.8266 51.2622L35.724 38.6198C37.005 37.9753 38.4192 37.6396 39.8532 37.6396C41.2873 37.6396 42.7014 37.9753 43.9825 38.6198L65.8799 51.2622C66.3699 51.4811 66.7919 51.828 67.1016 52.2662C67.4113 52.7045 67.5973 53.2181 67.64 53.7531C67.5957 54.289 67.4093 54.8034 67.0999 55.2432C66.7905 55.683 66.3693 56.0323 65.8799 56.255L43.9493 68.8975C42.6882 69.5643 41.2796 69.9031 39.8532 69.8827ZM39.8532 38.0109C38.4847 37.9871 37.1326 38.3109 35.9232 38.9519L13.9927 51.5943C13.555 51.7869 13.1777 52.0945 12.9009 52.4843C12.6241 52.8742 12.4581 53.3318 12.4206 53.8084C12.4593 54.2847 12.6258 54.7418 12.9024 55.1315C13.1791 55.5211 13.5557 55.829 13.9927 56.0225L35.89 68.665C37.1102 69.2818 38.4583 69.6032 39.8255 69.6032C41.1928 69.6032 42.5409 69.2818 43.7611 68.665L65.6584 55.9118C66.094 55.7163 66.4694 55.408 66.7458 55.0187C67.0221 54.6294 67.1894 54.1734 67.2304 53.6977C67.1906 53.2217 67.0237 52.7652 66.7472 52.3757C66.4707 51.9863 66.0947 51.6782 65.6584 51.4836L43.7611 38.8412C42.5477 38.2439 41.2046 37.9586 39.8532 38.0109Z" fill="url(#paint15_linear_177_1086)"/>
<path d="M39.8532 62.1332C38.4156 62.1592 36.9949 61.8202 35.724 61.1479L13.8266 48.5055C13.3385 48.2809 12.9185 47.9311 12.6094 47.4917C12.3002 47.0522 12.1129 46.5388 12.0664 46.0036C12.1115 45.4693 12.2983 44.9567 12.6078 44.5188C12.9172 44.0809 13.338 43.7336 13.8266 43.5127L35.724 30.8703C37.005 30.2258 38.4192 29.8901 39.8532 29.8901C41.2873 29.8901 42.7014 30.2258 43.9825 30.8703L65.8799 43.5127C66.3699 43.7316 66.7919 44.0785 67.1016 44.5167C67.4113 44.955 67.5973 45.4686 67.64 46.0036C67.5957 46.5395 67.4093 47.0539 67.0999 47.4937C66.7905 47.9335 66.3693 48.2828 65.8799 48.5055L43.9493 61.1479C42.6882 61.8148 41.2796 62.1536 39.8532 62.1332ZM39.8532 30.2614C38.4847 30.2376 37.1326 30.5614 35.9232 31.2024L13.9927 43.8448C13.555 44.0374 13.1777 44.345 12.9009 44.7348C12.6241 45.1247 12.4581 45.5823 12.4206 46.0589C12.4593 46.5352 12.6258 46.9923 12.9024 47.3819C13.1791 47.7716 13.5557 48.0794 13.9927 48.273L35.89 60.9155C37.1102 61.5323 38.4583 61.8537 39.8255 61.8537C41.1928 61.8537 42.5409 61.5323 43.7611 60.9155L65.6584 48.1623C66.094 47.9668 66.4694 47.6584 66.7458 47.2692C67.0221 46.8799 67.1894 46.4239 67.2304 45.9482C67.1906 45.4722 67.0237 45.0157 66.7472 44.6262C66.4707 44.2367 66.0947 43.9287 65.6584 43.7341L43.7611 31.0916C42.5477 30.4944 41.2046 30.2091 39.8532 30.2614Z" fill="url(#paint16_linear_177_1086)"/>
<path d="M39.8532 54.3839C38.4156 54.41 36.9949 54.071 35.724 53.3987L13.8266 40.7562C13.3385 40.5316 12.9185 40.1818 12.6094 39.7424C12.3002 39.303 12.1129 38.7896 12.0664 38.2543C12.1115 37.72 12.2983 37.2074 12.6078 36.7695C12.9172 36.3316 13.338 35.9843 13.8266 35.7634L35.724 23.121C37.005 22.4765 38.4192 22.1409 39.8532 22.1409C41.2873 22.1409 42.7014 22.4765 43.9825 23.121L65.8799 35.7634C66.3699 35.9824 66.7919 36.3292 67.1016 36.7675C67.4113 37.2057 67.5973 37.7193 67.64 38.2543C67.5957 38.7902 67.4093 39.3046 67.0999 39.7444C66.7905 40.1842 66.3693 40.5335 65.8799 40.7562L43.9493 53.3987C42.6882 54.0655 41.2796 54.4044 39.8532 54.3839ZM39.8532 22.5121C38.4847 22.4884 37.1326 22.8121 35.9232 23.4531L13.9927 36.0956C13.555 36.2881 13.1777 36.5957 12.9009 36.9856C12.6241 37.3754 12.4581 37.833 12.4206 38.3097C12.4593 38.786 12.6258 39.243 12.9024 39.6327C13.1791 40.0223 13.5557 40.3302 13.9927 40.5237L35.89 53.1662C37.1102 53.783 38.4583 54.1044 39.8255 54.1044C41.1928 54.1044 42.5409 53.783 43.7611 53.1662L65.6584 40.413C66.094 40.2175 66.4694 39.9092 66.7458 39.5199C67.0221 39.1306 67.1894 38.6746 67.2304 38.1989C67.1906 37.723 67.0237 37.2664 66.7472 36.8769C66.4707 36.4875 66.0947 36.1794 65.6584 35.9849L43.7611 23.3424C42.5477 22.7452 41.2046 22.4598 39.8532 22.5121Z" fill="url(#paint17_linear_177_1086)"/>
<path d="M39.8532 46.6347C38.4156 46.6607 36.9949 46.3217 35.724 45.6494L13.8266 33.0069C13.3385 32.7823 12.9185 32.4326 12.6094 31.9931C12.3002 31.5537 12.1129 31.0403 12.0664 30.505C12.1115 29.9707 12.2983 29.4582 12.6078 29.0203C12.9172 28.5824 13.338 28.235 13.8266 28.0142L35.724 15.3717C37.005 14.7273 38.4192 14.3916 39.8532 14.3916C41.2873 14.3916 42.7014 14.7273 43.9825 15.3717L65.8799 28.0142C66.3699 28.2331 66.7919 28.5799 67.1016 29.0182C67.4113 29.4565 67.5973 29.9701 67.64 30.505C67.5957 31.0409 67.4093 31.5553 67.0999 31.9951C66.7905 32.4349 66.3693 32.7842 65.8799 33.0069L43.9493 45.6494C42.6882 46.3163 41.2796 46.6551 39.8532 46.6347ZM39.8532 14.7628C38.4847 14.7391 37.1326 15.0629 35.9232 15.7038L13.9927 28.3463C13.555 28.5389 13.1777 28.8464 12.9009 29.2363C12.6241 29.6262 12.4581 30.0837 12.4206 30.5604C12.4593 31.0367 12.6258 31.4938 12.9024 31.8834C13.1791 32.2731 13.5557 32.5809 13.9927 32.7745L35.89 45.4169C37.1102 46.0338 38.4583 46.3551 39.8255 46.3551C41.1928 46.3551 42.5409 46.0338 43.7611 45.4169L65.6584 32.6638C66.094 32.4683 66.4694 32.1599 66.7458 31.7706C67.0221 31.3814 67.1894 30.9253 67.2304 30.4497C67.1906 29.9737 67.0237 29.5171 66.7472 29.1277C66.4707 28.7382 66.0947 28.4301 65.6584 28.2356L43.7611 15.5931C42.5477 14.9959 41.2046 14.7105 39.8532 14.7628Z" fill="url(#paint18_linear_177_1086)"/>
<path d="M39.8532 38.8854C38.4156 38.9114 36.9949 38.5724 35.724 37.9001L13.8266 25.2577C13.3385 25.0331 12.9185 24.6833 12.6094 24.2439C12.3002 23.8044 12.1129 23.291 12.0664 22.7558C12.1115 22.2215 12.2983 21.7089 12.6078 21.271C12.9172 20.8331 13.338 20.4858 13.8266 20.2649L35.724 7.62245C37.005 6.97799 38.4192 6.64233 39.8532 6.64233C41.2873 6.64233 42.7014 6.97799 43.9825 7.62245L65.8799 20.2649C66.3699 20.4838 66.7919 20.8306 67.1016 21.2689C67.4113 21.7072 67.5973 22.2208 67.64 22.7558C67.5957 23.2917 67.4093 23.8061 67.0999 24.2459C66.7905 24.6857 66.3693 25.035 65.8799 25.2577L43.9493 37.9001C42.6882 38.567 41.2796 38.9058 39.8532 38.8854ZM39.8532 7.01356C38.4847 6.98983 37.1326 7.31359 35.9232 7.95455L13.9927 20.597C13.555 20.7896 13.1777 21.0972 12.9009 21.487C12.6241 21.8769 12.4581 22.3345 12.4206 22.8111C12.4593 23.2874 12.6258 23.7445 12.9024 24.1341C13.1791 24.5238 13.5557 24.8316 13.9927 25.0252L35.89 37.6677C37.1102 38.2845 38.4583 38.6059 39.8255 38.6059C41.1928 38.6059 42.5409 38.2845 43.7611 37.6677L65.6584 24.9145C66.094 24.719 66.4694 24.4106 66.7458 24.0214C67.0221 23.6321 67.1894 23.1761 67.2304 22.7004C67.1906 22.2244 67.0237 21.7679 66.7472 21.3784C66.4707 20.9889 66.0947 20.6809 65.6584 20.4863L43.7611 7.84384C42.5477 7.24662 41.2046 6.96126 39.8532 7.01356Z" fill="url(#paint19_linear_177_1086)"/>
<path opacity="0.4" d="M68.2936 89.7483V82.2535L66.9209 81.4897C66.5334 83.8255 63.7769 85.3754 61.4742 85.6965L45.7873 94.8628L38.9347 97.3426L17.0817 86.0618L17.5798 85.7739C15.7089 84.8994 14.7126 82.8956 13.6941 81.0801L12.2217 81.9547L11.3472 82.1982V89.8257C11.4051 90.4034 11.6135 90.9557 11.9514 91.4278C12.2894 91.8998 12.7452 92.2749 13.2734 92.5159L35.1708 105.158C36.6116 105.89 38.2046 106.271 39.8203 106.271C41.4361 106.271 43.0291 105.89 44.47 105.158L66.4227 92.5159C66.9434 92.2797 67.3944 91.913 67.7318 91.4514C68.0693 90.9898 68.2818 90.4489 68.3489 89.8811V89.7483H68.2936Z" fill="#41AFFF"/>
<path d="M68.2936 83.0837V78.1242L66.9209 77.3603C66.5334 79.6962 63.7769 81.246 61.4742 81.5671L45.7873 90.7445L38.9347 93.2132L17.0817 81.9324L17.5798 81.6446C15.7089 80.77 14.7126 78.7773 13.6941 76.9507L12.2217 77.8253L11.3472 78.0799V83.1612C11.4051 83.7389 11.6135 84.2912 11.9514 84.7632C12.2894 85.2353 12.7452 85.6104 13.2734 85.8513L35.1708 98.4938C36.6132 99.22 38.2055 99.5982 39.8203 99.5982C41.4352 99.5982 43.0276 99.22 44.47 98.4938L66.4227 85.8513C66.9449 85.6142 67.3968 85.2458 67.7343 84.7822C68.0719 84.3185 68.2836 83.7753 68.3489 83.2055V83.0837H68.2936Z" fill="url(#paint20_linear_177_1086)"/>
<path d="M35.1705 93.4347L13.2842 80.8033C10.7158 79.3309 10.7158 76.9175 13.2842 75.4341L35.1816 62.7917C36.6239 62.0655 38.2163 61.6873 39.8311 61.6873C41.4459 61.6873 43.0383 62.0655 44.4807 62.7917L66.4224 75.4341C68.9907 76.9175 68.9907 79.3309 66.4224 80.8033L44.4696 93.4347C43.0288 94.166 41.4358 94.5471 39.82 94.5471C38.2042 94.5471 36.6113 94.166 35.1705 93.4347ZM41.3146 64.6515C40.8524 64.4197 40.3426 64.299 39.8256 64.299C39.3086 64.299 38.7987 64.4197 38.3366 64.6515L16.4392 77.294C15.6089 77.77 15.6089 78.5449 16.4392 79.0099L38.3366 91.6634C38.7987 91.8952 39.3086 92.0159 39.8256 92.0159C40.3426 92.0159 40.8524 91.8952 41.3146 91.6634L63.2119 79.0431C63.3891 78.9786 63.5423 78.8612 63.6505 78.7067C63.7587 78.5522 63.8167 78.3682 63.8167 78.1796C63.8167 77.991 63.7587 77.807 63.6505 77.6525C63.5423 77.498 63.3891 77.3806 63.2119 77.3161L41.3146 64.6515Z" fill="url(#paint21_linear_177_1086)"/>
<path d="M66.4225 80.8031L44.4698 93.4345C43.029 94.1658 41.436 94.5469 39.8202 94.5469C38.2044 94.5469 36.6115 94.1658 35.1707 93.4345L13.2844 80.8031C12.8073 80.5796 12.3878 80.2499 12.0577 79.8393C11.7277 79.4287 11.496 78.948 11.3803 78.4341C11.3557 79.0669 11.5248 79.6921 11.865 80.2262C12.2053 80.7604 12.7005 81.1779 13.2844 81.4231L35.1818 94.0656C36.6226 94.7968 38.2155 95.1779 39.8313 95.1779C41.4471 95.1779 43.0401 94.7968 44.4809 94.0656L66.4225 81.4231C67.0064 81.1779 67.5016 80.7604 67.8419 80.2262C68.1821 79.6921 68.3512 79.0669 68.3266 78.4341C68.2125 78.9487 67.9814 79.43 67.6511 79.8409C67.3209 80.2517 66.9005 80.581 66.4225 80.8031Z" fill="white"/>
<path d="M35.7904 93.0914L13.893 80.4489C11.6789 79.1647 11.6789 77.1278 13.893 75.7993L35.7904 63.1569C37.038 62.5194 38.419 62.187 39.82 62.187C41.221 62.187 42.602 62.5194 43.8496 63.1569L65.747 75.7993C67.9611 77.0835 67.9611 79.1205 65.747 80.4489L43.8496 93.0914C42.602 93.7288 41.221 94.0612 39.82 94.0612C38.419 94.0612 37.038 93.7288 35.7904 93.0914ZM41.9234 64.3082C41.2723 63.9749 40.5514 63.8012 39.82 63.8012C39.0886 63.8012 38.3677 63.9749 37.7166 64.3082L15.8192 76.9506C15.5639 77.0361 15.3419 77.1997 15.1846 77.4182C15.0273 77.6367 14.9427 77.8991 14.9427 78.1684C14.9427 78.4376 15.0273 78.7001 15.1846 78.9186C15.3419 79.1371 15.5639 79.3007 15.8192 79.3862L37.7166 92.0286C38.3714 92.356 39.0934 92.5264 39.8255 92.5264C40.5576 92.5264 41.2797 92.356 41.9345 92.0286L63.8318 79.3862C64.0871 79.3007 64.3091 79.1371 64.4664 78.9186C64.6237 78.7001 64.7084 78.4376 64.7084 78.1684C64.7084 77.8991 64.6237 77.6367 64.4664 77.4182C64.3091 77.1997 64.0871 77.0361 63.8318 76.9506L41.9234 64.3082Z" fill="url(#paint22_linear_177_1086)"/>
<path style="mix-blend-mode:lighten" opacity="0.5" d="M63.8209 78.102V0H15.8193V78.102C15.8324 78.2907 15.8971 78.4721 16.0065 78.6264C16.1159 78.7806 16.2656 78.9018 16.4393 78.9766L38.3367 91.6301C38.7988 91.8619 39.3086 91.9826 39.8256 91.9826C40.3426 91.9826 40.8525 91.8619 41.3146 91.6301L63.212 79.043C63.388 78.9546 63.5373 78.8207 63.6443 78.6553C63.7514 78.4899 63.8123 78.2989 63.8209 78.102Z" fill="url(#paint23_linear_177_1086)"/>
<path d="M226.623 283.426C225.185 283.452 223.764 283.113 222.493 282.441L200.596 269.798C200.108 269.574 199.688 269.224 199.379 268.784C199.07 268.345 198.882 267.832 198.836 267.296C198.881 266.762 199.068 266.249 199.377 265.812C199.687 265.374 200.108 265.026 200.596 264.805L222.493 252.163C223.775 251.519 225.189 251.183 226.623 251.183C228.057 251.183 229.471 251.519 230.752 252.163L252.649 264.805C253.139 265.024 253.561 265.371 253.871 265.809C254.181 266.248 254.367 266.761 254.41 267.296C254.365 267.832 254.179 268.347 253.869 268.786C253.56 269.226 253.139 269.575 252.649 269.798L230.719 282.441C229.458 283.108 228.049 283.446 226.623 283.426ZM226.623 251.554C225.254 251.53 223.902 251.854 222.693 252.495L200.762 265.138C200.325 265.33 199.947 265.638 199.67 266.028C199.394 266.417 199.228 266.875 199.19 267.352C199.229 267.828 199.395 268.285 199.672 268.675C199.949 269.064 200.325 269.372 200.762 269.566L222.66 282.208C223.88 282.825 225.228 283.146 226.595 283.146C227.962 283.146 229.31 282.825 230.531 282.208L252.428 269.455C252.864 269.26 253.239 268.951 253.515 268.562C253.792 268.173 253.959 267.717 254 267.241C253.96 266.765 253.793 266.308 253.517 265.919C253.24 265.529 252.864 265.221 252.428 265.027L230.531 252.384C229.317 251.787 227.974 251.502 226.623 251.554Z" fill="#41AFFF"/>
<path d="M226.623 258.08C225.185 258.106 223.764 257.768 222.493 257.095L200.596 244.453C200.108 244.228 199.688 243.878 199.379 243.439C199.07 243 198.882 242.486 198.836 241.951C198.881 241.417 199.068 240.904 199.377 240.466C199.687 240.028 200.108 239.681 200.596 239.46L222.493 226.818C223.775 226.173 225.189 225.837 226.623 225.837C228.057 225.837 229.471 226.173 230.752 226.818L252.649 239.46C253.139 239.679 253.561 240.026 253.871 240.464C254.181 240.902 254.367 241.416 254.41 241.951C254.365 242.487 254.179 243.001 253.869 243.441C253.56 243.881 253.139 244.23 252.649 244.453L230.719 257.095C229.458 257.762 228.049 258.101 226.623 258.08ZM226.623 226.209C225.254 226.185 223.902 226.509 222.693 227.15L200.762 239.792C200.325 239.985 199.947 240.292 199.67 240.682C199.394 241.072 199.228 241.53 199.19 242.006C199.229 242.483 199.395 242.94 199.672 243.329C199.949 243.719 200.325 244.027 200.762 244.22L222.66 256.863C223.88 257.48 225.228 257.801 226.595 257.801C227.962 257.801 229.31 257.48 230.531 256.863L252.428 244.11C252.864 243.914 253.239 243.606 253.515 243.216C253.792 242.827 253.959 242.371 254 241.895C253.96 241.419 253.793 240.963 253.517 240.573C253.24 240.184 252.864 239.876 252.428 239.681L230.531 227.039C229.317 226.442 227.974 226.156 226.623 226.209Z" fill="url(#paint24_linear_177_1086)"/>
<path d="M226.623 250.331C225.185 250.357 223.764 250.018 222.493 249.346L200.596 236.703C200.108 236.479 199.688 236.129 199.379 235.69C199.07 235.25 198.882 234.737 198.836 234.202C198.881 233.667 199.068 233.155 199.377 232.717C199.687 232.279 200.108 231.932 200.596 231.711L222.493 219.068C223.775 218.424 225.189 218.088 226.623 218.088C228.057 218.088 229.471 218.424 230.752 219.068L252.649 231.711C253.139 231.93 253.561 232.276 253.871 232.715C254.181 233.153 254.367 233.667 254.41 234.202C254.365 234.737 254.179 235.252 253.869 235.692C253.56 236.131 253.139 236.481 252.649 236.703L230.719 249.346C229.458 250.013 228.049 250.352 226.623 250.331ZM226.623 218.459C225.254 218.436 223.902 218.759 222.693 219.4L200.762 232.043C200.325 232.235 199.947 232.543 199.67 232.933C199.394 233.323 199.228 233.78 199.19 234.257C199.229 234.733 199.395 235.19 199.672 235.58C199.949 235.97 200.325 236.277 200.762 236.471L222.66 249.113C223.88 249.73 225.228 250.052 226.595 250.052C227.962 250.052 229.31 249.73 230.531 249.113L252.428 236.36C252.864 236.165 253.239 235.856 253.515 235.467C253.792 235.078 253.959 234.622 254 234.146C253.96 233.67 253.793 233.214 253.517 232.824C253.24 232.435 252.864 232.127 252.428 231.932L230.531 219.29C229.317 218.692 227.974 218.407 226.623 218.459Z" fill="url(#paint25_linear_177_1086)"/>
<path d="M226.623 242.582C225.185 242.608 223.764 242.269 222.493 241.597L200.596 228.954C200.108 228.73 199.688 228.38 199.379 227.94C199.07 227.501 198.882 226.988 198.836 226.452C198.881 225.918 199.068 225.405 199.377 224.968C199.687 224.53 200.108 224.182 200.596 223.961L222.493 211.319C223.775 210.675 225.189 210.339 226.623 210.339C228.057 210.339 229.471 210.675 230.752 211.319L252.649 223.961C253.139 224.18 253.561 224.527 253.871 224.965C254.181 225.404 254.367 225.917 254.41 226.452C254.365 226.988 254.179 227.503 253.869 227.942C253.56 228.382 253.139 228.731 252.649 228.954L230.719 241.597C229.458 242.264 228.049 242.602 226.623 242.582ZM226.623 210.71C225.254 210.686 223.902 211.01 222.693 211.651L200.762 224.294C200.325 224.486 199.947 224.794 199.67 225.184C199.394 225.573 199.228 226.031 199.19 226.508C199.229 226.984 199.395 227.441 199.672 227.831C199.949 228.22 200.325 228.528 200.762 228.722L222.66 241.364C223.88 241.981 225.228 242.302 226.595 242.302C227.962 242.302 229.31 241.981 230.531 241.364L252.428 228.611C252.864 228.416 253.239 228.107 253.515 227.718C253.792 227.329 253.959 226.873 254 226.397C253.96 225.921 253.793 225.464 253.517 225.075C253.24 224.685 252.864 224.377 252.428 224.183L230.531 211.54C229.317 210.943 227.974 210.658 226.623 210.71Z" fill="url(#paint26_linear_177_1086)"/>
<path d="M226.623 234.832C225.185 234.858 223.764 234.519 222.493 233.847L200.596 221.205C200.108 220.98 199.688 220.63 199.379 220.191C199.07 219.751 198.882 219.238 198.836 218.703C198.881 218.168 199.068 217.656 199.377 217.218C199.687 216.78 200.108 216.433 200.596 216.212L222.493 203.569C223.775 202.925 225.189 202.589 226.623 202.589C228.057 202.589 229.471 202.925 230.752 203.569L252.649 216.212C253.139 216.431 253.561 216.778 253.871 217.216C254.181 217.654 254.367 218.168 254.41 218.703C254.365 219.239 254.179 219.753 253.869 220.193C253.56 220.633 253.139 220.982 252.649 221.205L230.719 233.847C229.458 234.514 228.049 234.853 226.623 234.832ZM226.623 202.961C225.254 202.937 223.902 203.261 222.693 203.902L200.762 216.544C200.325 216.737 199.947 217.044 199.67 217.434C199.394 217.824 199.228 218.281 199.19 218.758C199.229 219.234 199.395 219.692 199.672 220.081C199.949 220.471 200.325 220.779 200.762 220.972L222.66 233.615C223.88 234.232 225.228 234.553 226.595 234.553C227.962 234.553 229.31 234.232 230.531 233.615L252.428 220.862C252.864 220.666 253.239 220.358 253.515 219.968C253.792 219.579 253.959 219.123 254 218.647C253.96 218.171 253.793 217.715 253.517 217.325C253.24 216.936 252.864 216.628 252.428 216.433L230.531 203.791C229.317 203.194 227.974 202.908 226.623 202.961Z" fill="url(#paint27_linear_177_1086)"/>
<path d="M226.623 227.083C225.185 227.109 223.764 226.77 222.493 226.098L200.596 213.455C200.108 213.231 199.688 212.881 199.379 212.442C199.07 212.002 198.882 211.489 198.836 210.954C198.881 210.419 199.068 209.907 199.377 209.469C199.687 209.031 200.108 208.684 200.596 208.463L222.493 195.82C223.775 195.176 225.189 194.84 226.623 194.84C228.057 194.84 229.471 195.176 230.752 195.82L252.649 208.463C253.139 208.682 253.561 209.028 253.871 209.467C254.181 209.905 254.367 210.419 254.41 210.954C254.365 211.489 254.179 212.004 253.869 212.444C253.56 212.883 253.139 213.233 252.649 213.455L230.719 226.098C229.458 226.765 228.049 227.104 226.623 227.083ZM226.623 195.211C225.254 195.188 223.902 195.511 222.693 196.152L200.762 208.795C200.325 208.987 199.947 209.295 199.67 209.685C199.394 210.075 199.228 210.532 199.19 211.009C199.229 211.485 199.395 211.942 199.672 212.332C199.949 212.722 200.325 213.029 200.762 213.223L222.66 225.865C223.88 226.482 225.228 226.804 226.595 226.804C227.962 226.804 229.31 226.482 230.531 225.865L252.428 213.112C252.864 212.917 253.239 212.608 253.515 212.219C253.792 211.83 253.959 211.374 254 210.898C253.96 210.422 253.793 209.966 253.517 209.576C253.24 209.187 252.864 208.879 252.428 208.684L230.531 196.042C229.317 195.444 227.974 195.159 226.623 195.211Z" fill="url(#paint28_linear_177_1086)"/>
<path d="M226.623 219.334C225.185 219.36 223.764 219.021 222.493 218.349L200.596 205.706C200.108 205.482 199.688 205.132 199.379 204.692C199.07 204.253 198.882 203.74 198.836 203.204C198.881 202.67 199.068 202.157 199.377 201.719C199.687 201.282 200.108 200.934 200.596 200.713L222.493 188.071C223.775 187.426 225.189 187.091 226.623 187.091C228.057 187.091 229.471 187.426 230.752 188.071L252.649 200.713C253.139 200.932 253.561 201.279 253.871 201.717C254.181 202.156 254.367 202.669 254.41 203.204C254.365 203.74 254.179 204.255 253.869 204.694C253.56 205.134 253.139 205.483 252.649 205.706L230.719 218.349C229.458 219.015 228.049 219.354 226.623 219.334ZM226.623 187.462C225.254 187.438 223.902 187.762 222.693 188.403L200.762 201.046C200.325 201.238 199.947 201.546 199.67 201.936C199.394 202.325 199.228 202.783 199.19 203.26C199.229 203.736 199.395 204.193 199.672 204.583C199.949 204.972 200.325 205.28 200.762 205.474L222.66 218.116C223.88 218.733 225.228 219.054 226.595 219.054C227.962 219.054 229.31 218.733 230.531 218.116L252.428 205.363C252.864 205.167 253.239 204.859 253.515 204.47C253.792 204.081 253.959 203.625 254 203.149C253.96 202.673 253.793 202.216 253.517 201.827C253.24 201.437 252.864 201.129 252.428 200.935L230.531 188.292C229.317 187.695 227.974 187.41 226.623 187.462Z" fill="url(#paint29_linear_177_1086)"/>
<path d="M226.623 211.585C225.185 211.611 223.764 211.272 222.493 210.599L200.596 197.957C200.108 197.732 199.688 197.383 199.379 196.943C199.07 196.504 198.882 195.99 198.836 195.455C198.881 194.921 199.068 194.408 199.377 193.97C199.687 193.532 200.108 193.185 200.596 192.964L222.493 180.322C223.775 179.677 225.189 179.342 226.623 179.342C228.057 179.342 229.471 179.677 230.752 180.322L252.649 192.964C253.139 193.183 253.561 193.53 253.871 193.968C254.181 194.406 254.367 194.92 254.41 195.455C254.365 195.991 254.179 196.505 253.869 196.945C253.56 197.385 253.139 197.734 252.649 197.957L230.719 210.599C229.458 211.266 228.049 211.605 226.623 211.585ZM226.623 179.713C225.254 179.689 223.902 180.013 222.693 180.654L200.762 193.296C200.325 193.489 199.947 193.796 199.67 194.186C199.394 194.576 199.228 195.034 199.19 195.51C199.229 195.987 199.395 196.444 199.672 196.833C199.949 197.223 200.325 197.531 200.762 197.724L222.66 210.367C223.88 210.984 225.228 211.305 226.595 211.305C227.962 211.305 229.31 210.984 230.531 210.367L252.428 197.614C252.864 197.418 253.239 197.11 253.515 196.721C253.792 196.331 253.959 195.875 254 195.4C253.96 194.924 253.793 194.467 253.517 194.078C253.24 193.688 252.864 193.38 252.428 193.186L230.531 180.543C229.317 179.946 227.974 179.66 226.623 179.713Z" fill="url(#paint30_linear_177_1086)"/>
<path opacity="0.4" d="M255.063 262.447V254.953L253.69 254.189C253.303 256.525 250.546 258.075 248.244 258.396L232.557 267.562L225.704 270.042L203.851 258.761L204.349 258.473C202.478 257.599 201.482 255.595 200.464 253.779L198.991 254.654L198.117 254.897V262.525C198.175 263.103 198.383 263.655 198.721 264.127C199.059 264.599 199.515 264.974 200.043 265.215L221.94 277.858C223.381 278.589 224.974 278.97 226.59 278.97C228.206 278.97 229.799 278.589 231.239 277.858L253.192 265.215C253.713 264.979 254.164 264.612 254.501 264.151C254.839 263.689 255.051 263.148 255.118 262.58V262.447H255.063Z" fill="#41AFFF"/>
<path d="M255.063 255.783V250.823L253.69 250.06C253.303 252.395 250.546 253.945 248.244 254.266L232.557 263.444L225.704 265.912L203.851 254.632L204.349 254.344C202.478 253.469 201.482 251.477 200.464 249.65L198.991 250.524L198.117 250.779V255.86C198.175 256.438 198.383 256.99 198.721 257.462C199.059 257.934 199.515 258.31 200.043 258.551L221.94 271.193C223.383 271.919 224.975 272.297 226.59 272.297C228.205 272.297 229.797 271.919 231.239 271.193L253.192 258.551C253.714 258.313 254.166 257.945 254.504 257.481C254.841 257.018 255.053 256.475 255.118 255.905V255.783H255.063Z" fill="url(#paint31_linear_177_1086)"/>
<path d="M221.94 266.134L200.054 253.503C197.485 252.03 197.485 249.617 200.054 248.133L221.951 235.491C223.393 234.765 224.986 234.386 226.601 234.386C228.215 234.386 229.808 234.765 231.25 235.491L253.192 248.133C255.76 249.617 255.76 252.03 253.192 253.503L231.239 266.134C229.798 266.865 228.205 267.246 226.59 267.246C224.974 267.246 223.381 266.865 221.94 266.134ZM228.084 237.351C227.622 237.119 227.112 236.998 226.595 236.998C226.078 236.998 225.568 237.119 225.106 237.351L203.209 249.993C202.378 250.469 202.378 251.244 203.209 251.709L225.106 264.363C225.568 264.594 226.078 264.715 226.595 264.715C227.112 264.715 227.622 264.594 228.084 264.363L249.981 251.742C250.159 251.678 250.312 251.56 250.42 251.406C250.528 251.251 250.586 251.067 250.586 250.879C250.586 250.69 250.528 250.506 250.42 250.352C250.312 250.197 250.159 250.08 249.981 250.015L228.084 237.351Z" fill="url(#paint32_linear_177_1086)"/>
<path d="M253.192 253.502L231.239 266.134C229.799 266.865 228.206 267.246 226.59 267.246C224.974 267.246 223.381 266.865 221.94 266.134L200.054 253.502C199.577 253.279 199.157 252.949 198.827 252.539C198.497 252.128 198.266 251.647 198.15 251.133C198.125 251.766 198.294 252.391 198.635 252.925C198.975 253.46 199.47 253.877 200.054 254.122L221.951 266.765C223.392 267.496 224.985 267.877 226.601 267.877C228.217 267.877 229.81 267.496 231.25 266.765L253.192 254.122C253.776 253.877 254.271 253.46 254.611 252.925C254.952 252.391 255.121 251.766 255.096 251.133C254.982 251.648 254.751 252.129 254.421 252.54C254.09 252.951 253.67 253.28 253.192 253.502Z" fill="white"/>
<path d="M222.56 265.791L200.663 253.148C198.448 251.864 198.448 249.827 200.663 248.499L222.56 235.856C223.808 235.219 225.188 234.886 226.59 234.886C227.991 234.886 229.372 235.219 230.619 235.856L252.517 248.499C254.731 249.783 254.731 251.82 252.517 253.148L230.619 265.791C229.372 266.428 227.991 266.76 226.59 266.76C225.188 266.76 223.808 266.428 222.56 265.791ZM228.693 237.007C228.042 236.674 227.321 236.5 226.59 236.5C225.858 236.5 225.137 236.674 224.486 237.007L202.589 249.65C202.333 249.735 202.111 249.899 201.954 250.117C201.797 250.336 201.712 250.598 201.712 250.868C201.712 251.137 201.797 251.399 201.954 251.618C202.111 251.836 202.333 252 202.589 252.085L224.486 264.728C225.141 265.055 225.863 265.226 226.595 265.226C227.327 265.226 228.049 265.055 228.704 264.728L250.601 252.085C250.857 252 251.079 251.836 251.236 251.618C251.393 251.399 251.478 251.137 251.478 250.868C251.478 250.598 251.393 250.336 251.236 250.117C251.079 249.899 250.857 249.735 250.601 249.65L228.693 237.007Z" fill="url(#paint33_linear_177_1086)"/>
<path style="mix-blend-mode:lighten" opacity="0.5" d="M250.591 250.801V172.699H202.589V250.801C202.602 250.99 202.667 251.171 202.777 251.326C202.886 251.48 203.036 251.601 203.209 251.676L225.107 264.329C225.569 264.561 226.079 264.682 226.596 264.682C227.113 264.682 227.623 264.561 228.085 264.329L249.982 251.742C250.158 251.654 250.307 251.52 250.414 251.355C250.521 251.189 250.582 250.998 250.591 250.801Z" fill="url(#paint34_linear_177_1086)"/>
<path d="M324.043 255.75C322.606 255.776 321.185 255.437 319.914 254.764L298.017 242.122C297.528 241.897 297.108 241.548 296.799 241.108C296.49 240.669 296.303 240.155 296.256 239.62C296.301 239.086 296.488 238.573 296.798 238.135C297.107 237.697 297.528 237.35 298.017 237.129L319.914 224.487C321.195 223.842 322.609 223.507 324.043 223.507C325.477 223.507 326.891 223.842 328.172 224.487L350.07 237.129C350.56 237.348 350.982 237.695 351.292 238.133C351.601 238.571 351.787 239.085 351.83 239.62C351.786 240.156 351.599 240.67 351.29 241.11C350.98 241.55 350.559 241.899 350.07 242.122L328.139 254.764C326.878 255.431 325.47 255.77 324.043 255.75ZM324.043 223.878C322.675 223.854 321.323 224.178 320.113 224.819L298.183 237.461C297.745 237.654 297.368 237.961 297.091 238.351C296.814 238.741 296.648 239.199 296.611 239.675C296.649 240.152 296.816 240.609 297.092 240.998C297.369 241.388 297.746 241.696 298.183 241.889L320.08 254.532C321.3 255.149 322.648 255.47 324.015 255.47C325.383 255.47 326.731 255.149 327.951 254.532L349.848 241.779C350.284 241.583 350.659 241.275 350.936 240.886C351.212 240.496 351.379 240.04 351.42 239.565C351.381 239.089 351.214 238.632 350.937 238.243C350.661 237.853 350.285 237.545 349.848 237.351L327.951 224.708C326.738 224.111 325.395 223.826 324.043 223.878Z" fill="#41AFFF"/>
<path d="M324.043 230.404C322.606 230.43 321.185 230.091 319.914 229.419L298.017 216.776C297.528 216.552 297.108 216.202 296.799 215.763C296.49 215.323 296.303 214.81 296.256 214.275C296.301 213.74 296.488 213.228 296.798 212.79C297.107 212.352 297.528 212.005 298.017 211.784L319.914 199.141C321.195 198.497 322.609 198.161 324.043 198.161C325.477 198.161 326.891 198.497 328.172 199.141L350.07 211.784C350.56 212.003 350.982 212.349 351.292 212.788C351.601 213.226 351.787 213.74 351.83 214.275C351.786 214.81 351.599 215.325 351.29 215.765C350.98 216.204 350.559 216.554 350.07 216.776L328.139 229.419C326.878 230.086 325.47 230.425 324.043 230.404ZM324.043 198.532C322.675 198.509 321.323 198.832 320.113 199.473L298.183 212.116C297.745 212.308 297.368 212.616 297.091 213.006C296.814 213.396 296.648 213.853 296.611 214.33C296.649 214.806 296.816 215.263 297.092 215.653C297.369 216.043 297.746 216.35 298.183 216.544L320.08 229.186C321.3 229.803 322.648 230.125 324.015 230.125C325.383 230.125 326.731 229.803 327.951 229.186L349.848 216.433C350.284 216.238 350.659 215.929 350.936 215.54C351.212 215.151 351.379 214.695 351.42 214.219C351.381 213.743 351.214 213.287 350.937 212.897C350.661 212.508 350.285 212.2 349.848 212.005L327.951 199.363C326.738 198.765 325.395 198.48 324.043 198.532Z" fill="url(#paint35_linear_177_1086)"/>
<path d="M324.043 222.655C322.606 222.681 321.185 222.342 319.914 221.67L298.017 209.027C297.528 208.803 297.108 208.453 296.799 208.013C296.49 207.574 296.303 207.061 296.256 206.525C296.301 205.991 296.488 205.478 296.798 205.041C297.107 204.603 297.528 204.255 298.017 204.034L319.914 191.392C321.195 190.748 322.609 190.412 324.043 190.412C325.477 190.412 326.891 190.748 328.172 191.392L350.07 204.034C350.56 204.253 350.982 204.6 351.292 205.038C351.601 205.477 351.787 205.99 351.83 206.525C351.786 207.061 351.599 207.576 351.29 208.015C350.98 208.455 350.559 208.804 350.07 209.027L328.139 221.67C326.878 222.337 325.47 222.675 324.043 222.655ZM324.043 190.783C322.675 190.759 321.323 191.083 320.113 191.724L298.183 204.367C297.745 204.559 297.368 204.867 297.091 205.257C296.814 205.646 296.648 206.104 296.611 206.581C296.649 207.057 296.816 207.514 297.092 207.904C297.369 208.293 297.746 208.601 298.183 208.795L320.08 221.437C321.3 222.054 322.648 222.375 324.015 222.375C325.383 222.375 326.731 222.054 327.951 221.437L349.848 208.684C350.284 208.489 350.659 208.18 350.936 207.791C351.212 207.402 351.379 206.946 351.42 206.47C351.381 205.994 351.214 205.537 350.937 205.148C350.661 204.758 350.285 204.45 349.848 204.256L327.951 191.613C326.738 191.016 325.395 190.731 324.043 190.783Z" fill="url(#paint36_linear_177_1086)"/>
<path d="M324.043 214.906C322.606 214.932 321.185 214.593 319.914 213.92L298.017 201.278C297.528 201.053 297.108 200.704 296.799 200.264C296.49 199.825 296.303 199.311 296.256 198.776C296.301 198.242 296.488 197.729 296.798 197.291C297.107 196.853 297.528 196.506 298.017 196.285L319.914 183.643C321.195 182.998 322.609 182.663 324.043 182.663C325.477 182.663 326.891 182.998 328.172 183.643L350.07 196.285C350.56 196.504 350.982 196.851 351.292 197.289C351.601 197.727 351.787 198.241 351.83 198.776C351.786 199.312 351.599 199.826 351.29 200.266C350.98 200.706 350.559 201.055 350.07 201.278L328.139 213.92C326.878 214.587 325.47 214.926 324.043 214.906ZM324.043 183.034C322.675 183.01 321.323 183.334 320.113 183.975L298.183 196.617C297.745 196.81 297.368 197.117 297.091 197.507C296.814 197.897 296.648 198.355 296.611 198.831C296.649 199.308 296.816 199.765 297.092 200.154C297.369 200.544 297.746 200.852 298.183 201.045L320.08 213.688C321.3 214.305 322.648 214.626 324.015 214.626C325.383 214.626 326.731 214.305 327.951 213.688L349.848 200.935C350.284 200.739 350.659 200.431 350.936 200.042C351.212 199.652 351.379 199.196 351.42 198.721C351.381 198.245 351.214 197.788 350.937 197.399C350.661 197.009 350.285 196.701 349.848 196.507L327.951 183.864C326.738 183.267 325.395 182.982 324.043 183.034Z" fill="url(#paint37_linear_177_1086)"/>
<path d="M324.043 207.156C322.606 207.182 321.185 206.843 319.914 206.171L298.017 193.528C297.528 193.304 297.108 192.954 296.799 192.515C296.49 192.075 296.303 191.562 296.256 191.027C296.301 190.492 296.488 189.98 296.798 189.542C297.107 189.104 297.528 188.757 298.017 188.536L319.914 175.893C321.195 175.249 322.609 174.913 324.043 174.913C325.477 174.913 326.891 175.249 328.172 175.893L350.07 188.536C350.56 188.755 350.982 189.101 351.292 189.54C351.601 189.978 351.787 190.492 351.83 191.027C351.786 191.562 351.599 192.077 351.29 192.517C350.98 192.956 350.559 193.306 350.07 193.528L328.139 206.171C326.878 206.838 325.47 207.177 324.043 207.156ZM324.043 175.284C322.675 175.261 321.323 175.584 320.113 176.225L298.183 188.868C297.745 189.06 297.368 189.368 297.091 189.758C296.814 190.148 296.648 190.605 296.611 191.082C296.649 191.558 296.816 192.015 297.092 192.405C297.369 192.795 297.746 193.102 298.183 193.296L320.08 205.938C321.3 206.555 322.648 206.877 324.015 206.877C325.383 206.877 326.731 206.555 327.951 205.938L349.848 193.185C350.284 192.99 350.659 192.681 350.936 192.292C351.212 191.903 351.379 191.447 351.42 190.971C351.381 190.495 351.214 190.039 350.937 189.649C350.661 189.26 350.285 188.952 349.848 188.757L327.951 176.115C326.738 175.517 325.395 175.232 324.043 175.284Z" fill="url(#paint38_linear_177_1086)"/>
<path d="M324.043 199.407C322.606 199.433 321.185 199.094 319.914 198.422L298.017 185.779C297.528 185.555 297.108 185.205 296.799 184.765C296.49 184.326 296.303 183.813 296.256 183.277C296.301 182.743 296.488 182.23 296.798 181.792C297.107 181.355 297.528 181.007 298.017 180.786L319.914 168.144C321.195 167.499 322.609 167.164 324.043 167.164C325.477 167.164 326.891 167.499 328.172 168.144L350.07 180.786C350.56 181.005 350.982 181.352 351.292 181.79C351.601 182.229 351.787 182.742 351.83 183.277C351.786 183.813 351.599 184.328 351.29 184.767C350.98 185.207 350.559 185.556 350.07 185.779L328.139 198.422C326.878 199.088 325.47 199.427 324.043 199.407ZM324.043 167.535C322.675 167.511 321.323 167.835 320.113 168.476L298.183 181.119C297.745 181.311 297.368 181.619 297.091 182.009C296.814 182.398 296.648 182.856 296.611 183.333C296.649 183.809 296.816 184.266 297.092 184.656C297.369 185.045 297.746 185.353 298.183 185.547L320.08 198.189C321.3 198.806 322.648 199.127 324.015 199.127C325.383 199.127 326.731 198.806 327.951 198.189L349.848 185.436C350.284 185.24 350.659 184.932 350.936 184.543C351.212 184.154 351.379 183.698 351.42 183.222C351.381 182.746 351.214 182.289 350.937 181.9C350.661 181.51 350.285 181.202 349.848 181.008L327.951 168.365C326.738 167.768 325.395 167.483 324.043 167.535Z" fill="url(#paint39_linear_177_1086)"/>
<path d="M324.043 191.658C322.606 191.684 321.185 191.345 319.914 190.672L298.017 178.03C297.528 177.805 297.108 177.456 296.799 177.016C296.49 176.577 296.303 176.063 296.256 175.528C296.301 174.994 296.488 174.481 296.798 174.043C297.107 173.605 297.528 173.258 298.017 173.037L319.914 160.395C321.195 159.75 322.609 159.415 324.043 159.415C325.477 159.415 326.891 159.75 328.172 160.395L350.07 173.037C350.56 173.256 350.982 173.603 351.292 174.041C351.601 174.479 351.787 174.993 351.83 175.528C351.786 176.064 351.599 176.578 351.29 177.018C350.98 177.458 350.559 177.807 350.07 178.03L328.139 190.672C326.878 191.339 325.47 191.678 324.043 191.658ZM324.043 159.786C322.675 159.762 321.323 160.086 320.113 160.727L298.183 173.369C297.745 173.562 297.368 173.869 297.091 174.259C296.814 174.649 296.648 175.107 296.611 175.583C296.649 176.06 296.816 176.517 297.092 176.906C297.369 177.296 297.746 177.604 298.183 177.797L320.08 190.44C321.3 191.057 322.648 191.378 324.015 191.378C325.383 191.378 326.731 191.057 327.951 190.44L349.848 177.687C350.284 177.491 350.659 177.183 350.936 176.794C351.212 176.404 351.379 175.948 351.42 175.473C351.381 174.997 351.214 174.54 350.937 174.151C350.661 173.761 350.285 173.453 349.848 173.259L327.951 160.616C326.738 160.019 325.395 159.733 324.043 159.786Z" fill="url(#paint40_linear_177_1086)"/>
<path d="M324.043 183.908C322.606 183.934 321.185 183.595 319.914 182.923L298.017 170.281C297.528 170.056 297.108 169.706 296.799 169.267C296.49 168.827 296.303 168.314 296.256 167.779C296.301 167.244 296.488 166.732 296.798 166.294C297.107 165.856 297.528 165.509 298.017 165.288L319.914 152.645C321.195 152.001 322.609 151.665 324.043 151.665C325.477 151.665 326.891 152.001 328.172 152.645L350.07 165.288C350.56 165.507 350.982 165.854 351.292 166.292C351.601 166.73 351.787 167.244 351.83 167.779C351.786 168.315 351.599 168.829 351.29 169.269C350.98 169.709 350.559 170.058 350.07 170.281L328.139 182.923C326.878 183.59 325.47 183.929 324.043 183.908ZM324.043 152.037C322.675 152.013 321.323 152.337 320.113 152.978L298.183 165.62C297.745 165.813 297.368 166.12 297.091 166.51C296.814 166.9 296.648 167.357 296.611 167.834C296.649 168.31 296.816 168.767 297.092 169.157C297.369 169.547 297.746 169.855 298.183 170.048L320.08 182.691C321.3 183.307 322.648 183.629 324.015 183.629C325.383 183.629 326.731 183.307 327.951 182.691L349.848 169.937C350.284 169.742 350.659 169.434 350.936 169.044C351.212 168.655 351.379 168.199 351.42 167.723C351.381 167.247 351.214 166.791 350.937 166.401C350.661 166.012 350.285 165.704 349.848 165.509L327.951 152.867C326.738 152.27 325.395 151.984 324.043 152.037Z" fill="url(#paint41_linear_177_1086)"/>
<path opacity="0.4" d="M352.483 234.771V227.276L351.11 226.513C350.723 228.848 347.966 230.398 345.664 230.719L329.977 239.886L323.124 242.366L301.271 231.085L301.769 230.797C299.898 229.922 298.902 227.919 297.884 226.103L296.411 226.978L295.537 227.221V234.849C295.595 235.426 295.803 235.979 296.141 236.451C296.479 236.923 296.935 237.298 297.463 237.539L319.36 250.181C320.801 250.913 322.394 251.294 324.01 251.294C325.626 251.294 327.219 250.913 328.659 250.181L350.612 237.539C351.133 237.303 351.584 236.936 351.921 236.474C352.259 236.013 352.471 235.472 352.538 234.904V234.771H352.483Z" fill="#41AFFF"/>
<path d="M352.483 228.107V223.147L351.11 222.383C350.723 224.719 347.966 226.269 345.664 226.59L329.977 235.767L323.124 238.236L301.271 226.955L301.769 226.668C299.898 225.793 298.902 223.8 297.884 221.974L296.411 222.848L295.537 223.103V228.184C295.595 228.762 295.803 229.314 296.141 229.786C296.479 230.258 296.935 230.633 297.463 230.874L319.36 243.517C320.803 244.243 322.395 244.621 324.01 244.621C325.625 244.621 327.217 244.243 328.659 243.517L350.612 230.874C351.134 230.637 351.586 230.269 351.924 229.805C352.261 229.341 352.473 228.798 352.538 228.228V228.107H352.483Z" fill="url(#paint42_linear_177_1086)"/>
<path d="M319.36 238.458L297.474 225.826C294.905 224.354 294.905 221.94 297.474 220.457L319.371 207.815C320.813 207.088 322.406 206.71 324.021 206.71C325.635 206.71 327.228 207.088 328.67 207.815L350.612 220.457C353.18 221.94 353.18 224.354 350.612 225.826L328.659 238.458C327.218 239.189 325.625 239.57 324.009 239.57C322.394 239.57 320.801 239.189 319.36 238.458ZM325.504 209.674C325.042 209.443 324.532 209.322 324.015 209.322C323.498 209.322 322.988 209.443 322.526 209.674L300.629 222.317C299.798 222.793 299.798 223.568 300.629 224.033L322.526 236.686C322.988 236.918 323.498 237.039 324.015 237.039C324.532 237.039 325.042 236.918 325.504 236.686L347.401 224.066C347.579 224.002 347.732 223.884 347.84 223.73C347.948 223.575 348.006 223.391 348.006 223.203C348.006 223.014 347.948 222.83 347.84 222.675C347.732 222.521 347.579 222.404 347.401 222.339L325.504 209.674Z" fill="url(#paint43_linear_177_1086)"/>
<path d="M350.612 225.826L328.659 238.457C327.218 239.189 325.625 239.57 324.01 239.57C322.394 239.57 320.801 239.189 319.36 238.457L297.474 225.826C296.997 225.603 296.577 225.273 296.247 224.862C295.917 224.452 295.685 223.971 295.57 223.457C295.545 224.09 295.714 224.715 296.054 225.249C296.395 225.783 296.89 226.201 297.474 226.446L319.371 239.089C320.812 239.82 322.405 240.201 324.021 240.201C325.637 240.201 327.23 239.82 328.67 239.089L350.612 226.446C351.196 226.201 351.691 225.783 352.031 225.249C352.372 224.715 352.541 224.09 352.516 223.457C352.402 223.972 352.171 224.453 351.841 224.864C351.51 225.275 351.09 225.604 350.612 225.826Z" fill="white"/>
<path d="M319.98 238.114L298.082 225.472C295.868 224.188 295.868 222.151 298.082 220.822L319.98 208.18C321.227 207.542 322.608 207.21 324.009 207.21C325.41 207.21 326.791 207.542 328.039 208.18L349.936 220.822C352.151 222.106 352.151 224.143 349.936 225.472L328.039 238.114C326.791 238.752 325.41 239.084 324.009 239.084C322.608 239.084 321.227 238.752 319.98 238.114ZM326.113 209.331C325.462 208.998 324.741 208.824 324.009 208.824C323.278 208.824 322.557 208.998 321.906 209.331L300.009 221.974C299.753 222.059 299.531 222.223 299.374 222.441C299.217 222.66 299.132 222.922 299.132 223.191C299.132 223.461 299.217 223.723 299.374 223.942C299.531 224.16 299.753 224.324 300.009 224.409L321.906 237.052C322.561 237.379 323.283 237.549 324.015 237.549C324.747 237.549 325.469 237.379 326.124 237.052L348.021 224.409C348.277 224.324 348.499 224.16 348.656 223.942C348.813 223.723 348.898 223.461 348.898 223.191C348.898 222.922 348.813 222.66 348.656 222.441C348.499 222.223 348.277 222.059 348.021 221.974L326.113 209.331Z" fill="url(#paint44_linear_177_1086)"/>
<path style="mix-blend-mode:lighten" opacity="0.5" d="M348.011 223.125V145.023H300.009V223.125C300.022 223.314 300.087 223.495 300.196 223.649C300.306 223.804 300.456 223.925 300.629 224L322.527 236.653C322.989 236.885 323.499 237.006 324.016 237.006C324.533 237.006 325.042 236.885 325.505 236.653L347.402 224.066C347.578 223.978 347.727 223.844 347.834 223.678C347.941 223.513 348.002 223.322 348.011 223.125Z" fill="url(#paint45_linear_177_1086)"/>
<path opacity="0.4" d="M153.381 188.353C140.03 188.353 126.679 185.419 116.505 179.496C106.619 173.784 101.184 166.212 101.184 158.097C101.184 149.983 106.619 142.399 116.505 136.698C136.841 124.952 169.931 124.952 190.256 136.698C200.142 142.399 205.589 149.983 205.589 158.097C205.589 166.212 200.142 173.784 190.256 179.496L190.168 179.33L190.256 179.496C180.094 185.419 166.743 188.353 153.381 188.353ZM153.381 128.329C140.096 128.329 126.812 131.24 116.704 137.085C106.94 142.72 101.56 150.204 101.56 158.119C101.56 166.035 106.94 173.552 116.704 179.153C136.93 190.833 169.843 190.833 190.068 179.153C199.832 173.518 205.202 166.035 205.202 158.119C205.202 150.204 199.832 142.687 190.068 137.085C179.95 131.24 166.665 128.329 153.381 128.329Z" fill="#41AFFF"/>
<path opacity="0.2" d="M153.392 196.456C136.443 196.456 119.494 192.726 106.586 185.275C94.054 178.035 87.146 168.404 87.146 158.153C87.146 147.901 94.054 138.226 106.586 131.019C132.391 116.129 174.381 116.129 200.175 131.019C212.718 138.259 219.615 147.89 219.615 158.153C219.615 168.415 212.718 178.079 200.175 185.275C187.278 192.726 170.329 196.456 153.392 196.456ZM153.392 120.225C136.52 120.225 119.638 123.934 106.796 131.351C94.3861 138.525 87.5446 148.034 87.5446 158.153C87.5446 168.271 94.3861 177.78 106.796 184.943C132.491 199.777 174.326 199.789 199.998 184.943C212.408 177.78 219.25 168.26 219.25 158.153C219.25 148.045 212.408 138.525 199.998 131.351C187.09 123.934 170.263 120.225 153.381 120.225H153.392Z" fill="#41AFFF"/>
<g filter="url(#filter3_d_177_1086)">
<path d="M153.381 181.998C142.864 181.998 132.347 179.684 124.321 175.057C116.572 170.562 112.232 164.562 112.232 158.175C112.232 151.787 116.527 145.787 124.321 141.281C140.351 132.037 166.389 132.037 182.441 141.281C190.245 145.787 194.541 151.787 194.541 158.175C194.541 164.562 190.245 170.562 182.441 175.057L182.352 174.891L182.441 175.057C174.437 179.662 163.909 181.998 153.381 181.998ZM153.381 134.727C142.93 134.727 132.469 137.019 124.52 141.613C116.837 146.041 112.619 151.931 112.619 158.219C112.619 164.507 116.837 170.341 124.52 174.769C140.439 183.969 166.333 183.969 182.253 174.769C189.924 170.341 194.153 164.463 194.153 158.219C194.153 151.975 189.924 146.041 182.253 141.613C174.293 136.997 163.842 134.705 153.381 134.705V134.727Z" fill="#41AFFF"/>
</g>
<path opacity="0.4" d="M101.394 221.619L40.5951 186.515C40.1859 186.279 39.846 185.939 39.6097 185.53C39.3734 185.121 39.249 184.657 39.249 184.185C39.249 183.712 39.3734 183.248 39.6097 182.839C39.846 182.43 40.1859 182.09 40.5951 181.854L49.8833 176.452C51.4044 175.567 53.1329 175.101 54.8927 175.101C56.6525 175.101 58.3808 175.567 59.902 176.452L120.668 211.556C121.077 211.791 121.417 212.129 121.654 212.538C121.891 212.946 122.015 213.409 122.015 213.881C122.015 214.353 121.891 214.817 121.654 215.225C121.417 215.633 121.077 215.971 120.668 216.206L111.391 221.619C109.868 222.489 108.146 222.947 106.392 222.947C104.639 222.947 102.916 222.489 101.394 221.619Z" fill="#00080E"/>
<path d="M70.9614 185.729L61.2305 180.116L63.1678 178.998L72.8987 184.611L70.9614 185.729Z" fill="#41AFFF"/>
<path d="M98.3943 201.969L95.4053 200.242L97.3426 199.124L100.332 200.851L98.3943 201.969Z" fill="#41AFFF"/>
<path d="M76.5964 189.072L73.6074 187.345L75.5448 186.227L78.5338 187.954L76.5964 189.072Z" fill="#41AFFF"/>
<path d="M106.409 214.623C104.609 214.626 102.841 214.152 101.283 213.25L40.4845 178.157C40.0418 177.901 39.6745 177.533 39.4198 177.09C39.1651 176.647 39.0321 176.144 39.0343 175.633C39.0306 175.123 39.1631 174.621 39.418 174.179C39.673 173.738 40.0411 173.372 40.4845 173.12L49.7726 167.706C51.3297 166.809 53.0954 166.336 54.8927 166.336C56.69 166.336 58.4557 166.809 60.0128 167.706L120.812 202.811C121.257 203.064 121.627 203.431 121.884 203.875C122.141 204.318 122.275 204.822 122.273 205.335C122.274 205.846 122.14 206.348 121.883 206.789C121.626 207.231 121.256 207.596 120.812 207.848L111.535 213.25C109.977 214.152 108.209 214.626 106.409 214.623ZM54.8872 166.776C53.1652 166.778 51.4739 167.232 49.9829 168.094L40.7059 173.496C40.3275 173.709 40.0129 174.02 39.7949 174.396C39.5769 174.771 39.4634 175.198 39.466 175.633C39.4634 176.067 39.5769 176.494 39.7949 176.87C40.0129 177.246 40.3275 177.556 40.7059 177.769L101.505 212.874C102.996 213.734 104.688 214.186 106.409 214.186C108.131 214.186 109.822 213.734 111.313 212.874L120.59 207.471C120.968 207.257 121.282 206.947 121.5 206.571C121.718 206.196 121.832 205.769 121.83 205.335C121.831 204.899 121.717 204.471 121.499 204.094C121.282 203.717 120.968 203.404 120.59 203.187L59.7803 168.094C58.2938 167.231 56.6058 166.777 54.8872 166.776Z" fill="#41AFFF"/>
<defs>
<filter id="filter0_d_177_1086" x="266.91" y="104.171" width="47.6772" height="44.4402" filterUnits="userSpaceOnUse" color-interpolation-filters="sRGB">
<feFlood flood-opacity="0" result="BackgroundImageFix"/>
<feColorMatrix in="SourceAlpha" type="matrix" values="0 0 0 0 0 0 0 0 0 0 0 0 0 0 0 0 0 0 127 0" result="hardAlpha"/>
<feOffset/>
<feGaussianBlur stdDeviation="10"/>
<feComposite in2="hardAlpha" operator="out"/>
<feColorMatrix type="matrix" values="0 0 0 0 0.254167 0 0 0 0 0.68675 0 0 0 0 1 0 0 0 1 0"/>
<feBlend mode="normal" in2="BackgroundImageFix" result="effect1_dropShadow_177_1086"/>
<feBlend mode="normal" in="SourceGraphic" in2="effect1_dropShadow_177_1086" result="shape"/>
</filter>
<filter id="filter1_d_177_1086" x="246.43" y="92.3494" width="57.7998" height="50.2825" filterUnits="userSpaceOnUse" color-interpolation-filters="sRGB">
<feFlood flood-opacity="0" result="BackgroundImageFix"/>
<feColorMatrix in="SourceAlpha" type="matrix" values="0 0 0 0 0 0 0 0 0 0 0 0 0 0 0 0 0 0 127 0" result="hardAlpha"/>
<feOffset/>
<feGaussianBlur stdDeviation="10"/>
<feComposite in2="hardAlpha" operator="out"/>
<feColorMatrix type="matrix" values="0 0 0 0 0.254167 0 0 0 0 0.68675 0 0 0 0 1 0 0 0 1 0"/>
<feBlend mode="normal" in2="BackgroundImageFix" result="effect1_dropShadow_177_1086"/>
<feBlend mode="normal" in="SourceGraphic" in2="effect1_dropShadow_177_1086" result="shape"/>
</filter>
<filter id="filter2_d_177_1086" x="185.764" y="55.5181" width="57.7998" height="50.2825" filterUnits="userSpaceOnUse" color-interpolation-filters="sRGB">
<feFlood flood-opacity="0" result="BackgroundImageFix"/>
<feColorMatrix in="SourceAlpha" type="matrix" values="0 0 0 0 0 0 0 0 0 0 0 0 0 0 0 0 0 0 127 0" result="hardAlpha"/>
<feOffset/>
<feGaussianBlur stdDeviation="10"/>
<feComposite in2="hardAlpha" operator="out"/>
<feColorMatrix type="matrix" values="0 0 0 0 0.254167 0 0 0 0 0.68675 0 0 0 0 1 0 0 0 1 0"/>
<feBlend mode="normal" in2="BackgroundImageFix" result="effect1_dropShadow_177_1086"/>
<feBlend mode="normal" in="SourceGraphic" in2="effect1_dropShadow_177_1086" result="shape"/>
</filter>
<filter id="filter3_d_177_1086" x="108.232" y="130.348" width="90.3086" height="55.6499" filterUnits="userSpaceOnUse" color-interpolation-filters="sRGB">
<feFlood flood-opacity="0" result="BackgroundImageFix"/>
<feColorMatrix in="SourceAlpha" type="matrix" values="0 0 0 0 0 0 0 0 0 0 0 0 0 0 0 0 0 0 127 0" result="hardAlpha"/>
<feOffset/>
<feGaussianBlur stdDeviation="2"/>
<feComposite in2="hardAlpha" operator="out"/>
<feColorMatrix type="matrix" values="0 0 0 0 0.254167 0 0 0 0 0.68675 0 0 0 0 1 0 0 0 1 0"/>
<feBlend mode="normal" in2="BackgroundImageFix" result="effect1_dropShadow_177_1086"/>
<feBlend mode="normal" in="SourceGraphic" in2="effect1_dropShadow_177_1086" result="shape"/>
</filter>
<linearGradient id="paint0_linear_177_1086" x1="0.166176" y1="168.382" x2="321.53" y2="168.382" gradientUnits="userSpaceOnUse">
<stop stop-color="#BCBEFF"/>
<stop offset="1" stop-color="#5761D7"/>
</linearGradient>
<linearGradient id="paint1_linear_177_1086" x1="208.634" y1="66.4227" x2="113.428" y2="246.871" gradientUnits="userSpaceOnUse">
<stop stop-color="#0F054C"/>
<stop offset="1" stop-color="#1F0E31"/>
</linearGradient>
<linearGradient id="paint2_linear_177_1086" x1="205.611" y1="213.848" x2="115.907" y2="94.7962" gradientUnits="userSpaceOnUse">
<stop stop-color="#41AFFF"/>
<stop offset="1" stop-color="#0F054C"/>
</linearGradient>
<linearGradient id="paint3_linear_177_1086" x1="205.611" y1="205.642" x2="115.907" y2="86.5899" gradientUnits="userSpaceOnUse">
<stop stop-color="#41AFFF"/>
<stop offset="1" stop-color="#0F054C"/>
</linearGradient>
<linearGradient id="paint4_linear_177_1086" x1="205.611" y1="197.435" x2="115.907" y2="78.3836" gradientUnits="userSpaceOnUse">
<stop stop-color="#41AFFF"/>
<stop offset="1" stop-color="#0F054C"/>
</linearGradient>
<radialGradient id="paint5_radial_177_1086" cx="0" cy="0" r="1" gradientUnits="userSpaceOnUse" gradientTransform="translate(152.872 157.355) scale(251.532 251.532)">
<stop stop-color="#41AFFF"/>
<stop offset="1" stop-color="#0F054C"/>
</radialGradient>
<linearGradient id="paint6_linear_177_1086" x1="301.792" y1="247.181" x2="346.97" y2="273.263" gradientUnits="userSpaceOnUse">
<stop stop-color="#BCBEFF"/>
<stop offset="0.23" stop-color="#AAADF8"/>
<stop offset="0.68" stop-color="#7C83E5"/>
<stop offset="1" stop-color="#5761D7"/>
</linearGradient>
<linearGradient id="paint7_linear_177_1086" x1="296.123" y1="257.045" x2="353.07" y2="257.045" gradientUnits="userSpaceOnUse">
<stop stop-color="#E9E9FD"/>
<stop offset="0.36" stop-color="#D3D2F9"/>
<stop offset="0.71" stop-color="#C5C4F7"/>
<stop offset="1" stop-color="#C0BFF6"/>
</linearGradient>
<linearGradient id="paint8_linear_177_1086" x1="204.294" y1="276.684" x2="249.473" y2="302.777" gradientUnits="userSpaceOnUse">
<stop stop-color="#BCBEFF"/>
<stop offset="0.23" stop-color="#AAADF8"/>
<stop offset="0.68" stop-color="#7C83E5"/>
<stop offset="1" stop-color="#5761D7"/>
</linearGradient>
<linearGradient id="paint9_linear_177_1086" x1="198.626" y1="286.548" x2="255.572" y2="286.548" gradientUnits="userSpaceOnUse">
<stop stop-color="#E9E9FD"/>
<stop offset="0.36" stop-color="#D3D2F9"/>
<stop offset="0.71" stop-color="#C5C4F7"/>
<stop offset="1" stop-color="#C0BFF6"/>
</linearGradient>
<linearGradient id="paint10_linear_177_1086" x1="17.0152" y1="100.686" x2="62.1938" y2="126.768" gradientUnits="userSpaceOnUse">
<stop stop-color="#BCBEFF"/>
<stop offset="0.23" stop-color="#AAADF8"/>
<stop offset="0.68" stop-color="#7C83E5"/>
<stop offset="1" stop-color="#5761D7"/>
</linearGradient>
<linearGradient id="paint11_linear_177_1086" x1="11.3468" y1="110.549" x2="68.2933" y2="110.549" gradientUnits="userSpaceOnUse">
<stop stop-color="#E9E9FD"/>
<stop offset="0.36" stop-color="#D3D2F9"/>
<stop offset="0.71" stop-color="#C5C4F7"/>
<stop offset="1" stop-color="#C0BFF6"/>
</linearGradient>
<linearGradient id="paint12_linear_177_1086" x1="19.7274" y1="66.5114" x2="60.0128" y2="89.7704" gradientUnits="userSpaceOnUse">
<stop offset="0.24" stop-color="#5761D7"/>
<stop offset="0.39" stop-color="#7A82E5"/>
<stop offset="0.55" stop-color="#979CF0"/>
<stop offset="0.7" stop-color="#ACAFF8"/>
<stop offset="0.85" stop-color="#B8BAFD"/>
<stop offset="1" stop-color="#BCBEFF"/>
</linearGradient>
<linearGradient id="paint13_linear_177_1086" x1="39.8532" y1="53.1382" x2="39.8532" y2="85.3826" gradientUnits="userSpaceOnUse">
<stop stop-color="#41AFFF" stop-opacity="0"/>
<stop offset="1" stop-color="#41AFFF"/>
</linearGradient>
<linearGradient id="paint14_linear_177_1086" x1="39.8532" y1="45.3889" x2="39.8532" y2="77.6334" gradientUnits="userSpaceOnUse">
<stop stop-color="#41AFFF" stop-opacity="0"/>
<stop offset="1" stop-color="#41AFFF"/>
</linearGradient>
<linearGradient id="paint15_linear_177_1086" x1="39.8532" y1="37.6396" x2="39.8532" y2="69.8841" gradientUnits="userSpaceOnUse">
<stop stop-color="#41AFFF" stop-opacity="0"/>
<stop offset="1" stop-color="#41AFFF"/>
</linearGradient>
<linearGradient id="paint16_linear_177_1086" x1="39.8532" y1="29.8901" x2="39.8532" y2="62.1346" gradientUnits="userSpaceOnUse">
<stop stop-color="#41AFFF" stop-opacity="0"/>
<stop offset="1" stop-color="#41AFFF"/>
</linearGradient>
<linearGradient id="paint17_linear_177_1086" x1="39.8532" y1="22.1409" x2="39.8532" y2="54.3853" gradientUnits="userSpaceOnUse">
<stop stop-color="#41AFFF" stop-opacity="0"/>
<stop offset="1" stop-color="#41AFFF"/>
</linearGradient>
<linearGradient id="paint18_linear_177_1086" x1="39.8532" y1="14.3916" x2="39.8532" y2="46.6361" gradientUnits="userSpaceOnUse">
<stop stop-color="#41AFFF" stop-opacity="0"/>
<stop offset="1" stop-color="#41AFFF"/>
</linearGradient>
<linearGradient id="paint19_linear_177_1086" x1="39.8532" y1="6.64233" x2="39.8532" y2="38.8868" gradientUnits="userSpaceOnUse">
<stop stop-color="#41AFFF" stop-opacity="0"/>
<stop offset="1" stop-color="#41AFFF"/>
</linearGradient>
<linearGradient id="paint20_linear_177_1086" x1="17.0152" y1="68.2604" x2="62.1938" y2="94.3424" gradientUnits="userSpaceOnUse">
<stop stop-color="#BCBEFF"/>
<stop offset="0.23" stop-color="#AAADF8"/>
<stop offset="0.68" stop-color="#7C83E5"/>
<stop offset="1" stop-color="#5761D7"/>
</linearGradient>
<linearGradient id="paint21_linear_177_1086" x1="11.3468" y1="78.1242" x2="68.2933" y2="78.1242" gradientUnits="userSpaceOnUse">
<stop stop-color="#E9E9FD"/>
<stop offset="0.36" stop-color="#D3D2F9"/>
<stop offset="0.71" stop-color="#C5C4F7"/>
<stop offset="1" stop-color="#C0BFF6"/>
</linearGradient>
<linearGradient id="paint22_linear_177_1086" x1="12.2214" y1="78.1241" x2="67.4187" y2="78.1241" gradientUnits="userSpaceOnUse">
<stop stop-color="#E9E9FD"/>
<stop offset="0.36" stop-color="#D3D2F9"/>
<stop offset="0.71" stop-color="#C5C4F7"/>
<stop offset="1" stop-color="#C0BFF6"/>
</linearGradient>
<linearGradient id="paint23_linear_177_1086" x1="39.8201" y1="91.9844" x2="39.8201" y2="0" gradientUnits="userSpaceOnUse">
<stop stop-color="#41AFFF"/>
<stop offset="1" stop-color="#41AFFF" stop-opacity="0"/>
</linearGradient>
<linearGradient id="paint24_linear_177_1086" x1="226.623" y1="225.837" x2="226.623" y2="258.082" gradientUnits="userSpaceOnUse">
<stop stop-color="#41AFFF" stop-opacity="0"/>
<stop offset="1" stop-color="#41AFFF"/>
</linearGradient>
<linearGradient id="paint25_linear_177_1086" x1="226.623" y1="218.088" x2="226.623" y2="250.333" gradientUnits="userSpaceOnUse">
<stop stop-color="#41AFFF" stop-opacity="0"/>
<stop offset="1" stop-color="#41AFFF"/>
</linearGradient>
<linearGradient id="paint26_linear_177_1086" x1="226.623" y1="210.339" x2="226.623" y2="242.583" gradientUnits="userSpaceOnUse">
<stop stop-color="#41AFFF" stop-opacity="0"/>
<stop offset="1" stop-color="#41AFFF"/>
</linearGradient>
<linearGradient id="paint27_linear_177_1086" x1="226.623" y1="202.589" x2="226.623" y2="234.834" gradientUnits="userSpaceOnUse">
<stop stop-color="#41AFFF" stop-opacity="0"/>
<stop offset="1" stop-color="#41AFFF"/>
</linearGradient>
<linearGradient id="paint28_linear_177_1086" x1="226.623" y1="194.84" x2="226.623" y2="227.085" gradientUnits="userSpaceOnUse">
<stop stop-color="#41AFFF" stop-opacity="0"/>
<stop offset="1" stop-color="#41AFFF"/>
</linearGradient>
<linearGradient id="paint29_linear_177_1086" x1="226.623" y1="187.091" x2="226.623" y2="219.335" gradientUnits="userSpaceOnUse">
<stop stop-color="#41AFFF" stop-opacity="0"/>
<stop offset="1" stop-color="#41AFFF"/>
</linearGradient>
<linearGradient id="paint30_linear_177_1086" x1="226.623" y1="179.342" x2="226.623" y2="211.586" gradientUnits="userSpaceOnUse">
<stop stop-color="#41AFFF" stop-opacity="0"/>
<stop offset="1" stop-color="#41AFFF"/>
</linearGradient>
<linearGradient id="paint31_linear_177_1086" x1="203.785" y1="240.96" x2="248.963" y2="267.042" gradientUnits="userSpaceOnUse">
<stop stop-color="#BCBEFF"/>
<stop offset="0.23" stop-color="#AAADF8"/>
<stop offset="0.68" stop-color="#7C83E5"/>
<stop offset="1" stop-color="#5761D7"/>
</linearGradient>
<linearGradient id="paint32_linear_177_1086" x1="198.116" y1="250.823" x2="255.063" y2="250.823" gradientUnits="userSpaceOnUse">
<stop stop-color="#E9E9FD"/>
<stop offset="0.36" stop-color="#D3D2F9"/>
<stop offset="0.71" stop-color="#C5C4F7"/>
<stop offset="1" stop-color="#C0BFF6"/>
</linearGradient>
<linearGradient id="paint33_linear_177_1086" x1="198.991" y1="250.823" x2="254.188" y2="250.823" gradientUnits="userSpaceOnUse">
<stop stop-color="#E9E9FD"/>
<stop offset="1" stop-color="#C0BFF6"/>
</linearGradient>
<linearGradient id="paint34_linear_177_1086" x1="226.59" y1="264.684" x2="226.59" y2="172.699" gradientUnits="userSpaceOnUse">
<stop stop-color="#41AFFF"/>
<stop offset="1" stop-color="#41AFFF" stop-opacity="0"/>
</linearGradient>
<linearGradient id="paint35_linear_177_1086" x1="324.043" y1="198.161" x2="324.043" y2="230.406" gradientUnits="userSpaceOnUse">
<stop stop-color="#41AFFF" stop-opacity="0"/>
<stop offset="1" stop-color="#41AFFF"/>
</linearGradient>
<linearGradient id="paint36_linear_177_1086" x1="324.043" y1="190.412" x2="324.043" y2="222.656" gradientUnits="userSpaceOnUse">
<stop stop-color="#41AFFF" stop-opacity="0"/>
<stop offset="1" stop-color="#41AFFF"/>
</linearGradient>
<linearGradient id="paint37_linear_177_1086" x1="324.043" y1="182.663" x2="324.043" y2="214.907" gradientUnits="userSpaceOnUse">
<stop stop-color="#41AFFF" stop-opacity="0"/>
<stop offset="1" stop-color="#41AFFF"/>
</linearGradient>
<linearGradient id="paint38_linear_177_1086" x1="324.043" y1="174.913" x2="324.043" y2="207.158" gradientUnits="userSpaceOnUse">
<stop stop-color="#41AFFF" stop-opacity="0"/>
<stop offset="1" stop-color="#41AFFF"/>
</linearGradient>
<linearGradient id="paint39_linear_177_1086" x1="324.043" y1="167.164" x2="324.043" y2="199.408" gradientUnits="userSpaceOnUse">
<stop stop-color="#41AFFF" stop-opacity="0"/>
<stop offset="1" stop-color="#41AFFF"/>
</linearGradient>
<linearGradient id="paint40_linear_177_1086" x1="324.043" y1="159.415" x2="324.043" y2="191.659" gradientUnits="userSpaceOnUse">
<stop stop-color="#41AFFF" stop-opacity="0"/>
<stop offset="1" stop-color="#41AFFF"/>
</linearGradient>
<linearGradient id="paint41_linear_177_1086" x1="324.043" y1="151.665" x2="324.043" y2="183.91" gradientUnits="userSpaceOnUse">
<stop stop-color="#41AFFF" stop-opacity="0"/>
<stop offset="1" stop-color="#41AFFF"/>
</linearGradient>
<linearGradient id="paint42_linear_177_1086" x1="301.205" y1="213.283" x2="346.383" y2="239.365" gradientUnits="userSpaceOnUse">
<stop stop-color="#BCBEFF"/>
<stop offset="0.23" stop-color="#AAADF8"/>
<stop offset="0.68" stop-color="#7C83E5"/>
<stop offset="1" stop-color="#5761D7"/>
</linearGradient>
<linearGradient id="paint43_linear_177_1086" x1="295.536" y1="223.147" x2="352.483" y2="223.147" gradientUnits="userSpaceOnUse">
<stop stop-color="#E9E9FD"/>
<stop offset="0.36" stop-color="#D3D2F9"/>
<stop offset="0.71" stop-color="#C5C4F7"/>
<stop offset="1" stop-color="#C0BFF6"/>
</linearGradient>
<linearGradient id="paint44_linear_177_1086" x1="296.411" y1="223.147" x2="351.608" y2="223.147" gradientUnits="userSpaceOnUse">
<stop stop-color="#E9E9FD"/>
<stop offset="0.36" stop-color="#D3D2F9"/>
<stop offset="0.71" stop-color="#C5C4F7"/>
<stop offset="1" stop-color="#C0BFF6"/>
</linearGradient>
<linearGradient id="paint45_linear_177_1086" x1="324.01" y1="237.007" x2="324.01" y2="145.023" gradientUnits="userSpaceOnUse">
<stop stop-color="#41AFFF"/>
<stop offset="1" stop-color="#41AFFF" stop-opacity="0"/>
</linearGradient>
</defs>
</svg>