<svg width="46" height="35" viewBox="0 0 46 35" fill="none" xmlns="http://www.w3.org/2000/svg">
<path d="M38.9478 2.95599C38.9351 2.93125 38.9139 2.91187 38.8881 2.9013C35.9098 1.53479 32.7667 0.560355 29.5376 0.00239014C29.5083 -0.00306386 29.478 0.00087072 29.451 0.0136343C29.4241 0.0263979 29.4018 0.0473406 29.3874 0.0734841C28.9594 0.850275 28.5709 1.64817 28.2233 2.46412C24.7426 1.93574 21.202 1.93574 17.7213 2.46412C17.3714 1.64609 16.9767 0.848004 16.5389 0.0734841C16.5238 0.0479087 16.5015 0.0274483 16.4747 0.0147677C16.4479 0.00208702 16.4178 -0.00222615 16.3885 0.00239014C13.1591 0.559183 10.0159 1.53369 7.0379 2.90138C7.01241 2.91219 6.9909 2.93064 6.97634 2.9542C1.02093 11.8478 -0.610481 20.5228 0.189833 29.0903C0.192085 29.1113 0.198536 29.1316 0.208803 29.1501C0.219071 29.1685 0.232944 29.1847 0.249599 29.1977C3.71738 31.7653 7.59613 33.7252 11.7203 34.9937C11.7494 35.0025 11.7804 35.0021 11.8092 34.9926C11.838 34.9832 11.8633 34.9651 11.8815 34.9409C12.7673 33.7357 13.5522 32.4594 14.2282 31.1251C14.2374 31.1068 14.2427 31.0868 14.2437 31.0662C14.2447 31.0457 14.2413 31.0253 14.2338 31.0062C14.2262 30.9871 14.2148 30.9698 14.2001 30.9554C14.1854 30.9411 14.1678 30.93 14.1485 30.9229C12.9109 30.4494 11.7126 29.8785 10.5651 29.2157C10.5443 29.2034 10.5267 29.1862 10.5141 29.1656C10.5015 29.145 10.4941 29.1216 10.4927 29.0974C10.4913 29.0733 10.4958 29.0492 10.5059 29.0272C10.516 29.0052 10.5314 28.9861 10.5506 28.9715C10.7914 28.7911 11.0324 28.6034 11.2623 28.4139C11.2827 28.3971 11.3074 28.3863 11.3337 28.3827C11.3599 28.3792 11.3866 28.3831 11.4107 28.3939C18.9286 31.8249 27.0678 31.8249 34.4967 28.3939C34.5209 28.3824 34.5479 28.378 34.5745 28.3812C34.6011 28.3844 34.6263 28.3951 34.647 28.4121C34.877 28.6016 35.1179 28.7911 35.3605 28.9715C35.3798 28.9859 35.3953 29.005 35.4056 29.0268C35.4158 29.0487 35.4206 29.0728 35.4193 29.0969C35.4181 29.1211 35.4109 29.1445 35.3984 29.1653C35.3859 29.186 35.3686 29.2033 35.3478 29.2157C34.2029 29.8841 33.0036 30.4546 31.7627 30.9211C31.7434 30.9285 31.7259 30.9398 31.7113 30.9544C31.6967 30.9689 31.6853 30.9864 31.678 31.0057C31.6706 31.0249 31.6674 31.0455 31.6685 31.0661C31.6696 31.0867 31.6751 31.1068 31.6845 31.1251C32.3718 32.452 33.1555 33.7266 34.0294 34.9388C34.0471 34.9637 34.0722 34.9823 34.1011 34.9922C34.1301 35.002 34.1613 35.0024 34.1906 34.9935C38.3221 33.7293 42.2077 31.7692 45.6798 29.1977C45.6967 29.1854 45.7108 29.1696 45.7211 29.1513C45.7314 29.1331 45.7377 29.1129 45.7396 29.0921C46.6977 19.1871 44.1355 10.5833 38.9478 2.95599ZM15.3509 23.8736C13.0874 23.8736 11.2224 21.7964 11.2224 19.2455C11.2224 16.6945 13.0513 14.6173 15.3509 14.6173C17.6685 14.6173 19.5154 16.7126 19.4793 19.2453C19.4793 21.7964 17.6504 23.8736 15.3509 23.8736ZM30.615 23.8736C28.3516 23.8736 26.4866 21.7964 26.4866 19.2455C26.4866 16.6945 28.3155 14.6173 30.615 14.6173C32.9327 14.6173 34.7796 16.7126 34.7434 19.2453C34.7434 21.7964 32.9327 23.8736 30.615 23.8736Z" fill="white"/>
</svg>
