<svg width="36" height="35" viewBox="0 0 36 35" fill="none" xmlns="http://www.w3.org/2000/svg">
<path fill-rule="evenodd" clip-rule="evenodd" d="M0.1875 2.92395C0.1875 2.14848 0.495562 1.40476 1.04391 0.856409C1.59226 0.308062 2.33598 0 3.11145 0H32.2634C32.6475 0 33.0277 0.0756352 33.3824 0.222578C33.7372 0.369521 34.0595 0.584893 34.3311 0.856409C34.6025 1.12793 34.8179 1.45026 34.9649 1.805C35.1118 2.15976 35.1875 2.53997 35.1875 2.92395V32.0759C35.1875 32.46 35.1118 32.8402 34.9649 33.1949C34.8179 33.5497 34.6025 33.872 34.3311 34.1436C34.0595 34.415 33.7372 34.6304 33.3824 34.7774C33.0277 34.9243 32.6475 35 32.2634 35H3.11145C2.33598 35 1.59226 34.6918 1.04391 34.1436C0.495562 33.5952 0.1875 32.8515 0.1875 32.0759V2.92395ZM14.0416 13.3437H18.7813V15.7253C19.4645 14.3557 21.2152 13.125 23.8452 13.125C28.8867 13.125 30.0833 15.8506 30.0833 20.8519V30.1146H24.9791V21.9909C24.9791 19.1428 24.296 17.5364 22.5583 17.5364C20.1484 17.5364 19.1458 19.2682 19.1458 21.9909V30.1146H14.0416V13.3437ZM5.29165 29.8958H10.3958V13.125H5.29165V29.8958ZM11.125 7.65623C11.125 8.08713 11.0401 8.51382 10.8752 8.91191C10.7103 9.31001 10.4686 9.67173 10.1639 9.97642C9.85923 10.2811 9.49751 10.5228 9.09941 10.6877C8.70132 10.8526 8.27463 10.9375 7.84373 10.9375C7.41285 10.9375 6.98616 10.8526 6.58807 10.6877C6.18995 10.5228 5.82824 10.2811 5.52354 9.97642C5.21885 9.67173 4.97717 9.31001 4.81226 8.91191C4.64737 8.51382 4.56249 8.08713 4.56249 7.65623C4.56249 6.786 4.9082 5.9514 5.52354 5.33604C6.1389 4.7207 6.9735 4.37499 7.84373 4.37499C8.71398 4.37499 9.54858 4.7207 10.1639 5.33604C10.7793 5.9514 11.125 6.786 11.125 7.65623Z" fill="white"/>
</svg>
