<svg width="42" height="35" viewBox="0 0 42 35" fill="none" xmlns="http://www.w3.org/2000/svg">
<path d="M37.0999 8.75001V9.84501C37.0999 13.8825 36.222 17.78 34.4662 21.54C32.7104 25.2975 29.9987 28.48 26.3312 31.0875C22.6611 33.6975 18.4175 35 13.5928 35C8.92914 35 4.71322 33.6825 0.9375 31.045C1.35758 31.1025 2.01161 31.13 2.90209 31.13C6.83376 31.13 10.2649 29.8675 13.2004 27.345C11.4195 27.345 9.81962 26.77 8.40593 25.62C6.99213 24.4725 5.95224 22.9345 5.41755 21.2C5.78481 21.3125 6.31054 21.3675 6.98972 21.3675C7.77706 21.3675 8.50906 21.2825 9.19075 21.1175C7.30415 20.6675 5.73199 19.63 4.47425 18.0025C3.21652 16.3775 2.58765 14.525 2.58765 12.45V12.2825C3.79508 13.01 5.02514 13.375 6.28287 13.375C3.81772 11.6925 2.58765 9.25251 2.58765 6.05501C2.58765 4.59751 2.98258 3.11001 3.76992 1.59501C8.11665 7.43001 13.7764 10.515 20.7493 10.85C20.5925 10.1888 20.5123 9.51186 20.5103 8.83251C20.5103 6.42001 21.3103 4.34501 22.9076 2.60751C24.51 0.867506 26.462 0 28.7686 0C31.1785 0 33.1959 0.925006 34.8209 2.77501C36.8634 2.32751 38.6192 1.62501 40.0857 0.675006C39.4569 2.75001 38.2519 4.37501 36.471 5.55251C38.3073 5.27251 39.8769 4.79501 41.1875 4.12251C40.1094 5.89183 38.7256 7.45833 37.0999 8.75001Z" fill="white"/>
</svg>
