<svg width="400" height="249" viewBox="0 0 400 249" fill="none" xmlns="http://www.w3.org/2000/svg">
<rect x="-1.49012e-08" y="0.25" width="211.978" height="211.978" rx="9.75" transform="matrix(0.866025 0.5 -0.866025 0.5 215.809 36.1945)" stroke="#41AFFF" stroke-width="0.5"/>
<path d="M392.413 112.958L373.39 116.224L255.968 48.4427C250.068 45.0472 239.779 45.4644 232.944 49.3923L72.5933 106.051L38.9639 111.806L38.9639 123.734C38.9639 125.906 40.2302 128.05 42.9211 129.489L202.738 224.881C208.623 228.291 218.912 227.859 225.762 223.931L386.787 132.266C390.456 130.151 392.341 127.446 392.399 124.885L392.413 112.958Z" fill="url(#paint0_linear_164_624)"/>
<rect width="212.478" height="212.478" rx="10" transform="matrix(0.866025 0.5 -0.866025 0.5 215.792 7.35417)" fill="#FEFFFF"/>
<rect width="212.478" height="212.478" rx="10" transform="matrix(0.866025 0.5 -0.866025 0.5 215.593 6)" fill="#C7C6F8"/>
<rect width="204.384" height="204.384" rx="10" transform="matrix(0.866025 0.5 -0.866025 0.5 215.593 10.0473)" fill="url(#paint1_linear_164_624)"/>
<g style="mix-blend-mode:lighten" opacity="0.2">
<rect width="204.384" height="204.384" rx="10" transform="matrix(0.866025 0.5 -0.866025 0.5 215.593 10.0473)" fill="url(#paint2_radial_164_624)"/>
</g>
<g filter="url(#filter0_d_164_624)">
<path d="M181.482 113.282L181.915 113.532L182.348 113.282L222.655 90.0106L223.088 89.7606L222.655 89.5106L211.46 83.0469L211.027 82.7969L210.594 83.0469L189.236 95.378L196.718 74.7621L196.786 74.5748L196.551 74.4396L185.356 67.9758L184.923 67.7258L184.49 67.9758L144.183 91.2473L143.75 91.4973L144.183 91.7473L155.378 98.211L155.811 98.461L156.244 98.211L177.332 86.0361L170.119 106.498L170.054 106.684L170.286 106.818L181.482 113.282ZM256.336 109.456L256.769 109.206L256.336 108.956L229.033 93.1926L228.6 92.9426L228.167 93.1926L187.859 116.464L187.426 116.714L187.859 116.964L199.055 123.428L199.488 123.678L199.921 123.428L215.268 114.567L226.716 121.177L227.149 121.427L227.582 121.177L236.1 116.258L236.533 116.008L236.1 115.758L224.652 109.149L230.876 105.556L246.551 114.606L246.984 114.856L247.417 114.606L256.336 109.456ZM291.382 129.69L291.815 129.44L291.382 129.19L258.823 110.392L258.39 110.142L257.957 110.392L249.038 115.542L248.605 115.792L249.038 116.042L259.229 121.926L228.274 139.798L227.841 140.048L228.274 140.298L239.47 146.761L239.903 147.011L240.336 146.761L271.291 128.889L281.597 134.839L282.03 135.089L282.463 134.839L291.382 129.69Z" stroke="url(#paint3_linear_164_624)" shape-rendering="crispEdges"/>
</g>
<g opacity="0.5" filter="url(#filter1_d_164_624)">
<path d="M181.482 106.723L181.915 106.973L182.348 106.723L222.655 83.4514L223.088 83.2014L222.655 82.9514L211.46 76.4877L211.027 76.2377L210.594 76.4877L189.236 88.8188L196.718 68.2029L196.786 68.0156L196.551 67.8804L185.356 61.4166L184.923 61.1666L184.49 61.4166L144.183 84.6881L143.75 84.9381L144.183 85.1881L155.378 91.6518L155.811 91.9018L156.244 91.6518L177.332 79.4769L170.119 99.9386L170.054 100.125L170.286 100.259L181.482 106.723ZM256.336 102.897L256.769 102.647L256.336 102.397L229.033 86.6334L228.6 86.3834L228.167 86.6334L187.859 109.905L187.426 110.155L187.859 110.405L199.055 116.869L199.488 117.119L199.921 116.869L215.268 108.008L226.716 114.617L227.149 114.867L227.582 114.617L236.1 109.699L236.533 109.449L236.1 109.199L224.652 102.59L230.876 98.9965L246.551 108.046L246.984 108.296L247.417 108.046L256.336 102.897ZM291.382 123.131L291.815 122.881L291.382 122.631L258.823 103.833L258.39 103.583L257.957 103.833L249.038 108.982L248.605 109.232L249.038 109.482L259.229 115.366L228.274 133.238L227.841 133.488L228.274 133.738L239.47 140.202L239.903 140.452L240.336 140.202L271.291 122.33L281.597 128.28L282.03 128.53L282.463 128.28L291.382 123.131Z" stroke="url(#paint4_linear_164_624)" shape-rendering="crispEdges"/>
</g>
<g opacity="0.3" filter="url(#filter2_d_164_624)">
<path d="M181.482 100.164L181.915 100.414L182.348 100.164L222.655 76.8922L223.088 76.6422L222.655 76.3922L211.46 69.9285L211.027 69.6785L210.594 69.9285L189.236 82.2596L196.718 61.6437L196.786 61.4564L196.551 61.3212L185.356 54.8574L184.923 54.6074L184.49 54.8574L144.183 78.1289L143.75 78.3789L144.183 78.6289L155.378 85.0926L155.811 85.3426L156.244 85.0926L177.332 72.9177L170.119 93.3794L170.054 93.5656L170.286 93.6999L181.482 100.164ZM256.336 96.3378L256.769 96.0878L256.336 95.8378L229.033 80.0742L228.6 79.8242L228.167 80.0742L187.859 103.346L187.426 103.596L187.859 103.846L199.055 110.309L199.488 110.559L199.921 110.309L215.268 101.449L226.716 108.058L227.149 108.308L227.582 108.058L236.1 103.14L236.533 102.89L236.1 102.64L224.652 96.0305L230.876 92.4373L246.551 101.487L246.984 101.737L247.417 101.487L256.336 96.3378ZM291.382 116.571L291.815 116.321L291.382 116.071L258.823 97.2739L258.39 97.0239L257.957 97.2739L249.038 102.423L248.605 102.673L249.038 102.923L259.229 108.807L228.274 126.679L227.841 126.929L228.274 127.179L239.47 133.643L239.903 133.893L240.336 133.643L271.291 115.771L281.597 121.721L282.03 121.971L282.463 121.721L291.382 116.571Z" stroke="url(#paint5_linear_164_624)" shape-rendering="crispEdges"/>
</g>
<g opacity="0.25" filter="url(#filter3_d_164_624)">
<path d="M181.482 93.6043L181.915 93.8543L182.348 93.6043L222.655 70.3329L223.088 70.0829L222.655 69.8329L211.46 63.3691L211.027 63.1191L210.594 63.3691L189.236 75.7003L196.718 55.0843L196.786 54.8971L196.551 54.7618L185.356 48.2981L184.923 48.0481L184.49 48.2981L144.183 71.5695L143.75 71.8195L144.183 72.0695L155.378 78.5333L155.811 78.7833L156.244 78.5333L177.332 66.3584L170.119 86.8201L170.054 87.0062L170.286 87.1406L181.482 93.6043ZM256.336 89.7784L256.769 89.5284L256.336 89.2784L229.033 73.5148L228.6 73.2648L228.167 73.5148L187.859 96.7863L187.426 97.0363L187.859 97.2863L199.055 103.75L199.488 104L199.921 103.75L215.268 94.8895L226.716 101.499L227.149 101.749L227.582 101.499L236.1 96.5806L236.533 96.3306L236.1 96.0806L224.652 89.4711L230.876 85.878L246.551 94.9278L246.984 95.1778L247.417 94.9278L256.336 89.7784ZM291.382 110.012L291.815 109.762L291.382 109.512L258.823 90.7145L258.39 90.4645L257.957 90.7145L249.038 95.8639L248.605 96.1139L249.038 96.3639L259.229 102.248L228.274 120.12L227.841 120.37L228.274 120.62L239.47 127.084L239.903 127.334L240.336 127.084L271.291 109.212L281.597 115.162L282.03 115.412L282.463 115.162L291.382 110.012Z" stroke="url(#paint6_linear_164_624)" shape-rendering="crispEdges"/>
</g>
<g opacity="0.2" filter="url(#filter4_d_164_624)">
<path d="M181.482 87.0451L181.915 87.2951L182.348 87.0451L222.655 63.7737L223.088 63.5237L222.655 63.2737L211.46 56.8099L211.027 56.5599L210.594 56.8099L189.236 69.141L196.718 48.5251L196.786 48.3379L196.551 48.2026L185.356 41.7389L184.923 41.4889L184.49 41.7389L144.183 65.0103L143.75 65.2603L144.183 65.5103L155.378 71.9741L155.811 72.2241L156.244 71.9741L177.332 59.7992L170.119 80.2609L170.054 80.447L170.286 80.5814L181.482 87.0451ZM256.336 83.2192L256.769 82.9692L256.336 82.7192L229.033 66.9556L228.6 66.7056L228.167 66.9556L187.859 90.2271L187.426 90.4771L187.859 90.7271L199.055 97.1908L199.488 97.4408L199.921 97.1908L215.268 88.3303L226.716 94.9397L227.149 95.1897L227.582 94.9397L236.1 90.0214L236.533 89.7714L236.1 89.5214L224.652 82.9119L230.876 79.3188L246.551 88.3686L246.984 88.6186L247.417 88.3686L256.336 83.2192ZM291.382 103.453L291.815 103.203L291.382 102.953L258.823 84.1553L258.39 83.9053L257.957 84.1553L249.038 89.3047L248.605 89.5547L249.038 89.8047L259.229 95.6887L228.274 113.561L227.841 113.811L228.274 114.061L239.47 120.524L239.903 120.774L240.336 120.524L271.291 102.652L281.597 108.602L282.03 108.852L282.463 108.602L291.382 103.453Z" stroke="url(#paint7_linear_164_624)" shape-rendering="crispEdges"/>
</g>
<g opacity="0.15" filter="url(#filter5_d_164_624)">
<path d="M181.482 80.4859L181.915 80.7359L182.348 80.4859L222.655 57.2145L223.088 56.9645L222.655 56.7145L211.46 50.2508L211.027 50.0008L210.594 50.2508L189.236 62.5819L196.718 41.966L196.786 41.7787L196.551 41.6435L185.356 35.1797L184.923 34.9297L184.49 35.1797L144.183 58.4512L143.75 58.7012L144.183 58.9512L155.378 65.4149L155.811 65.6649L156.244 65.4149L177.332 53.24L170.119 73.7017L170.054 73.8879L170.286 74.0222L181.482 80.4859ZM256.336 76.66L256.769 76.41L256.336 76.16L229.033 60.3965L228.6 60.1465L228.167 60.3965L187.859 83.6679L187.426 83.9179L187.859 84.1679L199.055 90.6316L199.488 90.8816L199.921 90.6316L215.268 81.7711L226.716 88.3806L227.149 88.6306L227.582 88.3806L236.1 83.4622L236.533 83.2122L236.1 82.9622L224.652 76.3528L230.876 72.7596L246.551 81.8095L246.984 82.0595L247.417 81.8095L256.336 76.66ZM291.382 96.8937L291.815 96.6437L291.382 96.3937L258.823 77.5961L258.39 77.3461L257.957 77.5961L249.038 82.7456L248.605 82.9956L249.038 83.2456L259.229 89.1295L228.274 107.002L227.841 107.252L228.274 107.502L239.47 113.965L239.903 114.215L240.336 113.965L271.291 96.0933L281.597 102.043L282.03 102.293L282.463 102.043L291.382 96.8937Z" stroke="url(#paint8_linear_164_624)" shape-rendering="crispEdges"/>
</g>
<g opacity="0.1" filter="url(#filter6_d_164_624)">
<path d="M181.482 73.9265L181.915 74.1765L182.348 73.9265L222.655 50.6551L223.088 50.4051L222.655 50.1551L211.46 43.6914L211.027 43.4414L210.594 43.6914L189.236 56.0225L196.718 35.4066L196.786 35.2193L196.551 35.0841L185.356 28.6203L184.923 28.3703L184.49 28.6203L144.183 51.8918L143.75 52.1418L144.183 52.3918L155.378 58.8555L155.811 59.1055L156.244 58.8555L177.332 46.6806L170.119 67.1423L170.054 67.3285L170.286 67.4628L181.482 73.9265ZM256.336 70.1006L256.769 69.8506L256.336 69.6006L229.033 53.8371L228.6 53.5871L228.167 53.8371L187.859 77.1085L187.426 77.3585L187.859 77.6085L199.055 84.0722L199.488 84.3222L199.921 84.0722L215.268 75.2117L226.716 81.8212L227.149 82.0712L227.582 81.8212L236.1 76.9028L236.533 76.6528L236.1 76.4028L224.652 69.7934L230.876 66.2002L246.551 75.2501L246.984 75.5001L247.417 75.2501L256.336 70.1006ZM291.382 90.3343L291.815 90.0843L291.382 89.8343L258.823 71.0367L258.39 70.7867L257.957 71.0367L249.038 76.1862L248.605 76.4362L249.038 76.6862L259.229 82.5701L228.274 100.442L227.841 100.692L228.274 100.942L239.47 107.406L239.903 107.656L240.336 107.406L271.291 89.5338L281.597 95.4838L282.03 95.7338L282.463 95.4838L291.382 90.3343Z" stroke="url(#paint9_linear_164_624)" shape-rendering="crispEdges"/>
</g>
<g opacity="0.3">
<path d="M252.083 182.623V176.187L250.301 175.195C249.799 178.227 246.221 180.238 243.232 180.655L222.859 192.566L213.979 195.77L185.603 181.129L186.264 180.756C183.836 179.621 182.528 177.034 181.221 174.664L179.31 175.799L178.175 176.129V182.724C178.25 183.474 178.52 184.191 178.959 184.803C179.398 185.416 179.989 185.903 180.675 186.215L209.08 202.623C210.952 203.566 213.019 204.057 215.115 204.057C217.21 204.057 219.277 203.566 221.149 202.623L249.569 186.215C250.244 185.906 250.827 185.427 251.263 184.825C251.698 184.223 251.971 183.519 252.054 182.781C252.062 182.729 252.062 182.676 252.054 182.623H252.083Z" fill="url(#paint10_linear_164_624)"/>
<path opacity="0.3" d="M243.233 180.655L222.859 192.566L215.129 195.353V204.06C217.23 204.103 219.308 203.609 221.164 202.623L249.583 186.215C250.259 185.906 250.842 185.427 251.278 184.825C251.713 184.223 251.986 183.519 252.069 182.781C252.076 182.729 252.076 182.676 252.069 182.623V176.187L250.431 175.281H250.259C249.727 178.27 246.193 180.238 243.233 180.655Z" fill="#0F054C"/>
<path d="M209.08 196.072L180.661 179.664C177.327 177.753 177.327 174.62 180.661 172.695L209.08 156.287C210.952 155.345 213.019 154.854 215.115 154.854C217.211 154.854 219.277 155.345 221.149 156.287L249.569 172.695C252.888 174.62 252.888 177.753 249.569 179.664L221.164 196.072C219.292 197.023 217.222 197.519 215.122 197.519C213.022 197.519 210.952 197.023 209.08 196.072Z" fill="url(#paint11_linear_164_624)"/>
<g opacity="0.3">
<path d="M209.08 196.072L180.661 179.664C177.327 177.753 177.327 174.62 180.661 172.695L209.08 156.287C210.952 155.345 213.019 154.854 215.115 154.854C217.211 154.854 219.277 155.345 221.149 156.287L249.569 172.695C252.888 174.62 252.888 177.753 249.569 179.664L221.164 196.072C219.292 197.023 217.222 197.519 215.122 197.519C213.022 197.519 210.952 197.023 209.08 196.072Z" fill="#0F054C"/>
</g>
</g>
<rect width="41.4765" height="41.4765" rx="2" transform="matrix(0.866025 0.5 -0.866025 0.5 217.005 137.733)" fill="url(#paint12_linear_164_624)"/>
<g filter="url(#filter7_d_164_624)">
<path d="M199.997 157.483L225.569 153.527L218.717 168.291L199.997 157.483Z" stroke="url(#paint13_linear_164_624)" shape-rendering="crispEdges"/>
</g>
<g opacity="0.5" filter="url(#filter8_d_164_624)">
<path d="M199.997 153.995L225.569 150.039L218.717 164.803L199.997 153.995Z" stroke="url(#paint14_linear_164_624)" shape-rendering="crispEdges"/>
</g>
<g opacity="0.3" filter="url(#filter9_d_164_624)">
<path d="M199.997 150.507L225.569 146.551L218.717 161.315L199.997 150.507Z" stroke="url(#paint15_linear_164_624)" shape-rendering="crispEdges"/>
</g>
<g opacity="0.2" filter="url(#filter10_d_164_624)">
<path d="M199.997 147.018L225.569 143.062L218.717 157.826L199.997 147.018Z" stroke="url(#paint16_linear_164_624)" shape-rendering="crispEdges"/>
</g>
<g opacity="0.1" filter="url(#filter11_d_164_624)">
<path d="M199.997 143.53L225.569 139.574L218.717 154.338L199.997 143.53Z" stroke="url(#paint17_linear_164_624)" shape-rendering="crispEdges"/>
</g>
<path d="M253.557 165.382V158.945L251.776 157.954C251.273 160.985 247.695 162.997 244.707 163.414L224.347 175.325L215.454 178.529L187.091 163.888L187.738 163.514C185.31 162.379 184.017 159.793 182.695 157.422L180.784 158.557L179.649 158.888V165.483C179.724 166.232 179.995 166.949 180.433 167.562C180.872 168.174 181.463 168.661 182.149 168.974L210.569 185.382C212.441 186.324 214.507 186.815 216.603 186.815C218.699 186.815 220.766 186.324 222.637 185.382L251.129 168.974C251.807 168.666 252.393 168.188 252.831 167.586C253.269 166.985 253.544 166.28 253.629 165.54V165.382H253.557Z" fill="url(#paint18_linear_164_624)"/>
<path d="M210.568 178.816L182.163 162.422C178.83 160.511 178.83 157.379 182.163 155.454L210.583 139.046C212.455 138.103 214.521 137.612 216.617 137.612C218.713 137.612 220.78 138.103 222.652 139.046L251.129 155.454C254.462 157.379 254.462 160.511 251.129 162.422L222.637 178.816C220.767 179.765 218.7 180.26 216.603 180.26C214.506 180.26 212.438 179.765 210.568 178.816ZM218.542 141.46C217.943 141.159 217.281 141.002 216.61 141.002C215.939 141.002 215.277 141.159 214.678 141.46L186.258 157.868C185.18 158.485 185.18 159.491 186.258 160.095L214.678 176.517C215.277 176.818 215.939 176.975 216.61 176.975C217.281 176.975 217.943 176.818 218.542 176.517L246.962 160.138C247.192 160.054 247.391 159.902 247.531 159.701C247.672 159.501 247.747 159.262 247.747 159.017C247.747 158.772 247.672 158.533 247.531 158.333C247.391 158.132 247.192 157.98 246.962 157.896L218.542 141.46Z" fill="url(#paint19_linear_164_624)"/>
<path d="M251.128 162.422L222.637 178.816C220.767 179.765 218.699 180.26 216.602 180.26C214.505 180.26 212.438 179.765 210.568 178.816L182.163 162.422C181.544 162.132 180.999 161.704 180.571 161.171C180.142 160.638 179.842 160.014 179.692 159.347C179.66 160.169 179.879 160.98 180.321 161.673C180.762 162.367 181.405 162.909 182.163 163.227L210.582 179.635C212.452 180.584 214.52 181.079 216.617 181.079C218.714 181.079 220.781 180.584 222.651 179.635L251.128 163.227C251.886 162.909 252.529 162.367 252.971 161.673C253.412 160.98 253.632 160.169 253.6 159.347C253.451 160.015 253.152 160.64 252.723 161.173C252.294 161.706 251.749 162.134 251.128 162.422Z" fill="white"/>
<path d="M211.373 178.371L182.953 161.962C180.079 160.296 180.079 157.652 182.953 155.928L211.373 139.52C212.992 138.693 214.784 138.261 216.602 138.261C218.421 138.261 220.213 138.693 221.832 139.52L250.252 155.928C253.126 157.595 253.126 160.238 250.252 161.962L221.832 178.371C220.213 179.198 218.421 179.629 216.602 179.629C214.784 179.629 212.992 179.198 211.373 178.371ZM219.332 141.014C218.487 140.582 217.552 140.356 216.602 140.356C215.653 140.356 214.718 140.582 213.873 141.014L185.453 157.422C185.122 157.533 184.834 157.745 184.629 158.029C184.425 158.313 184.315 158.653 184.315 159.003C184.315 159.352 184.425 159.693 184.629 159.976C184.834 160.26 185.122 160.472 185.453 160.583L213.873 176.991C214.722 177.416 215.66 177.637 216.61 177.637C217.56 177.637 218.497 177.416 219.347 176.991L247.766 160.583C248.098 160.472 248.386 160.26 248.59 159.976C248.794 159.693 248.904 159.352 248.904 159.003C248.904 158.653 248.794 158.313 248.59 158.029C248.386 157.745 248.098 157.533 247.766 157.422L219.332 141.014Z" fill="url(#paint20_linear_164_624)"/>
<g opacity="0.3">
<path d="M75.0903 194.587V188.15L73.3087 187.158C72.8058 190.19 69.2283 192.202 66.2398 192.618L45.8662 204.529L36.9868 207.733L8.61028 193.092L9.27123 192.719C6.84307 191.584 5.53558 188.998 4.2281 186.627L2.31724 187.762L1.18213 188.092V194.687C1.25734 195.437 1.52773 196.154 1.96638 196.766C2.40503 197.379 2.99661 197.866 3.68212 198.179L32.0874 214.587C33.9593 215.529 36.0261 216.02 38.1219 216.02C40.2177 216.02 42.2844 215.529 44.1564 214.587L72.5759 198.179C73.251 197.869 73.8346 197.39 74.2701 196.788C74.7056 196.187 74.9782 195.483 75.0615 194.745C75.0688 194.692 75.0688 194.639 75.0615 194.587H75.0903Z" fill="url(#paint21_linear_164_624)"/>
<path opacity="0.3" d="M66.2397 192.618L45.8661 204.529L38.1362 207.317V216.023C40.2373 216.067 42.3145 215.572 44.1707 214.587L72.5903 198.179C73.2653 197.869 73.849 197.39 74.2845 196.788C74.72 196.187 74.9925 195.483 75.0759 194.745C75.0832 194.692 75.0832 194.639 75.0759 194.587V188.15L73.438 187.245H73.2655C72.7339 190.233 69.1995 192.202 66.2397 192.618Z" fill="#0F054C"/>
<path d="M32.0871 208.035L3.66748 191.627C0.334146 189.716 0.334146 186.584 3.66748 184.658L32.0871 168.25C33.9591 167.308 36.0258 166.817 38.1216 166.817C40.2175 166.817 42.2842 167.308 44.1561 168.25L72.5757 184.658C75.8947 186.584 75.8947 189.716 72.5757 191.627L44.1704 208.035C42.2986 208.986 40.2286 209.482 38.1288 209.482C36.0291 209.482 33.959 208.986 32.0871 208.035Z" fill="url(#paint22_linear_164_624)"/>
<g opacity="0.3">
<path d="M32.0871 208.035L3.66748 191.627C0.334146 189.716 0.334146 186.584 3.66748 184.658L32.0871 168.25C33.9591 167.308 36.0258 166.817 38.1216 166.817C40.2175 166.817 42.2842 167.308 44.1561 168.25L72.5757 184.658C75.8947 186.584 75.8947 189.716 72.5757 191.627L44.1704 208.035C42.2986 208.986 40.2286 209.482 38.1288 209.482C36.0291 209.482 33.959 208.986 32.0871 208.035Z" fill="#0F054C"/>
</g>
</g>
<rect width="41.4765" height="41.4765" rx="2" transform="matrix(0.866025 0.5 -0.866025 0.5 40.0122 96.0664)" fill="url(#paint23_linear_164_624)"/>
<g filter="url(#filter12_d_164_624)">
<circle r="12.8679" transform="matrix(-0.866025 -0.5 0.866025 -0.5 38.6895 116.923)" stroke="url(#paint24_linear_164_624)" shape-rendering="crispEdges"/>
</g>
<g opacity="0.5" filter="url(#filter13_d_164_624)">
<circle r="12.8679" transform="matrix(-0.866025 -0.5 0.866025 -0.5 38.6895 114.205)" stroke="url(#paint25_linear_164_624)" shape-rendering="crispEdges"/>
</g>
<g opacity="0.3" filter="url(#filter14_d_164_624)">
<circle r="12.8679" transform="matrix(-0.866025 -0.5 0.866025 -0.5 38.6895 111.294)" stroke="url(#paint26_linear_164_624)" shape-rendering="crispEdges"/>
</g>
<g opacity="0.2" filter="url(#filter15_d_164_624)">
<circle r="12.8679" transform="matrix(-0.866025 -0.5 0.866025 -0.5 38.6895 108.383)" stroke="url(#paint27_linear_164_624)" shape-rendering="crispEdges"/>
</g>
<g opacity="0.1" filter="url(#filter16_d_164_624)">
<circle r="12.8679" transform="matrix(-0.866025 -0.5 0.866025 -0.5 38.6895 105.472)" stroke="url(#paint28_linear_164_624)" shape-rendering="crispEdges"/>
</g>
<path d="M76.5639 123.716V117.279L74.7823 116.287C74.2795 119.319 70.7019 121.33 67.7134 121.747L47.3541 133.658L38.4604 136.862L10.0983 122.221L10.7449 121.848C8.3167 120.713 7.02358 118.126 5.70174 115.756L3.79079 116.891L2.65576 117.221V123.816C2.73097 124.566 3.00136 125.283 3.44001 125.895C3.87867 126.508 4.47024 126.995 5.15575 127.307L33.5754 143.716C35.4474 144.658 37.514 145.149 39.6098 145.149C41.7056 145.149 43.7723 144.658 45.6443 143.716L74.1358 127.307C74.8135 127 75.4 126.522 75.8381 125.92C76.2762 125.318 76.551 124.613 76.6358 123.874V123.716H76.5639Z" fill="url(#paint29_linear_164_624)"/>
<path d="M33.5747 137.149L5.16944 120.756C1.8361 118.845 1.8361 115.713 5.16944 113.787L33.5891 97.3793C35.461 96.4368 37.5277 95.9459 39.6235 95.9459C41.7193 95.9459 43.786 96.4368 45.658 97.3793L74.1351 113.787C77.4684 115.713 77.4684 118.845 74.1351 120.756L45.6436 137.149C43.7737 138.099 41.7062 138.593 39.6091 138.593C37.5121 138.593 35.4447 138.099 33.5747 137.149ZM41.5488 99.793C40.9491 99.4922 40.2873 99.3356 39.6163 99.3356C38.9453 99.3356 38.2836 99.4922 37.6839 99.793L9.26424 116.201C8.18665 116.819 8.18665 117.825 9.26424 118.428L37.6839 134.851C38.2836 135.151 38.9453 135.308 39.6163 135.308C40.2873 135.308 40.9491 135.151 41.5488 134.851L69.9684 118.471C70.1984 118.388 70.3972 118.235 70.5376 118.035C70.678 117.834 70.7533 117.595 70.7533 117.351C70.7533 117.106 70.678 116.867 70.5376 116.666C70.3972 116.466 70.1984 116.314 69.9684 116.23L41.5488 99.793Z" fill="url(#paint30_linear_164_624)"/>
<path d="M74.1352 120.756L45.6438 137.149C43.7738 138.098 41.7063 138.593 39.6093 138.593C37.5122 138.593 35.4448 138.098 33.5748 137.149L5.16959 120.756C4.55046 120.466 4.00592 120.038 3.57758 119.505C3.14925 118.972 2.84852 118.348 2.69836 117.681C2.66644 118.502 2.88588 119.314 3.32748 120.007C3.76908 120.7 4.41176 121.242 5.16959 121.56L33.5892 137.968C35.4592 138.917 37.5266 139.412 39.6236 139.412C41.7207 139.412 43.7882 138.917 45.6582 137.968L74.1352 121.56C74.8931 121.242 75.5357 120.7 75.9773 120.007C76.4189 119.314 76.6384 118.502 76.6065 117.681C76.4583 118.349 76.1583 118.974 75.7298 119.507C75.3012 120.04 74.7556 120.467 74.1352 120.756Z" fill="white"/>
<path d="M34.3795 136.704L5.95986 120.296C3.0863 118.629 3.0863 115.986 5.95986 114.261L34.3795 97.8534C35.9987 97.0261 37.791 96.5947 39.6093 96.5947C41.4276 96.5947 43.22 97.0261 44.8392 97.8534L73.2589 114.261C76.1324 115.928 76.1324 118.572 73.2589 120.296L44.8392 136.704C43.22 137.531 41.4276 137.963 39.6093 137.963C37.791 137.963 35.9987 137.531 34.3795 136.704ZM42.3393 99.3477C41.4943 98.9151 40.5586 98.6896 39.6093 98.6896C38.6601 98.6896 37.7245 98.9151 36.8795 99.3477L8.45985 115.756C8.12849 115.867 7.84037 116.079 7.63623 116.363C7.43209 116.646 7.32228 116.987 7.32228 117.336C7.32228 117.686 7.43209 118.026 7.63623 118.31C7.84037 118.593 8.12849 118.806 8.45985 118.917L36.8795 135.325C37.7293 135.75 38.6664 135.971 39.6165 135.971C40.5667 135.971 41.5038 135.75 42.3536 135.325L70.7732 118.917C71.1045 118.806 71.3927 118.593 71.5968 118.31C71.8009 118.026 71.9108 117.686 71.9108 117.336C71.9108 116.987 71.8009 116.646 71.5968 116.363C71.3927 116.079 71.1045 115.867 70.7732 115.756L42.3393 99.3477Z" fill="url(#paint31_linear_164_624)"/>
<g opacity="0.3">
<mask id="mask0_164_624" style="mask-type:alpha" maskUnits="userSpaceOnUse" x="258" y="34" width="72" height="57">
<path d="M258.621 34.6327L329.023 75.5811L301.006 90.6673L260.057 66.9604L258.621 34.6327Z" fill="#D9D9D9"/>
</mask>
<g mask="url(#mask0_164_624)">
<path d="M335.417 63.3703V56.9335L333.635 55.9421C333.132 58.9737 329.555 60.9852 326.566 61.4019L306.193 73.3129L297.313 76.5169L268.937 61.8761L269.598 61.5025C267.17 60.3674 265.862 57.7812 264.555 55.4105L262.644 56.5456L261.509 56.876V63.4709C261.584 64.2206 261.854 64.9374 262.293 65.55C262.732 66.1627 263.323 66.6496 264.009 66.9623L292.414 83.3703C294.286 84.3128 296.353 84.8037 298.449 84.8037C300.544 84.8037 302.611 84.3128 304.483 83.3703L332.903 66.9623C333.578 66.6525 334.161 66.1736 334.597 65.572C335.032 64.9703 335.305 64.2664 335.388 63.5283C335.395 63.4759 335.395 63.4227 335.388 63.3703H335.417Z" fill="url(#paint32_linear_164_624)"/>
<path opacity="0.3" d="M326.566 61.402L306.193 73.3129L298.463 76.1003V84.8072C300.564 84.8505 302.641 84.3559 304.497 83.3704L332.917 66.9623C333.592 66.6526 334.176 66.1737 334.611 65.5721C335.047 64.9704 335.319 64.2664 335.403 63.5284C335.41 63.476 335.41 63.4228 335.403 63.3704V56.9336L333.765 56.0284H333.592C333.061 59.0169 329.526 60.9853 326.566 61.402Z" fill="#0F054C"/>
<path d="M292.414 76.8186L263.995 60.4105C260.661 58.4996 260.661 55.3674 263.995 53.4421L292.414 37.034C294.286 36.0916 296.353 35.6007 298.449 35.6007C300.545 35.6007 302.611 36.0916 304.483 37.034L332.903 53.4421C336.222 55.3674 336.222 58.4996 332.903 60.4105L304.498 76.8186C302.626 77.77 300.556 78.266 298.456 78.266C296.356 78.266 294.286 77.77 292.414 76.8186Z" fill="url(#paint33_linear_164_624)"/>
<g opacity="0.3">
<path d="M292.414 76.8186L263.995 60.4105C260.661 58.4996 260.661 55.3674 263.995 53.4421L292.414 37.034C294.286 36.0916 296.353 35.6007 298.449 35.6007C300.545 35.6007 302.611 36.0916 304.483 37.034L332.903 53.4421C336.222 55.3674 336.222 58.4996 332.903 60.4105L304.498 76.8186C302.626 77.77 300.556 78.266 298.456 78.266C296.356 78.266 294.286 77.77 292.414 76.8186Z" fill="#0F054C"/>
</g>
</g>
</g>
<rect width="41.4765" height="41.4765" rx="2" transform="matrix(0.866025 0.5 -0.866025 0.5 300.339 18.4798)" fill="url(#paint34_linear_164_624)"/>
<path d="M336.89 46.1289V39.6921L335.109 38.7007C334.606 41.7324 331.028 43.7438 328.04 44.1605L307.68 56.0715L298.787 59.2755L270.424 44.6346L271.071 44.2611C268.643 43.126 267.35 40.5398 266.028 38.1691L264.117 39.3042L262.982 39.6346V46.2295C263.057 46.9792 263.328 47.6961 263.766 48.3087C264.205 48.9213 264.796 49.4082 265.482 49.7209L293.902 66.129C295.774 67.0714 297.84 67.5623 299.936 67.5623C302.032 67.5623 304.099 67.0714 305.97 66.129L334.462 49.7209C335.14 49.4131 335.726 48.935 336.164 48.3332C336.602 47.7314 336.877 47.0265 336.962 46.287V46.1289H336.89Z" fill="url(#paint35_linear_164_624)"/>
<path d="M293.901 59.5628L265.496 43.1691C262.163 41.2582 262.163 38.126 265.496 36.2007L293.916 19.7926C295.788 18.8502 297.854 18.3593 299.95 18.3593C302.046 18.3593 304.113 18.8502 305.985 19.7926L334.462 36.2007C337.795 38.126 337.795 41.2582 334.462 43.1691L305.97 59.5628C304.1 60.5119 302.033 61.0066 299.936 61.0066C297.839 61.0066 295.771 60.5119 293.901 59.5628ZM301.875 22.2064C301.276 21.9056 300.614 21.749 299.943 21.749C299.272 21.749 298.61 21.9056 298.011 22.2064L269.591 38.6145C268.513 39.2323 268.513 40.2381 269.591 40.8415L298.011 57.264C298.61 57.5648 299.272 57.7214 299.943 57.7214C300.614 57.7214 301.276 57.5648 301.875 57.264L330.295 40.8846C330.525 40.801 330.724 40.6485 330.864 40.448C331.005 40.2476 331.08 40.0087 331.08 39.7639C331.08 39.5192 331.005 39.2803 330.864 39.0798C330.724 38.8793 330.525 38.7269 330.295 38.6432L301.875 22.2064Z" fill="url(#paint36_linear_164_624)"/>
<path d="M334.462 43.169L305.971 59.5628C304.101 60.5118 302.033 61.0065 299.936 61.0065C297.839 61.0065 295.772 60.5118 293.902 59.5628L265.497 43.169C264.878 42.8789 264.333 42.4511 263.905 41.9181C263.476 41.3852 263.176 40.7614 263.026 40.0943C262.994 40.9156 263.213 41.7271 263.655 42.4203C264.096 43.1135 264.739 43.6554 265.497 43.9736L293.916 60.3817C295.786 61.3308 297.854 61.8254 299.951 61.8254C302.048 61.8254 304.115 61.3308 305.985 60.3817L334.462 43.9736C335.22 43.6554 335.863 43.1135 336.304 42.4203C336.746 41.7271 336.966 40.9156 336.934 40.0943C336.785 40.7622 336.485 41.387 336.057 41.9202C335.628 42.4534 335.083 42.8807 334.462 43.169Z" fill="white"/>
<path d="M294.707 59.1174L266.287 42.7093C263.413 41.0427 263.413 38.399 266.287 36.6749L294.707 20.2668C296.326 19.4394 298.118 19.0081 299.936 19.0081C301.755 19.0081 303.547 19.4394 305.166 20.2668L333.586 36.6749C336.46 38.3415 336.46 40.9852 333.586 42.7093L305.166 59.1174C303.547 59.9448 301.755 60.3762 299.936 60.3762C298.118 60.3762 296.326 59.9448 294.707 59.1174ZM302.666 21.761C301.821 21.3285 300.886 21.103 299.936 21.103C298.987 21.103 298.052 21.3285 297.207 21.761L268.787 38.1691C268.456 38.28 268.168 38.4923 267.963 38.7759C267.759 39.0596 267.649 39.4001 267.649 39.7496C267.649 40.099 267.759 40.4396 267.963 40.7232C268.168 41.0069 268.456 41.2191 268.787 41.33L297.207 57.7381C298.056 58.163 298.994 58.3842 299.944 58.3842C300.894 58.3842 301.831 58.163 302.681 57.7381L331.1 41.33C331.432 41.2191 331.72 41.0069 331.924 40.7232C332.128 40.4396 332.238 40.099 332.238 39.7496C332.238 39.4001 332.128 39.0596 331.924 38.7759C331.72 38.4923 331.432 38.28 331.1 38.1691L302.666 21.761Z" fill="url(#paint37_linear_164_624)"/>
<g filter="url(#filter17_d_164_624)">
<path d="M309.988 35.1647L308.292 40.0029L308.247 40.132L308.359 40.2468L312.561 44.5457L304.067 45.11L303.841 45.1251L303.686 45.2221L297.903 48.8577L294.349 44.3682L294.254 44.2484L294.047 44.1937L286.271 42.1416L292.568 38.8027L292.736 38.7136L292.762 38.5827L293.739 33.6789L301.185 36.1048L301.384 36.1696L301.608 36.1434L309.988 35.1647Z" stroke="url(#paint38_linear_164_624)" shape-rendering="crispEdges"/>
</g>
<g opacity="0.4" filter="url(#filter18_d_164_624)">
<path d="M309.988 32.0165L308.292 36.8547L308.247 36.9838L308.359 37.0986L312.561 41.3975L304.067 41.9618L303.841 41.9769L303.686 42.0739L297.903 45.7095L294.349 41.22L294.254 41.1002L294.047 41.0455L286.271 38.9934L292.568 35.6545L292.736 35.5654L292.762 35.4346L293.739 30.5307L301.185 32.9566L301.384 33.0214L301.608 32.9952L309.988 32.0165Z" stroke="url(#paint39_linear_164_624)" shape-rendering="crispEdges"/>
</g>
<g opacity="0.3" filter="url(#filter19_d_164_624)">
<path d="M309.988 28.8683L308.292 33.7065L308.247 33.8357L308.359 33.9504L312.561 38.2494L304.067 38.8136L303.841 38.8287L303.686 38.9257L297.903 42.5613L294.349 38.0719L294.254 37.9521L294.047 37.8973L286.271 35.8453L292.568 32.5064L292.736 32.4173L292.762 32.2864L293.739 27.3825L301.185 29.8084L301.384 29.8732L301.608 29.8471L309.988 28.8683Z" stroke="url(#paint40_linear_164_624)" shape-rendering="crispEdges"/>
</g>
<g opacity="0.2" filter="url(#filter20_d_164_624)">
<path d="M309.988 25.7201L308.292 30.5583L308.247 30.6874L308.359 30.8022L312.561 35.1011L304.067 35.6654L303.841 35.6805L303.686 35.7775L297.903 39.4131L294.349 34.9236L294.254 34.8038L294.047 34.7491L286.271 32.697L292.568 29.3581L292.736 29.269L292.762 29.1382L293.739 24.2343L301.185 26.6602L301.384 26.725L301.608 26.6988L309.988 25.7201Z" stroke="url(#paint41_linear_164_624)" shape-rendering="crispEdges"/>
</g>
<g opacity="0.1" filter="url(#filter21_d_164_624)">
<path d="M309.988 22.5719L308.292 27.4101L308.247 27.5393L308.359 27.654L312.561 31.953L304.067 32.5172L303.841 32.5323L303.686 32.6293L297.903 36.2649L294.349 31.7755L294.254 31.6557L294.047 31.6009L286.271 29.5489L292.568 26.21L292.736 26.1209L292.762 25.99L293.739 21.0861L301.185 23.512L301.384 23.5768L301.608 23.5507L309.988 22.5719Z" stroke="url(#paint42_linear_164_624)" shape-rendering="crispEdges"/>
</g>
<defs>
<filter id="filter0_d_164_624" x="122.883" y="47.2258" width="189.797" height="120.286" filterUnits="userSpaceOnUse" color-interpolation-filters="sRGB">
<feFlood flood-opacity="0" result="BackgroundImageFix"/>
<feColorMatrix in="SourceAlpha" type="matrix" values="0 0 0 0 0 0 0 0 0 0 0 0 0 0 0 0 0 0 127 0" result="hardAlpha"/>
<feOffset/>
<feGaussianBlur stdDeviation="10"/>
<feComposite in2="hardAlpha" operator="out"/>
<feColorMatrix type="matrix" values="0 0 0 0 0.254167 0 0 0 0 0.68675 0 0 0 0 1 0 0 0 1 0"/>
<feBlend mode="normal" in2="BackgroundImageFix" result="effect1_dropShadow_164_624"/>
<feBlend mode="normal" in="SourceGraphic" in2="effect1_dropShadow_164_624" result="shape"/>
</filter>
<filter id="filter1_d_164_624" x="122.883" y="40.6666" width="189.797" height="120.286" filterUnits="userSpaceOnUse" color-interpolation-filters="sRGB">
<feFlood flood-opacity="0" result="BackgroundImageFix"/>
<feColorMatrix in="SourceAlpha" type="matrix" values="0 0 0 0 0 0 0 0 0 0 0 0 0 0 0 0 0 0 127 0" result="hardAlpha"/>
<feOffset/>
<feGaussianBlur stdDeviation="10"/>
<feComposite in2="hardAlpha" operator="out"/>
<feColorMatrix type="matrix" values="0 0 0 0 0.254167 0 0 0 0 0.68675 0 0 0 0 1 0 0 0 1 0"/>
<feBlend mode="normal" in2="BackgroundImageFix" result="effect1_dropShadow_164_624"/>
<feBlend mode="normal" in="SourceGraphic" in2="effect1_dropShadow_164_624" result="shape"/>
</filter>
<filter id="filter2_d_164_624" x="122.883" y="34.1074" width="189.797" height="120.286" filterUnits="userSpaceOnUse" color-interpolation-filters="sRGB">
<feFlood flood-opacity="0" result="BackgroundImageFix"/>
<feColorMatrix in="SourceAlpha" type="matrix" values="0 0 0 0 0 0 0 0 0 0 0 0 0 0 0 0 0 0 127 0" result="hardAlpha"/>
<feOffset/>
<feGaussianBlur stdDeviation="10"/>
<feComposite in2="hardAlpha" operator="out"/>
<feColorMatrix type="matrix" values="0 0 0 0 0.254167 0 0 0 0 0.68675 0 0 0 0 1 0 0 0 1 0"/>
<feBlend mode="normal" in2="BackgroundImageFix" result="effect1_dropShadow_164_624"/>
<feBlend mode="normal" in="SourceGraphic" in2="effect1_dropShadow_164_624" result="shape"/>
</filter>
<filter id="filter3_d_164_624" x="122.883" y="27.5481" width="189.797" height="120.286" filterUnits="userSpaceOnUse" color-interpolation-filters="sRGB">
<feFlood flood-opacity="0" result="BackgroundImageFix"/>
<feColorMatrix in="SourceAlpha" type="matrix" values="0 0 0 0 0 0 0 0 0 0 0 0 0 0 0 0 0 0 127 0" result="hardAlpha"/>
<feOffset/>
<feGaussianBlur stdDeviation="10"/>
<feComposite in2="hardAlpha" operator="out"/>
<feColorMatrix type="matrix" values="0 0 0 0 0.254167 0 0 0 0 0.68675 0 0 0 0 1 0 0 0 1 0"/>
<feBlend mode="normal" in2="BackgroundImageFix" result="effect1_dropShadow_164_624"/>
<feBlend mode="normal" in="SourceGraphic" in2="effect1_dropShadow_164_624" result="shape"/>
</filter>
<filter id="filter4_d_164_624" x="122.883" y="20.9889" width="189.797" height="120.286" filterUnits="userSpaceOnUse" color-interpolation-filters="sRGB">
<feFlood flood-opacity="0" result="BackgroundImageFix"/>
<feColorMatrix in="SourceAlpha" type="matrix" values="0 0 0 0 0 0 0 0 0 0 0 0 0 0 0 0 0 0 127 0" result="hardAlpha"/>
<feOffset/>
<feGaussianBlur stdDeviation="10"/>
<feComposite in2="hardAlpha" operator="out"/>
<feColorMatrix type="matrix" values="0 0 0 0 0.254167 0 0 0 0 0.68675 0 0 0 0 1 0 0 0 1 0"/>
<feBlend mode="normal" in2="BackgroundImageFix" result="effect1_dropShadow_164_624"/>
<feBlend mode="normal" in="SourceGraphic" in2="effect1_dropShadow_164_624" result="shape"/>
</filter>
<filter id="filter5_d_164_624" x="122.883" y="14.4297" width="189.797" height="120.286" filterUnits="userSpaceOnUse" color-interpolation-filters="sRGB">
<feFlood flood-opacity="0" result="BackgroundImageFix"/>
<feColorMatrix in="SourceAlpha" type="matrix" values="0 0 0 0 0 0 0 0 0 0 0 0 0 0 0 0 0 0 127 0" result="hardAlpha"/>
<feOffset/>
<feGaussianBlur stdDeviation="10"/>
<feComposite in2="hardAlpha" operator="out"/>
<feColorMatrix type="matrix" values="0 0 0 0 0.254167 0 0 0 0 0.68675 0 0 0 0 1 0 0 0 1 0"/>
<feBlend mode="normal" in2="BackgroundImageFix" result="effect1_dropShadow_164_624"/>
<feBlend mode="normal" in="SourceGraphic" in2="effect1_dropShadow_164_624" result="shape"/>
</filter>
<filter id="filter6_d_164_624" x="122.883" y="7.87033" width="189.797" height="120.286" filterUnits="userSpaceOnUse" color-interpolation-filters="sRGB">
<feFlood flood-opacity="0" result="BackgroundImageFix"/>
<feColorMatrix in="SourceAlpha" type="matrix" values="0 0 0 0 0 0 0 0 0 0 0 0 0 0 0 0 0 0 127 0" result="hardAlpha"/>
<feOffset/>
<feGaussianBlur stdDeviation="10"/>
<feComposite in2="hardAlpha" operator="out"/>
<feColorMatrix type="matrix" values="0 0 0 0 0.254167 0 0 0 0 0.68675 0 0 0 0 1 0 0 0 1 0"/>
<feBlend mode="normal" in2="BackgroundImageFix" result="effect1_dropShadow_164_624"/>
<feBlend mode="normal" in="SourceGraphic" in2="effect1_dropShadow_164_624" result="shape"/>
</filter>
<filter id="filter7_d_164_624" x="178.814" y="133.027" width="67.6206" height="55.9468" filterUnits="userSpaceOnUse" color-interpolation-filters="sRGB">
<feFlood flood-opacity="0" result="BackgroundImageFix"/>
<feColorMatrix in="SourceAlpha" type="matrix" values="0 0 0 0 0 0 0 0 0 0 0 0 0 0 0 0 0 0 127 0" result="hardAlpha"/>
<feOffset/>
<feGaussianBlur stdDeviation="10"/>
<feComposite in2="hardAlpha" operator="out"/>
<feColorMatrix type="matrix" values="0 0 0 0 0.254167 0 0 0 0 0.68675 0 0 0 0 1 0 0 0 1 0"/>
<feBlend mode="normal" in2="BackgroundImageFix" result="effect1_dropShadow_164_624"/>
<feBlend mode="normal" in="SourceGraphic" in2="effect1_dropShadow_164_624" result="shape"/>
</filter>
<filter id="filter8_d_164_624" x="178.814" y="129.539" width="67.6206" height="55.9468" filterUnits="userSpaceOnUse" color-interpolation-filters="sRGB">
<feFlood flood-opacity="0" result="BackgroundImageFix"/>
<feColorMatrix in="SourceAlpha" type="matrix" values="0 0 0 0 0 0 0 0 0 0 0 0 0 0 0 0 0 0 127 0" result="hardAlpha"/>
<feOffset/>
<feGaussianBlur stdDeviation="10"/>
<feComposite in2="hardAlpha" operator="out"/>
<feColorMatrix type="matrix" values="0 0 0 0 0.254167 0 0 0 0 0.68675 0 0 0 0 1 0 0 0 1 0"/>
<feBlend mode="normal" in2="BackgroundImageFix" result="effect1_dropShadow_164_624"/>
<feBlend mode="normal" in="SourceGraphic" in2="effect1_dropShadow_164_624" result="shape"/>
</filter>
<filter id="filter9_d_164_624" x="178.814" y="126.051" width="67.6206" height="55.9468" filterUnits="userSpaceOnUse" color-interpolation-filters="sRGB">
<feFlood flood-opacity="0" result="BackgroundImageFix"/>
<feColorMatrix in="SourceAlpha" type="matrix" values="0 0 0 0 0 0 0 0 0 0 0 0 0 0 0 0 0 0 127 0" result="hardAlpha"/>
<feOffset/>
<feGaussianBlur stdDeviation="10"/>
<feComposite in2="hardAlpha" operator="out"/>
<feColorMatrix type="matrix" values="0 0 0 0 0.254167 0 0 0 0 0.68675 0 0 0 0 1 0 0 0 1 0"/>
<feBlend mode="normal" in2="BackgroundImageFix" result="effect1_dropShadow_164_624"/>
<feBlend mode="normal" in="SourceGraphic" in2="effect1_dropShadow_164_624" result="shape"/>
</filter>
<filter id="filter10_d_164_624" x="178.814" y="122.562" width="67.6206" height="55.9468" filterUnits="userSpaceOnUse" color-interpolation-filters="sRGB">
<feFlood flood-opacity="0" result="BackgroundImageFix"/>
<feColorMatrix in="SourceAlpha" type="matrix" values="0 0 0 0 0 0 0 0 0 0 0 0 0 0 0 0 0 0 127 0" result="hardAlpha"/>
<feOffset/>
<feGaussianBlur stdDeviation="10"/>
<feComposite in2="hardAlpha" operator="out"/>
<feColorMatrix type="matrix" values="0 0 0 0 0.254167 0 0 0 0 0.68675 0 0 0 0 1 0 0 0 1 0"/>
<feBlend mode="normal" in2="BackgroundImageFix" result="effect1_dropShadow_164_624"/>
<feBlend mode="normal" in="SourceGraphic" in2="effect1_dropShadow_164_624" result="shape"/>
</filter>
<filter id="filter11_d_164_624" x="178.814" y="119.074" width="67.6206" height="55.9468" filterUnits="userSpaceOnUse" color-interpolation-filters="sRGB">
<feFlood flood-opacity="0" result="BackgroundImageFix"/>
<feColorMatrix in="SourceAlpha" type="matrix" values="0 0 0 0 0 0 0 0 0 0 0 0 0 0 0 0 0 0 127 0" result="hardAlpha"/>
<feOffset/>
<feGaussianBlur stdDeviation="10"/>
<feComposite in2="hardAlpha" operator="out"/>
<feColorMatrix type="matrix" values="0 0 0 0 0.254167 0 0 0 0 0.68675 0 0 0 0 1 0 0 0 1 0"/>
<feBlend mode="normal" in2="BackgroundImageFix" result="effect1_dropShadow_164_624"/>
<feBlend mode="normal" in="SourceGraphic" in2="effect1_dropShadow_164_624" result="shape"/>
</filter>
<filter id="filter12_d_164_624" x="2.31738" y="87.4708" width="72.7441" height="58.905" filterUnits="userSpaceOnUse" color-interpolation-filters="sRGB">
<feFlood flood-opacity="0" result="BackgroundImageFix"/>
<feColorMatrix in="SourceAlpha" type="matrix" values="0 0 0 0 0 0 0 0 0 0 0 0 0 0 0 0 0 0 127 0" result="hardAlpha"/>
<feOffset/>
<feGaussianBlur stdDeviation="10"/>
<feComposite in2="hardAlpha" operator="out"/>
<feColorMatrix type="matrix" values="0 0 0 0 0.254167 0 0 0 0 0.68675 0 0 0 0 1 0 0 0 1 0"/>
<feBlend mode="normal" in2="BackgroundImageFix" result="effect1_dropShadow_164_624"/>
<feBlend mode="normal" in="SourceGraphic" in2="effect1_dropShadow_164_624" result="shape"/>
</filter>
<filter id="filter13_d_164_624" x="2.31738" y="84.7524" width="72.7441" height="58.905" filterUnits="userSpaceOnUse" color-interpolation-filters="sRGB">
<feFlood flood-opacity="0" result="BackgroundImageFix"/>
<feColorMatrix in="SourceAlpha" type="matrix" values="0 0 0 0 0 0 0 0 0 0 0 0 0 0 0 0 0 0 127 0" result="hardAlpha"/>
<feOffset/>
<feGaussianBlur stdDeviation="10"/>
<feComposite in2="hardAlpha" operator="out"/>
<feColorMatrix type="matrix" values="0 0 0 0 0.254167 0 0 0 0 0.68675 0 0 0 0 1 0 0 0 1 0"/>
<feBlend mode="normal" in2="BackgroundImageFix" result="effect1_dropShadow_164_624"/>
<feBlend mode="normal" in="SourceGraphic" in2="effect1_dropShadow_164_624" result="shape"/>
</filter>
<filter id="filter14_d_164_624" x="2.31738" y="81.8413" width="72.7441" height="58.905" filterUnits="userSpaceOnUse" color-interpolation-filters="sRGB">
<feFlood flood-opacity="0" result="BackgroundImageFix"/>
<feColorMatrix in="SourceAlpha" type="matrix" values="0 0 0 0 0 0 0 0 0 0 0 0 0 0 0 0 0 0 127 0" result="hardAlpha"/>
<feOffset/>
<feGaussianBlur stdDeviation="10"/>
<feComposite in2="hardAlpha" operator="out"/>
<feColorMatrix type="matrix" values="0 0 0 0 0.254167 0 0 0 0 0.68675 0 0 0 0 1 0 0 0 1 0"/>
<feBlend mode="normal" in2="BackgroundImageFix" result="effect1_dropShadow_164_624"/>
<feBlend mode="normal" in="SourceGraphic" in2="effect1_dropShadow_164_624" result="shape"/>
</filter>
<filter id="filter15_d_164_624" x="2.31738" y="78.9306" width="72.7441" height="58.905" filterUnits="userSpaceOnUse" color-interpolation-filters="sRGB">
<feFlood flood-opacity="0" result="BackgroundImageFix"/>
<feColorMatrix in="SourceAlpha" type="matrix" values="0 0 0 0 0 0 0 0 0 0 0 0 0 0 0 0 0 0 127 0" result="hardAlpha"/>
<feOffset/>
<feGaussianBlur stdDeviation="10"/>
<feComposite in2="hardAlpha" operator="out"/>
<feColorMatrix type="matrix" values="0 0 0 0 0.254167 0 0 0 0 0.68675 0 0 0 0 1 0 0 0 1 0"/>
<feBlend mode="normal" in2="BackgroundImageFix" result="effect1_dropShadow_164_624"/>
<feBlend mode="normal" in="SourceGraphic" in2="effect1_dropShadow_164_624" result="shape"/>
</filter>
<filter id="filter16_d_164_624" x="2.31738" y="76.0196" width="72.7441" height="58.905" filterUnits="userSpaceOnUse" color-interpolation-filters="sRGB">
<feFlood flood-opacity="0" result="BackgroundImageFix"/>
<feColorMatrix in="SourceAlpha" type="matrix" values="0 0 0 0 0 0 0 0 0 0 0 0 0 0 0 0 0 0 127 0" result="hardAlpha"/>
<feOffset/>
<feGaussianBlur stdDeviation="10"/>
<feComposite in2="hardAlpha" operator="out"/>
<feColorMatrix type="matrix" values="0 0 0 0 0.254167 0 0 0 0 0.68675 0 0 0 0 1 0 0 0 1 0"/>
<feBlend mode="normal" in2="BackgroundImageFix" result="effect1_dropShadow_164_624"/>
<feBlend mode="normal" in="SourceGraphic" in2="effect1_dropShadow_164_624" result="shape"/>
</filter>
<filter id="filter17_d_164_624" x="265.177" y="13.1091" width="68.3711" height="56.3802" filterUnits="userSpaceOnUse" color-interpolation-filters="sRGB">
<feFlood flood-opacity="0" result="BackgroundImageFix"/>
<feColorMatrix in="SourceAlpha" type="matrix" values="0 0 0 0 0 0 0 0 0 0 0 0 0 0 0 0 0 0 127 0" result="hardAlpha"/>
<feOffset/>
<feGaussianBlur stdDeviation="10"/>
<feComposite in2="hardAlpha" operator="out"/>
<feColorMatrix type="matrix" values="0 0 0 0 0.254167 0 0 0 0 0.68675 0 0 0 0 1 0 0 0 1 0"/>
<feBlend mode="normal" in2="BackgroundImageFix" result="effect1_dropShadow_164_624"/>
<feBlend mode="normal" in="SourceGraphic" in2="effect1_dropShadow_164_624" result="shape"/>
</filter>
<filter id="filter18_d_164_624" x="265.177" y="9.96092" width="68.3711" height="56.3802" filterUnits="userSpaceOnUse" color-interpolation-filters="sRGB">
<feFlood flood-opacity="0" result="BackgroundImageFix"/>
<feColorMatrix in="SourceAlpha" type="matrix" values="0 0 0 0 0 0 0 0 0 0 0 0 0 0 0 0 0 0 127 0" result="hardAlpha"/>
<feOffset/>
<feGaussianBlur stdDeviation="10"/>
<feComposite in2="hardAlpha" operator="out"/>
<feColorMatrix type="matrix" values="0 0 0 0 0.254167 0 0 0 0 0.68675 0 0 0 0 1 0 0 0 1 0"/>
<feBlend mode="normal" in2="BackgroundImageFix" result="effect1_dropShadow_164_624"/>
<feBlend mode="normal" in="SourceGraphic" in2="effect1_dropShadow_164_624" result="shape"/>
</filter>
<filter id="filter19_d_164_624" x="265.177" y="6.81274" width="68.3711" height="56.3802" filterUnits="userSpaceOnUse" color-interpolation-filters="sRGB">
<feFlood flood-opacity="0" result="BackgroundImageFix"/>
<feColorMatrix in="SourceAlpha" type="matrix" values="0 0 0 0 0 0 0 0 0 0 0 0 0 0 0 0 0 0 127 0" result="hardAlpha"/>
<feOffset/>
<feGaussianBlur stdDeviation="10"/>
<feComposite in2="hardAlpha" operator="out"/>
<feColorMatrix type="matrix" values="0 0 0 0 0.254167 0 0 0 0 0.68675 0 0 0 0 1 0 0 0 1 0"/>
<feBlend mode="normal" in2="BackgroundImageFix" result="effect1_dropShadow_164_624"/>
<feBlend mode="normal" in="SourceGraphic" in2="effect1_dropShadow_164_624" result="shape"/>
</filter>
<filter id="filter20_d_164_624" x="265.177" y="3.66452" width="68.3711" height="56.3802" filterUnits="userSpaceOnUse" color-interpolation-filters="sRGB">
<feFlood flood-opacity="0" result="BackgroundImageFix"/>
<feColorMatrix in="SourceAlpha" type="matrix" values="0 0 0 0 0 0 0 0 0 0 0 0 0 0 0 0 0 0 127 0" result="hardAlpha"/>
<feOffset/>
<feGaussianBlur stdDeviation="10"/>
<feComposite in2="hardAlpha" operator="out"/>
<feColorMatrix type="matrix" values="0 0 0 0 0.254167 0 0 0 0 0.68675 0 0 0 0 1 0 0 0 1 0"/>
<feBlend mode="normal" in2="BackgroundImageFix" result="effect1_dropShadow_164_624"/>
<feBlend mode="normal" in="SourceGraphic" in2="effect1_dropShadow_164_624" result="shape"/>
</filter>
<filter id="filter21_d_164_624" x="265.177" y="0.516342" width="68.3711" height="56.3802" filterUnits="userSpaceOnUse" color-interpolation-filters="sRGB">
<feFlood flood-opacity="0" result="BackgroundImageFix"/>
<feColorMatrix in="SourceAlpha" type="matrix" values="0 0 0 0 0 0 0 0 0 0 0 0 0 0 0 0 0 0 127 0" result="hardAlpha"/>
<feOffset/>
<feGaussianBlur stdDeviation="10"/>
<feComposite in2="hardAlpha" operator="out"/>
<feColorMatrix type="matrix" values="0 0 0 0 0.254167 0 0 0 0 0.68675 0 0 0 0 1 0 0 0 1 0"/>
<feBlend mode="normal" in2="BackgroundImageFix" result="effect1_dropShadow_164_624"/>
<feBlend mode="normal" in="SourceGraphic" in2="effect1_dropShadow_164_624" result="shape"/>
</filter>
<linearGradient id="paint0_linear_164_624" x1="-25.3098" y1="164.711" x2="392.416" y2="164.711" gradientUnits="userSpaceOnUse">
<stop stop-color="#BCBEFF"/>
<stop offset="1" stop-color="#5761D7"/>
</linearGradient>
<linearGradient id="paint1_linear_164_624" x1="102.192" y1="0" x2="102.192" y2="204.384" gradientUnits="userSpaceOnUse">
<stop stop-color="#0F054C"/>
<stop offset="1" stop-color="#1F0E31"/>
</linearGradient>
<radialGradient id="paint2_radial_164_624" cx="0" cy="0" r="1" gradientUnits="userSpaceOnUse" gradientTransform="translate(102.192 102.192) rotate(90) scale(102.192)">
<stop stop-color="#41AFFF"/>
<stop offset="1" stop-color="#0F054C"/>
</radialGradient>
<linearGradient id="paint3_linear_164_624" x1="237.936" y1="98.8328" x2="217.782" y2="133.74" gradientUnits="userSpaceOnUse">
<stop stop-color="#41AFFF"/>
<stop offset="1" stop-color="#1D71B8"/>
</linearGradient>
<linearGradient id="paint4_linear_164_624" x1="237.936" y1="92.2736" x2="217.782" y2="127.181" gradientUnits="userSpaceOnUse">
<stop stop-color="#41AFFF"/>
<stop offset="1" stop-color="#1D71B8" stop-opacity="0"/>
</linearGradient>
<linearGradient id="paint5_linear_164_624" x1="237.936" y1="85.7144" x2="217.782" y2="120.622" gradientUnits="userSpaceOnUse">
<stop stop-color="#41AFFF"/>
<stop offset="1" stop-color="#1D71B8" stop-opacity="0"/>
</linearGradient>
<linearGradient id="paint6_linear_164_624" x1="237.936" y1="79.1551" x2="217.782" y2="114.062" gradientUnits="userSpaceOnUse">
<stop stop-color="#41AFFF"/>
<stop offset="1" stop-color="#1D71B8" stop-opacity="0"/>
</linearGradient>
<linearGradient id="paint7_linear_164_624" x1="237.936" y1="72.5959" x2="217.782" y2="107.503" gradientUnits="userSpaceOnUse">
<stop stop-color="#41AFFF"/>
<stop offset="1" stop-color="#1D71B8" stop-opacity="0"/>
</linearGradient>
<linearGradient id="paint8_linear_164_624" x1="237.936" y1="66.0367" x2="217.782" y2="100.944" gradientUnits="userSpaceOnUse">
<stop stop-color="#41AFFF"/>
<stop offset="1" stop-color="#1D71B8" stop-opacity="0"/>
</linearGradient>
<linearGradient id="paint9_linear_164_624" x1="237.936" y1="59.4773" x2="217.782" y2="94.3845" gradientUnits="userSpaceOnUse">
<stop stop-color="#41AFFF"/>
<stop offset="1" stop-color="#1D71B8" stop-opacity="0"/>
</linearGradient>
<linearGradient id="paint10_linear_164_624" x1="185.531" y1="163.385" x2="244.166" y2="197.235" gradientUnits="userSpaceOnUse">
<stop stop-color="#BCBEFF"/>
<stop offset="0.23" stop-color="#AAADF8"/>
<stop offset="0.68" stop-color="#7C83E5"/>
<stop offset="1" stop-color="#5761D7"/>
</linearGradient>
<linearGradient id="paint11_linear_164_624" x1="178.175" y1="176.187" x2="252.083" y2="176.187" gradientUnits="userSpaceOnUse">
<stop stop-color="#E9E9FD"/>
<stop offset="0.36" stop-color="#D3D2F9"/>
<stop offset="0.71" stop-color="#C5C4F7"/>
<stop offset="1" stop-color="#C0BFF6"/>
</linearGradient>
<linearGradient id="paint12_linear_164_624" x1="20.7382" y1="0" x2="20.7382" y2="41.4765" gradientUnits="userSpaceOnUse">
<stop stop-color="#0F054C"/>
<stop offset="1" stop-color="#1F0E31"/>
</linearGradient>
<linearGradient id="paint13_linear_164_624" x1="226.435" y1="153.027" x2="214.761" y2="173.247" gradientUnits="userSpaceOnUse">
<stop stop-color="#41AFFF"/>
<stop offset="1" stop-color="#1D71B8"/>
</linearGradient>
<linearGradient id="paint14_linear_164_624" x1="226.435" y1="149.539" x2="214.761" y2="169.759" gradientUnits="userSpaceOnUse">
<stop stop-color="#41AFFF"/>
<stop offset="1" stop-color="#1D71B8" stop-opacity="0"/>
</linearGradient>
<linearGradient id="paint15_linear_164_624" x1="226.435" y1="146.051" x2="214.761" y2="166.271" gradientUnits="userSpaceOnUse">
<stop stop-color="#41AFFF"/>
<stop offset="1" stop-color="#1D71B8" stop-opacity="0"/>
</linearGradient>
<linearGradient id="paint16_linear_164_624" x1="226.435" y1="142.562" x2="214.761" y2="162.782" gradientUnits="userSpaceOnUse">
<stop stop-color="#41AFFF"/>
<stop offset="1" stop-color="#1D71B8" stop-opacity="0"/>
</linearGradient>
<linearGradient id="paint17_linear_164_624" x1="226.435" y1="139.074" x2="214.761" y2="159.294" gradientUnits="userSpaceOnUse">
<stop stop-color="#41AFFF"/>
<stop offset="1" stop-color="#1D71B8" stop-opacity="0"/>
</linearGradient>
<linearGradient id="paint18_linear_164_624" x1="187.005" y1="146.143" x2="245.64" y2="179.994" gradientUnits="userSpaceOnUse">
<stop stop-color="#BCBEFF"/>
<stop offset="0.23" stop-color="#AAADF8"/>
<stop offset="0.68" stop-color="#7C83E5"/>
<stop offset="1" stop-color="#5761D7"/>
</linearGradient>
<linearGradient id="paint19_linear_164_624" x1="179.649" y1="158.945" x2="253.557" y2="158.945" gradientUnits="userSpaceOnUse">
<stop stop-color="#E9E9FD"/>
<stop offset="0.36" stop-color="#D3D2F9"/>
<stop offset="0.71" stop-color="#C5C4F7"/>
<stop offset="1" stop-color="#C0BFF6"/>
</linearGradient>
<linearGradient id="paint20_linear_164_624" x1="180.783" y1="158.945" x2="252.422" y2="158.945" gradientUnits="userSpaceOnUse">
<stop stop-color="#E9E9FD"/>
<stop offset="0.36" stop-color="#D3D2F9"/>
<stop offset="0.71" stop-color="#C5C4F7"/>
<stop offset="1" stop-color="#C0BFF6"/>
</linearGradient>
<linearGradient id="paint21_linear_164_624" x1="8.53846" y1="175.348" x2="67.1736" y2="209.199" gradientUnits="userSpaceOnUse">
<stop stop-color="#BCBEFF"/>
<stop offset="0.23" stop-color="#AAADF8"/>
<stop offset="0.68" stop-color="#7C83E5"/>
<stop offset="1" stop-color="#5761D7"/>
</linearGradient>
<linearGradient id="paint22_linear_164_624" x1="1.18185" y1="188.15" x2="75.0901" y2="188.15" gradientUnits="userSpaceOnUse">
<stop stop-color="#E9E9FD"/>
<stop offset="0.36" stop-color="#D3D2F9"/>
<stop offset="0.71" stop-color="#C5C4F7"/>
<stop offset="1" stop-color="#C0BFF6"/>
</linearGradient>
<linearGradient id="paint23_linear_164_624" x1="20.7382" y1="0" x2="20.7382" y2="41.4765" gradientUnits="userSpaceOnUse">
<stop stop-color="#0F054C"/>
<stop offset="1" stop-color="#1F0E31"/>
</linearGradient>
<linearGradient id="paint24_linear_164_624" x1="13.3679" y1="0" x2="13.3679" y2="26.7357" gradientUnits="userSpaceOnUse">
<stop stop-color="#41AFFF"/>
<stop offset="1" stop-color="#1D71B8"/>
</linearGradient>
<linearGradient id="paint25_linear_164_624" x1="13.3679" y1="0" x2="13.3679" y2="26.7357" gradientUnits="userSpaceOnUse">
<stop stop-color="#41AFFF"/>
<stop offset="1" stop-color="#1D71B8" stop-opacity="0"/>
</linearGradient>
<linearGradient id="paint26_linear_164_624" x1="13.3679" y1="0" x2="13.3679" y2="26.7357" gradientUnits="userSpaceOnUse">
<stop stop-color="#41AFFF"/>
<stop offset="1" stop-color="#1D71B8" stop-opacity="0"/>
</linearGradient>
<linearGradient id="paint27_linear_164_624" x1="13.3679" y1="0" x2="13.3679" y2="26.7357" gradientUnits="userSpaceOnUse">
<stop stop-color="#41AFFF"/>
<stop offset="1" stop-color="#1D71B8" stop-opacity="0"/>
</linearGradient>
<linearGradient id="paint28_linear_164_624" x1="13.3679" y1="0" x2="13.3679" y2="26.7357" gradientUnits="userSpaceOnUse">
<stop stop-color="#41AFFF"/>
<stop offset="1" stop-color="#1D71B8" stop-opacity="0"/>
</linearGradient>
<linearGradient id="paint29_linear_164_624" x1="10.0121" y1="104.477" x2="68.6473" y2="138.328" gradientUnits="userSpaceOnUse">
<stop stop-color="#BCBEFF"/>
<stop offset="0.23" stop-color="#AAADF8"/>
<stop offset="0.68" stop-color="#7C83E5"/>
<stop offset="1" stop-color="#5761D7"/>
</linearGradient>
<linearGradient id="paint30_linear_164_624" x1="2.65507" y1="117.279" x2="76.5632" y2="117.279" gradientUnits="userSpaceOnUse">
<stop stop-color="#E9E9FD"/>
<stop offset="0.36" stop-color="#D3D2F9"/>
<stop offset="0.71" stop-color="#C5C4F7"/>
<stop offset="1" stop-color="#C0BFF6"/>
</linearGradient>
<linearGradient id="paint31_linear_164_624" x1="3.79032" y1="117.279" x2="75.4284" y2="117.279" gradientUnits="userSpaceOnUse">
<stop stop-color="#E9E9FD"/>
<stop offset="0.36" stop-color="#D3D2F9"/>
<stop offset="0.71" stop-color="#C5C4F7"/>
<stop offset="1" stop-color="#C0BFF6"/>
</linearGradient>
<linearGradient id="paint32_linear_164_624" x1="268.865" y1="44.1318" x2="327.5" y2="77.9824" gradientUnits="userSpaceOnUse">
<stop stop-color="#BCBEFF"/>
<stop offset="0.23" stop-color="#AAADF8"/>
<stop offset="0.68" stop-color="#7C83E5"/>
<stop offset="1" stop-color="#5761D7"/>
</linearGradient>
<linearGradient id="paint33_linear_164_624" x1="261.509" y1="56.9335" x2="335.417" y2="56.9335" gradientUnits="userSpaceOnUse">
<stop stop-color="#E9E9FD"/>
<stop offset="0.36" stop-color="#D3D2F9"/>
<stop offset="0.71" stop-color="#C5C4F7"/>
<stop offset="1" stop-color="#C0BFF6"/>
</linearGradient>
<linearGradient id="paint34_linear_164_624" x1="20.7382" y1="0" x2="20.7382" y2="41.4765" gradientUnits="userSpaceOnUse">
<stop stop-color="#0F054C"/>
<stop offset="1" stop-color="#1F0E31"/>
</linearGradient>
<linearGradient id="paint35_linear_164_624" x1="270.338" y1="26.8903" x2="328.973" y2="60.741" gradientUnits="userSpaceOnUse">
<stop stop-color="#BCBEFF"/>
<stop offset="0.23" stop-color="#AAADF8"/>
<stop offset="0.68" stop-color="#7C83E5"/>
<stop offset="1" stop-color="#5761D7"/>
</linearGradient>
<linearGradient id="paint36_linear_164_624" x1="262.982" y1="39.6921" x2="336.89" y2="39.6921" gradientUnits="userSpaceOnUse">
<stop stop-color="#E9E9FD"/>
<stop offset="0.36" stop-color="#D3D2F9"/>
<stop offset="0.71" stop-color="#C5C4F7"/>
<stop offset="1" stop-color="#C0BFF6"/>
</linearGradient>
<linearGradient id="paint37_linear_164_624" x1="264.117" y1="39.6921" x2="335.756" y2="39.6921" gradientUnits="userSpaceOnUse">
<stop stop-color="#E9E9FD"/>
<stop offset="0.36" stop-color="#D3D2F9"/>
<stop offset="0.71" stop-color="#C5C4F7"/>
<stop offset="1" stop-color="#C0BFF6"/>
</linearGradient>
<linearGradient id="paint38_linear_164_624" x1="310.771" y1="34.7125" x2="300.092" y2="53.2082" gradientUnits="userSpaceOnUse">
<stop stop-color="#41AFFF"/>
<stop offset="1" stop-color="#1D71B8"/>
</linearGradient>
<linearGradient id="paint39_linear_164_624" x1="310.771" y1="31.5643" x2="300.092" y2="50.06" gradientUnits="userSpaceOnUse">
<stop stop-color="#1D71B8" stop-opacity="0"/>
<stop offset="1" stop-color="#41AFFF"/>
</linearGradient>
<linearGradient id="paint40_linear_164_624" x1="310.771" y1="28.4161" x2="300.092" y2="46.9118" gradientUnits="userSpaceOnUse">
<stop stop-color="#1D71B8" stop-opacity="0"/>
<stop offset="1" stop-color="#41AFFF"/>
</linearGradient>
<linearGradient id="paint41_linear_164_624" x1="310.771" y1="25.2679" x2="300.092" y2="43.7636" gradientUnits="userSpaceOnUse">
<stop stop-color="#1D71B8" stop-opacity="0"/>
<stop offset="1" stop-color="#41AFFF"/>
</linearGradient>
<linearGradient id="paint42_linear_164_624" x1="310.771" y1="22.1197" x2="300.092" y2="40.6154" gradientUnits="userSpaceOnUse">
<stop stop-color="#1D71B8" stop-opacity="0"/>
<stop offset="1" stop-color="#41AFFF"/>
</linearGradient>
</defs>
</svg>
