<svg width="63" height="402" viewBox="0 0 63 402" fill="none" xmlns="http://www.w3.org/2000/svg">
<path d="M62 331L62 72" stroke="url(#paint0_linear_52_59)"/>
<path d="M40.252 390.635C40.252 392.387 39.952 393.971 39.352 395.387C38.752 396.779 37.888 397.883 36.76 398.699C35.632 399.515 34.3 399.935 32.764 399.959L32.764 394.559C33.796 394.487 34.612 394.127 35.212 393.479C35.812 392.807 36.112 391.895 36.112 390.743C36.112 389.567 35.836 388.643 35.284 387.971C34.708 387.299 33.964 386.963 33.052 386.963C32.308 386.963 31.696 387.191 31.216 387.647C30.736 388.103 30.364 388.679 30.1 389.375C29.812 390.047 29.5 390.983 29.164 392.183C28.684 393.815 28.216 395.147 27.76 396.179C27.28 397.187 26.572 398.063 25.636 398.807C24.676 399.527 23.404 399.887 21.82 399.887C20.332 399.887 19.036 399.515 17.932 398.771C16.828 398.027 15.988 396.983 15.412 395.639C14.812 394.295 14.512 392.759 14.512 391.031C14.512 388.439 15.148 386.339 16.42 384.731C17.668 383.099 19.42 382.199 21.676 382.031L21.676 387.575C20.812 387.623 20.104 387.995 19.552 388.691C18.976 389.363 18.688 390.263 18.688 391.391C18.688 392.375 18.94 393.167 19.444 393.767C19.948 394.343 20.68 394.631 21.64 394.631C22.312 394.631 22.876 394.415 23.332 393.983C23.764 393.527 24.124 392.975 24.412 392.327C24.676 391.655 24.988 390.719 25.348 389.519C25.828 387.887 26.308 386.555 26.788 385.523C27.268 384.491 27.988 383.603 28.948 382.859C29.908 382.115 31.168 381.743 32.728 381.743C34.072 381.743 35.32 382.091 36.472 382.787C37.624 383.483 38.548 384.503 39.244 385.847C39.916 387.191 40.252 388.787 40.252 390.635ZM40.252 356.709C40.252 359.061 39.7 361.221 38.596 363.189C37.492 365.157 35.968 366.717 34.024 367.869C32.056 369.021 29.836 369.597 27.364 369.597C24.916 369.597 22.72 369.021 20.776 367.869C18.808 366.717 17.272 365.157 16.168 363.189C15.064 361.221 14.512 359.061 14.512 356.709C14.512 354.333 15.064 352.173 16.168 350.229C17.272 348.261 18.808 346.713 20.776 345.585C22.72 344.433 24.916 343.857 27.364 343.857C29.836 343.857 32.056 344.433 34.024 345.585C35.968 346.713 37.492 348.261 38.596 350.229C39.7 352.197 40.252 354.357 40.252 356.709ZM35.752 356.709C35.752 355.197 35.416 353.865 34.744 352.713C34.048 351.561 33.064 350.661 31.792 350.013C30.52 349.365 29.044 349.041 27.364 349.041C25.684 349.041 24.22 349.365 22.972 350.013C21.7 350.661 20.728 351.561 20.056 352.713C19.384 353.865 19.048 355.197 19.048 356.709C19.048 358.221 19.384 359.565 20.056 360.741C20.728 361.893 21.7 362.793 22.972 363.441C24.22 364.089 25.684 364.413 27.364 364.413C29.044 364.413 30.52 364.089 31.792 363.441C33.064 362.793 34.048 361.893 34.744 360.741C35.416 359.565 35.752 358.221 35.752 356.709ZM14.872 303.712L40 303.712L40 308.752L23.656 308.752L40 315.484L40 319.3L23.656 326.068L40 326.068L40 331.108L14.872 331.108L14.872 325.384L33.556 317.392L14.872 309.4L14.872 303.712ZM18.94 284.689L25.24 284.689L25.24 276.229L29.236 276.229L29.236 284.689L35.896 284.689L35.896 275.149L40 275.149L40 289.729L14.836 289.729L14.836 275.149L18.94 275.149L18.94 284.689ZM22.648 225.667C23.992 225.667 25.252 225.991 26.428 226.639C27.604 227.263 28.552 228.259 29.272 229.627C29.992 230.971 30.352 232.675 30.352 234.739L30.352 238.951L40 238.951L40 243.991L14.872 243.991L14.872 234.739C14.872 232.795 15.208 231.139 15.88 229.771C16.552 228.403 17.476 227.383 18.652 226.711C19.828 226.015 21.16 225.667 22.648 225.667ZM26.284 234.955C26.284 233.563 25.972 232.531 25.348 231.859C24.7 231.187 23.8 230.851 22.648 230.851C20.2 230.851 18.976 232.219 18.976 234.955L18.976 238.951L26.284 238.951L26.284 234.955ZM40 200.128L30.208 205.672L30.208 208.048L40 208.048L40 213.088L14.872 213.088L14.872 203.656C14.872 201.712 15.22 200.056 15.916 198.688C16.588 197.32 17.512 196.3 18.688 195.628C19.84 194.932 21.136 194.584 22.576 194.584C24.232 194.584 25.732 195.064 27.076 196.024C28.396 196.984 29.308 198.412 29.812 200.308L40 194.296L40 200.128ZM26.428 208.048L26.428 203.836C26.428 202.468 26.104 201.448 25.456 200.776C24.784 200.104 23.86 199.768 22.684 199.768C21.532 199.768 20.644 200.104 20.02 200.776C19.372 201.448 19.048 202.468 19.048 203.836L19.048 208.048L26.428 208.048ZM40.252 169.362C40.252 171.714 39.7 173.874 38.596 175.842C37.492 177.81 35.968 179.37 34.024 180.522C32.056 181.674 29.836 182.25 27.364 182.25C24.916 182.25 22.72 181.674 20.776 180.522C18.808 179.37 17.272 177.81 16.168 175.842C15.064 173.874 14.512 171.714 14.512 169.362C14.512 166.986 15.064 164.826 16.168 162.882C17.272 160.914 18.808 159.366 20.776 158.238C22.72 157.086 24.916 156.51 27.364 156.51C29.836 156.51 32.056 157.086 34.024 158.238C35.968 159.366 37.492 160.914 38.596 162.882C39.7 164.85 40.252 167.01 40.252 169.362ZM35.752 169.362C35.752 167.85 35.416 166.518 34.744 165.366C34.048 164.214 33.064 163.314 31.792 162.666C30.52 162.018 29.044 161.694 27.364 161.694C25.684 161.694 24.22 162.018 22.972 162.666C21.7 163.314 20.728 164.214 20.056 165.366C19.384 166.518 19.048 167.85 19.048 169.362C19.048 170.874 19.384 172.218 20.056 173.394C20.728 174.546 21.7 175.446 22.972 176.094C24.22 176.742 25.684 177.066 27.364 177.066C29.044 177.066 30.52 176.742 31.792 176.094C33.064 175.446 34.048 174.546 34.744 173.394C35.416 172.218 35.752 170.874 35.752 169.362ZM14.872 129.108L32.512 129.108C34.96 129.108 36.868 129.816 38.236 131.232C39.58 132.648 40.252 134.544 40.252 136.92C40.252 139.32 39.556 141.264 38.164 142.752C36.772 144.216 34.828 144.948 32.332 144.948L32.332 139.908C33.412 139.884 34.252 139.632 34.852 139.152C35.452 138.648 35.752 137.928 35.752 136.992C35.752 136.08 35.464 135.384 34.888 134.904C34.312 134.424 33.52 134.184 32.512 134.184L14.872 134.184L14.872 129.108ZM18.94 109.189L25.24 109.189L25.24 100.729L29.236 100.729L29.236 109.189L35.896 109.189L35.896 99.6489L40 99.6489L40 114.229L14.836 114.229L14.836 99.6489L18.94 99.6489L18.94 109.189ZM27.4 87.2927C24.928 87.2927 22.72 86.7407 20.776 85.6367C18.808 84.5087 17.284 82.9847 16.204 81.0647C15.1 79.1207 14.548 76.9487 14.548 74.5487C14.548 71.7407 15.268 69.2807 16.708 67.1687C18.148 65.0567 20.14 63.5807 22.684 62.7407L22.684 68.5367C21.484 69.1127 20.584 69.9287 19.984 70.9847C19.384 72.0167 19.084 73.2167 19.084 74.5847C19.084 76.0487 19.432 77.3567 20.128 78.5087C20.8 79.6367 21.76 80.5247 23.008 81.1727C24.256 81.7967 25.72 82.1087 27.4 82.1087C29.056 82.1087 30.52 81.7967 31.792 81.1727C33.04 80.5247 34.012 79.6367 34.708 78.5087C35.38 77.3567 35.716 76.0487 35.716 74.5847C35.716 73.2167 35.416 72.0167 34.816 70.9847C34.192 69.9287 33.28 69.1127 32.08 68.5367L32.08 62.7407C34.648 63.5807 36.652 65.0567 38.092 67.1687C39.508 69.2567 40.216 71.7167 40.216 74.5487C40.216 76.9487 39.676 79.1207 38.596 81.0647C37.492 82.9847 35.968 84.5087 34.024 85.6367C32.08 86.7407 29.872 87.2927 27.4 87.2927ZM14.872 32.3359L18.94 32.3359L18.94 39.0319L40 39.0319L40 44.0719L18.94 44.0719L18.94 50.7679L14.872 50.7679L14.872 32.3359ZM40.252 10.9826C40.252 12.7346 39.952 14.3186 39.352 15.7346C38.752 17.1266 37.888 18.2306 36.76 19.0466C35.632 19.8626 34.3 20.2826 32.764 20.3066L32.764 14.9066C33.796 14.8346 34.612 14.4746 35.212 13.8266C35.812 13.1546 36.112 12.2426 36.112 11.0906C36.112 9.91458 35.836 8.99058 35.284 8.31858C34.708 7.64658 33.964 7.31058 33.052 7.31058C32.308 7.31058 31.696 7.53858 31.216 7.99458C30.736 8.45058 30.364 9.02658 30.1 9.72258C29.812 10.3946 29.5 11.3306 29.164 12.5306C28.684 14.1626 28.216 15.4946 27.76 16.5266C27.28 17.5346 26.572 18.4106 25.636 19.1546C24.676 19.8746 23.404 20.2346 21.82 20.2346C20.332 20.2346 19.036 19.8626 17.932 19.1186C16.828 18.3746 15.988 17.3306 15.412 15.9866C14.812 14.6426 14.512 13.1066 14.512 11.3786C14.512 8.78658 15.148 6.68658 16.42 5.07858C17.668 3.44658 19.42 2.54658 21.676 2.37858L21.676 7.92258C20.812 7.97058 20.104 8.34258 19.552 9.03858C18.976 9.71058 18.688 10.6106 18.688 11.7386C18.688 12.7226 18.94 13.5146 19.444 14.1146C19.948 14.6906 20.68 14.9786 21.64 14.9786C22.312 14.9786 22.876 14.7626 23.332 14.3306C23.764 13.8746 24.124 13.3226 24.412 12.6746C24.676 12.0026 24.988 11.0666 25.348 9.86658C25.828 8.23458 26.308 6.90258 26.788 5.87058C27.268 4.83858 27.988 3.95058 28.948 3.20658C29.908 2.46258 31.168 2.09058 32.728 2.09058C34.072 2.09058 35.32 2.43858 36.472 3.13458C37.624 3.83058 38.548 4.85058 39.244 6.19458C39.916 7.53858 40.252 9.13458 40.252 10.9826Z" fill="white"/>
<defs>
<linearGradient id="paint0_linear_52_59" x1="11.9968" y1="72.0003" x2="71.8781" y2="316.324" gradientUnits="userSpaceOnUse">
<stop stop-color="white" stop-opacity="0"/>
<stop offset="0.518827" stop-color="white"/>
<stop offset="1" stop-color="white" stop-opacity="0"/>
</linearGradient>
</defs>
</svg>