<svg width="294" height="55" viewBox="0 0 294 55" fill="none" xmlns="http://www.w3.org/2000/svg">
<path d="M11.3651 40.252C9.61308 40.252 8.02908 39.952 6.61308 39.352C5.22108 38.752 4.11708 37.888 3.30108 36.76C2.48508 35.632 2.06508 34.3 2.04108 32.764H7.44108C7.51308 33.796 7.87308 34.612 8.52108 35.212C9.19308 35.812 10.1051 36.112 11.2571 36.112C12.4331 36.112 13.3571 35.836 14.0291 35.284C14.7011 34.708 15.0371 33.964 15.0371 33.052C15.0371 32.308 14.8091 31.696 14.3531 31.216C13.8971 30.736 13.3211 30.364 12.6251 30.1C11.9531 29.812 11.0171 29.5 9.81708 29.164C8.18508 28.684 6.85308 28.216 5.82108 27.76C4.81308 27.28 3.93708 26.572 3.19308 25.636C2.47308 24.676 2.11308 23.404 2.11308 21.82C2.11308 20.332 2.48508 19.036 3.22908 17.932C3.97308 16.828 5.01708 15.988 6.36108 15.412C7.70508 14.812 9.24108 14.512 10.9691 14.512C13.5611 14.512 15.6611 15.148 17.2691 16.42C18.9011 17.668 19.8011 19.42 19.9691 21.676H14.4251C14.3771 20.812 14.0051 20.104 13.3091 19.552C12.6371 18.976 11.7371 18.688 10.6091 18.688C9.62508 18.688 8.83308 18.94 8.23308 19.444C7.65708 19.948 7.36908 20.68 7.36908 21.64C7.36908 22.312 7.58508 22.876 8.01708 23.332C8.47308 23.764 9.02508 24.124 9.67308 24.412C10.3451 24.676 11.2811 24.988 12.4811 25.348C14.1131 25.828 15.4451 26.308 16.4771 26.788C17.5091 27.268 18.3971 27.988 19.1411 28.948C19.8851 29.908 20.2571 31.168 20.2571 32.728C20.2571 34.072 19.9091 35.32 19.2131 36.472C18.5171 37.624 17.4971 38.548 16.1531 39.244C14.8091 39.916 13.2131 40.252 11.3651 40.252ZM36.2906 40.252C33.9386 40.252 31.7786 39.7 29.8106 38.596C27.8426 37.492 26.2826 35.968 25.1306 34.024C23.9786 32.056 23.4026 29.836 23.4026 27.364C23.4026 24.916 23.9786 22.72 25.1306 20.776C26.2826 18.808 27.8426 17.272 29.8106 16.168C31.7786 15.064 33.9386 14.512 36.2906 14.512C38.6666 14.512 40.8266 15.064 42.7706 16.168C44.7386 17.272 46.2866 18.808 47.4146 20.776C48.5666 22.72 49.1426 24.916 49.1426 27.364C49.1426 29.836 48.5666 32.056 47.4146 34.024C46.2866 35.968 44.7386 37.492 42.7706 38.596C40.8026 39.7 38.6426 40.252 36.2906 40.252ZM36.2906 35.752C37.8026 35.752 39.1346 35.416 40.2866 34.744C41.4386 34.048 42.3386 33.064 42.9866 31.792C43.6346 30.52 43.9586 29.044 43.9586 27.364C43.9586 25.684 43.6346 24.22 42.9866 22.972C42.3386 21.7 41.4386 20.728 40.2866 20.056C39.1346 19.384 37.8026 19.048 36.2906 19.048C34.7786 19.048 33.4346 19.384 32.2586 20.056C31.1066 20.728 30.2066 21.7 29.5586 22.972C28.9106 24.22 28.5866 25.684 28.5866 27.364C28.5866 29.044 28.9106 30.52 29.5586 31.792C30.2066 33.064 31.1066 34.048 32.2586 34.744C33.4346 35.416 34.7786 35.752 36.2906 35.752ZM80.2882 14.872V40H75.2482V23.656L68.5162 40L64.7002 40L57.9322 23.656V40H52.8922L52.8922 14.872H58.6162L66.6082 33.556L74.6002 14.872H80.2882ZM90.3111 18.94V25.24H98.7711V29.236H90.3111V35.896H99.8511V40H85.2711V14.836L99.8511 14.836V18.94L90.3111 18.94ZM131.333 22.648C131.333 23.992 131.009 25.252 130.361 26.428C129.737 27.604 128.741 28.552 127.373 29.272C126.029 29.992 124.325 30.352 122.261 30.352L118.049 30.352V40H113.009V14.872L122.261 14.872C124.205 14.872 125.861 15.208 127.229 15.88C128.597 16.552 129.617 17.476 130.289 18.652C130.985 19.828 131.333 21.16 131.333 22.648ZM122.045 26.284C123.437 26.284 124.469 25.972 125.141 25.348C125.813 24.7 126.149 23.8 126.149 22.648C126.149 20.2 124.781 18.976 122.045 18.976L118.049 18.976V26.284L122.045 26.284ZM147.872 40L142.328 30.208H139.952V40H134.912V14.872L144.344 14.872C146.288 14.872 147.944 15.22 149.312 15.916C150.68 16.588 151.7 17.512 152.372 18.688C153.068 19.84 153.416 21.136 153.416 22.576C153.416 24.232 152.936 25.732 151.976 27.076C151.016 28.396 149.588 29.308 147.692 29.812L153.704 40H147.872ZM139.952 26.428L144.164 26.428C145.532 26.428 146.552 26.104 147.224 25.456C147.896 24.784 148.232 23.86 148.232 22.684C148.232 21.532 147.896 20.644 147.224 20.02C146.552 19.372 145.532 19.048 144.164 19.048L139.952 19.048V26.428ZM169.638 40.252C167.286 40.252 165.126 39.7 163.158 38.596C161.19 37.492 159.63 35.968 158.478 34.024C157.326 32.056 156.75 29.836 156.75 27.364C156.75 24.916 157.326 22.72 158.478 20.776C159.63 18.808 161.19 17.272 163.158 16.168C165.126 15.064 167.286 14.512 169.638 14.512C172.014 14.512 174.174 15.064 176.118 16.168C178.086 17.272 179.634 18.808 180.762 20.776C181.914 22.72 182.49 24.916 182.49 27.364C182.49 29.836 181.914 32.056 180.762 34.024C179.634 35.968 178.086 37.492 176.118 38.596C174.15 39.7 171.99 40.252 169.638 40.252ZM169.638 35.752C171.15 35.752 172.482 35.416 173.634 34.744C174.786 34.048 175.686 33.064 176.334 31.792C176.982 30.52 177.306 29.044 177.306 27.364C177.306 25.684 176.982 24.22 176.334 22.972C175.686 21.7 174.786 20.728 173.634 20.056C172.482 19.384 171.15 19.048 169.638 19.048C168.126 19.048 166.782 19.384 165.606 20.056C164.454 20.728 163.554 21.7 162.906 22.972C162.258 24.22 161.934 25.684 161.934 27.364C161.934 29.044 162.258 30.52 162.906 31.792C163.554 33.064 164.454 34.048 165.606 34.744C166.782 35.416 168.126 35.752 169.638 35.752ZM200.892 14.872V32.512C200.892 34.96 200.184 36.868 198.768 38.236C197.352 39.58 195.456 40.252 193.08 40.252C190.68 40.252 188.736 39.556 187.248 38.164C185.784 36.772 185.052 34.828 185.052 32.332H190.092C190.116 33.412 190.368 34.252 190.848 34.852C191.352 35.452 192.072 35.752 193.008 35.752C193.92 35.752 194.616 35.464 195.096 34.888C195.576 34.312 195.816 33.52 195.816 32.512V14.872H200.892ZM211.811 18.94V25.24H220.271V29.236H211.811V35.896H221.351V40H206.771V14.836L221.351 14.836V18.94H211.811ZM224.707 27.4C224.707 24.928 225.259 22.72 226.363 20.776C227.491 18.808 229.015 17.284 230.935 16.204C232.879 15.1 235.051 14.548 237.451 14.548C240.259 14.548 242.719 15.268 244.831 16.708C246.943 18.148 248.419 20.14 249.259 22.684H243.463C242.887 21.484 242.071 20.584 241.015 19.984C239.983 19.384 238.783 19.084 237.415 19.084C235.951 19.084 234.643 19.432 233.491 20.128C232.363 20.8 231.475 21.76 230.827 23.008C230.203 24.256 229.891 25.72 229.891 27.4C229.891 29.056 230.203 30.52 230.827 31.792C231.475 33.04 232.363 34.012 233.491 34.708C234.643 35.38 235.951 35.716 237.415 35.716C238.783 35.716 239.983 35.416 241.015 34.816C242.071 34.192 242.887 33.28 243.463 32.08H249.259C248.419 34.648 246.943 36.652 244.831 38.092C242.743 39.508 240.283 40.216 237.451 40.216C235.051 40.216 232.879 39.676 230.935 38.596C229.015 37.492 227.491 35.968 226.363 34.024C225.259 32.08 224.707 29.872 224.707 27.4ZM270.664 14.872V18.94H263.968V40H258.928V18.94L252.232 18.94V14.872L270.664 14.872ZM283.017 40.252C281.265 40.252 279.681 39.952 278.265 39.352C276.873 38.752 275.769 37.888 274.953 36.76C274.137 35.632 273.717 34.3 273.693 32.764H279.093C279.165 33.796 279.525 34.612 280.173 35.212C280.845 35.812 281.757 36.112 282.909 36.112C284.085 36.112 285.009 35.836 285.681 35.284C286.353 34.708 286.689 33.964 286.689 33.052C286.689 32.308 286.461 31.696 286.005 31.216C285.549 30.736 284.973 30.364 284.277 30.1C283.605 29.812 282.669 29.5 281.469 29.164C279.837 28.684 278.505 28.216 277.473 27.76C276.465 27.28 275.589 26.572 274.845 25.636C274.125 24.676 273.765 23.404 273.765 21.82C273.765 20.332 274.137 19.036 274.881 17.932C275.625 16.828 276.669 15.988 278.013 15.412C279.357 14.812 280.893 14.512 282.621 14.512C285.213 14.512 287.313 15.148 288.921 16.42C290.553 17.668 291.453 19.42 291.621 21.676H286.077C286.029 20.812 285.657 20.104 284.961 19.552C284.289 18.976 283.389 18.688 282.261 18.688C281.277 18.688 280.485 18.94 279.885 19.444C279.309 19.948 279.021 20.68 279.021 21.64C279.021 22.312 279.237 22.876 279.669 23.332C280.125 23.764 280.677 24.124 281.325 24.412C281.997 24.676 282.933 24.988 284.133 25.348C285.765 25.828 287.097 26.308 288.129 26.788C289.161 27.268 290.049 27.988 290.793 28.948C291.537 29.908 291.909 31.168 291.909 32.728C291.909 34.072 291.561 35.32 290.865 36.472C290.169 37.624 289.149 38.548 287.805 39.244C286.461 39.916 284.865 40.252 283.017 40.252Z" fill="white"/>
<path d="M16 54L275 54" stroke="url(#paint0_linear_405_526)"/>
<defs>
<linearGradient id="paint0_linear_405_526" x1="275" y1="3.99677" x2="30.6764" y2="63.8781" gradientUnits="userSpaceOnUse">
<stop stop-color="white" stop-opacity="0"/>
<stop offset="0.518827" stop-color="white"/>
<stop offset="1" stop-color="white" stop-opacity="0"/>
</linearGradient>
</defs>
</svg>
