<svg width="41" height="40" viewBox="0 0 41 40" fill="none" xmlns="http://www.w3.org/2000/svg">
<path d="M8.48337 19.8944V31.5166H20.1056L17.6817 29.0927H10.9072V22.3182L8.48337 19.8944Z" fill="url(#paint0_linear_70_92)"/>
<path d="M39.8354 37.9276L36.3572 34.401V37.5762H2.42383V32.5467H4.84765V30.6077H2.42383V22.5485H4.84765V20.6095H2.42383V12.8533H4.84765V10.9142H2.42383V4.13965L36.3572 37.5762V34.401L2.07238 0.358501C1.90287 0.187587 1.6863 0.071025 1.45029 0.0236762C1.21427 -0.0236726 0.969501 0.000336938 0.747184 0.092644C0.524867 0.184951 0.335075 0.341373 0.202006 0.541968C0.0689376 0.742562 -0.00137937 0.978241 2.05018e-05 1.21896V38.7881C2.05018e-05 39.1095 0.127703 39.4177 0.35498 39.645C0.582256 39.8723 0.89051 40 1.21193 40H38.9749C39.2157 40.0014 39.4513 39.9311 39.6519 39.798C39.8525 39.6649 40.0089 39.4751 40.1013 39.2528C40.1936 39.0305 40.2176 38.7857 40.1702 38.5497C40.1229 38.3137 40.0063 38.0971 39.8354 37.9276Z" fill="url(#paint1_linear_70_92)"/>
<defs>
<linearGradient id="paint0_linear_70_92" x1="4.04607e-07" y1="4.04607e-07" x2="40" y2="40" gradientUnits="userSpaceOnUse">
<stop stop-color="white"/>
<stop offset="0.489138" stop-color="#41AFFF"/>
<stop offset="1" stop-color="#FFC700"/>
</linearGradient>
<linearGradient id="paint1_linear_70_92" x1="4.04607e-07" y1="4.04607e-07" x2="40" y2="40" gradientUnits="userSpaceOnUse">
<stop stop-color="white"/>
<stop offset="0.489138" stop-color="#41AFFF"/>
<stop offset="1" stop-color="#FFC700"/>
</linearGradient>
</defs>
</svg>