<svg width="40" height="40" viewBox="0 0 40 40" fill="none" xmlns="http://www.w3.org/2000/svg">
<path fill-rule="evenodd" clip-rule="evenodd" d="M20 14.5454C18.9958 14.5454 18.1818 15.3595 18.1818 16.3636V18.9873C18.1818 20.8699 16.8228 22.4571 15.6747 23.949C14.9665 24.8692 14.5454 26.0218 14.5454 27.2727C14.5454 30.2853 16.9874 32.7273 20 32.7273C23.0125 32.7273 25.4545 30.2853 25.4545 27.2727C25.4545 26.0218 25.0335 24.8692 24.3253 23.949C23.1772 22.4571 21.8182 20.8699 21.8182 18.9873V16.3636C21.8182 15.3595 21.0041 14.5454 20 14.5454ZM18.1818 27.2727C18.1818 26.2685 18.9958 25.4545 20 25.4545C21.0042 25.4545 21.8182 26.2685 21.8182 27.2727C21.8182 28.2769 21.0042 29.0909 20 29.0909C18.9958 29.0909 18.1818 28.2769 18.1818 27.2727Z" fill="url(#paint0_linear_70_93)"/>
<path d="M20 7.27273C27.0291 7.27273 32.7273 12.9709 32.7273 20C32.7273 21.0042 31.9132 21.8182 30.9091 21.8182C29.9049 21.8182 29.0909 21.0042 29.0909 20C29.0909 14.9792 25.0207 10.9091 20 10.9091C14.9792 10.9091 10.9091 14.9792 10.9091 20C10.9091 21.0042 10.0951 21.8182 9.09091 21.8182C8.08675 21.8182 7.27272 21.0042 7.27272 20C7.27272 12.9709 12.9709 7.27273 20 7.27273Z" fill="url(#paint1_linear_70_93)"/>
<path fill-rule="evenodd" clip-rule="evenodd" d="M20 40C31.0456 40 40 31.0456 40 20C40 8.95431 31.0456 0 20 0C8.95431 0 0 8.95431 0 20C0 31.0456 8.95431 40 20 40ZM20 36.3636C29.0375 36.3636 36.3636 29.0375 36.3636 20C36.3636 10.9626 29.0375 3.63636 20 3.63636C10.9626 3.63636 3.63636 10.9626 3.63636 20C3.63636 29.0375 10.9626 36.3636 20 36.3636Z" fill="url(#paint2_linear_70_93)"/>
<defs>
<linearGradient id="paint0_linear_70_93" x1="0" y1="0" x2="40" y2="40" gradientUnits="userSpaceOnUse">
<stop stop-color="white"/>
<stop offset="0.503132" stop-color="#41AFFF"/>
<stop offset="1" stop-color="#FF0000"/>
</linearGradient>
<linearGradient id="paint1_linear_70_93" x1="0" y1="0" x2="40" y2="40" gradientUnits="userSpaceOnUse">
<stop stop-color="white"/>
<stop offset="0.503132" stop-color="#41AFFF"/>
<stop offset="1" stop-color="#FF0000"/>
</linearGradient>
<linearGradient id="paint2_linear_70_93" x1="0" y1="0" x2="40" y2="40" gradientUnits="userSpaceOnUse">
<stop stop-color="white"/>
<stop offset="0.503132" stop-color="#41AFFF"/>
<stop offset="1" stop-color="#FF0000"/>
</linearGradient>
</defs>
</svg>