<svg width="36" height="40" viewBox="0 0 36 40" fill="none" xmlns="http://www.w3.org/2000/svg">
<path d="M17.897 40C15.4308 40 10.9945 38.1747 7.08284 34.168C3.85236 30.8616 0 25.0178 0 15.9696V6.71256L17.897 0L35.794 6.71256V15.9696C35.794 25.0178 31.9416 30.8616 28.7111 34.168C24.7971 38.1747 20.3608 40 17.897 40ZM3.08569 8.86305V15.9696C3.08569 23.9805 6.45858 29.1146 9.29029 32.0128C12.592 35.3928 16.3114 36.9143 17.897 36.9143C19.4825 36.9143 23.202 35.3928 26.5037 32.0128C29.333 29.1146 32.7083 23.9805 32.7083 15.9696V8.86305L17.897 3.30881L3.08569 8.86305Z" fill="url(#paint0_linear_70_91)"/>
<path d="M15.8533 25.6895C15.6506 25.6899 15.4498 25.6502 15.2624 25.5729C15.0751 25.4955 14.9048 25.3819 14.7614 25.2385L10.6717 21.1488C10.3825 20.8592 10.2201 20.4666 10.2203 20.0573C10.2205 19.648 10.3833 19.2556 10.6729 18.9663C10.9625 18.677 11.3551 18.5147 11.7644 18.5149C12.1737 18.5151 12.5662 18.6779 12.8554 18.9675L15.8533 21.9653L22.9385 14.8801C23.23 14.6017 23.6188 14.4483 24.0219 14.4529C24.425 14.4575 24.8102 14.6197 25.0953 14.9047C25.3803 15.1897 25.5425 15.575 25.5471 15.9781C25.5517 16.3812 25.3983 16.77 25.1199 17.0615L16.9428 25.2385C16.7997 25.3816 16.6298 25.495 16.4429 25.5724C16.256 25.6498 16.0556 25.6896 15.8533 25.6895Z" fill="url(#paint1_linear_70_91)"/>
<defs>
<linearGradient id="paint0_linear_70_91" x1="0" y1="0" x2="36" y2="40" gradientUnits="userSpaceOnUse">
<stop stop-color="white"/>
<stop offset="0.510417" stop-color="#41AFFF"/>
<stop offset="1" stop-color="#24FF00"/>
</linearGradient>
<linearGradient id="paint1_linear_70_91" x1="0" y1="0" x2="36" y2="40" gradientUnits="userSpaceOnUse">
<stop stop-color="white"/>
<stop offset="0.510417" stop-color="#41AFFF"/>
<stop offset="1" stop-color="#24FF00"/>
</linearGradient>
</defs>
</svg>