<svg width="60" height="60" viewBox="0 0 60 60" fill="none" xmlns="http://www.w3.org/2000/svg">
<path d="M38.4676 34.3222L34.3615 30.2109C37.1948 26.3105 38.4427 21.4781 37.8525 16.6914C37.2623 11.9047 34.8782 7.52126 31.1826 4.42788C27.487 1.33451 22.7558 -0.237764 17.9463 0.0291811C13.1368 0.296126 8.60818 2.38236 5.27668 5.86577C1.94517 9.34917 0.0595643 13.9696 0.00138722 18.7923C-0.0567899 23.6149 1.7168 28.2797 4.96331 31.8426C8.20981 35.4056 12.6868 37.6007 17.4884 37.9839C22.2901 38.3671 27.0578 36.9097 30.827 33.9066L34.8532 37.938C34.7345 38.0568 34.6403 38.1978 34.576 38.353C34.5118 38.5083 34.4787 38.6747 34.4787 38.8427C34.4787 39.0108 34.5118 39.1772 34.576 39.3324C34.6403 39.4877 34.7345 39.6287 34.8532 39.7475L54.2182 59.1371C54.3368 59.256 54.4777 59.3504 54.6328 59.4147C54.7878 59.4791 54.954 59.5122 55.1218 59.5122C55.2897 59.5122 55.4559 59.4791 55.6109 59.4147C55.766 59.3504 55.9068 59.256 56.0254 59.1371L59.627 55.5086C59.8659 55.2688 60 54.9441 60 54.6054C60 54.2668 59.8659 53.942 59.627 53.7023L40.2716 34.3222C40.0322 34.0831 39.7078 33.9488 39.3696 33.9488C39.0314 33.9488 38.707 34.0831 38.4676 34.3222ZM20.2936 32.874C17.4574 33.1348 14.6099 32.5141 12.1387 31.0964C9.66753 29.6787 7.69278 27.5328 6.48337 24.9509C5.27396 22.3691 4.88865 19.4768 5.3799 16.6678C5.87116 13.8588 7.21511 11.2697 9.22876 9.25295C11.2424 7.23622 13.8279 5.8899 16.6332 5.3973C19.4385 4.9047 22.3272 5.28977 24.9061 6.50007C27.4849 7.71036 29.6286 9.68707 31.0452 12.161C32.4617 14.635 33.0824 17.486 32.8226 20.3259C32.5227 23.5509 31.1063 26.5696 28.8182 28.8593C26.5302 31.1491 23.5147 32.5658 20.2936 32.8644V32.874Z" fill="white"/>
</svg>
