<svg width="251" height="365" viewBox="0 0 251 365" fill="none" xmlns="http://www.w3.org/2000/svg">
<path d="M193.738 251.054C192.341 251.067 190.964 250.723 189.738 250.054L162.738 234.484C162.23 234.304 161.79 233.971 161.478 233.53C161.167 233.09 161 232.564 161 232.024C161 231.485 161.167 230.959 161.478 230.518C161.79 230.078 162.23 229.745 162.738 229.564L189.578 213.954C190.818 213.327 192.188 213 193.578 213C194.968 213 196.338 213.327 197.578 213.954L224.578 229.534C225.086 229.715 225.526 230.048 225.838 230.488C226.149 230.929 226.316 231.455 226.316 231.994C226.316 232.534 226.149 233.06 225.838 233.5C225.526 233.941 225.086 234.274 224.578 234.454L197.748 250.054C196.518 250.724 195.138 251.068 193.738 251.054ZM193.598 213.534C192.288 213.509 190.994 213.819 189.838 214.434L162.998 230.034C162.588 230.184 162.234 230.457 161.985 230.814C161.735 231.172 161.601 231.598 161.601 232.034C161.601 232.471 161.735 232.897 161.985 233.254C162.234 233.612 162.588 233.884 162.998 234.034L189.998 249.614C191.163 250.206 192.451 250.515 193.758 250.515C195.065 250.515 196.353 250.206 197.518 249.614L224.358 234.014C224.757 233.838 225.104 233.561 225.363 233.211C225.623 232.86 225.786 232.448 225.838 232.014C225.789 231.58 225.627 231.167 225.367 230.815C225.107 230.464 224.759 230.188 224.358 230.014L197.358 214.434C196.2 213.823 194.907 213.514 193.598 213.534Z" fill="#03A7D3"/>
<path d="M225.832 219.73V206.79L209.492 208.97L197.252 201.91C196.048 201.299 194.717 200.98 193.367 200.98C192.017 200.98 190.686 201.299 189.482 201.91L187.572 203.12L161.032 206.66V219.83C161.091 220.298 161.269 220.744 161.549 221.124C161.829 221.504 162.202 221.805 162.632 222L189.632 237.58C190.836 238.191 192.167 238.51 193.517 238.51C194.867 238.51 196.198 238.191 197.402 237.58L224.242 221.97C224.67 221.776 225.041 221.476 225.32 221.098C225.598 220.72 225.775 220.276 225.832 219.81V219.73Z" fill="url(#paint0_linear_180_1734)"/>
<path d="M224.212 204.5L197.212 188.93C196.008 188.319 194.677 188 193.327 188C191.977 188 190.646 188.319 189.442 188.93L162.622 204.5C160.472 205.74 160.472 207.75 162.622 208.99L189.622 224.57C190.827 225.177 192.158 225.493 193.507 225.493C194.857 225.493 196.187 225.177 197.392 224.57L224.232 208.96C226.352 207.7 226.352 205.69 224.212 204.5Z" fill="url(#paint1_radial_180_1734)"/>
<path d="M224.212 204.5L197.212 188.93C196.008 188.319 194.677 188 193.327 188C191.977 188 190.646 188.319 189.442 188.93L162.622 204.5C160.472 205.74 160.472 207.75 162.622 208.99L189.622 224.57C190.827 225.177 192.158 225.493 193.507 225.493C194.857 225.493 196.187 225.177 197.392 224.57L224.232 208.96C226.352 207.7 226.352 205.69 224.212 204.5Z" fill="url(#paint2_radial_180_1734)"/>
<path d="M224.212 208.16L197.372 223.76C196.168 224.371 194.837 224.69 193.487 224.69C192.137 224.69 190.806 224.371 189.602 223.76L162.602 208.19C162.227 208.006 161.894 207.745 161.626 207.425C161.357 207.104 161.158 206.731 161.042 206.33C160.842 207.27 161.352 208.25 162.602 208.97L189.602 224.55C190.807 225.157 192.138 225.473 193.487 225.473C194.836 225.473 196.167 225.157 197.372 224.55L224.212 208.94C225.452 208.22 225.972 207.24 225.772 206.3C225.656 206.701 225.457 207.074 225.189 207.395C224.92 207.715 224.587 207.976 224.212 208.16Z" fill="white"/>
<path d="M201.002 227.99L199.732 228.73V227.26L201.002 226.52V227.99Z" fill="white"/>
<path d="M203.672 226.45L202.402 227.19V225.71L203.672 224.98V226.45Z" fill="white"/>
<path d="M206.352 224.91L205.072 225.64V224.17L206.352 223.43V224.91Z" fill="white"/>
<path d="M204.163 229.16L202.883 229.89V228.42L204.163 227.68V229.16Z" fill="white"/>
<path d="M206.512 227.8L205.242 228.54V227.06L206.512 226.32V227.8Z" fill="white"/>
<path d="M214.923 219.96L213.643 220.7V219.22L214.923 218.49V219.96Z" fill="white"/>
<path d="M222.282 215.71L221.002 216.45V214.97L222.282 214.24V215.71Z" fill="white"/>
<path d="M209.022 223.36L207.742 224.1V222.63L209.022 221.89V223.36Z" fill="white"/>
<g filter="url(#filter0_d_180_1734)">
<path d="M225.832 196.73V183.79L209.492 185.97L197.252 178.91C196.048 178.299 194.717 177.98 193.367 177.98C192.017 177.98 190.686 178.299 189.482 178.91L187.572 180.12L161.032 183.66V196.83C161.091 197.298 161.269 197.744 161.549 198.124C161.829 198.504 162.202 198.805 162.632 199L189.632 214.58C190.836 215.191 192.167 215.51 193.517 215.51C194.867 215.51 196.198 215.191 197.402 214.58L224.242 198.97C224.67 198.776 225.041 198.476 225.32 198.098C225.598 197.72 225.775 197.276 225.832 196.81V196.73Z" fill="url(#paint3_linear_180_1734)"/>
</g>
<path d="M224.212 181.5L197.212 165.93C196.008 165.319 194.677 165 193.327 165C191.977 165 190.646 165.319 189.442 165.93L162.622 181.5C160.472 182.74 160.472 184.75 162.622 185.99L189.622 201.57C190.827 202.177 192.158 202.493 193.507 202.493C194.857 202.493 196.187 202.177 197.392 201.57L224.232 185.96C226.352 184.7 226.352 182.69 224.212 181.5Z" fill="url(#paint4_radial_180_1734)"/>
<path d="M224.212 181.5L197.212 165.93C196.008 165.319 194.677 165 193.327 165C191.977 165 190.646 165.319 189.442 165.93L162.622 181.5C160.472 182.74 160.472 184.75 162.622 185.99L189.622 201.57C190.827 202.177 192.158 202.493 193.507 202.493C194.857 202.493 196.187 202.177 197.392 201.57L224.232 185.96C226.352 184.7 226.352 182.69 224.212 181.5Z" fill="url(#paint5_radial_180_1734)"/>
<path d="M224.212 185.16L197.372 200.76C196.168 201.371 194.837 201.69 193.487 201.69C192.137 201.69 190.806 201.371 189.602 200.76L162.602 185.19C162.227 185.006 161.894 184.745 161.626 184.425C161.357 184.104 161.158 183.731 161.042 183.33C160.842 184.27 161.352 185.25 162.602 185.97L189.602 201.55C190.807 202.157 192.138 202.473 193.487 202.473C194.836 202.473 196.167 202.157 197.372 201.55L224.212 185.94C225.452 185.22 225.972 184.24 225.772 183.3C225.656 183.701 225.457 184.074 225.189 184.395C224.92 184.715 224.587 184.976 224.212 185.16Z" fill="white"/>
<path d="M201.002 204.99L199.732 205.73V204.26L201.002 203.52V204.99Z" fill="white"/>
<path d="M203.672 203.45L202.402 204.19V202.71L203.672 201.98V203.45Z" fill="white"/>
<path d="M206.352 201.91L205.072 202.64V201.17L206.352 200.43V201.91Z" fill="white"/>
<path d="M204.163 206.16L202.883 206.89V205.42L204.163 204.68V206.16Z" fill="white"/>
<path d="M206.512 204.8L205.242 205.54V204.06L206.512 203.32V204.8Z" fill="white"/>
<path d="M214.923 196.96L213.643 197.7V196.22L214.923 195.49V196.96Z" fill="white"/>
<path d="M222.282 192.71L221.002 193.45V191.97L222.282 191.24V192.71Z" fill="white"/>
<path d="M209.022 200.36L207.742 201.1V199.63L209.022 198.89V200.36Z" fill="white"/>
<g filter="url(#filter1_d_180_1734)">
<path d="M225.832 173.73V160.79L209.492 162.97L197.252 155.91C196.048 155.299 194.717 154.98 193.367 154.98C192.017 154.98 190.686 155.299 189.482 155.91L187.572 157.12L161.032 160.66V173.83C161.091 174.298 161.269 174.744 161.549 175.124C161.829 175.504 162.202 175.805 162.632 176L189.632 191.58C190.836 192.191 192.167 192.51 193.517 192.51C194.867 192.51 196.198 192.191 197.402 191.58L224.242 175.97C224.67 175.776 225.041 175.476 225.32 175.098C225.598 174.72 225.775 174.276 225.832 173.81V173.73Z" fill="url(#paint6_linear_180_1734)"/>
</g>
<path d="M224.212 158.5L197.212 142.93C196.008 142.319 194.677 142 193.327 142C191.977 142 190.646 142.319 189.442 142.93L162.622 158.5C160.472 159.74 160.472 161.75 162.622 162.99L189.622 178.57C190.827 179.177 192.158 179.493 193.507 179.493C194.857 179.493 196.187 179.177 197.392 178.57L224.232 162.96C226.352 161.7 226.352 159.69 224.212 158.5Z" fill="url(#paint7_radial_180_1734)"/>
<path d="M224.212 158.5L197.212 142.93C196.008 142.319 194.677 142 193.327 142C191.977 142 190.646 142.319 189.442 142.93L162.622 158.5C160.472 159.74 160.472 161.75 162.622 162.99L189.622 178.57C190.827 179.177 192.158 179.493 193.507 179.493C194.857 179.493 196.187 179.177 197.392 178.57L224.232 162.96C226.352 161.7 226.352 159.69 224.212 158.5Z" fill="url(#paint8_radial_180_1734)"/>
<path d="M224.212 162.16L197.372 177.76C196.168 178.371 194.837 178.69 193.487 178.69C192.137 178.69 190.806 178.371 189.602 177.76L162.602 162.19C162.227 162.006 161.894 161.745 161.626 161.425C161.357 161.104 161.158 160.731 161.042 160.33C160.842 161.27 161.352 162.25 162.602 162.97L189.602 178.55C190.807 179.157 192.138 179.473 193.487 179.473C194.836 179.473 196.167 179.157 197.372 178.55L224.212 162.94C225.452 162.22 225.972 161.24 225.772 160.3C225.656 160.701 225.457 161.074 225.189 161.395C224.92 161.715 224.587 161.976 224.212 162.16Z" fill="white"/>
<path d="M201.002 181.99L199.732 182.73V181.26L201.002 180.52V181.99Z" fill="white"/>
<path d="M203.672 180.45L202.402 181.19V179.71L203.672 178.98V180.45Z" fill="white"/>
<path d="M206.352 178.91L205.072 179.64V178.17L206.352 177.43V178.91Z" fill="white"/>
<path d="M204.163 183.16L202.883 183.89V182.42L204.163 181.68V183.16Z" fill="white"/>
<path d="M206.512 181.8L205.242 182.54V181.06L206.512 180.32V181.8Z" fill="white"/>
<path d="M214.923 173.96L213.643 174.7V173.22L214.923 172.49V173.96Z" fill="white"/>
<path d="M222.282 169.71L221.002 170.45V168.97L222.282 168.24V169.71Z" fill="white"/>
<path d="M209.022 177.36L207.742 178.1V176.63L209.022 175.89V177.36Z" fill="white"/>
<g filter="url(#filter2_d_180_1734)">
<path d="M225.832 150.73V137.79L209.492 139.97L197.252 132.91C196.048 132.299 194.717 131.98 193.367 131.98C192.017 131.98 190.686 132.299 189.482 132.91L187.572 134.12L161.032 137.66V150.83C161.091 151.298 161.269 151.744 161.549 152.124C161.829 152.504 162.202 152.805 162.632 153L189.632 168.58C190.836 169.191 192.167 169.51 193.517 169.51C194.867 169.51 196.198 169.191 197.402 168.58L224.242 152.97C224.67 152.776 225.041 152.476 225.32 152.098C225.598 151.72 225.775 151.276 225.832 150.81V150.73Z" fill="url(#paint9_linear_180_1734)"/>
</g>
<path d="M224.212 135.5L197.212 119.93C196.008 119.319 194.677 119 193.327 119C191.977 119 190.646 119.319 189.442 119.93L162.622 135.5C160.472 136.74 160.472 138.75 162.622 139.99L189.622 155.57C190.827 156.177 192.158 156.493 193.507 156.493C194.857 156.493 196.187 156.177 197.392 155.57L224.232 139.96C226.352 138.7 226.352 136.69 224.212 135.5Z" fill="url(#paint10_radial_180_1734)"/>
<path d="M224.212 135.5L197.212 119.93C196.008 119.319 194.677 119 193.327 119C191.977 119 190.646 119.319 189.442 119.93L162.622 135.5C160.472 136.74 160.472 138.75 162.622 139.99L189.622 155.57C190.827 156.177 192.158 156.493 193.507 156.493C194.857 156.493 196.187 156.177 197.392 155.57L224.232 139.96C226.352 138.7 226.352 136.69 224.212 135.5Z" fill="url(#paint11_radial_180_1734)"/>
<path d="M224.212 139.16L197.372 154.76C196.168 155.371 194.837 155.69 193.487 155.69C192.137 155.69 190.806 155.371 189.602 154.76L162.602 139.19C162.227 139.006 161.894 138.745 161.626 138.425C161.357 138.104 161.158 137.731 161.042 137.33C160.842 138.27 161.352 139.25 162.602 139.97L189.602 155.55C190.807 156.157 192.138 156.473 193.487 156.473C194.836 156.473 196.167 156.157 197.372 155.55L224.212 139.94C225.452 139.22 225.972 138.24 225.772 137.3C225.656 137.701 225.457 138.074 225.189 138.395C224.92 138.715 224.587 138.976 224.212 139.16Z" fill="white"/>
<path d="M201.002 158.99L199.732 159.73V158.26L201.002 157.52V158.99Z" fill="white"/>
<path d="M203.672 157.45L202.402 158.19V156.71L203.672 155.98V157.45Z" fill="white"/>
<path d="M206.352 155.91L205.072 156.64V155.17L206.352 154.43V155.91Z" fill="white"/>
<path d="M204.163 160.16L202.883 160.89V159.42L204.163 158.68V160.16Z" fill="white"/>
<path d="M206.512 158.8L205.242 159.54V158.06L206.512 157.32V158.8Z" fill="white"/>
<path d="M214.923 150.96L213.643 151.7V150.22L214.923 149.49V150.96Z" fill="white"/>
<path d="M222.282 146.71L221.002 147.45V145.97L222.282 145.24V146.71Z" fill="white"/>
<path d="M209.022 154.36L207.742 155.1V153.63L209.022 152.89V154.36Z" fill="white"/>
<g filter="url(#filter3_d_180_1734)">
<path d="M225.832 127.73V114.79L209.492 116.97L197.252 109.91C196.048 109.299 194.717 108.98 193.367 108.98C192.017 108.98 190.686 109.299 189.482 109.91L187.572 111.12L161.032 114.66V127.83C161.091 128.298 161.269 128.744 161.549 129.124C161.829 129.504 162.202 129.805 162.632 130L189.632 145.58C190.836 146.191 192.167 146.51 193.517 146.51C194.867 146.51 196.198 146.191 197.402 145.58L224.242 129.97C224.67 129.776 225.041 129.476 225.32 129.098C225.598 128.72 225.775 128.276 225.832 127.81V127.73Z" fill="url(#paint12_linear_180_1734)"/>
</g>
<path d="M224.212 112.5L197.212 96.9299C196.008 96.3186 194.677 96 193.327 96C191.977 96 190.646 96.3186 189.442 96.9299L162.622 112.5C160.472 113.74 160.472 115.75 162.622 116.99L189.622 132.57C190.827 133.177 192.158 133.493 193.507 133.493C194.857 133.493 196.187 133.177 197.392 132.57L224.232 116.96C226.352 115.7 226.352 113.69 224.212 112.5Z" fill="url(#paint13_radial_180_1734)"/>
<path d="M224.212 112.5L197.212 96.9299C196.008 96.3186 194.677 96 193.327 96C191.977 96 190.646 96.3186 189.442 96.9299L162.622 112.5C160.472 113.74 160.472 115.75 162.622 116.99L189.622 132.57C190.827 133.177 192.158 133.493 193.507 133.493C194.857 133.493 196.187 133.177 197.392 132.57L224.232 116.96C226.352 115.7 226.352 113.69 224.212 112.5Z" fill="url(#paint14_radial_180_1734)"/>
<path d="M224.212 116.16L197.372 131.76C196.168 132.371 194.837 132.69 193.487 132.69C192.137 132.69 190.806 132.371 189.602 131.76L162.602 116.19C162.227 116.006 161.894 115.745 161.626 115.425C161.357 115.104 161.158 114.731 161.042 114.33C160.842 115.27 161.352 116.25 162.602 116.97L189.602 132.55C190.807 133.157 192.138 133.473 193.487 133.473C194.836 133.473 196.167 133.157 197.372 132.55L224.212 116.94C225.452 116.22 225.972 115.24 225.772 114.3C225.656 114.701 225.457 115.074 225.189 115.395C224.92 115.715 224.587 115.976 224.212 116.16Z" fill="white"/>
<path d="M201.002 135.99L199.732 136.73V135.26L201.002 134.52V135.99Z" fill="white"/>
<path d="M203.672 134.45L202.402 135.19V133.71L203.672 132.98V134.45Z" fill="white"/>
<path d="M206.352 132.91L205.072 133.64V132.17L206.352 131.43V132.91Z" fill="white"/>
<path d="M204.163 137.16L202.883 137.89V136.42L204.163 135.68V137.16Z" fill="white"/>
<path d="M206.512 135.8L205.242 136.54V135.06L206.512 134.32V135.8Z" fill="white"/>
<path d="M214.923 127.96L213.643 128.7V127.22L214.923 126.49V127.96Z" fill="white"/>
<path d="M222.282 123.71L221.002 124.45V122.97L222.282 122.24V123.71Z" fill="white"/>
<path d="M209.022 131.36L207.742 132.1V130.63L209.022 129.89V131.36Z" fill="white"/>
<g filter="url(#filter4_d_180_1734)">
<path d="M225.832 104.73V91.7899L209.492 93.9699L197.252 86.9099C196.048 86.2986 194.717 85.98 193.367 85.98C192.017 85.98 190.686 86.2986 189.482 86.9099L187.572 88.1199L161.032 91.6599V104.83C161.091 105.298 161.269 105.744 161.549 106.124C161.829 106.504 162.202 106.805 162.632 107L189.632 122.58C190.836 123.191 192.167 123.51 193.517 123.51C194.867 123.51 196.198 123.191 197.402 122.58L224.242 106.97C224.67 106.776 225.041 106.476 225.32 106.098C225.598 105.72 225.775 105.276 225.832 104.81V104.73Z" fill="url(#paint15_linear_180_1734)"/>
</g>
<path d="M224.212 89.5L197.212 73.9299C196.008 73.3186 194.677 73 193.327 73C191.977 73 190.646 73.3186 189.442 73.9299L162.622 89.5C160.472 90.74 160.472 92.75 162.622 93.99L189.622 109.57C190.827 110.177 192.158 110.493 193.507 110.493C194.857 110.493 196.187 110.177 197.392 109.57L224.232 93.96C226.352 92.7 226.352 90.69 224.212 89.5Z" fill="url(#paint16_radial_180_1734)"/>
<path d="M224.212 89.5L197.212 73.9299C196.008 73.3186 194.677 73 193.327 73C191.977 73 190.646 73.3186 189.442 73.9299L162.622 89.5C160.472 90.74 160.472 92.75 162.622 93.99L189.622 109.57C190.827 110.177 192.158 110.493 193.507 110.493C194.857 110.493 196.187 110.177 197.392 109.57L224.232 93.96C226.352 92.7 226.352 90.69 224.212 89.5Z" fill="url(#paint17_radial_180_1734)"/>
<path d="M224.212 93.1598L197.372 108.76C196.168 109.371 194.837 109.69 193.487 109.69C192.137 109.69 190.806 109.371 189.602 108.76L162.602 93.1898C162.227 93.0056 161.894 92.7449 161.626 92.4246C161.357 92.1043 161.158 91.7314 161.042 91.3298C160.842 92.2698 161.352 93.2498 162.602 93.9698L189.602 109.55C190.807 110.157 192.138 110.473 193.487 110.473C194.836 110.473 196.167 110.157 197.372 109.55L224.212 93.9398C225.452 93.2198 225.972 92.2398 225.772 91.2998C225.656 91.7014 225.457 92.0743 225.189 92.3946C224.92 92.7149 224.587 92.9756 224.212 93.1598Z" fill="white"/>
<path d="M201.002 112.99L199.732 113.73V112.26L201.002 111.52V112.99Z" fill="white"/>
<path d="M203.672 111.45L202.402 112.19V110.71L203.672 109.98V111.45Z" fill="white"/>
<path d="M206.352 109.91L205.072 110.64V109.17L206.352 108.43V109.91Z" fill="white"/>
<path d="M204.163 114.16L202.883 114.89V113.42L204.163 112.68V114.16Z" fill="white"/>
<path d="M206.512 112.8L205.242 113.54V112.06L206.512 111.32V112.8Z" fill="white"/>
<path d="M214.923 104.96L213.643 105.7V104.22L214.923 103.49V104.96Z" fill="white"/>
<path d="M222.282 100.71L221.002 101.45V99.97L222.282 99.24V100.71Z" fill="white"/>
<path d="M209.022 108.36L207.742 109.1V107.63L209.022 106.89V108.36Z" fill="white"/>
<g filter="url(#filter5_d_180_1734)">
<path d="M225.832 81.7299V68.7899L209.492 70.9699L197.252 63.9099C196.048 63.2986 194.717 62.98 193.367 62.98C192.017 62.98 190.686 63.2986 189.482 63.9099L187.572 65.1199L161.032 68.6599V81.8299C161.091 82.2983 161.269 82.7437 161.549 83.1236C161.829 83.5035 162.202 83.8052 162.632 83.9999L189.632 99.5799C190.836 100.191 192.167 100.51 193.517 100.51C194.867 100.51 196.198 100.191 197.402 99.5799L224.242 83.9699C224.67 83.7764 225.041 83.476 225.32 83.0978C225.598 82.7195 225.775 82.2761 225.832 81.8099V81.7299Z" fill="url(#paint18_linear_180_1734)"/>
</g>
<path d="M224.212 66.5L197.212 50.9299C196.008 50.3186 194.677 50 193.327 50C191.977 50 190.646 50.3186 189.442 50.9299L162.622 66.5C160.472 67.74 160.472 69.75 162.622 70.99L189.622 86.57C190.827 87.1767 192.158 87.4927 193.507 87.4927C194.857 87.4927 196.187 87.1767 197.392 86.57L224.232 70.96C226.352 69.7 226.352 67.69 224.212 66.5Z" fill="url(#paint19_radial_180_1734)"/>
<path d="M224.212 66.5L197.212 50.9299C196.008 50.3186 194.677 50 193.327 50C191.977 50 190.646 50.3186 189.442 50.9299L162.622 66.5C160.472 67.74 160.472 69.75 162.622 70.99L189.622 86.57C190.827 87.1767 192.158 87.4927 193.507 87.4927C194.857 87.4927 196.187 87.1767 197.392 86.57L224.232 70.96C226.352 69.7 226.352 67.69 224.212 66.5Z" fill="url(#paint20_radial_180_1734)"/>
<g filter="url(#filter6_d_180_1734)">
<path d="M193.462 81.5001C192.502 81.5182 191.555 81.2873 190.712 80.8301L172.832 70.5001C172.466 70.3641 172.152 70.1198 171.929 69.7999C171.707 69.4799 171.588 69.0997 171.588 68.7101C171.588 68.3205 171.707 67.9402 171.929 67.6202C172.152 67.3003 172.466 67.056 172.832 66.9201L190.612 56.5801C191.463 56.1399 192.408 55.9102 193.367 55.9102C194.325 55.9102 195.27 56.1399 196.122 56.5801L213.992 66.9001C214.357 67.036 214.671 67.2803 214.894 67.6003C215.116 67.9202 215.235 68.3005 215.235 68.6901C215.235 69.0797 215.116 69.4599 214.894 69.7799C214.671 70.0998 214.357 70.3441 213.992 70.4801L196.212 80.8201C195.369 81.2808 194.422 81.5151 193.462 81.5001ZM193.372 56.6201C192.535 56.6017 191.708 56.8016 190.972 57.2001L173.192 67.5001C172.931 67.5685 172.7 67.7215 172.535 67.935C172.371 68.1484 172.281 68.4104 172.281 68.6801C172.281 68.9497 172.371 69.2117 172.535 69.4252C172.7 69.6387 172.931 69.7916 173.192 69.8601L191.062 80.1801C191.805 80.5593 192.627 80.757 193.462 80.757C194.296 80.757 195.118 80.5593 195.862 80.1801L213.642 69.8501C213.881 69.7469 214.089 69.5828 214.245 69.3739C214.402 69.1651 214.5 68.919 214.532 68.6601C214.501 68.4023 214.402 68.1573 214.246 67.9501C214.089 67.7428 213.881 67.5806 213.642 67.4801L195.772 57.2001C195.035 56.8025 194.208 56.6026 193.372 56.6201Z" fill="#41AFFF"/>
</g>
<path d="M224.212 70.1598L197.372 85.7598C196.168 86.3711 194.837 86.6898 193.487 86.6898C192.137 86.6898 190.806 86.3711 189.602 85.7598L162.602 70.1898C162.227 70.0056 161.894 69.7449 161.626 69.4246C161.357 69.1043 161.158 68.7314 161.042 68.3298C160.842 69.2698 161.352 70.2498 162.602 70.9698L189.602 86.5498C190.807 87.1565 192.138 87.4725 193.487 87.4725C194.836 87.4725 196.167 87.1565 197.372 86.5498L224.212 70.9398C225.452 70.2198 225.972 69.2398 225.772 68.2998C225.656 68.7014 225.457 69.0743 225.189 69.3946C224.92 69.7149 224.587 69.9756 224.212 70.1598Z" fill="white"/>
<path d="M201.002 89.99L199.732 90.73V89.26L201.002 88.52V89.99Z" fill="white"/>
<path d="M203.672 88.45L202.402 89.19V87.71L203.672 86.98V88.45Z" fill="white"/>
<path d="M206.352 86.9099L205.072 87.6399V86.1699L206.352 85.4299V86.9099Z" fill="white"/>
<path d="M204.163 91.1599L202.883 91.8899V90.4199L204.163 89.6799V91.1599Z" fill="white"/>
<path d="M206.512 89.7998L205.242 90.5398V89.0598L206.512 88.3198V89.7998Z" fill="white"/>
<path d="M214.923 81.96L213.643 82.7V81.22L214.923 80.49V81.96Z" fill="white"/>
<path d="M222.282 77.71L221.002 78.45V76.97L222.282 76.24V77.71Z" fill="white"/>
<path d="M209.022 85.3601L207.742 86.1001V84.6301L209.022 83.8901V85.3601Z" fill="white"/>
<path d="M183.65 230.56L168.65 221.92C168.452 221.778 168.29 221.593 168.177 221.377C168.064 221.162 168.003 220.923 168 220.68V219.57C168 219.09 168.29 218.87 168.65 219.08L183.65 227.73C183.845 227.871 184.004 228.056 184.115 228.269C184.226 228.483 184.286 228.719 184.29 228.96V230.08C184.29 230.55 184 230.77 183.65 230.56Z" fill="white"/>
<path style="mix-blend-mode:lighten" opacity="0.5" d="M226 220L226 0H161L161 219.766C161.018 220.025 161.105 220.273 161.253 220.485C161.402 220.696 161.604 220.862 161.839 220.964L191 237.5C191.626 237.818 192.816 237.983 193.516 237.983C194.216 237.983 195.874 237.818 196.5 237.5L225.175 221.289C225.414 221.168 225.616 220.984 225.761 220.758C225.906 220.531 225.988 220.27 226 220Z" fill="url(#paint21_linear_180_1734)"/>
<path d="M143.738 279.054C142.341 279.067 140.964 278.723 139.738 278.054L112.738 262.484C112.23 262.304 111.79 261.971 111.478 261.53C111.167 261.09 111 260.564 111 260.024C111 259.485 111.167 258.959 111.478 258.518C111.79 258.078 112.23 257.745 112.738 257.564L139.578 241.954C140.818 241.327 142.188 241 143.578 241C144.968 241 146.338 241.327 147.578 241.954L174.578 257.534C175.086 257.715 175.526 258.048 175.838 258.488C176.149 258.929 176.316 259.455 176.316 259.994C176.316 260.534 176.149 261.06 175.838 261.5C175.526 261.941 175.086 262.274 174.578 262.454L147.748 278.054C146.518 278.724 145.138 279.068 143.738 279.054ZM143.598 241.534C142.288 241.509 140.994 241.819 139.838 242.434L112.998 258.034C112.588 258.184 112.234 258.457 111.985 258.814C111.735 259.172 111.601 259.598 111.601 260.034C111.601 260.471 111.735 260.897 111.985 261.254C112.234 261.612 112.588 261.884 112.998 262.034L139.998 277.614C141.163 278.206 142.451 278.515 143.758 278.515C145.065 278.515 146.353 278.206 147.518 277.614L174.358 262.014C174.757 261.838 175.104 261.561 175.363 261.211C175.623 260.86 175.786 260.448 175.838 260.014C175.789 259.58 175.627 259.167 175.367 258.815C175.107 258.464 174.759 258.188 174.358 258.014L147.358 242.434C146.2 241.823 144.907 241.514 143.598 241.534Z" fill="#03A7D3"/>
<path d="M175.832 247.73V234.79L159.492 236.97L147.252 229.91C146.048 229.299 144.717 228.98 143.367 228.98C142.017 228.98 140.686 229.299 139.482 229.91L137.572 231.12L111.032 234.66V247.83C111.091 248.298 111.269 248.744 111.549 249.124C111.829 249.504 112.202 249.805 112.632 250L139.632 265.58C140.836 266.191 142.167 266.51 143.517 266.51C144.867 266.51 146.198 266.191 147.402 265.58L174.242 249.97C174.67 249.776 175.041 249.476 175.32 249.098C175.598 248.72 175.775 248.276 175.832 247.81V247.73Z" fill="url(#paint22_linear_180_1734)"/>
<path d="M174.212 232.5L147.212 216.93C146.008 216.319 144.677 216 143.327 216C141.977 216 140.646 216.319 139.442 216.93L112.622 232.5C110.472 233.74 110.472 235.75 112.622 236.99L139.622 252.57C140.827 253.177 142.158 253.493 143.507 253.493C144.857 253.493 146.187 253.177 147.392 252.57L174.232 236.96C176.352 235.7 176.352 233.69 174.212 232.5Z" fill="url(#paint23_radial_180_1734)"/>
<path d="M174.212 232.5L147.212 216.93C146.008 216.319 144.677 216 143.327 216C141.977 216 140.646 216.319 139.442 216.93L112.622 232.5C110.472 233.74 110.472 235.75 112.622 236.99L139.622 252.57C140.827 253.177 142.158 253.493 143.507 253.493C144.857 253.493 146.187 253.177 147.392 252.57L174.232 236.96C176.352 235.7 176.352 233.69 174.212 232.5Z" fill="url(#paint24_radial_180_1734)"/>
<path d="M174.212 236.16L147.372 251.76C146.168 252.371 144.837 252.69 143.487 252.69C142.137 252.69 140.806 252.371 139.602 251.76L112.602 236.19C112.227 236.006 111.894 235.745 111.626 235.425C111.357 235.104 111.158 234.731 111.042 234.33C110.842 235.27 111.352 236.25 112.602 236.97L139.602 252.55C140.807 253.157 142.138 253.473 143.487 253.473C144.836 253.473 146.167 253.157 147.372 252.55L174.212 236.94C175.452 236.22 175.972 235.24 175.772 234.3C175.656 234.701 175.457 235.074 175.189 235.395C174.92 235.715 174.587 235.976 174.212 236.16Z" fill="white"/>
<path d="M151.002 255.99L149.732 256.73V255.26L151.002 254.52V255.99Z" fill="white"/>
<path d="M153.672 254.45L152.402 255.19V253.71L153.672 252.98V254.45Z" fill="white"/>
<path d="M156.352 252.91L155.072 253.64V252.17L156.352 251.43V252.91Z" fill="white"/>
<path d="M154.163 257.16L152.883 257.89V256.42L154.163 255.68V257.16Z" fill="white"/>
<path d="M156.512 255.8L155.242 256.54V255.06L156.512 254.32V255.8Z" fill="white"/>
<path d="M164.923 247.96L163.643 248.7V247.22L164.923 246.49V247.96Z" fill="white"/>
<path d="M172.282 243.71L171.002 244.45V242.97L172.282 242.24V243.71Z" fill="white"/>
<path d="M159.022 251.36L157.742 252.1V250.63L159.022 249.89V251.36Z" fill="white"/>
<g filter="url(#filter7_d_180_1734)">
<path d="M175.832 224.73V211.79L159.492 213.97L147.252 206.91C146.048 206.299 144.717 205.98 143.367 205.98C142.017 205.98 140.686 206.299 139.482 206.91L137.572 208.12L111.032 211.66V224.83C111.091 225.298 111.269 225.744 111.549 226.124C111.829 226.504 112.202 226.805 112.632 227L139.632 242.58C140.836 243.191 142.167 243.51 143.517 243.51C144.867 243.51 146.198 243.191 147.402 242.58L174.242 226.97C174.67 226.776 175.041 226.476 175.32 226.098C175.598 225.72 175.775 225.276 175.832 224.81V224.73Z" fill="url(#paint25_linear_180_1734)"/>
</g>
<path d="M174.212 209.5L147.212 193.93C146.008 193.319 144.677 193 143.327 193C141.977 193 140.646 193.319 139.442 193.93L112.622 209.5C110.472 210.74 110.472 212.75 112.622 213.99L139.622 229.57C140.827 230.177 142.158 230.493 143.507 230.493C144.857 230.493 146.187 230.177 147.392 229.57L174.232 213.96C176.352 212.7 176.352 210.69 174.212 209.5Z" fill="url(#paint26_radial_180_1734)"/>
<path d="M174.212 209.5L147.212 193.93C146.008 193.319 144.677 193 143.327 193C141.977 193 140.646 193.319 139.442 193.93L112.622 209.5C110.472 210.74 110.472 212.75 112.622 213.99L139.622 229.57C140.827 230.177 142.158 230.493 143.507 230.493C144.857 230.493 146.187 230.177 147.392 229.57L174.232 213.96C176.352 212.7 176.352 210.69 174.212 209.5Z" fill="url(#paint27_radial_180_1734)"/>
<path d="M174.212 213.16L147.372 228.76C146.168 229.371 144.837 229.69 143.487 229.69C142.137 229.69 140.806 229.371 139.602 228.76L112.602 213.19C112.227 213.006 111.894 212.745 111.626 212.425C111.357 212.104 111.158 211.731 111.042 211.33C110.842 212.27 111.352 213.25 112.602 213.97L139.602 229.55C140.807 230.157 142.138 230.473 143.487 230.473C144.836 230.473 146.167 230.157 147.372 229.55L174.212 213.94C175.452 213.22 175.972 212.24 175.772 211.3C175.656 211.701 175.457 212.074 175.189 212.395C174.92 212.715 174.587 212.976 174.212 213.16Z" fill="white"/>
<path d="M151.002 232.99L149.732 233.73V232.26L151.002 231.52V232.99Z" fill="white"/>
<path d="M153.672 231.45L152.402 232.19V230.71L153.672 229.98V231.45Z" fill="white"/>
<path d="M156.352 229.91L155.072 230.64V229.17L156.352 228.43V229.91Z" fill="white"/>
<path d="M154.163 234.16L152.883 234.89V233.42L154.163 232.68V234.16Z" fill="white"/>
<path d="M156.512 232.8L155.242 233.54V232.06L156.512 231.32V232.8Z" fill="white"/>
<path d="M164.923 224.96L163.643 225.7V224.22L164.923 223.49V224.96Z" fill="white"/>
<path d="M172.282 220.71L171.002 221.45V219.97L172.282 219.24V220.71Z" fill="white"/>
<path d="M159.022 228.36L157.742 229.1V227.63L159.022 226.89V228.36Z" fill="white"/>
<g filter="url(#filter8_d_180_1734)">
<path d="M175.832 201.73V188.79L159.492 190.97L147.252 183.91C146.048 183.299 144.717 182.98 143.367 182.98C142.017 182.98 140.686 183.299 139.482 183.91L137.572 185.12L111.032 188.66V201.83C111.091 202.298 111.269 202.744 111.549 203.124C111.829 203.504 112.202 203.805 112.632 204L139.632 219.58C140.836 220.191 142.167 220.51 143.517 220.51C144.867 220.51 146.198 220.191 147.402 219.58L174.242 203.97C174.67 203.776 175.041 203.476 175.32 203.098C175.598 202.72 175.775 202.276 175.832 201.81V201.73Z" fill="url(#paint28_linear_180_1734)"/>
</g>
<path d="M174.212 186.5L147.212 170.93C146.008 170.319 144.677 170 143.327 170C141.977 170 140.646 170.319 139.442 170.93L112.622 186.5C110.472 187.74 110.472 189.75 112.622 190.99L139.622 206.57C140.827 207.177 142.158 207.493 143.507 207.493C144.857 207.493 146.187 207.177 147.392 206.57L174.232 190.96C176.352 189.7 176.352 187.69 174.212 186.5Z" fill="url(#paint29_radial_180_1734)"/>
<path d="M174.212 186.5L147.212 170.93C146.008 170.319 144.677 170 143.327 170C141.977 170 140.646 170.319 139.442 170.93L112.622 186.5C110.472 187.74 110.472 189.75 112.622 190.99L139.622 206.57C140.827 207.177 142.158 207.493 143.507 207.493C144.857 207.493 146.187 207.177 147.392 206.57L174.232 190.96C176.352 189.7 176.352 187.69 174.212 186.5Z" fill="url(#paint30_radial_180_1734)"/>
<path d="M174.212 190.16L147.372 205.76C146.168 206.371 144.837 206.69 143.487 206.69C142.137 206.69 140.806 206.371 139.602 205.76L112.602 190.19C112.227 190.006 111.894 189.745 111.626 189.425C111.357 189.104 111.158 188.731 111.042 188.33C110.842 189.27 111.352 190.25 112.602 190.97L139.602 206.55C140.807 207.157 142.138 207.473 143.487 207.473C144.836 207.473 146.167 207.157 147.372 206.55L174.212 190.94C175.452 190.22 175.972 189.24 175.772 188.3C175.656 188.701 175.457 189.074 175.189 189.395C174.92 189.715 174.587 189.976 174.212 190.16Z" fill="white"/>
<path d="M151.002 209.99L149.732 210.73V209.26L151.002 208.52V209.99Z" fill="white"/>
<path d="M153.672 208.45L152.402 209.19V207.71L153.672 206.98V208.45Z" fill="white"/>
<path d="M156.352 206.91L155.072 207.64V206.17L156.352 205.43V206.91Z" fill="white"/>
<path d="M154.163 211.16L152.883 211.89V210.42L154.163 209.68V211.16Z" fill="white"/>
<path d="M156.512 209.8L155.242 210.54V209.06L156.512 208.32V209.8Z" fill="white"/>
<path d="M164.923 201.96L163.643 202.7V201.22L164.923 200.49V201.96Z" fill="white"/>
<path d="M172.282 197.71L171.002 198.45V196.97L172.282 196.24V197.71Z" fill="white"/>
<path d="M159.022 205.36L157.742 206.1V204.63L159.022 203.89V205.36Z" fill="white"/>
<g filter="url(#filter9_d_180_1734)">
<path d="M175.832 178.73V165.79L159.492 167.97L147.252 160.91C146.048 160.299 144.717 159.98 143.367 159.98C142.017 159.98 140.686 160.299 139.482 160.91L137.572 162.12L111.032 165.66V178.83C111.091 179.298 111.269 179.744 111.549 180.124C111.829 180.504 112.202 180.805 112.632 181L139.632 196.58C140.836 197.191 142.167 197.51 143.517 197.51C144.867 197.51 146.198 197.191 147.402 196.58L174.242 180.97C174.67 180.776 175.041 180.476 175.32 180.098C175.598 179.72 175.775 179.276 175.832 178.81V178.73Z" fill="url(#paint31_linear_180_1734)"/>
</g>
<path d="M174.212 163.5L147.212 147.93C146.008 147.319 144.677 147 143.327 147C141.977 147 140.646 147.319 139.442 147.93L112.622 163.5C110.472 164.74 110.472 166.75 112.622 167.99L139.622 183.57C140.827 184.177 142.158 184.493 143.507 184.493C144.857 184.493 146.187 184.177 147.392 183.57L174.232 167.96C176.352 166.7 176.352 164.69 174.212 163.5Z" fill="url(#paint32_radial_180_1734)"/>
<path d="M174.212 163.5L147.212 147.93C146.008 147.319 144.677 147 143.327 147C141.977 147 140.646 147.319 139.442 147.93L112.622 163.5C110.472 164.74 110.472 166.75 112.622 167.99L139.622 183.57C140.827 184.177 142.158 184.493 143.507 184.493C144.857 184.493 146.187 184.177 147.392 183.57L174.232 167.96C176.352 166.7 176.352 164.69 174.212 163.5Z" fill="url(#paint33_radial_180_1734)"/>
<path d="M174.212 167.16L147.372 182.76C146.168 183.371 144.837 183.69 143.487 183.69C142.137 183.69 140.806 183.371 139.602 182.76L112.602 167.19C112.227 167.006 111.894 166.745 111.626 166.425C111.357 166.104 111.158 165.731 111.042 165.33C110.842 166.27 111.352 167.25 112.602 167.97L139.602 183.55C140.807 184.157 142.138 184.473 143.487 184.473C144.836 184.473 146.167 184.157 147.372 183.55L174.212 167.94C175.452 167.22 175.972 166.24 175.772 165.3C175.656 165.701 175.457 166.074 175.189 166.395C174.92 166.715 174.587 166.976 174.212 167.16Z" fill="white"/>
<path d="M151.002 186.99L149.732 187.73V186.26L151.002 185.52V186.99Z" fill="white"/>
<path d="M153.672 185.45L152.402 186.19V184.71L153.672 183.98V185.45Z" fill="white"/>
<path d="M156.352 183.91L155.072 184.64V183.17L156.352 182.43V183.91Z" fill="white"/>
<path d="M154.163 188.16L152.883 188.89V187.42L154.163 186.68V188.16Z" fill="white"/>
<path d="M156.512 186.8L155.242 187.54V186.06L156.512 185.32V186.8Z" fill="white"/>
<path d="M164.923 178.96L163.643 179.7V178.22L164.923 177.49V178.96Z" fill="white"/>
<path d="M172.282 174.71L171.002 175.45V173.97L172.282 173.24V174.71Z" fill="white"/>
<path d="M159.022 182.36L157.742 183.1V181.63L159.022 180.89V182.36Z" fill="white"/>
<g filter="url(#filter10_d_180_1734)">
<path d="M175.832 155.73V142.79L159.492 144.97L147.252 137.91C146.048 137.299 144.717 136.98 143.367 136.98C142.017 136.98 140.686 137.299 139.482 137.91L137.572 139.12L111.032 142.66V155.83C111.091 156.298 111.269 156.744 111.549 157.124C111.829 157.504 112.202 157.805 112.632 158L139.632 173.58C140.836 174.191 142.167 174.51 143.517 174.51C144.867 174.51 146.198 174.191 147.402 173.58L174.242 157.97C174.67 157.776 175.041 157.476 175.32 157.098C175.598 156.72 175.775 156.276 175.832 155.81V155.73Z" fill="url(#paint34_linear_180_1734)"/>
</g>
<path d="M174.212 140.5L147.212 124.93C146.008 124.319 144.677 124 143.327 124C141.977 124 140.646 124.319 139.442 124.93L112.622 140.5C110.472 141.74 110.472 143.75 112.622 144.99L139.622 160.57C140.827 161.177 142.158 161.493 143.507 161.493C144.857 161.493 146.187 161.177 147.392 160.57L174.232 144.96C176.352 143.7 176.352 141.69 174.212 140.5Z" fill="url(#paint35_radial_180_1734)"/>
<path d="M174.212 140.5L147.212 124.93C146.008 124.319 144.677 124 143.327 124C141.977 124 140.646 124.319 139.442 124.93L112.622 140.5C110.472 141.74 110.472 143.75 112.622 144.99L139.622 160.57C140.827 161.177 142.158 161.493 143.507 161.493C144.857 161.493 146.187 161.177 147.392 160.57L174.232 144.96C176.352 143.7 176.352 141.69 174.212 140.5Z" fill="url(#paint36_radial_180_1734)"/>
<g filter="url(#filter11_d_180_1734)">
<path d="M143.462 155.5C142.502 155.518 141.555 155.287 140.712 154.83L122.832 144.5C122.466 144.364 122.152 144.12 121.929 143.8C121.707 143.48 121.588 143.1 121.588 142.71C121.588 142.32 121.707 141.94 121.929 141.62C122.152 141.3 122.466 141.056 122.832 140.92L140.612 130.58C141.463 130.14 142.408 129.91 143.367 129.91C144.325 129.91 145.27 130.14 146.122 130.58L163.992 140.9C164.357 141.036 164.671 141.28 164.894 141.6C165.116 141.92 165.235 142.3 165.235 142.69C165.235 143.08 165.116 143.46 164.894 143.78C164.671 144.1 164.357 144.344 163.992 144.48L146.212 154.82C145.369 155.281 144.422 155.515 143.462 155.5ZM143.372 130.62C142.535 130.602 141.708 130.802 140.972 131.2L123.192 141.5C122.931 141.569 122.7 141.721 122.535 141.935C122.371 142.148 122.281 142.41 122.281 142.68C122.281 142.95 122.371 143.212 122.535 143.425C122.7 143.639 122.931 143.792 123.192 143.86L141.062 154.18C141.805 154.559 142.627 154.757 143.462 154.757C144.296 154.757 145.118 154.559 145.862 154.18L163.642 143.85C163.881 143.747 164.089 143.583 164.245 143.374C164.402 143.165 164.5 142.919 164.532 142.66C164.501 142.402 164.402 142.157 164.246 141.95C164.089 141.743 163.881 141.581 163.642 141.48L145.772 131.2C145.035 130.802 144.208 130.603 143.372 130.62Z" fill="#41AFFF"/>
</g>
<path d="M174.212 144.16L147.372 159.76C146.168 160.371 144.837 160.69 143.487 160.69C142.137 160.69 140.806 160.371 139.602 159.76L112.602 144.19C112.227 144.006 111.894 143.745 111.626 143.425C111.357 143.104 111.158 142.731 111.042 142.33C110.842 143.27 111.352 144.25 112.602 144.97L139.602 160.55C140.807 161.157 142.138 161.473 143.487 161.473C144.836 161.473 146.167 161.157 147.372 160.55L174.212 144.94C175.452 144.22 175.972 143.24 175.772 142.3C175.656 142.701 175.457 143.074 175.189 143.395C174.92 143.715 174.587 143.976 174.212 144.16Z" fill="white"/>
<path d="M151.002 163.99L149.732 164.73V163.26L151.002 162.52V163.99Z" fill="white"/>
<path d="M153.672 162.45L152.402 163.19V161.71L153.672 160.98V162.45Z" fill="white"/>
<path d="M156.352 160.91L155.072 161.64V160.17L156.352 159.43V160.91Z" fill="white"/>
<path d="M154.163 165.16L152.883 165.89V164.42L154.163 163.68V165.16Z" fill="white"/>
<path d="M156.512 163.8L155.242 164.54V163.06L156.512 162.32V163.8Z" fill="white"/>
<path d="M164.923 155.96L163.643 156.7V155.22L164.923 154.49V155.96Z" fill="white"/>
<path d="M172.282 151.71L171.002 152.45V150.97L172.282 150.24V151.71Z" fill="white"/>
<path d="M159.022 159.36L157.742 160.1V158.63L159.022 157.89V159.36Z" fill="white"/>
<path d="M132.65 257.56L117.65 248.92C117.452 248.778 117.29 248.593 117.177 248.377C117.064 248.162 117.003 247.923 117 247.68V246.57C117 246.09 117.29 245.87 117.65 246.08L132.65 254.73C132.845 254.871 133.004 255.056 133.115 255.269C133.226 255.483 133.286 255.719 133.29 255.96V257.08C133.29 257.55 133 257.77 132.65 257.56Z" fill="white"/>
<path style="mix-blend-mode:lighten" opacity="0.5" d="M176 248L176 28H111L111 247.766C111.018 248.025 111.105 248.273 111.253 248.485C111.402 248.696 111.604 248.862 111.839 248.964L141 265.5C141.626 265.818 142.816 265.983 143.516 265.983C144.216 265.983 145.874 265.818 146.5 265.5L175.175 249.289C175.414 249.168 175.616 248.984 175.761 248.758C175.906 248.531 175.988 248.27 176 248Z" fill="url(#paint37_linear_180_1734)"/>
<path d="M92.7389 307.054C91.3421 307.067 89.9653 306.723 88.7389 306.054L61.7389 290.484C61.2305 290.304 60.7905 289.971 60.4793 289.53C60.1681 289.09 60.001 288.564 60.001 288.024C60.001 287.485 60.1681 286.959 60.4793 286.518C60.7905 286.078 61.2305 285.745 61.7389 285.564L88.5789 269.954C89.8189 269.327 91.1892 269 92.5789 269C93.9686 269 95.3389 269.327 96.5789 269.954L123.579 285.534C124.087 285.715 124.527 286.048 124.839 286.488C125.15 286.929 125.317 287.455 125.317 287.994C125.317 288.534 125.15 289.06 124.839 289.5C124.527 289.941 124.087 290.274 123.579 290.454L96.7489 306.054C95.5194 306.724 94.139 307.068 92.7389 307.054ZM92.5989 269.534C91.2894 269.509 89.9951 269.819 88.8389 270.434L61.9989 286.034C61.5892 286.184 61.2355 286.457 60.9856 286.814C60.7357 287.172 60.6016 287.598 60.6016 288.034C60.6016 288.471 60.7357 288.897 60.9856 289.254C61.2355 289.612 61.5892 289.884 61.9989 290.034L88.9989 305.614C90.1639 306.206 91.4522 306.515 92.7589 306.515C94.0657 306.515 95.3539 306.206 96.5189 305.614L123.359 290.014C123.758 289.838 124.105 289.561 124.364 289.211C124.624 288.86 124.787 288.448 124.839 288.014C124.79 287.58 124.628 287.167 124.368 286.815C124.108 286.464 123.76 286.188 123.359 286.014L96.3589 270.434C95.2011 269.823 93.908 269.514 92.5989 269.534Z" fill="#03A7D3"/>
<path d="M124.833 275.73V262.79L108.493 264.97L96.2532 257.91C95.0494 257.299 93.7183 256.98 92.3682 256.98C91.0181 256.98 89.687 257.299 88.4832 257.91L86.5732 259.12L60.0332 262.66V275.83C60.0921 276.298 60.2701 276.744 60.5502 277.124C60.8303 277.504 61.2032 277.805 61.6332 278L88.6332 293.58C89.837 294.191 91.1681 294.51 92.5182 294.51C93.8683 294.51 95.1994 294.191 96.4032 293.58L123.243 277.97C123.671 277.776 124.042 277.476 124.321 277.098C124.599 276.72 124.776 276.276 124.833 275.81V275.73Z" fill="url(#paint38_linear_180_1734)"/>
<path d="M123.213 260.5L96.2132 244.93C95.0094 244.319 93.6784 244 92.3282 244C90.9781 244 89.647 244.319 88.4432 244.93L61.6232 260.5C59.4732 261.74 59.4732 263.75 61.6232 264.99L88.6232 280.57C89.8284 281.177 91.1589 281.493 92.5082 281.493C93.8575 281.493 95.188 281.177 96.3932 280.57L123.233 264.96C125.353 263.7 125.353 261.69 123.213 260.5Z" fill="url(#paint39_radial_180_1734)"/>
<path d="M123.213 260.5L96.2132 244.93C95.0094 244.319 93.6784 244 92.3282 244C90.9781 244 89.647 244.319 88.4432 244.93L61.6232 260.5C59.4732 261.74 59.4732 263.75 61.6232 264.99L88.6232 280.57C89.8284 281.177 91.1589 281.493 92.5082 281.493C93.8575 281.493 95.188 281.177 96.3932 280.57L123.233 264.96C125.353 263.7 125.353 261.69 123.213 260.5Z" fill="url(#paint40_radial_180_1734)"/>
<path d="M123.213 264.16L96.3732 279.76C95.1694 280.371 93.8383 280.69 92.4882 280.69C91.138 280.69 89.8069 280.371 88.6031 279.76L61.6031 264.19C61.2279 264.006 60.8953 263.745 60.6266 263.425C60.358 263.104 60.1592 262.731 60.0431 262.33C59.8431 263.27 60.3531 264.25 61.6031 264.97L88.6031 280.55C89.8083 281.157 91.1389 281.473 92.4882 281.473C93.8374 281.473 95.168 281.157 96.3732 280.55L123.213 264.94C124.453 264.22 124.973 263.24 124.773 262.3C124.657 262.701 124.458 263.074 124.19 263.395C123.921 263.715 123.588 263.976 123.213 264.16Z" fill="white"/>
<path d="M100.003 283.99L98.7334 284.73V283.26L100.003 282.52V283.99Z" fill="white"/>
<path d="M102.673 282.45L101.403 283.19V281.71L102.673 280.98V282.45Z" fill="white"/>
<path d="M105.353 280.91L104.073 281.64V280.17L105.353 279.43V280.91Z" fill="white"/>
<path d="M103.163 285.16L101.883 285.89V284.42L103.163 283.68V285.16Z" fill="white"/>
<path d="M105.513 283.8L104.243 284.54V283.06L105.513 282.32V283.8Z" fill="white"/>
<path d="M113.923 275.96L112.643 276.7V275.22L113.923 274.49V275.96Z" fill="white"/>
<path d="M121.283 271.71L120.003 272.45V270.97L121.283 270.24V271.71Z" fill="white"/>
<path d="M108.023 279.36L106.743 280.1V278.63L108.023 277.89V279.36Z" fill="white"/>
<g filter="url(#filter12_d_180_1734)">
<path d="M124.833 252.73V239.79L108.493 241.97L96.2532 234.91C95.0494 234.299 93.7183 233.98 92.3682 233.98C91.0181 233.98 89.687 234.299 88.4832 234.91L86.5732 236.12L60.0332 239.66V252.83C60.0921 253.298 60.2701 253.744 60.5502 254.124C60.8303 254.504 61.2032 254.805 61.6332 255L88.6332 270.58C89.837 271.191 91.1681 271.51 92.5182 271.51C93.8683 271.51 95.1994 271.191 96.4032 270.58L123.243 254.97C123.671 254.776 124.042 254.476 124.321 254.098C124.599 253.72 124.776 253.276 124.833 252.81V252.73Z" fill="url(#paint41_linear_180_1734)"/>
</g>
<path d="M123.213 237.5L96.2132 221.93C95.0094 221.319 93.6784 221 92.3282 221C90.9781 221 89.647 221.319 88.4432 221.93L61.6232 237.5C59.4732 238.74 59.4732 240.75 61.6232 241.99L88.6232 257.57C89.8284 258.177 91.1589 258.493 92.5082 258.493C93.8575 258.493 95.188 258.177 96.3932 257.57L123.233 241.96C125.353 240.7 125.353 238.69 123.213 237.5Z" fill="url(#paint42_radial_180_1734)"/>
<path d="M123.213 237.5L96.2132 221.93C95.0094 221.319 93.6784 221 92.3282 221C90.9781 221 89.647 221.319 88.4432 221.93L61.6232 237.5C59.4732 238.74 59.4732 240.75 61.6232 241.99L88.6232 257.57C89.8284 258.177 91.1589 258.493 92.5082 258.493C93.8575 258.493 95.188 258.177 96.3932 257.57L123.233 241.96C125.353 240.7 125.353 238.69 123.213 237.5Z" fill="url(#paint43_radial_180_1734)"/>
<path d="M123.213 241.16L96.3732 256.76C95.1694 257.371 93.8383 257.69 92.4882 257.69C91.138 257.69 89.8069 257.371 88.6031 256.76L61.6031 241.19C61.2279 241.006 60.8953 240.745 60.6266 240.425C60.358 240.104 60.1592 239.731 60.0431 239.33C59.8431 240.27 60.3531 241.25 61.6031 241.97L88.6031 257.55C89.8083 258.157 91.1389 258.473 92.4882 258.473C93.8374 258.473 95.168 258.157 96.3732 257.55L123.213 241.94C124.453 241.22 124.973 240.24 124.773 239.3C124.657 239.701 124.458 240.074 124.19 240.395C123.921 240.715 123.588 240.976 123.213 241.16Z" fill="white"/>
<path d="M100.003 260.99L98.7334 261.73V260.26L100.003 259.52V260.99Z" fill="white"/>
<path d="M102.673 259.45L101.403 260.19V258.71L102.673 257.98V259.45Z" fill="white"/>
<path d="M105.353 257.91L104.073 258.64V257.17L105.353 256.43V257.91Z" fill="white"/>
<path d="M103.163 262.16L101.883 262.89V261.42L103.163 260.68V262.16Z" fill="white"/>
<path d="M105.513 260.8L104.243 261.54V260.06L105.513 259.32V260.8Z" fill="white"/>
<path d="M113.923 252.96L112.643 253.7V252.22L113.923 251.49V252.96Z" fill="white"/>
<path d="M121.283 248.71L120.003 249.45V247.97L121.283 247.24V248.71Z" fill="white"/>
<path d="M108.023 256.36L106.743 257.1V255.63L108.023 254.89V256.36Z" fill="white"/>
<g filter="url(#filter13_d_180_1734)">
<path d="M124.833 229.73V216.79L108.493 218.97L96.2532 211.91C95.0494 211.299 93.7183 210.98 92.3682 210.98C91.0181 210.98 89.687 211.299 88.4832 211.91L86.5732 213.12L60.0332 216.66V229.83C60.0921 230.298 60.2701 230.744 60.5502 231.124C60.8303 231.504 61.2032 231.805 61.6332 232L88.6332 247.58C89.837 248.191 91.1681 248.51 92.5182 248.51C93.8683 248.51 95.1994 248.191 96.4032 247.58L123.243 231.97C123.671 231.776 124.042 231.476 124.321 231.098C124.599 230.72 124.776 230.276 124.833 229.81V229.73Z" fill="url(#paint44_linear_180_1734)"/>
</g>
<path d="M123.213 214.5L96.2132 198.93C95.0094 198.319 93.6784 198 92.3282 198C90.9781 198 89.647 198.319 88.4432 198.93L61.6232 214.5C59.4732 215.74 59.4732 217.75 61.6232 218.99L88.6232 234.57C89.8284 235.177 91.1589 235.493 92.5082 235.493C93.8575 235.493 95.188 235.177 96.3932 234.57L123.233 218.96C125.353 217.7 125.353 215.69 123.213 214.5Z" fill="url(#paint45_radial_180_1734)"/>
<path d="M123.213 214.5L96.2132 198.93C95.0094 198.319 93.6784 198 92.3282 198C90.9781 198 89.647 198.319 88.4432 198.93L61.6232 214.5C59.4732 215.74 59.4732 217.75 61.6232 218.99L88.6232 234.57C89.8284 235.177 91.1589 235.493 92.5082 235.493C93.8575 235.493 95.188 235.177 96.3932 234.57L123.233 218.96C125.353 217.7 125.353 215.69 123.213 214.5Z" fill="url(#paint46_radial_180_1734)"/>
<g filter="url(#filter14_d_180_1734)">
<path d="M92.4635 229.5C91.5043 229.518 90.5569 229.287 89.7135 228.83L71.8335 218.5C71.4684 218.364 71.1536 218.12 70.9313 217.8C70.709 217.48 70.5898 217.1 70.5898 216.71C70.5898 216.32 70.709 215.94 70.9313 215.62C71.1536 215.3 71.4684 215.056 71.8335 214.92L89.6135 204.58C90.4651 204.14 91.4098 203.91 92.3685 203.91C93.3272 203.91 94.2719 204.14 95.1235 204.58L112.993 214.9C113.359 215.036 113.673 215.28 113.896 215.6C114.118 215.92 114.237 216.3 114.237 216.69C114.237 217.08 114.118 217.46 113.896 217.78C113.673 218.1 113.359 218.344 112.993 218.48L95.2135 228.82C94.3711 229.281 93.4236 229.515 92.4635 229.5ZM92.3735 204.62C91.5367 204.602 90.7096 204.802 89.9735 205.2L72.1935 215.5C71.9327 215.569 71.702 215.721 71.5373 215.935C71.3727 216.148 71.2833 216.41 71.2833 216.68C71.2833 216.95 71.3727 217.212 71.5373 217.425C71.702 217.639 71.9327 217.792 72.1935 217.86L90.0635 228.18C90.8067 228.559 91.6292 228.757 92.4635 228.757C93.2979 228.757 94.1203 228.559 94.8635 228.18L112.643 217.85C112.883 217.747 113.091 217.583 113.247 217.374C113.404 217.165 113.502 216.919 113.534 216.66C113.503 216.402 113.404 216.157 113.248 215.95C113.091 215.743 112.883 215.581 112.643 215.48L94.7735 205.2C94.0371 204.802 93.2102 204.603 92.3735 204.62Z" fill="#41AFFF"/>
</g>
<path d="M123.213 218.16L96.3732 233.76C95.1694 234.371 93.8383 234.69 92.4882 234.69C91.138 234.69 89.8069 234.371 88.6031 233.76L61.6031 218.19C61.2279 218.006 60.8953 217.745 60.6266 217.425C60.358 217.104 60.1592 216.731 60.0431 216.33C59.8431 217.27 60.3531 218.25 61.6031 218.97L88.6031 234.55C89.8083 235.157 91.1389 235.473 92.4882 235.473C93.8374 235.473 95.168 235.157 96.3732 234.55L123.213 218.94C124.453 218.22 124.973 217.24 124.773 216.3C124.657 216.701 124.458 217.074 124.19 217.395C123.921 217.715 123.588 217.976 123.213 218.16Z" fill="white"/>
<path d="M100.003 237.99L98.7334 238.73V237.26L100.003 236.52V237.99Z" fill="white"/>
<path d="M102.673 236.45L101.403 237.19V235.71L102.673 234.98V236.45Z" fill="white"/>
<path d="M105.353 234.91L104.073 235.64V234.17L105.353 233.43V234.91Z" fill="white"/>
<path d="M103.163 239.16L101.883 239.89V238.42L103.163 237.68V239.16Z" fill="white"/>
<path d="M105.513 237.8L104.243 238.54V237.06L105.513 236.32V237.8Z" fill="white"/>
<path d="M113.923 229.96L112.643 230.7V229.22L113.923 228.49V229.96Z" fill="white"/>
<path d="M121.283 225.71L120.003 226.45V224.97L121.283 224.24V225.71Z" fill="white"/>
<path d="M108.023 233.36L106.743 234.1V232.63L108.023 231.89V233.36Z" fill="white"/>
<path d="M81.651 285.56L66.651 276.92C66.453 276.778 66.2909 276.593 66.178 276.377C66.0651 276.162 66.0044 275.923 66.001 275.68V274.57C66.001 274.09 66.291 273.87 66.651 274.08L81.651 282.73C81.8458 282.871 82.0051 283.056 82.1162 283.269C82.2273 283.483 82.2871 283.719 82.291 283.96V285.08C82.291 285.55 82.001 285.77 81.651 285.56Z" fill="white"/>
<path style="mix-blend-mode:lighten" opacity="0.5" d="M125 276L125 56H60.0005L60 275.766C60.0177 276.025 60.1054 276.273 60.2534 276.485C60.4015 276.696 60.6043 276.862 60.8395 276.964L90 294C90.6258 294.318 91.8161 294.483 92.5162 294.483C93.2163 294.483 94.8742 294.318 95.5 294L124.175 277.289C124.414 277.168 124.616 276.984 124.761 276.758C124.906 276.531 124.988 276.27 125 276Z" fill="url(#paint47_linear_180_1734)"/>
<path d="M42.7379 333.054C41.3412 333.067 39.9643 332.723 38.7379 332.054L11.7379 316.484C11.2296 316.304 10.7895 315.971 10.4783 315.53C10.1671 315.09 10 314.564 10 314.024C10 313.485 10.1671 312.959 10.4783 312.518C10.7895 312.078 11.2296 311.745 11.7379 311.564L38.5779 295.954C39.8179 295.327 41.1882 295 42.5779 295C43.9676 295 45.3379 295.327 46.5779 295.954L73.5779 311.534C74.0863 311.715 74.5263 312.048 74.8376 312.488C75.1488 312.929 75.3159 313.455 75.3159 313.994C75.3159 314.534 75.1488 315.06 74.8376 315.5C74.5263 315.941 74.0863 316.274 73.5779 316.454L46.7479 332.054C45.5184 332.724 44.138 333.068 42.7379 333.054ZM42.5979 295.534C41.2884 295.509 39.9942 295.819 38.8379 296.434L11.9979 312.034C11.5882 312.184 11.2345 312.457 10.9846 312.814C10.7347 313.172 10.6006 313.598 10.6006 314.034C10.6006 314.471 10.7347 314.897 10.9846 315.254C11.2345 315.612 11.5882 315.884 11.9979 316.034L38.9979 331.614C40.1629 332.206 41.4512 332.515 42.7579 332.515C44.0647 332.515 45.3529 332.206 46.5179 331.614L73.3579 316.014C73.7572 315.838 74.1037 315.561 74.3632 315.211C74.6227 314.86 74.7863 314.448 74.8379 314.014C74.7893 313.58 74.6268 313.167 74.3669 312.815C74.107 312.464 73.7589 312.188 73.3579 312.014L46.3579 296.434C45.2001 295.823 43.907 295.514 42.5979 295.534Z" fill="#03A7D3"/>
<g filter="url(#filter15_d_180_1734)">
<path d="M74.8332 303.73V290.79L58.4932 292.97L46.2532 285.91C45.0494 285.299 43.7183 284.98 42.3682 284.98C41.0181 284.98 39.687 285.299 38.4832 285.91L36.5732 287.12L10.0332 290.66V303.83C10.0921 304.298 10.2701 304.744 10.5502 305.124C10.8303 305.504 11.2032 305.805 11.6332 306L38.6332 321.58C39.837 322.191 41.1681 322.51 42.5182 322.51C43.8683 322.51 45.1994 322.191 46.4032 321.58L73.2432 305.97C73.6711 305.776 74.0421 305.476 74.3206 305.098C74.599 304.72 74.7755 304.276 74.8332 303.81V303.73Z" fill="url(#paint48_linear_180_1734)"/>
</g>
<path d="M73.2123 288.5L46.2123 272.93C45.0085 272.319 43.6774 272 42.3273 272C40.9771 272 39.646 272.319 38.4422 272.93L11.6223 288.5C9.47227 289.74 9.47227 291.75 11.6223 292.99L38.6223 308.57C39.8274 309.177 41.158 309.493 42.5072 309.493C43.8565 309.493 45.1871 309.177 46.3923 308.57L73.2323 292.96C75.3522 291.7 75.3523 289.69 73.2123 288.5Z" fill="url(#paint49_radial_180_1734)"/>
<path d="M73.2123 288.5L46.2123 272.93C45.0085 272.319 43.6774 272 42.3273 272C40.9771 272 39.646 272.319 38.4422 272.93L11.6223 288.5C9.47227 289.74 9.47227 291.75 11.6223 292.99L38.6223 308.57C39.8274 309.177 41.158 309.493 42.5072 309.493C43.8565 309.493 45.1871 309.177 46.3923 308.57L73.2323 292.96C75.3522 291.7 75.3523 289.69 73.2123 288.5Z" fill="url(#paint50_radial_180_1734)"/>
<g filter="url(#filter16_d_180_1734)">
<path d="M42.4625 303.5C41.5034 303.518 40.5559 303.287 39.7125 302.83L21.8325 292.5C21.4674 292.364 21.1526 292.12 20.9303 291.8C20.708 291.48 20.5889 291.1 20.5889 290.71C20.5889 290.32 20.708 289.94 20.9303 289.62C21.1526 289.3 21.4674 289.056 21.8325 288.92L39.6125 278.58C40.4641 278.14 41.4089 277.91 42.3675 277.91C43.3262 277.91 44.2709 278.14 45.1225 278.58L62.9925 288.9C63.3576 289.036 63.6724 289.28 63.8947 289.6C64.117 289.92 64.2362 290.3 64.2362 290.69C64.2362 291.08 64.117 291.46 63.8947 291.78C63.6724 292.1 63.3576 292.344 62.9925 292.48L45.2125 302.82C44.3701 303.281 43.4226 303.515 42.4625 303.5ZM42.3725 278.62C41.5357 278.602 40.7086 278.802 39.9725 279.2L22.1925 289.5C21.9317 289.569 21.701 289.721 21.5363 289.935C21.3717 290.148 21.2823 290.41 21.2823 290.68C21.2823 290.95 21.3717 291.212 21.5363 291.425C21.701 291.639 21.9317 291.792 22.1925 291.86L40.0625 302.18C40.8057 302.559 41.6282 302.757 42.4625 302.757C43.2969 302.757 44.1193 302.559 44.8625 302.18L62.6425 291.85C62.882 291.747 63.0903 291.583 63.2465 291.374C63.4026 291.165 63.5013 290.919 63.5325 290.66C63.5016 290.402 63.4029 290.157 63.2466 289.95C63.0903 289.743 62.8818 289.581 62.6425 289.48L44.7725 279.2C44.0361 278.802 43.2092 278.603 42.3725 278.62Z" fill="#41AFFF"/>
</g>
<path d="M73.2122 292.16L46.3722 307.76C45.1684 308.371 43.8373 308.69 42.4872 308.69C41.137 308.69 39.806 308.371 38.6022 307.76L11.6022 292.19C11.2269 292.006 10.8943 291.745 10.6256 291.425C10.357 291.104 10.1582 290.731 10.0422 290.33C9.84217 291.27 10.3522 292.25 11.6022 292.97L38.6022 308.55C39.8074 309.157 41.1379 309.473 42.4872 309.473C43.8365 309.473 45.167 309.157 46.3722 308.55L73.2122 292.94C74.4522 292.22 74.9722 291.24 74.7722 290.3C74.6561 290.701 74.4574 291.074 74.1887 291.395C73.9201 291.715 73.5875 291.976 73.2122 292.16Z" fill="white"/>
<path d="M50.0024 311.99L48.7324 312.73V311.26L50.0024 310.52V311.99Z" fill="white"/>
<path d="M52.6723 310.45L51.4023 311.19V309.71L52.6723 308.98V310.45Z" fill="white"/>
<path d="M55.3523 308.91L54.0723 309.64V308.17L55.3523 307.43V308.91Z" fill="white"/>
<path d="M53.1628 313.16L51.8828 313.89V312.42L53.1628 311.68V313.16Z" fill="white"/>
<path d="M55.5122 311.8L54.2422 312.54V311.06L55.5122 310.32V311.8Z" fill="white"/>
<path d="M63.9226 303.96L62.6426 304.7V303.22L63.9226 302.49V303.96Z" fill="white"/>
<path d="M71.282 299.71L70.002 300.45V298.97L71.282 298.24V299.71Z" fill="white"/>
<path d="M58.0222 307.36L56.7422 308.1V306.63L58.0222 305.89V307.36Z" fill="white"/>
<path style="mix-blend-mode:lighten" opacity="0.5" d="M75 304L75.0005 84H10.0005L10 303.766C10.0177 304.025 10.1054 304.273 10.2534 304.485C10.4015 304.696 10.6043 304.862 10.8395 304.964L40 322C40.6258 322.318 41.8161 322.483 42.5162 322.483C43.2163 322.483 44.8742 322.318 45.5 322L74.1754 305.289C74.4138 305.168 74.616 304.984 74.7609 304.758C74.9059 304.531 74.9884 304.27 75 304Z" fill="url(#paint51_linear_180_1734)"/>
<g filter="url(#filter17_d_180_1734)">
<path d="M83.3945 257.205L32 347L36 351L83.3945 284.205L111.54 300.455L121.933 282.455L229.32 96.4548L240.5 75.7048L236 72.7048L210.267 87.4548L216.762 91.2048L111.54 273.455L88.4191 260.106L83.3945 257.205Z" fill="url(#paint52_linear_180_1734)"/>
<path d="M83.3945 257.205L32 347L36 351L83.3945 284.205L111.54 300.455L121.933 282.455L229.32 96.4548L240.5 75.7048L236 72.7048L210.267 87.4548L216.762 91.2048L111.54 273.455L88.4191 260.106L83.3945 257.205Z" fill="url(#paint53_linear_180_1734)" fill-opacity="0.2"/>
</g>
<path d="M88.3945 260.205L36 350.955L47.2583 358.455L88.3945 287.205L116.54 303.455L126.933 285.455L234.32 99.4548L240.815 103.205L240.5 75.7048L215.267 90.4548L221.762 94.2048L116.54 276.455L88.3945 260.205Z" fill="url(#paint54_linear_180_1734)"/>
<defs>
<filter id="filter0_d_180_1734" x="157.032" y="177.98" width="72.7998" height="47.5298" filterUnits="userSpaceOnUse" color-interpolation-filters="sRGB">
<feFlood flood-opacity="0" result="BackgroundImageFix"/>
<feColorMatrix in="SourceAlpha" type="matrix" values="0 0 0 0 0 0 0 0 0 0 0 0 0 0 0 0 0 0 127 0" result="hardAlpha"/>
<feOffset dy="6"/>
<feGaussianBlur stdDeviation="2"/>
<feComposite in2="hardAlpha" operator="out"/>
<feColorMatrix type="matrix" values="0 0 0 0 0 0 0 0 0 0.219485 0 0 0 0 0.2625 0 0 0 0.25 0"/>
<feBlend mode="normal" in2="BackgroundImageFix" result="effect1_dropShadow_180_1734"/>
<feBlend mode="normal" in="SourceGraphic" in2="effect1_dropShadow_180_1734" result="shape"/>
</filter>
<filter id="filter1_d_180_1734" x="157.032" y="154.98" width="72.7998" height="47.5298" filterUnits="userSpaceOnUse" color-interpolation-filters="sRGB">
<feFlood flood-opacity="0" result="BackgroundImageFix"/>
<feColorMatrix in="SourceAlpha" type="matrix" values="0 0 0 0 0 0 0 0 0 0 0 0 0 0 0 0 0 0 127 0" result="hardAlpha"/>
<feOffset dy="6"/>
<feGaussianBlur stdDeviation="2"/>
<feComposite in2="hardAlpha" operator="out"/>
<feColorMatrix type="matrix" values="0 0 0 0 0 0 0 0 0 0.219485 0 0 0 0 0.2625 0 0 0 0.25 0"/>
<feBlend mode="normal" in2="BackgroundImageFix" result="effect1_dropShadow_180_1734"/>
<feBlend mode="normal" in="SourceGraphic" in2="effect1_dropShadow_180_1734" result="shape"/>
</filter>
<filter id="filter2_d_180_1734" x="157.032" y="131.98" width="72.7998" height="47.5298" filterUnits="userSpaceOnUse" color-interpolation-filters="sRGB">
<feFlood flood-opacity="0" result="BackgroundImageFix"/>
<feColorMatrix in="SourceAlpha" type="matrix" values="0 0 0 0 0 0 0 0 0 0 0 0 0 0 0 0 0 0 127 0" result="hardAlpha"/>
<feOffset dy="6"/>
<feGaussianBlur stdDeviation="2"/>
<feComposite in2="hardAlpha" operator="out"/>
<feColorMatrix type="matrix" values="0 0 0 0 0 0 0 0 0 0.219485 0 0 0 0 0.2625 0 0 0 0.25 0"/>
<feBlend mode="normal" in2="BackgroundImageFix" result="effect1_dropShadow_180_1734"/>
<feBlend mode="normal" in="SourceGraphic" in2="effect1_dropShadow_180_1734" result="shape"/>
</filter>
<filter id="filter3_d_180_1734" x="157.032" y="108.98" width="72.7998" height="47.5298" filterUnits="userSpaceOnUse" color-interpolation-filters="sRGB">
<feFlood flood-opacity="0" result="BackgroundImageFix"/>
<feColorMatrix in="SourceAlpha" type="matrix" values="0 0 0 0 0 0 0 0 0 0 0 0 0 0 0 0 0 0 127 0" result="hardAlpha"/>
<feOffset dy="6"/>
<feGaussianBlur stdDeviation="2"/>
<feComposite in2="hardAlpha" operator="out"/>
<feColorMatrix type="matrix" values="0 0 0 0 0 0 0 0 0 0.219485 0 0 0 0 0.2625 0 0 0 0.25 0"/>
<feBlend mode="normal" in2="BackgroundImageFix" result="effect1_dropShadow_180_1734"/>
<feBlend mode="normal" in="SourceGraphic" in2="effect1_dropShadow_180_1734" result="shape"/>
</filter>
<filter id="filter4_d_180_1734" x="157.032" y="85.98" width="72.7998" height="47.5298" filterUnits="userSpaceOnUse" color-interpolation-filters="sRGB">
<feFlood flood-opacity="0" result="BackgroundImageFix"/>
<feColorMatrix in="SourceAlpha" type="matrix" values="0 0 0 0 0 0 0 0 0 0 0 0 0 0 0 0 0 0 127 0" result="hardAlpha"/>
<feOffset dy="6"/>
<feGaussianBlur stdDeviation="2"/>
<feComposite in2="hardAlpha" operator="out"/>
<feColorMatrix type="matrix" values="0 0 0 0 0 0 0 0 0 0.219485 0 0 0 0 0.2625 0 0 0 0.25 0"/>
<feBlend mode="normal" in2="BackgroundImageFix" result="effect1_dropShadow_180_1734"/>
<feBlend mode="normal" in="SourceGraphic" in2="effect1_dropShadow_180_1734" result="shape"/>
</filter>
<filter id="filter5_d_180_1734" x="157.032" y="62.98" width="72.7998" height="47.5298" filterUnits="userSpaceOnUse" color-interpolation-filters="sRGB">
<feFlood flood-opacity="0" result="BackgroundImageFix"/>
<feColorMatrix in="SourceAlpha" type="matrix" values="0 0 0 0 0 0 0 0 0 0 0 0 0 0 0 0 0 0 127 0" result="hardAlpha"/>
<feOffset dy="6"/>
<feGaussianBlur stdDeviation="2"/>
<feComposite in2="hardAlpha" operator="out"/>
<feColorMatrix type="matrix" values="0 0 0 0 0 0 0 0 0 0.219485 0 0 0 0 0.2625 0 0 0 0.25 0"/>
<feBlend mode="normal" in2="BackgroundImageFix" result="effect1_dropShadow_180_1734"/>
<feBlend mode="normal" in="SourceGraphic" in2="effect1_dropShadow_180_1734" result="shape"/>
</filter>
<filter id="filter6_d_180_1734" x="151.588" y="35.9102" width="83.6475" height="65.5908" filterUnits="userSpaceOnUse" color-interpolation-filters="sRGB">
<feFlood flood-opacity="0" result="BackgroundImageFix"/>
<feColorMatrix in="SourceAlpha" type="matrix" values="0 0 0 0 0 0 0 0 0 0 0 0 0 0 0 0 0 0 127 0" result="hardAlpha"/>
<feOffset/>
<feGaussianBlur stdDeviation="10"/>
<feComposite in2="hardAlpha" operator="out"/>
<feColorMatrix type="matrix" values="0 0 0 0 0.254167 0 0 0 0 0.68675 0 0 0 0 1 0 0 0 1 0"/>
<feBlend mode="normal" in2="BackgroundImageFix" result="effect1_dropShadow_180_1734"/>
<feBlend mode="normal" in="SourceGraphic" in2="effect1_dropShadow_180_1734" result="shape"/>
</filter>
<filter id="filter7_d_180_1734" x="107.032" y="205.98" width="72.7998" height="47.5298" filterUnits="userSpaceOnUse" color-interpolation-filters="sRGB">
<feFlood flood-opacity="0" result="BackgroundImageFix"/>
<feColorMatrix in="SourceAlpha" type="matrix" values="0 0 0 0 0 0 0 0 0 0 0 0 0 0 0 0 0 0 127 0" result="hardAlpha"/>
<feOffset dy="6"/>
<feGaussianBlur stdDeviation="2"/>
<feComposite in2="hardAlpha" operator="out"/>
<feColorMatrix type="matrix" values="0 0 0 0 0 0 0 0 0 0.219485 0 0 0 0 0.2625 0 0 0 0.25 0"/>
<feBlend mode="normal" in2="BackgroundImageFix" result="effect1_dropShadow_180_1734"/>
<feBlend mode="normal" in="SourceGraphic" in2="effect1_dropShadow_180_1734" result="shape"/>
</filter>
<filter id="filter8_d_180_1734" x="107.032" y="182.98" width="72.7998" height="47.5298" filterUnits="userSpaceOnUse" color-interpolation-filters="sRGB">
<feFlood flood-opacity="0" result="BackgroundImageFix"/>
<feColorMatrix in="SourceAlpha" type="matrix" values="0 0 0 0 0 0 0 0 0 0 0 0 0 0 0 0 0 0 127 0" result="hardAlpha"/>
<feOffset dy="6"/>
<feGaussianBlur stdDeviation="2"/>
<feComposite in2="hardAlpha" operator="out"/>
<feColorMatrix type="matrix" values="0 0 0 0 0 0 0 0 0 0.219485 0 0 0 0 0.2625 0 0 0 0.25 0"/>
<feBlend mode="normal" in2="BackgroundImageFix" result="effect1_dropShadow_180_1734"/>
<feBlend mode="normal" in="SourceGraphic" in2="effect1_dropShadow_180_1734" result="shape"/>
</filter>
<filter id="filter9_d_180_1734" x="107.032" y="159.98" width="72.7998" height="47.5298" filterUnits="userSpaceOnUse" color-interpolation-filters="sRGB">
<feFlood flood-opacity="0" result="BackgroundImageFix"/>
<feColorMatrix in="SourceAlpha" type="matrix" values="0 0 0 0 0 0 0 0 0 0 0 0 0 0 0 0 0 0 127 0" result="hardAlpha"/>
<feOffset dy="6"/>
<feGaussianBlur stdDeviation="2"/>
<feComposite in2="hardAlpha" operator="out"/>
<feColorMatrix type="matrix" values="0 0 0 0 0 0 0 0 0 0.219485 0 0 0 0 0.2625 0 0 0 0.25 0"/>
<feBlend mode="normal" in2="BackgroundImageFix" result="effect1_dropShadow_180_1734"/>
<feBlend mode="normal" in="SourceGraphic" in2="effect1_dropShadow_180_1734" result="shape"/>
</filter>
<filter id="filter10_d_180_1734" x="107.032" y="136.98" width="72.7998" height="47.5298" filterUnits="userSpaceOnUse" color-interpolation-filters="sRGB">
<feFlood flood-opacity="0" result="BackgroundImageFix"/>
<feColorMatrix in="SourceAlpha" type="matrix" values="0 0 0 0 0 0 0 0 0 0 0 0 0 0 0 0 0 0 127 0" result="hardAlpha"/>
<feOffset dy="6"/>
<feGaussianBlur stdDeviation="2"/>
<feComposite in2="hardAlpha" operator="out"/>
<feColorMatrix type="matrix" values="0 0 0 0 0 0 0 0 0 0.219485 0 0 0 0 0.2625 0 0 0 0.25 0"/>
<feBlend mode="normal" in2="BackgroundImageFix" result="effect1_dropShadow_180_1734"/>
<feBlend mode="normal" in="SourceGraphic" in2="effect1_dropShadow_180_1734" result="shape"/>
</filter>
<filter id="filter11_d_180_1734" x="101.588" y="109.91" width="83.6475" height="65.5908" filterUnits="userSpaceOnUse" color-interpolation-filters="sRGB">
<feFlood flood-opacity="0" result="BackgroundImageFix"/>
<feColorMatrix in="SourceAlpha" type="matrix" values="0 0 0 0 0 0 0 0 0 0 0 0 0 0 0 0 0 0 127 0" result="hardAlpha"/>
<feOffset/>
<feGaussianBlur stdDeviation="10"/>
<feComposite in2="hardAlpha" operator="out"/>
<feColorMatrix type="matrix" values="0 0 0 0 0.254167 0 0 0 0 0.68675 0 0 0 0 1 0 0 0 1 0"/>
<feBlend mode="normal" in2="BackgroundImageFix" result="effect1_dropShadow_180_1734"/>
<feBlend mode="normal" in="SourceGraphic" in2="effect1_dropShadow_180_1734" result="shape"/>
</filter>
<filter id="filter12_d_180_1734" x="56.0332" y="233.98" width="72.7998" height="47.5298" filterUnits="userSpaceOnUse" color-interpolation-filters="sRGB">
<feFlood flood-opacity="0" result="BackgroundImageFix"/>
<feColorMatrix in="SourceAlpha" type="matrix" values="0 0 0 0 0 0 0 0 0 0 0 0 0 0 0 0 0 0 127 0" result="hardAlpha"/>
<feOffset dy="6"/>
<feGaussianBlur stdDeviation="2"/>
<feComposite in2="hardAlpha" operator="out"/>
<feColorMatrix type="matrix" values="0 0 0 0 0 0 0 0 0 0.219485 0 0 0 0 0.2625 0 0 0 0.25 0"/>
<feBlend mode="normal" in2="BackgroundImageFix" result="effect1_dropShadow_180_1734"/>
<feBlend mode="normal" in="SourceGraphic" in2="effect1_dropShadow_180_1734" result="shape"/>
</filter>
<filter id="filter13_d_180_1734" x="56.0332" y="210.98" width="72.7998" height="47.5298" filterUnits="userSpaceOnUse" color-interpolation-filters="sRGB">
<feFlood flood-opacity="0" result="BackgroundImageFix"/>
<feColorMatrix in="SourceAlpha" type="matrix" values="0 0 0 0 0 0 0 0 0 0 0 0 0 0 0 0 0 0 127 0" result="hardAlpha"/>
<feOffset dy="6"/>
<feGaussianBlur stdDeviation="2"/>
<feComposite in2="hardAlpha" operator="out"/>
<feColorMatrix type="matrix" values="0 0 0 0 0 0 0 0 0 0.219485 0 0 0 0 0.2625 0 0 0 0.25 0"/>
<feBlend mode="normal" in2="BackgroundImageFix" result="effect1_dropShadow_180_1734"/>
<feBlend mode="normal" in="SourceGraphic" in2="effect1_dropShadow_180_1734" result="shape"/>
</filter>
<filter id="filter14_d_180_1734" x="50.5898" y="183.91" width="83.6475" height="65.5908" filterUnits="userSpaceOnUse" color-interpolation-filters="sRGB">
<feFlood flood-opacity="0" result="BackgroundImageFix"/>
<feColorMatrix in="SourceAlpha" type="matrix" values="0 0 0 0 0 0 0 0 0 0 0 0 0 0 0 0 0 0 127 0" result="hardAlpha"/>
<feOffset/>
<feGaussianBlur stdDeviation="10"/>
<feComposite in2="hardAlpha" operator="out"/>
<feColorMatrix type="matrix" values="0 0 0 0 0.254167 0 0 0 0 0.68675 0 0 0 0 1 0 0 0 1 0"/>
<feBlend mode="normal" in2="BackgroundImageFix" result="effect1_dropShadow_180_1734"/>
<feBlend mode="normal" in="SourceGraphic" in2="effect1_dropShadow_180_1734" result="shape"/>
</filter>
<filter id="filter15_d_180_1734" x="6.0332" y="284.98" width="72.7998" height="47.5298" filterUnits="userSpaceOnUse" color-interpolation-filters="sRGB">
<feFlood flood-opacity="0" result="BackgroundImageFix"/>
<feColorMatrix in="SourceAlpha" type="matrix" values="0 0 0 0 0 0 0 0 0 0 0 0 0 0 0 0 0 0 127 0" result="hardAlpha"/>
<feOffset dy="6"/>
<feGaussianBlur stdDeviation="2"/>
<feComposite in2="hardAlpha" operator="out"/>
<feColorMatrix type="matrix" values="0 0 0 0 0 0 0 0 0 0.219485 0 0 0 0 0.2625 0 0 0 0.25 0"/>
<feBlend mode="normal" in2="BackgroundImageFix" result="effect1_dropShadow_180_1734"/>
<feBlend mode="normal" in="SourceGraphic" in2="effect1_dropShadow_180_1734" result="shape"/>
</filter>
<filter id="filter16_d_180_1734" x="0.588867" y="257.91" width="83.6475" height="65.5908" filterUnits="userSpaceOnUse" color-interpolation-filters="sRGB">
<feFlood flood-opacity="0" result="BackgroundImageFix"/>
<feColorMatrix in="SourceAlpha" type="matrix" values="0 0 0 0 0 0 0 0 0 0 0 0 0 0 0 0 0 0 127 0" result="hardAlpha"/>
<feOffset/>
<feGaussianBlur stdDeviation="10"/>
<feComposite in2="hardAlpha" operator="out"/>
<feColorMatrix type="matrix" values="0 0 0 0 0.254167 0 0 0 0 0.68675 0 0 0 0 1 0 0 0 1 0"/>
<feBlend mode="normal" in2="BackgroundImageFix" result="effect1_dropShadow_180_1734"/>
<feBlend mode="normal" in="SourceGraphic" in2="effect1_dropShadow_180_1734" result="shape"/>
</filter>
<filter id="filter17_d_180_1734" x="22" y="62.7048" width="228.5" height="298.295" filterUnits="userSpaceOnUse" color-interpolation-filters="sRGB">
<feFlood flood-opacity="0" result="BackgroundImageFix"/>
<feColorMatrix in="SourceAlpha" type="matrix" values="0 0 0 0 0 0 0 0 0 0 0 0 0 0 0 0 0 0 127 0" result="hardAlpha"/>
<feOffset/>
<feGaussianBlur stdDeviation="5"/>
<feComposite in2="hardAlpha" operator="out"/>
<feColorMatrix type="matrix" values="0 0 0 0 0.752941 0 0 0 0 0.74902 0 0 0 0 0.964706 0 0 0 0.25 0"/>
<feBlend mode="normal" in2="BackgroundImageFix" result="effect1_dropShadow_180_1734"/>
<feBlend mode="normal" in="SourceGraphic" in2="effect1_dropShadow_180_1734" result="shape"/>
</filter>
<linearGradient id="paint0_linear_180_1734" x1="157.112" y1="219.74" x2="202.812" y2="219.74" gradientUnits="userSpaceOnUse">
<stop stop-color="#C5C4F7"/>
<stop offset="1" stop-color="#7C83E5"/>
</linearGradient>
<radialGradient id="paint1_radial_180_1734" cx="0" cy="0" r="1" gradientUnits="userSpaceOnUse" gradientTransform="translate(149.012 185.47) scale(102.06 102.06)">
<stop stop-color="#01C8EF"/>
<stop offset="0.14" stop-color="#03BAE4"/>
<stop offset="0.4" stop-color="#0895C8"/>
<stop offset="0.76" stop-color="#115A9A"/>
<stop offset="1" stop-color="#172F78"/>
</radialGradient>
<radialGradient id="paint2_radial_180_1734" cx="0" cy="0" r="1" gradientUnits="userSpaceOnUse" gradientTransform="translate(158.022 191.62) scale(70.17 70.17)">
<stop stop-color="#E9E9FD"/>
<stop offset="1" stop-color="#C0BFF6"/>
</radialGradient>
<linearGradient id="paint3_linear_180_1734" x1="157.112" y1="196.74" x2="202.812" y2="196.74" gradientUnits="userSpaceOnUse">
<stop stop-color="#C5C4F7"/>
<stop offset="1" stop-color="#7C83E5"/>
</linearGradient>
<radialGradient id="paint4_radial_180_1734" cx="0" cy="0" r="1" gradientUnits="userSpaceOnUse" gradientTransform="translate(149.012 162.47) scale(102.06 102.06)">
<stop stop-color="#01C8EF"/>
<stop offset="0.14" stop-color="#03BAE4"/>
<stop offset="0.4" stop-color="#0895C8"/>
<stop offset="0.76" stop-color="#115A9A"/>
<stop offset="1" stop-color="#172F78"/>
</radialGradient>
<radialGradient id="paint5_radial_180_1734" cx="0" cy="0" r="1" gradientUnits="userSpaceOnUse" gradientTransform="translate(158.022 168.62) scale(70.17 70.17)">
<stop stop-color="#E9E9FD"/>
<stop offset="1" stop-color="#C0BFF6"/>
</radialGradient>
<linearGradient id="paint6_linear_180_1734" x1="157.112" y1="173.74" x2="202.812" y2="173.74" gradientUnits="userSpaceOnUse">
<stop stop-color="#C5C4F7"/>
<stop offset="1" stop-color="#7C83E5"/>
</linearGradient>
<radialGradient id="paint7_radial_180_1734" cx="0" cy="0" r="1" gradientUnits="userSpaceOnUse" gradientTransform="translate(149.012 139.47) scale(102.06 102.06)">
<stop stop-color="#01C8EF"/>
<stop offset="0.14" stop-color="#03BAE4"/>
<stop offset="0.4" stop-color="#0895C8"/>
<stop offset="0.76" stop-color="#115A9A"/>
<stop offset="1" stop-color="#172F78"/>
</radialGradient>
<radialGradient id="paint8_radial_180_1734" cx="0" cy="0" r="1" gradientUnits="userSpaceOnUse" gradientTransform="translate(158.022 145.62) scale(70.17 70.17)">
<stop stop-color="#E9E9FD"/>
<stop offset="1" stop-color="#C0BFF6"/>
</radialGradient>
<linearGradient id="paint9_linear_180_1734" x1="157.112" y1="150.74" x2="202.812" y2="150.74" gradientUnits="userSpaceOnUse">
<stop stop-color="#C5C4F7"/>
<stop offset="1" stop-color="#7C83E5"/>
</linearGradient>
<radialGradient id="paint10_radial_180_1734" cx="0" cy="0" r="1" gradientUnits="userSpaceOnUse" gradientTransform="translate(149.012 116.47) scale(102.06 102.06)">
<stop stop-color="#01C8EF"/>
<stop offset="0.14" stop-color="#03BAE4"/>
<stop offset="0.4" stop-color="#0895C8"/>
<stop offset="0.76" stop-color="#115A9A"/>
<stop offset="1" stop-color="#172F78"/>
</radialGradient>
<radialGradient id="paint11_radial_180_1734" cx="0" cy="0" r="1" gradientUnits="userSpaceOnUse" gradientTransform="translate(158.022 122.62) scale(70.17 70.17)">
<stop stop-color="#E9E9FD"/>
<stop offset="1" stop-color="#C0BFF6"/>
</radialGradient>
<linearGradient id="paint12_linear_180_1734" x1="157.112" y1="127.74" x2="202.812" y2="127.74" gradientUnits="userSpaceOnUse">
<stop stop-color="#C5C4F7"/>
<stop offset="1" stop-color="#7C83E5"/>
</linearGradient>
<radialGradient id="paint13_radial_180_1734" cx="0" cy="0" r="1" gradientUnits="userSpaceOnUse" gradientTransform="translate(149.012 93.47) scale(102.06 102.06)">
<stop stop-color="#01C8EF"/>
<stop offset="0.14" stop-color="#03BAE4"/>
<stop offset="0.4" stop-color="#0895C8"/>
<stop offset="0.76" stop-color="#115A9A"/>
<stop offset="1" stop-color="#172F78"/>
</radialGradient>
<radialGradient id="paint14_radial_180_1734" cx="0" cy="0" r="1" gradientUnits="userSpaceOnUse" gradientTransform="translate(158.022 99.62) scale(70.17 70.17)">
<stop stop-color="#E9E9FD"/>
<stop offset="1" stop-color="#C0BFF6"/>
</radialGradient>
<linearGradient id="paint15_linear_180_1734" x1="157.112" y1="104.74" x2="202.812" y2="104.74" gradientUnits="userSpaceOnUse">
<stop stop-color="#C5C4F7"/>
<stop offset="1" stop-color="#7C83E5"/>
</linearGradient>
<radialGradient id="paint16_radial_180_1734" cx="0" cy="0" r="1" gradientUnits="userSpaceOnUse" gradientTransform="translate(149.012 70.47) scale(102.06 102.06)">
<stop stop-color="#01C8EF"/>
<stop offset="0.14" stop-color="#03BAE4"/>
<stop offset="0.4" stop-color="#0895C8"/>
<stop offset="0.76" stop-color="#115A9A"/>
<stop offset="1" stop-color="#172F78"/>
</radialGradient>
<radialGradient id="paint17_radial_180_1734" cx="0" cy="0" r="1" gradientUnits="userSpaceOnUse" gradientTransform="translate(158.022 76.62) scale(70.17 70.17)">
<stop stop-color="#E9E9FD"/>
<stop offset="1" stop-color="#C0BFF6"/>
</radialGradient>
<linearGradient id="paint18_linear_180_1734" x1="157.112" y1="81.7399" x2="202.812" y2="81.7399" gradientUnits="userSpaceOnUse">
<stop stop-color="#C5C4F7"/>
<stop offset="1" stop-color="#7C83E5"/>
</linearGradient>
<radialGradient id="paint19_radial_180_1734" cx="0" cy="0" r="1" gradientUnits="userSpaceOnUse" gradientTransform="translate(149.012 47.47) scale(102.06 102.06)">
<stop stop-color="#01C8EF"/>
<stop offset="0.14" stop-color="#03BAE4"/>
<stop offset="0.4" stop-color="#0895C8"/>
<stop offset="0.76" stop-color="#115A9A"/>
<stop offset="1" stop-color="#172F78"/>
</radialGradient>
<radialGradient id="paint20_radial_180_1734" cx="0" cy="0" r="1" gradientUnits="userSpaceOnUse" gradientTransform="translate(158.022 53.62) scale(70.17 70.17)">
<stop stop-color="#0F054C"/>
<stop offset="1" stop-color="#1F0E31"/>
</radialGradient>
<linearGradient id="paint21_linear_180_1734" x1="192.661" y1="239.502" x2="192.661" y2="26" gradientUnits="userSpaceOnUse">
<stop stop-color="#41AFFF"/>
<stop offset="1" stop-color="#41AFFF" stop-opacity="0"/>
</linearGradient>
<linearGradient id="paint22_linear_180_1734" x1="107.112" y1="247.74" x2="152.812" y2="247.74" gradientUnits="userSpaceOnUse">
<stop stop-color="#C5C4F7"/>
<stop offset="1" stop-color="#7C83E5"/>
</linearGradient>
<radialGradient id="paint23_radial_180_1734" cx="0" cy="0" r="1" gradientUnits="userSpaceOnUse" gradientTransform="translate(99.0123 213.47) scale(102.06 102.06)">
<stop stop-color="#01C8EF"/>
<stop offset="0.14" stop-color="#03BAE4"/>
<stop offset="0.4" stop-color="#0895C8"/>
<stop offset="0.76" stop-color="#115A9A"/>
<stop offset="1" stop-color="#172F78"/>
</radialGradient>
<radialGradient id="paint24_radial_180_1734" cx="0" cy="0" r="1" gradientUnits="userSpaceOnUse" gradientTransform="translate(108.022 219.62) scale(70.17 70.17)">
<stop stop-color="#E9E9FD"/>
<stop offset="1" stop-color="#C0BFF6"/>
</radialGradient>
<linearGradient id="paint25_linear_180_1734" x1="107.112" y1="224.74" x2="152.812" y2="224.74" gradientUnits="userSpaceOnUse">
<stop stop-color="#C5C4F7"/>
<stop offset="1" stop-color="#7C83E5"/>
</linearGradient>
<radialGradient id="paint26_radial_180_1734" cx="0" cy="0" r="1" gradientUnits="userSpaceOnUse" gradientTransform="translate(99.0123 190.47) scale(102.06 102.06)">
<stop stop-color="#01C8EF"/>
<stop offset="0.14" stop-color="#03BAE4"/>
<stop offset="0.4" stop-color="#0895C8"/>
<stop offset="0.76" stop-color="#115A9A"/>
<stop offset="1" stop-color="#172F78"/>
</radialGradient>
<radialGradient id="paint27_radial_180_1734" cx="0" cy="0" r="1" gradientUnits="userSpaceOnUse" gradientTransform="translate(108.022 196.62) scale(70.17 70.17)">
<stop stop-color="#E9E9FD"/>
<stop offset="1" stop-color="#C0BFF6"/>
</radialGradient>
<linearGradient id="paint28_linear_180_1734" x1="107.112" y1="201.74" x2="152.812" y2="201.74" gradientUnits="userSpaceOnUse">
<stop stop-color="#C5C4F7"/>
<stop offset="1" stop-color="#7C83E5"/>
</linearGradient>
<radialGradient id="paint29_radial_180_1734" cx="0" cy="0" r="1" gradientUnits="userSpaceOnUse" gradientTransform="translate(99.0123 167.47) scale(102.06 102.06)">
<stop stop-color="#01C8EF"/>
<stop offset="0.14" stop-color="#03BAE4"/>
<stop offset="0.4" stop-color="#0895C8"/>
<stop offset="0.76" stop-color="#115A9A"/>
<stop offset="1" stop-color="#172F78"/>
</radialGradient>
<radialGradient id="paint30_radial_180_1734" cx="0" cy="0" r="1" gradientUnits="userSpaceOnUse" gradientTransform="translate(108.022 173.62) scale(70.17 70.17)">
<stop stop-color="#E9E9FD"/>
<stop offset="1" stop-color="#C0BFF6"/>
</radialGradient>
<linearGradient id="paint31_linear_180_1734" x1="107.112" y1="178.74" x2="152.812" y2="178.74" gradientUnits="userSpaceOnUse">
<stop stop-color="#C5C4F7"/>
<stop offset="1" stop-color="#7C83E5"/>
</linearGradient>
<radialGradient id="paint32_radial_180_1734" cx="0" cy="0" r="1" gradientUnits="userSpaceOnUse" gradientTransform="translate(99.0123 144.47) scale(102.06 102.06)">
<stop stop-color="#01C8EF"/>
<stop offset="0.14" stop-color="#03BAE4"/>
<stop offset="0.4" stop-color="#0895C8"/>
<stop offset="0.76" stop-color="#115A9A"/>
<stop offset="1" stop-color="#172F78"/>
</radialGradient>
<radialGradient id="paint33_radial_180_1734" cx="0" cy="0" r="1" gradientUnits="userSpaceOnUse" gradientTransform="translate(108.022 150.62) scale(70.17 70.17)">
<stop stop-color="#E9E9FD"/>
<stop offset="1" stop-color="#C0BFF6"/>
</radialGradient>
<linearGradient id="paint34_linear_180_1734" x1="107.112" y1="155.74" x2="152.812" y2="155.74" gradientUnits="userSpaceOnUse">
<stop stop-color="#C5C4F7"/>
<stop offset="1" stop-color="#7C83E5"/>
</linearGradient>
<radialGradient id="paint35_radial_180_1734" cx="0" cy="0" r="1" gradientUnits="userSpaceOnUse" gradientTransform="translate(99.0123 121.47) scale(102.06 102.06)">
<stop stop-color="#01C8EF"/>
<stop offset="0.14" stop-color="#03BAE4"/>
<stop offset="0.4" stop-color="#0895C8"/>
<stop offset="0.76" stop-color="#115A9A"/>
<stop offset="1" stop-color="#172F78"/>
</radialGradient>
<radialGradient id="paint36_radial_180_1734" cx="0" cy="0" r="1" gradientUnits="userSpaceOnUse" gradientTransform="translate(108.022 127.62) scale(70.17 70.17)">
<stop stop-color="#0F054C"/>
<stop offset="1" stop-color="#1F0E31"/>
</radialGradient>
<linearGradient id="paint37_linear_180_1734" x1="142.661" y1="267.502" x2="142.661" y2="98.5" gradientUnits="userSpaceOnUse">
<stop stop-color="#41AFFF"/>
<stop offset="1" stop-color="#41AFFF" stop-opacity="0"/>
</linearGradient>
<linearGradient id="paint38_linear_180_1734" x1="56.1132" y1="275.74" x2="101.813" y2="275.74" gradientUnits="userSpaceOnUse">
<stop stop-color="#C5C4F7"/>
<stop offset="1" stop-color="#7C83E5"/>
</linearGradient>
<radialGradient id="paint39_radial_180_1734" cx="0" cy="0" r="1" gradientUnits="userSpaceOnUse" gradientTransform="translate(48.0132 241.47) scale(102.06 102.06)">
<stop stop-color="#01C8EF"/>
<stop offset="0.14" stop-color="#03BAE4"/>
<stop offset="0.4" stop-color="#0895C8"/>
<stop offset="0.76" stop-color="#115A9A"/>
<stop offset="1" stop-color="#172F78"/>
</radialGradient>
<radialGradient id="paint40_radial_180_1734" cx="0" cy="0" r="1" gradientUnits="userSpaceOnUse" gradientTransform="translate(57.0232 247.62) scale(70.17 70.17)">
<stop stop-color="#E9E9FD"/>
<stop offset="1" stop-color="#C0BFF6"/>
</radialGradient>
<linearGradient id="paint41_linear_180_1734" x1="56.1132" y1="252.74" x2="101.813" y2="252.74" gradientUnits="userSpaceOnUse">
<stop stop-color="#C5C4F7"/>
<stop offset="1" stop-color="#7C83E5"/>
</linearGradient>
<radialGradient id="paint42_radial_180_1734" cx="0" cy="0" r="1" gradientUnits="userSpaceOnUse" gradientTransform="translate(48.0132 218.47) scale(102.06 102.06)">
<stop stop-color="#01C8EF"/>
<stop offset="0.14" stop-color="#03BAE4"/>
<stop offset="0.4" stop-color="#0895C8"/>
<stop offset="0.76" stop-color="#115A9A"/>
<stop offset="1" stop-color="#172F78"/>
</radialGradient>
<radialGradient id="paint43_radial_180_1734" cx="0" cy="0" r="1" gradientUnits="userSpaceOnUse" gradientTransform="translate(57.0232 224.62) scale(70.17 70.17)">
<stop stop-color="#E9E9FD"/>
<stop offset="1" stop-color="#C0BFF6"/>
</radialGradient>
<linearGradient id="paint44_linear_180_1734" x1="56.1132" y1="229.74" x2="101.813" y2="229.74" gradientUnits="userSpaceOnUse">
<stop stop-color="#C5C4F7"/>
<stop offset="1" stop-color="#7C83E5"/>
</linearGradient>
<radialGradient id="paint45_radial_180_1734" cx="0" cy="0" r="1" gradientUnits="userSpaceOnUse" gradientTransform="translate(48.0132 195.47) scale(102.06 102.06)">
<stop stop-color="#01C8EF"/>
<stop offset="0.14" stop-color="#03BAE4"/>
<stop offset="0.4" stop-color="#0895C8"/>
<stop offset="0.76" stop-color="#115A9A"/>
<stop offset="1" stop-color="#172F78"/>
</radialGradient>
<radialGradient id="paint46_radial_180_1734" cx="0" cy="0" r="1" gradientUnits="userSpaceOnUse" gradientTransform="translate(57.0232 201.62) scale(70.17 70.17)">
<stop stop-color="#0F054C"/>
<stop offset="1" stop-color="#1F0E31"/>
</radialGradient>
<linearGradient id="paint47_linear_180_1734" x1="91.6609" y1="295.502" x2="91.6609" y2="169.5" gradientUnits="userSpaceOnUse">
<stop stop-color="#41AFFF"/>
<stop offset="1" stop-color="#41AFFF" stop-opacity="0"/>
</linearGradient>
<linearGradient id="paint48_linear_180_1734" x1="6.1132" y1="303.74" x2="51.8132" y2="303.74" gradientUnits="userSpaceOnUse">
<stop stop-color="#C5C4F7"/>
<stop offset="1" stop-color="#7C83E5"/>
</linearGradient>
<radialGradient id="paint49_radial_180_1734" cx="0" cy="0" r="1" gradientUnits="userSpaceOnUse" gradientTransform="translate(-1.98773 269.47) scale(102.06 102.06)">
<stop stop-color="#01C8EF"/>
<stop offset="0.14" stop-color="#03BAE4"/>
<stop offset="0.4" stop-color="#0895C8"/>
<stop offset="0.76" stop-color="#115A9A"/>
<stop offset="1" stop-color="#172F78"/>
</radialGradient>
<radialGradient id="paint50_radial_180_1734" cx="0" cy="0" r="1" gradientUnits="userSpaceOnUse" gradientTransform="translate(7.02227 275.62) scale(70.17 70.17)">
<stop stop-color="#0F054C"/>
<stop offset="1" stop-color="#1F0E31"/>
</radialGradient>
<linearGradient id="paint51_linear_180_1734" x1="41.6609" y1="323.502" x2="41.6609" y2="256" gradientUnits="userSpaceOnUse">
<stop stop-color="#41AFFF"/>
<stop offset="1" stop-color="#41AFFF" stop-opacity="0"/>
</linearGradient>
<linearGradient id="paint52_linear_180_1734" x1="135.75" y1="130.477" x2="209.795" y2="258.727" gradientUnits="userSpaceOnUse">
<stop stop-color="#9283F0"/>
<stop offset="1" stop-color="#BE81FF"/>
</linearGradient>
<linearGradient id="paint53_linear_180_1734" x1="147.5" y1="227" x2="136" y2="216" gradientUnits="userSpaceOnUse">
<stop stop-color="#BCBEFF"/>
<stop offset="1" stop-color="#C0BFF6" stop-opacity="0"/>
</linearGradient>
<linearGradient id="paint54_linear_180_1734" x1="138.408" y1="134.648" x2="212.531" y2="263.034" gradientUnits="userSpaceOnUse">
<stop stop-color="#453898"/>
<stop offset="1" stop-color="#5E328C"/>
</linearGradient>
</defs>
</svg>
