<svg width="400" height="249" viewBox="0 0 400 249" fill="none" xmlns="http://www.w3.org/2000/svg">
<rect x="-1.49012e-08" y="0.25" width="211.978" height="211.978" rx="9.75" transform="matrix(0.866025 0.5 -0.866025 0.5 215.809 36.1945)" stroke="#41AFFF" stroke-width="0.5"/>
<path d="M392.413 112.958L373.39 116.224L255.968 48.4427C250.068 45.0472 239.779 45.4644 232.944 49.3923L72.5933 106.051L38.9639 111.806L38.9639 123.734C38.9639 125.906 40.2302 128.05 42.9211 129.489L202.738 224.881C208.623 228.291 218.912 227.859 225.762 223.931L386.787 132.266C390.456 130.151 392.341 127.446 392.399 124.885L392.413 112.958Z" fill="url(#paint0_linear_180_1641)"/>
<rect width="212.478" height="212.478" rx="10" transform="matrix(0.866025 0.5 -0.866025 0.5 215.792 7.35425)" fill="#FEFFFF"/>
<rect width="212.478" height="212.478" rx="10" transform="matrix(0.866025 0.5 -0.866025 0.5 215.593 6)" fill="#C7C6F8"/>
<rect width="204.384" height="204.384" rx="10" transform="matrix(0.866025 0.5 -0.866025 0.5 215.593 10.0473)" fill="url(#paint1_linear_180_1641)"/>
<g style="mix-blend-mode:lighten" opacity="0.2">
<rect width="204.384" height="204.384" rx="10" transform="matrix(0.866025 0.5 -0.866025 0.5 215.593 10.0473)" fill="url(#paint2_radial_180_1641)"/>
</g>
<g filter="url(#filter0_d_180_1641)">
<path d="M181.482 113.282L181.915 113.532L182.348 113.282L222.655 90.0107L223.088 89.7607L222.655 89.5107L211.46 83.0469L211.027 82.7969L210.594 83.0469L189.236 95.378L196.718 74.7621L196.786 74.5749L196.551 74.4396L185.356 67.9759L184.923 67.7259L184.49 67.9759L144.183 91.2473L143.75 91.4973L144.183 91.7473L155.378 98.2111L155.811 98.4611L156.244 98.2111L177.332 86.0362L170.119 106.498L170.054 106.684L170.286 106.818L181.482 113.282ZM256.336 109.456L256.769 109.206L256.336 108.956L229.033 93.1926L228.6 92.9426L228.167 93.1926L187.859 116.464L187.426 116.714L187.859 116.964L199.055 123.428L199.488 123.678L199.921 123.428L215.268 114.567L226.716 121.177L227.149 121.427L227.582 121.177L236.1 116.258L236.533 116.008L236.1 115.758L224.652 109.149L230.876 105.556L246.551 114.606L246.984 114.856L247.417 114.606L256.336 109.456ZM291.382 129.69L291.815 129.44L291.382 129.19L258.823 110.392L258.39 110.142L257.957 110.392L249.038 115.542L248.605 115.792L249.038 116.042L259.229 121.926L228.274 139.798L227.841 140.048L228.274 140.298L239.47 146.761L239.903 147.011L240.336 146.761L271.291 128.889L281.597 134.839L282.03 135.089L282.463 134.839L291.382 129.69Z" stroke="url(#paint3_linear_180_1641)" shape-rendering="crispEdges"/>
</g>
<g opacity="0.5" filter="url(#filter1_d_180_1641)">
<path d="M181.482 106.723L181.915 106.973L182.348 106.723L222.655 83.4515L223.088 83.2015L222.655 82.9515L211.46 76.4877L211.027 76.2377L210.594 76.4877L189.236 88.8188L196.718 68.2029L196.786 68.0157L196.551 67.8804L185.356 61.4167L184.923 61.1667L184.49 61.4167L144.183 84.6881L143.75 84.9381L144.183 85.1881L155.378 91.6519L155.811 91.9019L156.244 91.6519L177.332 79.477L170.119 99.9387L170.054 100.125L170.286 100.259L181.482 106.723ZM256.336 102.897L256.769 102.647L256.336 102.397L229.033 86.6334L228.6 86.3834L228.167 86.6334L187.859 109.905L187.426 110.155L187.859 110.405L199.055 116.869L199.488 117.119L199.921 116.869L215.268 108.008L226.716 114.618L227.149 114.868L227.582 114.618L236.1 109.699L236.533 109.449L236.1 109.199L224.652 102.59L230.876 98.9966L246.551 108.046L246.984 108.296L247.417 108.046L256.336 102.897ZM291.382 123.131L291.815 122.881L291.382 122.631L258.823 103.833L258.39 103.583L257.957 103.833L249.038 108.983L248.605 109.233L249.038 109.483L259.229 115.366L228.274 133.238L227.841 133.488L228.274 133.738L239.47 140.202L239.903 140.452L240.336 140.202L271.291 122.33L281.597 128.28L282.03 128.53L282.463 128.28L291.382 123.131Z" stroke="url(#paint4_linear_180_1641)" shape-rendering="crispEdges"/>
</g>
<g opacity="0.3" filter="url(#filter2_d_180_1641)">
<path d="M181.482 100.164L181.915 100.414L182.348 100.164L222.655 76.8923L223.088 76.6423L222.655 76.3923L211.46 69.9285L211.027 69.6785L210.594 69.9285L189.236 82.2596L196.718 61.6437L196.786 61.4565L196.551 61.3212L185.356 54.8575L184.923 54.6075L184.49 54.8575L144.183 78.1289L143.75 78.3789L144.183 78.6289L155.378 85.0927L155.811 85.3427L156.244 85.0927L177.332 72.9178L170.119 93.3795L170.054 93.5656L170.286 93.7L181.482 100.164ZM256.336 96.3378L256.769 96.0878L256.336 95.8378L229.033 80.0742L228.6 79.8242L228.167 80.0742L187.859 103.346L187.426 103.596L187.859 103.846L199.055 110.309L199.488 110.559L199.921 110.309L215.268 101.449L226.716 108.058L227.149 108.308L227.582 108.058L236.1 103.14L236.533 102.89L236.1 102.64L224.652 96.0305L230.876 92.4374L246.551 101.487L246.984 101.737L247.417 101.487L256.336 96.3378ZM291.382 116.571L291.815 116.321L291.382 116.071L258.823 97.2739L258.39 97.0239L257.957 97.2739L249.038 102.423L248.605 102.673L249.038 102.923L259.229 108.807L228.274 126.679L227.841 126.929L228.274 127.179L239.47 133.643L239.903 133.893L240.336 133.643L271.291 115.771L281.597 121.721L282.03 121.971L282.463 121.721L291.382 116.571Z" stroke="url(#paint5_linear_180_1641)" shape-rendering="crispEdges"/>
</g>
<g opacity="0.25" filter="url(#filter3_d_180_1641)">
<path d="M181.482 93.6044L181.915 93.8544L182.348 93.6044L222.655 70.3329L223.088 70.0829L222.655 69.8329L211.46 63.3692L211.027 63.1192L210.594 63.3692L189.236 75.7003L196.718 55.0844L196.786 54.8972L196.551 54.7619L185.356 48.2982L184.923 48.0482L184.49 48.2982L144.183 71.5696L143.75 71.8196L144.183 72.0696L155.378 78.5333L155.811 78.7833L156.244 78.5333L177.332 66.3585L170.119 86.8201L170.054 87.0063L170.286 87.1406L181.482 93.6044ZM256.336 89.7785L256.769 89.5285L256.336 89.2785L229.033 73.5149L228.6 73.2649L228.167 73.5149L187.859 96.7863L187.426 97.0363L187.859 97.2863L199.055 103.75L199.488 104L199.921 103.75L215.268 94.8895L226.716 101.499L227.149 101.749L227.582 101.499L236.1 96.5806L236.533 96.3306L236.1 96.0806L224.652 89.4712L230.876 85.878L246.551 94.9279L246.984 95.1779L247.417 94.9279L256.336 89.7785ZM291.382 110.012L291.815 109.762L291.382 109.512L258.823 90.7146L258.39 90.4646L257.957 90.7146L249.038 95.864L248.605 96.114L249.038 96.364L259.229 102.248L228.274 120.12L227.841 120.37L228.274 120.62L239.47 127.084L239.903 127.334L240.336 127.084L271.291 109.212L281.597 115.162L282.03 115.412L282.463 115.162L291.382 110.012Z" stroke="url(#paint6_linear_180_1641)" shape-rendering="crispEdges"/>
</g>
<g opacity="0.2" filter="url(#filter4_d_180_1641)">
<path d="M181.482 87.0452L181.915 87.2952L182.348 87.0452L222.655 63.7737L223.088 63.5237L222.655 63.2737L211.46 56.81L211.027 56.56L210.594 56.81L189.236 69.1411L196.718 48.5252L196.786 48.338L196.551 48.2027L185.356 41.739L184.923 41.489L184.49 41.739L144.183 65.0104L143.75 65.2604L144.183 65.5104L155.378 71.9741L155.811 72.2241L156.244 71.9741L177.332 59.7993L170.119 80.2609L170.054 80.4471L170.286 80.5814L181.482 87.0452ZM256.336 83.2193L256.769 82.9693L256.336 82.7193L229.033 66.9557L228.6 66.7057L228.167 66.9557L187.859 90.2271L187.426 90.4771L187.859 90.7271L199.055 97.1909L199.488 97.4409L199.921 97.1909L215.268 88.3303L226.716 94.9398L227.149 95.1898L227.582 94.9398L236.1 90.0214L236.533 89.7714L236.1 89.5214L224.652 82.912L230.876 79.3188L246.551 88.3687L246.984 88.6187L247.417 88.3687L256.336 83.2193ZM291.382 103.453L291.815 103.203L291.382 102.953L258.823 84.1554L258.39 83.9054L257.957 84.1554L249.038 89.3048L248.605 89.5548L249.038 89.8048L259.229 95.6887L228.274 113.561L227.841 113.811L228.274 114.061L239.47 120.524L239.903 120.774L240.336 120.524L271.291 102.652L281.597 108.602L282.03 108.852L282.463 108.602L291.382 103.453Z" stroke="url(#paint7_linear_180_1641)" shape-rendering="crispEdges"/>
</g>
<g opacity="0.15" filter="url(#filter5_d_180_1641)">
<path d="M181.482 80.486L181.915 80.736L182.348 80.486L222.655 57.2145L223.088 56.9645L222.655 56.7145L211.46 50.2508L211.027 50.0008L210.594 50.2508L189.236 62.5819L196.718 41.966L196.786 41.7787L196.551 41.6435L185.356 35.1797L184.923 34.9297L184.49 35.1797L144.183 58.4512L143.75 58.7012L144.183 58.9512L155.378 65.4149L155.811 65.6649L156.244 65.4149L177.332 53.2401L170.119 73.7017L170.054 73.8879L170.286 74.0222L181.482 80.486ZM256.336 76.6601L256.769 76.4101L256.336 76.1601L229.033 60.3965L228.6 60.1465L228.167 60.3965L187.859 83.6679L187.426 83.9179L187.859 84.1679L199.055 90.6317L199.488 90.8817L199.921 90.6317L215.268 81.7711L226.716 88.3806L227.149 88.6306L227.582 88.3806L236.1 83.4622L236.533 83.2122L236.1 82.9622L224.652 76.3528L230.876 72.7596L246.551 81.8095L246.984 82.0595L247.417 81.8095L256.336 76.6601ZM291.382 96.8937L291.815 96.6437L291.382 96.3937L258.823 77.5962L258.39 77.3462L257.957 77.5962L249.038 82.7456L248.605 82.9956L249.038 83.2456L259.229 89.1295L228.274 107.002L227.841 107.252L228.274 107.502L239.47 113.965L239.903 114.215L240.336 113.965L271.291 96.0933L281.597 102.043L282.03 102.293L282.463 102.043L291.382 96.8937Z" stroke="url(#paint8_linear_180_1641)" shape-rendering="crispEdges"/>
</g>
<g opacity="0.1" filter="url(#filter6_d_180_1641)">
<path d="M181.482 73.9266L181.915 74.1766L182.348 73.9266L222.655 50.6551L223.088 50.4051L222.655 50.1551L211.46 43.6914L211.027 43.4414L210.594 43.6914L189.236 56.0225L196.718 35.4066L196.786 35.2194L196.551 35.0841L185.356 28.6204L184.923 28.3704L184.49 28.6204L144.183 51.8918L143.75 52.1418L144.183 52.3918L155.378 58.8555L155.811 59.1055L156.244 58.8555L177.332 46.6807L170.119 67.1423L170.054 67.3285L170.286 67.4628L181.482 73.9266ZM256.336 70.1007L256.769 69.8507L256.336 69.6007L229.033 53.8371L228.6 53.5871L228.167 53.8371L187.859 77.1085L187.426 77.3585L187.859 77.6085L199.055 84.0723L199.488 84.3223L199.921 84.0723L215.268 75.2117L226.716 81.8212L227.149 82.0712L227.582 81.8212L236.1 76.9029L236.533 76.6529L236.1 76.4029L224.652 69.7934L230.876 66.2003L246.551 75.2501L246.984 75.5001L247.417 75.2501L256.336 70.1007ZM291.382 90.3344L291.815 90.0844L291.382 89.8344L258.823 71.0368L258.39 70.7868L257.957 71.0368L249.038 76.1862L248.605 76.4362L249.038 76.6862L259.229 82.5701L228.274 100.442L227.841 100.692L228.274 100.942L239.47 107.406L239.903 107.656L240.336 107.406L271.291 89.5339L281.597 95.4838L282.03 95.7338L282.463 95.4838L291.382 90.3344Z" stroke="url(#paint9_linear_180_1641)" shape-rendering="crispEdges"/>
</g>
<g opacity="0.3">
<path d="M252.083 182.623V176.187L250.301 175.195C249.799 178.227 246.221 180.238 243.232 180.655L222.859 192.566L213.979 195.77L185.603 181.129L186.264 180.756C183.836 179.62 182.528 177.034 181.221 174.664L179.31 175.799L178.175 176.129V182.724C178.25 183.474 178.52 184.191 178.959 184.803C179.398 185.416 179.989 185.903 180.675 186.215L209.08 202.623C210.952 203.566 213.019 204.057 215.115 204.057C217.21 204.057 219.277 203.566 221.149 202.623L249.569 186.215C250.244 185.906 250.827 185.427 251.263 184.825C251.698 184.223 251.971 183.519 252.054 182.781C252.062 182.729 252.062 182.676 252.054 182.623H252.083Z" fill="url(#paint10_linear_180_1641)"/>
<path opacity="0.3" d="M243.232 180.655L222.859 192.566L215.129 195.353V204.06C217.23 204.103 219.307 203.609 221.163 202.623L249.583 186.215C250.258 185.906 250.842 185.427 251.277 184.825C251.713 184.223 251.985 183.519 252.069 182.781C252.076 182.729 252.076 182.676 252.069 182.623V176.187L250.431 175.281H250.258C249.727 178.27 246.192 180.238 243.232 180.655Z" fill="#0F054C"/>
<path d="M209.08 196.072L180.66 179.664C177.327 177.753 177.327 174.62 180.66 172.695L209.08 156.287C210.952 155.345 213.018 154.854 215.114 154.854C217.21 154.854 219.277 155.345 221.149 156.287L249.568 172.695C252.887 174.62 252.887 177.753 249.568 179.664L221.163 196.072C219.291 197.023 217.221 197.519 215.121 197.519C213.022 197.519 210.952 197.023 209.08 196.072Z" fill="url(#paint11_linear_180_1641)"/>
<g opacity="0.3">
<path d="M209.08 196.072L180.66 179.664C177.327 177.753 177.327 174.62 180.66 172.695L209.08 156.287C210.952 155.345 213.018 154.854 215.114 154.854C217.21 154.854 219.277 155.345 221.149 156.287L249.568 172.695C252.887 174.62 252.887 177.753 249.568 179.664L221.163 196.072C219.291 197.023 217.221 197.519 215.121 197.519C213.022 197.519 210.952 197.023 209.08 196.072Z" fill="#0F054C"/>
</g>
</g>
<rect width="41.4765" height="41.4765" rx="2" transform="matrix(0.866025 0.5 -0.866025 0.5 217.004 137.733)" fill="url(#paint12_linear_180_1641)"/>
<g filter="url(#filter7_d_180_1641)">
<path d="M199.996 157.483L225.568 153.527L218.716 168.291L199.996 157.483Z" stroke="url(#paint13_linear_180_1641)" shape-rendering="crispEdges"/>
</g>
<g opacity="0.5" filter="url(#filter8_d_180_1641)">
<path d="M199.996 153.995L225.568 150.039L218.716 164.803L199.996 153.995Z" stroke="url(#paint14_linear_180_1641)" shape-rendering="crispEdges"/>
</g>
<g opacity="0.3" filter="url(#filter9_d_180_1641)">
<path d="M199.996 150.507L225.568 146.551L218.716 161.314L199.996 150.507Z" stroke="url(#paint15_linear_180_1641)" shape-rendering="crispEdges"/>
</g>
<g opacity="0.2" filter="url(#filter10_d_180_1641)">
<path d="M199.996 147.018L225.568 143.062L218.716 157.826L199.996 147.018Z" stroke="url(#paint16_linear_180_1641)" shape-rendering="crispEdges"/>
</g>
<g opacity="0.1" filter="url(#filter11_d_180_1641)">
<path d="M199.996 143.53L225.568 139.574L218.716 154.338L199.996 143.53Z" stroke="url(#paint17_linear_180_1641)" shape-rendering="crispEdges"/>
</g>
<path d="M253.557 165.382V158.945L251.775 157.954C251.272 160.985 247.695 162.997 244.706 163.414L224.347 175.324L215.453 178.529L187.091 163.888L187.738 163.514C185.309 162.379 184.016 159.793 182.694 157.422L180.783 158.557L179.648 158.888V165.483C179.724 166.232 179.994 166.949 180.433 167.562C180.871 168.174 181.463 168.661 182.148 168.974L210.568 185.382C212.44 186.324 214.507 186.815 216.602 186.815C218.698 186.815 220.765 186.324 222.637 185.382L251.128 168.974C251.806 168.666 252.393 168.188 252.831 167.586C253.269 166.984 253.544 166.28 253.628 165.54V165.382H253.557Z" fill="url(#paint18_linear_180_1641)"/>
<path d="M210.568 178.816L182.163 162.422C178.83 160.511 178.83 157.379 182.163 155.454L210.583 139.046C212.455 138.103 214.521 137.612 216.617 137.612C218.713 137.612 220.78 138.103 222.652 139.046L251.129 155.454C254.462 157.379 254.462 160.511 251.129 162.422L222.637 178.816C220.767 179.765 218.7 180.26 216.603 180.26C214.506 180.26 212.438 179.765 210.568 178.816ZM218.542 141.459C217.943 141.159 217.281 141.002 216.61 141.002C215.939 141.002 215.277 141.159 214.678 141.459L186.258 157.868C185.18 158.485 185.18 159.491 186.258 160.095L214.678 176.517C215.277 176.818 215.939 176.974 216.61 176.974C217.281 176.974 217.943 176.818 218.542 176.517L246.962 160.138C247.192 160.054 247.391 159.902 247.531 159.701C247.672 159.501 247.747 159.262 247.747 159.017C247.747 158.772 247.672 158.533 247.531 158.333C247.391 158.132 247.192 157.98 246.962 157.896L218.542 141.459Z" fill="url(#paint19_linear_180_1641)"/>
<path d="M251.128 162.422L222.637 178.816C220.767 179.765 218.699 180.26 216.602 180.26C214.505 180.26 212.438 179.765 210.568 178.816L182.163 162.422C181.544 162.132 180.999 161.704 180.571 161.171C180.142 160.638 179.842 160.014 179.692 159.347C179.66 160.169 179.879 160.98 180.321 161.673C180.762 162.367 181.405 162.909 182.163 163.227L210.582 179.635C212.452 180.584 214.52 181.079 216.617 181.079C218.714 181.079 220.781 180.584 222.651 179.635L251.128 163.227C251.886 162.909 252.529 162.367 252.971 161.673C253.412 160.98 253.632 160.169 253.6 159.347C253.451 160.015 253.152 160.64 252.723 161.173C252.294 161.706 251.749 162.134 251.128 162.422Z" fill="white"/>
<path d="M211.373 178.37L182.953 161.962C180.079 160.296 180.079 157.652 182.953 155.928L211.373 139.52C212.992 138.692 214.784 138.261 216.602 138.261C218.421 138.261 220.213 138.692 221.832 139.52L250.252 155.928C253.126 157.594 253.126 160.238 250.252 161.962L221.832 178.37C220.213 179.198 218.421 179.629 216.602 179.629C214.784 179.629 212.992 179.198 211.373 178.37ZM219.332 141.014C218.487 140.581 217.552 140.356 216.602 140.356C215.653 140.356 214.718 140.581 213.873 141.014L185.453 157.422C185.122 157.533 184.834 157.745 184.629 158.029C184.425 158.312 184.315 158.653 184.315 159.003C184.315 159.352 184.425 159.693 184.629 159.976C184.834 160.26 185.122 160.472 185.453 160.583L213.873 176.991C214.722 177.416 215.66 177.637 216.61 177.637C217.56 177.637 218.497 177.416 219.347 176.991L247.766 160.583C248.098 160.472 248.386 160.26 248.59 159.976C248.794 159.693 248.904 159.352 248.904 159.003C248.904 158.653 248.794 158.312 248.59 158.029C248.386 157.745 248.098 157.533 247.766 157.422L219.332 141.014Z" fill="url(#paint20_linear_180_1641)"/>
<g opacity="0.3">
<path d="M75.0908 194.587V188.15L73.3092 187.159C72.8063 190.19 69.2288 192.202 66.2402 192.618L45.8667 204.529L36.9873 207.733L8.61077 193.092L9.27172 192.719C6.84355 191.584 5.53607 188.998 4.22859 186.627L2.31773 187.762L1.18262 188.092V194.687C1.25783 195.437 1.52821 196.154 1.96687 196.766C2.40552 197.379 2.9971 197.866 3.68261 198.179L32.0879 214.587C33.9598 215.529 36.0265 216.02 38.1224 216.02C40.2182 216.02 42.2849 215.529 44.1569 214.587L72.5764 198.179C73.2515 197.869 73.8351 197.39 74.2706 196.788C74.7061 196.187 74.9787 195.483 75.062 194.745C75.0693 194.692 75.0693 194.639 75.062 194.587H75.0908Z" fill="url(#paint21_linear_180_1641)"/>
<path opacity="0.3" d="M66.2402 192.618L45.8666 204.529L38.1367 207.317V216.024C40.2378 216.067 42.315 215.572 44.1711 214.587L72.5908 198.179C73.2658 197.869 73.8494 197.39 74.2849 196.788C74.7204 196.187 74.993 195.483 75.0764 194.745C75.0837 194.692 75.0837 194.639 75.0764 194.587V188.15L73.4385 187.245H73.266C72.7344 190.233 69.2 192.202 66.2402 192.618Z" fill="#0F054C"/>
<path d="M32.0876 208.035L3.66797 191.627C0.334634 189.716 0.334634 186.584 3.66797 184.659L32.0876 168.25C33.9596 167.308 36.0263 166.817 38.1221 166.817C40.2179 166.817 42.2847 167.308 44.1566 168.25L72.5762 184.659C75.8951 186.584 75.8951 189.716 72.5762 191.627L44.1709 208.035C42.2991 208.986 40.2291 209.482 38.1293 209.482C36.0295 209.482 33.9594 208.986 32.0876 208.035Z" fill="url(#paint22_linear_180_1641)"/>
<g opacity="0.3">
<path d="M32.0876 208.035L3.66797 191.627C0.334634 189.716 0.334634 186.584 3.66797 184.659L32.0876 168.25C33.9596 167.308 36.0263 166.817 38.1221 166.817C40.2179 166.817 42.2847 167.308 44.1566 168.25L72.5762 184.659C75.8951 186.584 75.8951 189.716 72.5762 191.627L44.1709 208.035C42.2991 208.986 40.2291 209.482 38.1293 209.482C36.0295 209.482 33.9594 208.986 32.0876 208.035Z" fill="#0F054C"/>
</g>
</g>
<rect width="41.4765" height="41.4765" rx="2" transform="matrix(0.866025 0.5 -0.866025 0.5 40.0127 96.0664)" fill="url(#paint23_linear_180_1641)"/>
<g filter="url(#filter12_d_180_1641)">
<circle r="12.8679" transform="matrix(-0.866025 -0.5 0.866025 -0.5 38.6895 116.923)" stroke="url(#paint24_linear_180_1641)" shape-rendering="crispEdges"/>
</g>
<g opacity="0.5" filter="url(#filter13_d_180_1641)">
<circle r="12.8679" transform="matrix(-0.866025 -0.5 0.866025 -0.5 38.6895 114.205)" stroke="url(#paint25_linear_180_1641)" shape-rendering="crispEdges"/>
</g>
<g opacity="0.3" filter="url(#filter14_d_180_1641)">
<circle r="12.8679" transform="matrix(-0.866025 -0.5 0.866025 -0.5 38.6895 111.294)" stroke="url(#paint26_linear_180_1641)" shape-rendering="crispEdges"/>
</g>
<g opacity="0.2" filter="url(#filter15_d_180_1641)">
<circle r="12.8679" transform="matrix(-0.866025 -0.5 0.866025 -0.5 38.6895 108.383)" stroke="url(#paint27_linear_180_1641)" shape-rendering="crispEdges"/>
</g>
<g opacity="0.1" filter="url(#filter16_d_180_1641)">
<circle r="12.8679" transform="matrix(-0.866025 -0.5 0.866025 -0.5 38.6895 105.472)" stroke="url(#paint28_linear_180_1641)" shape-rendering="crispEdges"/>
</g>
<path d="M76.5644 123.715V117.279L74.7828 116.287C74.28 119.319 70.7024 121.33 67.7139 121.747L47.3546 133.658L38.4609 136.862L10.0988 122.221L10.7454 121.848C8.31719 120.713 7.02407 118.126 5.70223 115.756L3.79128 116.891L2.65625 117.221V123.816C2.73146 124.566 3.00185 125.283 3.4405 125.895C3.87915 126.508 4.47073 126.995 5.15624 127.307L33.5759 143.715C35.4478 144.658 37.5145 145.149 39.6103 145.149C41.7061 145.149 43.7728 144.658 45.6448 143.715L74.1363 127.307C74.814 127 75.4005 126.522 75.8386 125.92C76.2767 125.318 76.5515 124.613 76.6363 123.873V123.715H76.5644Z" fill="url(#paint29_linear_180_1641)"/>
<path d="M33.5752 137.149L5.16993 120.756C1.83659 118.845 1.83659 115.713 5.16993 113.787L33.5896 97.3792C35.4615 96.4367 37.5282 95.9458 39.624 95.9458C41.7198 95.9458 43.7865 96.4367 45.6585 97.3792L74.1356 113.787C77.4689 115.713 77.4689 118.845 74.1356 120.756L45.6441 137.149C43.7741 138.098 41.7066 138.593 39.6096 138.593C37.5126 138.593 35.4452 138.098 33.5752 137.149ZM41.5493 99.793C40.9495 99.4921 40.2878 99.3355 39.6168 99.3355C38.9458 99.3355 38.2841 99.4921 37.6844 99.793L9.26473 116.201C8.18714 116.819 8.18714 117.825 9.26473 118.428L37.6844 134.85C38.2841 135.151 38.9458 135.308 39.6168 135.308C40.2878 135.308 40.9495 135.151 41.5493 134.85L69.9689 118.471C70.1989 118.387 70.3977 118.235 70.5381 118.035C70.6785 117.834 70.7538 117.595 70.7538 117.35C70.7538 117.106 70.6785 116.867 70.5381 116.666C70.3977 116.466 70.1989 116.313 69.9689 116.23L41.5493 99.793Z" fill="url(#paint30_linear_180_1641)"/>
<path d="M74.1352 120.756L45.6438 137.149C43.7738 138.098 41.7063 138.593 39.6093 138.593C37.5122 138.593 35.4448 138.098 33.5748 137.149L5.16959 120.756C4.55046 120.466 4.00592 120.038 3.57758 119.505C3.14925 118.972 2.84852 118.348 2.69836 117.681C2.66644 118.502 2.88588 119.314 3.32748 120.007C3.76908 120.7 4.41176 121.242 5.16959 121.56L33.5892 137.968C35.4592 138.917 37.5266 139.412 39.6236 139.412C41.7207 139.412 43.7882 138.917 45.6582 137.968L74.1352 121.56C74.8931 121.242 75.5357 120.7 75.9773 120.007C76.4189 119.314 76.6384 118.502 76.6065 117.681C76.4583 118.349 76.1583 118.974 75.7298 119.507C75.3012 120.04 74.7556 120.467 74.1352 120.756Z" fill="white"/>
<path d="M34.3795 136.704L5.95986 120.296C3.0863 118.629 3.0863 115.986 5.95986 114.262L34.3795 97.8534C35.9987 97.0261 37.791 96.5947 39.6093 96.5947C41.4276 96.5947 43.22 97.0261 44.8392 97.8534L73.2589 114.262C76.1324 115.928 76.1324 118.572 73.2589 120.296L44.8392 136.704C43.22 137.531 41.4276 137.963 39.6093 137.963C37.791 137.963 35.9987 137.531 34.3795 136.704ZM42.3393 99.3477C41.4943 98.9152 40.5586 98.6897 39.6093 98.6897C38.6601 98.6897 37.7245 98.9152 36.8795 99.3477L8.45985 115.756C8.12849 115.867 7.84037 116.079 7.63623 116.363C7.43209 116.646 7.32228 116.987 7.32228 117.336C7.32228 117.686 7.43209 118.026 7.63623 118.31C7.84037 118.594 8.12849 118.806 8.45985 118.917L36.8795 135.325C37.7293 135.75 38.6664 135.971 39.6165 135.971C40.5667 135.971 41.5038 135.75 42.3536 135.325L70.7732 118.917C71.1045 118.806 71.3927 118.594 71.5968 118.31C71.8009 118.026 71.9108 117.686 71.9108 117.336C71.9108 116.987 71.8009 116.646 71.5968 116.363C71.3927 116.079 71.1045 115.867 70.7732 115.756L42.3393 99.3477Z" fill="url(#paint31_linear_180_1641)"/>
<g opacity="0.3">
<mask id="mask0_180_1641" style="mask-type:alpha" maskUnits="userSpaceOnUse" x="258" y="34" width="72" height="57">
<path d="M258.62 34.6328L329.023 75.5812L301.005 90.6674L260.057 66.9605L258.62 34.6328Z" fill="#D9D9D9"/>
</mask>
<g mask="url(#mask0_180_1641)">
<path d="M335.416 63.3704V56.9336L333.634 55.9422C333.132 58.9738 329.554 60.9853 326.565 61.402L306.192 73.3129L297.312 76.5169L268.936 61.8761L269.597 61.5025C267.169 60.3675 265.861 57.7813 264.554 55.4106L262.643 56.5456L261.508 56.8761V63.4709C261.583 64.2206 261.853 64.9375 262.292 65.5501C262.731 66.1627 263.322 66.6496 264.008 66.9623L292.413 83.3704C294.285 84.3129 296.352 84.8037 298.448 84.8037C300.543 84.8037 302.61 84.3129 304.482 83.3704L332.902 66.9623C333.577 66.6526 334.16 66.1737 334.596 65.572C335.031 64.9704 335.304 64.2664 335.387 63.5284C335.395 63.476 335.395 63.4228 335.387 63.3704H335.416Z" fill="url(#paint32_linear_180_1641)"/>
<path opacity="0.3" d="M326.565 61.4021L306.192 73.313L298.462 76.1004V84.8073C300.563 84.8506 302.64 84.356 304.496 83.3705L332.916 66.9624C333.591 66.6527 334.175 66.1738 334.61 65.5721C335.046 64.9705 335.318 64.2665 335.402 63.5285C335.409 63.4761 335.409 63.4229 335.402 63.3705V56.9337L333.764 56.0285H333.591C333.06 59.017 329.525 60.9854 326.565 61.4021Z" fill="#0F054C"/>
<path d="M292.414 76.8187L263.994 60.4106C260.661 58.4997 260.661 55.3675 263.994 53.4422L292.414 37.0341C294.286 36.0917 296.352 35.6008 298.448 35.6008C300.544 35.6008 302.611 36.0917 304.483 37.0341L332.902 53.4422C336.221 55.3675 336.221 58.4997 332.902 60.4106L304.497 76.8187C302.625 77.7701 300.555 78.266 298.455 78.266C296.356 78.266 294.286 77.7701 292.414 76.8187Z" fill="url(#paint33_linear_180_1641)"/>
<g opacity="0.3">
<path d="M292.414 76.8187L263.994 60.4106C260.661 58.4997 260.661 55.3675 263.994 53.4422L292.414 37.0341C294.286 36.0917 296.352 35.6008 298.448 35.6008C300.544 35.6008 302.611 36.0917 304.483 37.0341L332.902 53.4422C336.221 55.3675 336.221 58.4997 332.902 60.4106L304.497 76.8187C302.625 77.7701 300.555 78.266 298.455 78.266C296.356 78.266 294.286 77.7701 292.414 76.8187Z" fill="#0F054C"/>
</g>
</g>
</g>
<rect width="41.4765" height="41.4765" rx="2" transform="matrix(0.866025 0.5 -0.866025 0.5 300.339 18.48)" fill="url(#paint34_linear_180_1641)"/>
<path d="M336.89 46.129V39.6922L335.108 38.7008C334.605 41.7325 331.028 43.7439 328.039 44.1606L307.68 56.0716L298.786 59.2756L270.424 44.6347L271.071 44.2612C268.642 43.1261 267.349 40.5399 266.027 38.1692L264.116 39.3043L262.981 39.6347V46.2296C263.057 46.9793 263.327 47.6962 263.766 48.3088C264.204 48.9214 264.796 49.4083 265.481 49.7209L293.901 66.129C295.773 67.0715 297.84 67.5624 299.935 67.5624C302.031 67.5624 304.098 67.0715 305.97 66.129L334.461 49.7209C335.139 49.4132 335.726 48.9351 336.164 48.3333C336.602 47.7315 336.877 47.0266 336.961 46.2871V46.129H336.89Z" fill="url(#paint35_linear_180_1641)"/>
<path d="M293.901 59.5629L265.496 43.1692C262.163 41.2583 262.163 38.1261 265.496 36.2008L293.916 19.7927C295.788 18.8503 297.854 18.3594 299.95 18.3594C302.046 18.3594 304.113 18.8503 305.985 19.7927L334.462 36.2008C337.795 38.1261 337.795 41.2583 334.462 43.1692L305.97 59.5629C304.1 60.512 302.033 61.0067 299.936 61.0067C297.839 61.0067 295.771 60.512 293.901 59.5629ZM301.875 22.2065C301.276 21.9057 300.614 21.7491 299.943 21.7491C299.272 21.7491 298.61 21.9057 298.011 22.2065L269.591 38.6146C268.513 39.2324 268.513 40.2382 269.591 40.8416L298.011 57.2641C298.61 57.5649 299.272 57.7215 299.943 57.7215C300.614 57.7215 301.276 57.5649 301.875 57.2641L330.295 40.8847C330.525 40.8011 330.724 40.6486 330.864 40.4481C331.005 40.2476 331.08 40.0088 331.08 39.764C331.08 39.5193 331.005 39.2804 330.864 39.0799C330.724 38.8794 330.525 38.727 330.295 38.6433L301.875 22.2065Z" fill="url(#paint36_linear_180_1641)"/>
<path d="M334.461 43.1692L305.97 59.5629C304.1 60.512 302.032 61.0066 299.935 61.0066C297.838 61.0066 295.771 60.512 293.901 59.5629L265.496 43.1692C264.877 42.8791 264.332 42.4512 263.904 41.9183C263.475 41.3853 263.175 40.7615 263.025 40.0945C262.993 40.9158 263.212 41.7272 263.654 42.4204C264.095 43.1137 264.738 43.6556 265.496 43.9738L293.915 60.3819C295.785 61.331 297.853 61.8256 299.95 61.8256C302.047 61.8256 304.114 61.331 305.984 60.3819L334.461 43.9738C335.219 43.6556 335.862 43.1137 336.304 42.4204C336.745 41.7272 336.965 40.9158 336.933 40.0945C336.785 40.7624 336.485 41.3871 336.056 41.9203C335.627 42.4535 335.082 42.8809 334.461 43.1692Z" fill="white"/>
<path d="M294.706 59.1174L266.286 42.7093C263.412 41.0427 263.412 38.399 266.286 36.6749L294.706 20.2668C296.325 19.4394 298.117 19.0081 299.935 19.0081C301.754 19.0081 303.546 19.4394 305.165 20.2668L333.585 36.6749C336.459 38.3415 336.459 40.9852 333.585 42.7093L305.165 59.1174C303.546 59.9448 301.754 60.3762 299.935 60.3762C298.117 60.3762 296.325 59.9448 294.706 59.1174ZM302.665 21.761C301.82 21.3285 300.885 21.103 299.935 21.103C298.986 21.103 298.051 21.3285 297.206 21.761L268.786 38.1691C268.455 38.28 268.167 38.4923 267.962 38.7759C267.758 39.0596 267.648 39.4001 267.648 39.7496C267.648 40.099 267.758 40.4396 267.962 40.7232C268.167 41.0069 268.455 41.2191 268.786 41.33L297.206 57.7381C298.056 58.163 298.993 58.3842 299.943 58.3842C300.893 58.3842 301.83 58.163 302.68 57.7381L331.099 41.33C331.431 41.2191 331.719 41.0069 331.923 40.7232C332.127 40.4396 332.237 40.099 332.237 39.7496C332.237 39.4001 332.127 39.0596 331.923 38.7759C331.719 38.4923 331.431 38.28 331.099 38.1691L302.665 21.761Z" fill="url(#paint37_linear_180_1641)"/>
<g filter="url(#filter17_d_180_1641)">
<path d="M309.987 35.1648L308.292 40.003L308.247 40.1321L308.359 40.2468L312.561 44.5458L304.067 45.1101L303.84 45.1251L303.686 45.2221L297.903 48.8578L294.348 44.3683L294.254 44.2485L294.046 44.1937L286.27 42.1417L292.567 38.8028L292.735 38.7137L292.761 38.5828L293.739 33.679L301.185 36.1049L301.383 36.1696L301.607 36.1435L309.987 35.1648Z" stroke="url(#paint38_linear_180_1641)" shape-rendering="crispEdges"/>
</g>
<g opacity="0.4" filter="url(#filter18_d_180_1641)">
<path d="M309.987 32.0166L308.292 36.8548L308.247 36.9839L308.359 37.0986L312.561 41.3976L304.067 41.9619L303.84 41.9769L303.686 42.0739L297.903 45.7096L294.348 41.2201L294.254 41.1003L294.046 41.0455L286.27 38.9935L292.567 35.6546L292.735 35.5655L292.761 35.4346L293.739 30.5308L301.185 32.9567L301.383 33.0214L301.607 32.9953L309.987 32.0166Z" stroke="url(#paint39_linear_180_1641)" shape-rendering="crispEdges"/>
</g>
<g opacity="0.3" filter="url(#filter19_d_180_1641)">
<path d="M309.987 28.8684L308.292 33.7066L308.247 33.8357L308.359 33.9504L312.561 38.2494L304.067 38.8137L303.84 38.8287L303.686 38.9258L297.903 42.5614L294.348 38.0719L294.254 37.9521L294.046 37.8973L286.27 35.8453L292.567 32.5064L292.735 32.4173L292.761 32.2864L293.739 27.3826L301.185 29.8085L301.383 29.8732L301.607 29.8471L309.987 28.8684Z" stroke="url(#paint40_linear_180_1641)" shape-rendering="crispEdges"/>
</g>
<g opacity="0.2" filter="url(#filter20_d_180_1641)">
<path d="M309.987 25.7202L308.292 30.5584L308.247 30.6875L308.359 30.8022L312.561 35.1012L304.067 35.6655L303.84 35.6805L303.686 35.7776L297.903 39.4132L294.348 34.9237L294.254 34.8039L294.046 34.7491L286.27 32.6971L292.567 29.3582L292.735 29.2691L292.761 29.1382L293.739 24.2344L301.185 26.6603L301.383 26.725L301.607 26.6989L309.987 25.7202Z" stroke="url(#paint41_linear_180_1641)" shape-rendering="crispEdges"/>
</g>
<g opacity="0.1" filter="url(#filter21_d_180_1641)">
<path d="M309.987 22.572L308.292 27.4102L308.247 27.5393L308.359 27.6541L312.561 31.953L304.067 32.5173L303.84 32.5323L303.686 32.6294L297.903 36.265L294.348 31.7755L294.254 31.6557L294.046 31.6009L286.27 29.5489L292.567 26.21L292.735 26.1209L292.761 25.99L293.739 21.0862L301.185 23.5121L301.383 23.5768L301.607 23.5507L309.987 22.572Z" stroke="url(#paint42_linear_180_1641)" shape-rendering="crispEdges"/>
</g>
<defs>
<filter id="filter0_d_180_1641" x="122.884" y="47.2259" width="189.797" height="120.286" filterUnits="userSpaceOnUse" color-interpolation-filters="sRGB">
<feFlood flood-opacity="0" result="BackgroundImageFix"/>
<feColorMatrix in="SourceAlpha" type="matrix" values="0 0 0 0 0 0 0 0 0 0 0 0 0 0 0 0 0 0 127 0" result="hardAlpha"/>
<feOffset/>
<feGaussianBlur stdDeviation="10"/>
<feComposite in2="hardAlpha" operator="out"/>
<feColorMatrix type="matrix" values="0 0 0 0 0.254167 0 0 0 0 0.68675 0 0 0 0 1 0 0 0 1 0"/>
<feBlend mode="normal" in2="BackgroundImageFix" result="effect1_dropShadow_180_1641"/>
<feBlend mode="normal" in="SourceGraphic" in2="effect1_dropShadow_180_1641" result="shape"/>
</filter>
<filter id="filter1_d_180_1641" x="122.884" y="40.6667" width="189.797" height="120.286" filterUnits="userSpaceOnUse" color-interpolation-filters="sRGB">
<feFlood flood-opacity="0" result="BackgroundImageFix"/>
<feColorMatrix in="SourceAlpha" type="matrix" values="0 0 0 0 0 0 0 0 0 0 0 0 0 0 0 0 0 0 127 0" result="hardAlpha"/>
<feOffset/>
<feGaussianBlur stdDeviation="10"/>
<feComposite in2="hardAlpha" operator="out"/>
<feColorMatrix type="matrix" values="0 0 0 0 0.254167 0 0 0 0 0.68675 0 0 0 0 1 0 0 0 1 0"/>
<feBlend mode="normal" in2="BackgroundImageFix" result="effect1_dropShadow_180_1641"/>
<feBlend mode="normal" in="SourceGraphic" in2="effect1_dropShadow_180_1641" result="shape"/>
</filter>
<filter id="filter2_d_180_1641" x="122.884" y="34.1075" width="189.797" height="120.286" filterUnits="userSpaceOnUse" color-interpolation-filters="sRGB">
<feFlood flood-opacity="0" result="BackgroundImageFix"/>
<feColorMatrix in="SourceAlpha" type="matrix" values="0 0 0 0 0 0 0 0 0 0 0 0 0 0 0 0 0 0 127 0" result="hardAlpha"/>
<feOffset/>
<feGaussianBlur stdDeviation="10"/>
<feComposite in2="hardAlpha" operator="out"/>
<feColorMatrix type="matrix" values="0 0 0 0 0.254167 0 0 0 0 0.68675 0 0 0 0 1 0 0 0 1 0"/>
<feBlend mode="normal" in2="BackgroundImageFix" result="effect1_dropShadow_180_1641"/>
<feBlend mode="normal" in="SourceGraphic" in2="effect1_dropShadow_180_1641" result="shape"/>
</filter>
<filter id="filter3_d_180_1641" x="122.884" y="27.5482" width="189.797" height="120.286" filterUnits="userSpaceOnUse" color-interpolation-filters="sRGB">
<feFlood flood-opacity="0" result="BackgroundImageFix"/>
<feColorMatrix in="SourceAlpha" type="matrix" values="0 0 0 0 0 0 0 0 0 0 0 0 0 0 0 0 0 0 127 0" result="hardAlpha"/>
<feOffset/>
<feGaussianBlur stdDeviation="10"/>
<feComposite in2="hardAlpha" operator="out"/>
<feColorMatrix type="matrix" values="0 0 0 0 0.254167 0 0 0 0 0.68675 0 0 0 0 1 0 0 0 1 0"/>
<feBlend mode="normal" in2="BackgroundImageFix" result="effect1_dropShadow_180_1641"/>
<feBlend mode="normal" in="SourceGraphic" in2="effect1_dropShadow_180_1641" result="shape"/>
</filter>
<filter id="filter4_d_180_1641" x="122.884" y="20.989" width="189.797" height="120.286" filterUnits="userSpaceOnUse" color-interpolation-filters="sRGB">
<feFlood flood-opacity="0" result="BackgroundImageFix"/>
<feColorMatrix in="SourceAlpha" type="matrix" values="0 0 0 0 0 0 0 0 0 0 0 0 0 0 0 0 0 0 127 0" result="hardAlpha"/>
<feOffset/>
<feGaussianBlur stdDeviation="10"/>
<feComposite in2="hardAlpha" operator="out"/>
<feColorMatrix type="matrix" values="0 0 0 0 0.254167 0 0 0 0 0.68675 0 0 0 0 1 0 0 0 1 0"/>
<feBlend mode="normal" in2="BackgroundImageFix" result="effect1_dropShadow_180_1641"/>
<feBlend mode="normal" in="SourceGraphic" in2="effect1_dropShadow_180_1641" result="shape"/>
</filter>
<filter id="filter5_d_180_1641" x="122.884" y="14.4297" width="189.797" height="120.286" filterUnits="userSpaceOnUse" color-interpolation-filters="sRGB">
<feFlood flood-opacity="0" result="BackgroundImageFix"/>
<feColorMatrix in="SourceAlpha" type="matrix" values="0 0 0 0 0 0 0 0 0 0 0 0 0 0 0 0 0 0 127 0" result="hardAlpha"/>
<feOffset/>
<feGaussianBlur stdDeviation="10"/>
<feComposite in2="hardAlpha" operator="out"/>
<feColorMatrix type="matrix" values="0 0 0 0 0.254167 0 0 0 0 0.68675 0 0 0 0 1 0 0 0 1 0"/>
<feBlend mode="normal" in2="BackgroundImageFix" result="effect1_dropShadow_180_1641"/>
<feBlend mode="normal" in="SourceGraphic" in2="effect1_dropShadow_180_1641" result="shape"/>
</filter>
<filter id="filter6_d_180_1641" x="122.884" y="7.87036" width="189.797" height="120.286" filterUnits="userSpaceOnUse" color-interpolation-filters="sRGB">
<feFlood flood-opacity="0" result="BackgroundImageFix"/>
<feColorMatrix in="SourceAlpha" type="matrix" values="0 0 0 0 0 0 0 0 0 0 0 0 0 0 0 0 0 0 127 0" result="hardAlpha"/>
<feOffset/>
<feGaussianBlur stdDeviation="10"/>
<feComposite in2="hardAlpha" operator="out"/>
<feColorMatrix type="matrix" values="0 0 0 0 0.254167 0 0 0 0 0.68675 0 0 0 0 1 0 0 0 1 0"/>
<feBlend mode="normal" in2="BackgroundImageFix" result="effect1_dropShadow_180_1641"/>
<feBlend mode="normal" in="SourceGraphic" in2="effect1_dropShadow_180_1641" result="shape"/>
</filter>
<filter id="filter7_d_180_1641" x="178.812" y="133.027" width="67.6211" height="55.9468" filterUnits="userSpaceOnUse" color-interpolation-filters="sRGB">
<feFlood flood-opacity="0" result="BackgroundImageFix"/>
<feColorMatrix in="SourceAlpha" type="matrix" values="0 0 0 0 0 0 0 0 0 0 0 0 0 0 0 0 0 0 127 0" result="hardAlpha"/>
<feOffset/>
<feGaussianBlur stdDeviation="10"/>
<feComposite in2="hardAlpha" operator="out"/>
<feColorMatrix type="matrix" values="0 0 0 0 0.254167 0 0 0 0 0.68675 0 0 0 0 1 0 0 0 1 0"/>
<feBlend mode="normal" in2="BackgroundImageFix" result="effect1_dropShadow_180_1641"/>
<feBlend mode="normal" in="SourceGraphic" in2="effect1_dropShadow_180_1641" result="shape"/>
</filter>
<filter id="filter8_d_180_1641" x="178.812" y="129.539" width="67.6211" height="55.9468" filterUnits="userSpaceOnUse" color-interpolation-filters="sRGB">
<feFlood flood-opacity="0" result="BackgroundImageFix"/>
<feColorMatrix in="SourceAlpha" type="matrix" values="0 0 0 0 0 0 0 0 0 0 0 0 0 0 0 0 0 0 127 0" result="hardAlpha"/>
<feOffset/>
<feGaussianBlur stdDeviation="10"/>
<feComposite in2="hardAlpha" operator="out"/>
<feColorMatrix type="matrix" values="0 0 0 0 0.254167 0 0 0 0 0.68675 0 0 0 0 1 0 0 0 1 0"/>
<feBlend mode="normal" in2="BackgroundImageFix" result="effect1_dropShadow_180_1641"/>
<feBlend mode="normal" in="SourceGraphic" in2="effect1_dropShadow_180_1641" result="shape"/>
</filter>
<filter id="filter9_d_180_1641" x="178.812" y="126.051" width="67.6211" height="55.9468" filterUnits="userSpaceOnUse" color-interpolation-filters="sRGB">
<feFlood flood-opacity="0" result="BackgroundImageFix"/>
<feColorMatrix in="SourceAlpha" type="matrix" values="0 0 0 0 0 0 0 0 0 0 0 0 0 0 0 0 0 0 127 0" result="hardAlpha"/>
<feOffset/>
<feGaussianBlur stdDeviation="10"/>
<feComposite in2="hardAlpha" operator="out"/>
<feColorMatrix type="matrix" values="0 0 0 0 0.254167 0 0 0 0 0.68675 0 0 0 0 1 0 0 0 1 0"/>
<feBlend mode="normal" in2="BackgroundImageFix" result="effect1_dropShadow_180_1641"/>
<feBlend mode="normal" in="SourceGraphic" in2="effect1_dropShadow_180_1641" result="shape"/>
</filter>
<filter id="filter10_d_180_1641" x="178.812" y="122.562" width="67.6211" height="55.9468" filterUnits="userSpaceOnUse" color-interpolation-filters="sRGB">
<feFlood flood-opacity="0" result="BackgroundImageFix"/>
<feColorMatrix in="SourceAlpha" type="matrix" values="0 0 0 0 0 0 0 0 0 0 0 0 0 0 0 0 0 0 127 0" result="hardAlpha"/>
<feOffset/>
<feGaussianBlur stdDeviation="10"/>
<feComposite in2="hardAlpha" operator="out"/>
<feColorMatrix type="matrix" values="0 0 0 0 0.254167 0 0 0 0 0.68675 0 0 0 0 1 0 0 0 1 0"/>
<feBlend mode="normal" in2="BackgroundImageFix" result="effect1_dropShadow_180_1641"/>
<feBlend mode="normal" in="SourceGraphic" in2="effect1_dropShadow_180_1641" result="shape"/>
</filter>
<filter id="filter11_d_180_1641" x="178.812" y="119.074" width="67.6211" height="55.9468" filterUnits="userSpaceOnUse" color-interpolation-filters="sRGB">
<feFlood flood-opacity="0" result="BackgroundImageFix"/>
<feColorMatrix in="SourceAlpha" type="matrix" values="0 0 0 0 0 0 0 0 0 0 0 0 0 0 0 0 0 0 127 0" result="hardAlpha"/>
<feOffset/>
<feGaussianBlur stdDeviation="10"/>
<feComposite in2="hardAlpha" operator="out"/>
<feColorMatrix type="matrix" values="0 0 0 0 0.254167 0 0 0 0 0.68675 0 0 0 0 1 0 0 0 1 0"/>
<feBlend mode="normal" in2="BackgroundImageFix" result="effect1_dropShadow_180_1641"/>
<feBlend mode="normal" in="SourceGraphic" in2="effect1_dropShadow_180_1641" result="shape"/>
</filter>
<filter id="filter12_d_180_1641" x="2.31738" y="87.4708" width="72.7441" height="58.905" filterUnits="userSpaceOnUse" color-interpolation-filters="sRGB">
<feFlood flood-opacity="0" result="BackgroundImageFix"/>
<feColorMatrix in="SourceAlpha" type="matrix" values="0 0 0 0 0 0 0 0 0 0 0 0 0 0 0 0 0 0 127 0" result="hardAlpha"/>
<feOffset/>
<feGaussianBlur stdDeviation="10"/>
<feComposite in2="hardAlpha" operator="out"/>
<feColorMatrix type="matrix" values="0 0 0 0 0.254167 0 0 0 0 0.68675 0 0 0 0 1 0 0 0 1 0"/>
<feBlend mode="normal" in2="BackgroundImageFix" result="effect1_dropShadow_180_1641"/>
<feBlend mode="normal" in="SourceGraphic" in2="effect1_dropShadow_180_1641" result="shape"/>
</filter>
<filter id="filter13_d_180_1641" x="2.31738" y="84.7524" width="72.7441" height="58.905" filterUnits="userSpaceOnUse" color-interpolation-filters="sRGB">
<feFlood flood-opacity="0" result="BackgroundImageFix"/>
<feColorMatrix in="SourceAlpha" type="matrix" values="0 0 0 0 0 0 0 0 0 0 0 0 0 0 0 0 0 0 127 0" result="hardAlpha"/>
<feOffset/>
<feGaussianBlur stdDeviation="10"/>
<feComposite in2="hardAlpha" operator="out"/>
<feColorMatrix type="matrix" values="0 0 0 0 0.254167 0 0 0 0 0.68675 0 0 0 0 1 0 0 0 1 0"/>
<feBlend mode="normal" in2="BackgroundImageFix" result="effect1_dropShadow_180_1641"/>
<feBlend mode="normal" in="SourceGraphic" in2="effect1_dropShadow_180_1641" result="shape"/>
</filter>
<filter id="filter14_d_180_1641" x="2.31738" y="81.8411" width="72.7441" height="58.905" filterUnits="userSpaceOnUse" color-interpolation-filters="sRGB">
<feFlood flood-opacity="0" result="BackgroundImageFix"/>
<feColorMatrix in="SourceAlpha" type="matrix" values="0 0 0 0 0 0 0 0 0 0 0 0 0 0 0 0 0 0 127 0" result="hardAlpha"/>
<feOffset/>
<feGaussianBlur stdDeviation="10"/>
<feComposite in2="hardAlpha" operator="out"/>
<feColorMatrix type="matrix" values="0 0 0 0 0.254167 0 0 0 0 0.68675 0 0 0 0 1 0 0 0 1 0"/>
<feBlend mode="normal" in2="BackgroundImageFix" result="effect1_dropShadow_180_1641"/>
<feBlend mode="normal" in="SourceGraphic" in2="effect1_dropShadow_180_1641" result="shape"/>
</filter>
<filter id="filter15_d_180_1641" x="2.31738" y="78.9305" width="72.7441" height="58.905" filterUnits="userSpaceOnUse" color-interpolation-filters="sRGB">
<feFlood flood-opacity="0" result="BackgroundImageFix"/>
<feColorMatrix in="SourceAlpha" type="matrix" values="0 0 0 0 0 0 0 0 0 0 0 0 0 0 0 0 0 0 127 0" result="hardAlpha"/>
<feOffset/>
<feGaussianBlur stdDeviation="10"/>
<feComposite in2="hardAlpha" operator="out"/>
<feColorMatrix type="matrix" values="0 0 0 0 0.254167 0 0 0 0 0.68675 0 0 0 0 1 0 0 0 1 0"/>
<feBlend mode="normal" in2="BackgroundImageFix" result="effect1_dropShadow_180_1641"/>
<feBlend mode="normal" in="SourceGraphic" in2="effect1_dropShadow_180_1641" result="shape"/>
</filter>
<filter id="filter16_d_180_1641" x="2.31738" y="76.0196" width="72.7441" height="58.905" filterUnits="userSpaceOnUse" color-interpolation-filters="sRGB">
<feFlood flood-opacity="0" result="BackgroundImageFix"/>
<feColorMatrix in="SourceAlpha" type="matrix" values="0 0 0 0 0 0 0 0 0 0 0 0 0 0 0 0 0 0 127 0" result="hardAlpha"/>
<feOffset/>
<feGaussianBlur stdDeviation="10"/>
<feComposite in2="hardAlpha" operator="out"/>
<feColorMatrix type="matrix" values="0 0 0 0 0.254167 0 0 0 0 0.68675 0 0 0 0 1 0 0 0 1 0"/>
<feBlend mode="normal" in2="BackgroundImageFix" result="effect1_dropShadow_180_1641"/>
<feBlend mode="normal" in="SourceGraphic" in2="effect1_dropShadow_180_1641" result="shape"/>
</filter>
<filter id="filter17_d_180_1641" x="265.176" y="13.1092" width="68.3721" height="56.3802" filterUnits="userSpaceOnUse" color-interpolation-filters="sRGB">
<feFlood flood-opacity="0" result="BackgroundImageFix"/>
<feColorMatrix in="SourceAlpha" type="matrix" values="0 0 0 0 0 0 0 0 0 0 0 0 0 0 0 0 0 0 127 0" result="hardAlpha"/>
<feOffset/>
<feGaussianBlur stdDeviation="10"/>
<feComposite in2="hardAlpha" operator="out"/>
<feColorMatrix type="matrix" values="0 0 0 0 0.254167 0 0 0 0 0.68675 0 0 0 0 1 0 0 0 1 0"/>
<feBlend mode="normal" in2="BackgroundImageFix" result="effect1_dropShadow_180_1641"/>
<feBlend mode="normal" in="SourceGraphic" in2="effect1_dropShadow_180_1641" result="shape"/>
</filter>
<filter id="filter18_d_180_1641" x="265.176" y="9.961" width="68.3721" height="56.3802" filterUnits="userSpaceOnUse" color-interpolation-filters="sRGB">
<feFlood flood-opacity="0" result="BackgroundImageFix"/>
<feColorMatrix in="SourceAlpha" type="matrix" values="0 0 0 0 0 0 0 0 0 0 0 0 0 0 0 0 0 0 127 0" result="hardAlpha"/>
<feOffset/>
<feGaussianBlur stdDeviation="10"/>
<feComposite in2="hardAlpha" operator="out"/>
<feColorMatrix type="matrix" values="0 0 0 0 0.254167 0 0 0 0 0.68675 0 0 0 0 1 0 0 0 1 0"/>
<feBlend mode="normal" in2="BackgroundImageFix" result="effect1_dropShadow_180_1641"/>
<feBlend mode="normal" in="SourceGraphic" in2="effect1_dropShadow_180_1641" result="shape"/>
</filter>
<filter id="filter19_d_180_1641" x="265.176" y="6.81281" width="68.3721" height="56.3802" filterUnits="userSpaceOnUse" color-interpolation-filters="sRGB">
<feFlood flood-opacity="0" result="BackgroundImageFix"/>
<feColorMatrix in="SourceAlpha" type="matrix" values="0 0 0 0 0 0 0 0 0 0 0 0 0 0 0 0 0 0 127 0" result="hardAlpha"/>
<feOffset/>
<feGaussianBlur stdDeviation="10"/>
<feComposite in2="hardAlpha" operator="out"/>
<feColorMatrix type="matrix" values="0 0 0 0 0.254167 0 0 0 0 0.68675 0 0 0 0 1 0 0 0 1 0"/>
<feBlend mode="normal" in2="BackgroundImageFix" result="effect1_dropShadow_180_1641"/>
<feBlend mode="normal" in="SourceGraphic" in2="effect1_dropShadow_180_1641" result="shape"/>
</filter>
<filter id="filter20_d_180_1641" x="265.176" y="3.66461" width="68.3721" height="56.3802" filterUnits="userSpaceOnUse" color-interpolation-filters="sRGB">
<feFlood flood-opacity="0" result="BackgroundImageFix"/>
<feColorMatrix in="SourceAlpha" type="matrix" values="0 0 0 0 0 0 0 0 0 0 0 0 0 0 0 0 0 0 127 0" result="hardAlpha"/>
<feOffset/>
<feGaussianBlur stdDeviation="10"/>
<feComposite in2="hardAlpha" operator="out"/>
<feColorMatrix type="matrix" values="0 0 0 0 0.254167 0 0 0 0 0.68675 0 0 0 0 1 0 0 0 1 0"/>
<feBlend mode="normal" in2="BackgroundImageFix" result="effect1_dropShadow_180_1641"/>
<feBlend mode="normal" in="SourceGraphic" in2="effect1_dropShadow_180_1641" result="shape"/>
</filter>
<filter id="filter21_d_180_1641" x="265.176" y="0.516418" width="68.3721" height="56.3802" filterUnits="userSpaceOnUse" color-interpolation-filters="sRGB">
<feFlood flood-opacity="0" result="BackgroundImageFix"/>
<feColorMatrix in="SourceAlpha" type="matrix" values="0 0 0 0 0 0 0 0 0 0 0 0 0 0 0 0 0 0 127 0" result="hardAlpha"/>
<feOffset/>
<feGaussianBlur stdDeviation="10"/>
<feComposite in2="hardAlpha" operator="out"/>
<feColorMatrix type="matrix" values="0 0 0 0 0.254167 0 0 0 0 0.68675 0 0 0 0 1 0 0 0 1 0"/>
<feBlend mode="normal" in2="BackgroundImageFix" result="effect1_dropShadow_180_1641"/>
<feBlend mode="normal" in="SourceGraphic" in2="effect1_dropShadow_180_1641" result="shape"/>
</filter>
<linearGradient id="paint0_linear_180_1641" x1="-25.3098" y1="164.711" x2="392.416" y2="164.711" gradientUnits="userSpaceOnUse">
<stop stop-color="#BCBEFF"/>
<stop offset="1" stop-color="#5761D7"/>
</linearGradient>
<linearGradient id="paint1_linear_180_1641" x1="102.192" y1="0" x2="102.192" y2="204.384" gradientUnits="userSpaceOnUse">
<stop stop-color="#0F054C"/>
<stop offset="1" stop-color="#1F0E31"/>
</linearGradient>
<radialGradient id="paint2_radial_180_1641" cx="0" cy="0" r="1" gradientUnits="userSpaceOnUse" gradientTransform="translate(102.192 102.192) rotate(90) scale(102.192)">
<stop stop-color="#41AFFF"/>
<stop offset="1" stop-color="#0F054C"/>
</radialGradient>
<linearGradient id="paint3_linear_180_1641" x1="237.936" y1="98.8329" x2="217.782" y2="133.74" gradientUnits="userSpaceOnUse">
<stop stop-color="#41AFFF"/>
<stop offset="1" stop-color="#1D71B8"/>
</linearGradient>
<linearGradient id="paint4_linear_180_1641" x1="237.936" y1="92.2737" x2="217.782" y2="127.181" gradientUnits="userSpaceOnUse">
<stop stop-color="#41AFFF"/>
<stop offset="1" stop-color="#1D71B8" stop-opacity="0"/>
</linearGradient>
<linearGradient id="paint5_linear_180_1641" x1="237.936" y1="85.7145" x2="217.782" y2="120.622" gradientUnits="userSpaceOnUse">
<stop stop-color="#41AFFF"/>
<stop offset="1" stop-color="#1D71B8" stop-opacity="0"/>
</linearGradient>
<linearGradient id="paint6_linear_180_1641" x1="237.936" y1="79.1552" x2="217.782" y2="114.062" gradientUnits="userSpaceOnUse">
<stop stop-color="#41AFFF"/>
<stop offset="1" stop-color="#1D71B8" stop-opacity="0"/>
</linearGradient>
<linearGradient id="paint7_linear_180_1641" x1="237.936" y1="72.596" x2="217.782" y2="107.503" gradientUnits="userSpaceOnUse">
<stop stop-color="#41AFFF"/>
<stop offset="1" stop-color="#1D71B8" stop-opacity="0"/>
</linearGradient>
<linearGradient id="paint8_linear_180_1641" x1="237.936" y1="66.0367" x2="217.782" y2="100.944" gradientUnits="userSpaceOnUse">
<stop stop-color="#41AFFF"/>
<stop offset="1" stop-color="#1D71B8" stop-opacity="0"/>
</linearGradient>
<linearGradient id="paint9_linear_180_1641" x1="237.936" y1="59.4774" x2="217.782" y2="94.3845" gradientUnits="userSpaceOnUse">
<stop stop-color="#41AFFF"/>
<stop offset="1" stop-color="#1D71B8" stop-opacity="0"/>
</linearGradient>
<linearGradient id="paint10_linear_180_1641" x1="185.531" y1="163.385" x2="244.166" y2="197.235" gradientUnits="userSpaceOnUse">
<stop stop-color="#BCBEFF"/>
<stop offset="0.23" stop-color="#AAADF8"/>
<stop offset="0.68" stop-color="#7C83E5"/>
<stop offset="1" stop-color="#5761D7"/>
</linearGradient>
<linearGradient id="paint11_linear_180_1641" x1="178.175" y1="176.187" x2="252.083" y2="176.187" gradientUnits="userSpaceOnUse">
<stop stop-color="#E9E9FD"/>
<stop offset="0.36" stop-color="#D3D2F9"/>
<stop offset="0.71" stop-color="#C5C4F7"/>
<stop offset="1" stop-color="#C0BFF6"/>
</linearGradient>
<linearGradient id="paint12_linear_180_1641" x1="20.7382" y1="0" x2="20.7382" y2="41.4765" gradientUnits="userSpaceOnUse">
<stop stop-color="#0F054C"/>
<stop offset="1" stop-color="#1F0E31"/>
</linearGradient>
<linearGradient id="paint13_linear_180_1641" x1="226.434" y1="153.027" x2="214.76" y2="173.247" gradientUnits="userSpaceOnUse">
<stop stop-color="#41AFFF"/>
<stop offset="1" stop-color="#1D71B8"/>
</linearGradient>
<linearGradient id="paint14_linear_180_1641" x1="226.434" y1="149.539" x2="214.76" y2="169.759" gradientUnits="userSpaceOnUse">
<stop stop-color="#41AFFF"/>
<stop offset="1" stop-color="#1D71B8" stop-opacity="0"/>
</linearGradient>
<linearGradient id="paint15_linear_180_1641" x1="226.434" y1="146.051" x2="214.76" y2="166.27" gradientUnits="userSpaceOnUse">
<stop stop-color="#41AFFF"/>
<stop offset="1" stop-color="#1D71B8" stop-opacity="0"/>
</linearGradient>
<linearGradient id="paint16_linear_180_1641" x1="226.434" y1="142.562" x2="214.76" y2="162.782" gradientUnits="userSpaceOnUse">
<stop stop-color="#41AFFF"/>
<stop offset="1" stop-color="#1D71B8" stop-opacity="0"/>
</linearGradient>
<linearGradient id="paint17_linear_180_1641" x1="226.434" y1="139.074" x2="214.76" y2="159.294" gradientUnits="userSpaceOnUse">
<stop stop-color="#41AFFF"/>
<stop offset="1" stop-color="#1D71B8" stop-opacity="0"/>
</linearGradient>
<linearGradient id="paint18_linear_180_1641" x1="187.005" y1="146.143" x2="245.64" y2="179.994" gradientUnits="userSpaceOnUse">
<stop stop-color="#BCBEFF"/>
<stop offset="0.23" stop-color="#AAADF8"/>
<stop offset="0.68" stop-color="#7C83E5"/>
<stop offset="1" stop-color="#5761D7"/>
</linearGradient>
<linearGradient id="paint19_linear_180_1641" x1="179.649" y1="158.945" x2="253.557" y2="158.945" gradientUnits="userSpaceOnUse">
<stop stop-color="#E9E9FD"/>
<stop offset="0.36" stop-color="#D3D2F9"/>
<stop offset="0.71" stop-color="#C5C4F7"/>
<stop offset="1" stop-color="#C0BFF6"/>
</linearGradient>
<linearGradient id="paint20_linear_180_1641" x1="180.783" y1="158.945" x2="252.422" y2="158.945" gradientUnits="userSpaceOnUse">
<stop stop-color="#E9E9FD"/>
<stop offset="0.36" stop-color="#D3D2F9"/>
<stop offset="0.71" stop-color="#C5C4F7"/>
<stop offset="1" stop-color="#C0BFF6"/>
</linearGradient>
<linearGradient id="paint21_linear_180_1641" x1="8.53895" y1="175.348" x2="67.1741" y2="209.199" gradientUnits="userSpaceOnUse">
<stop stop-color="#BCBEFF"/>
<stop offset="0.23" stop-color="#AAADF8"/>
<stop offset="0.68" stop-color="#7C83E5"/>
<stop offset="1" stop-color="#5761D7"/>
</linearGradient>
<linearGradient id="paint22_linear_180_1641" x1="1.18234" y1="188.15" x2="75.0905" y2="188.15" gradientUnits="userSpaceOnUse">
<stop stop-color="#E9E9FD"/>
<stop offset="0.36" stop-color="#D3D2F9"/>
<stop offset="0.71" stop-color="#C5C4F7"/>
<stop offset="1" stop-color="#C0BFF6"/>
</linearGradient>
<linearGradient id="paint23_linear_180_1641" x1="20.7382" y1="0" x2="20.7382" y2="41.4765" gradientUnits="userSpaceOnUse">
<stop stop-color="#0F054C"/>
<stop offset="1" stop-color="#1F0E31"/>
</linearGradient>
<linearGradient id="paint24_linear_180_1641" x1="13.3679" y1="0" x2="13.3679" y2="26.7357" gradientUnits="userSpaceOnUse">
<stop stop-color="#41AFFF"/>
<stop offset="1" stop-color="#1D71B8"/>
</linearGradient>
<linearGradient id="paint25_linear_180_1641" x1="13.3679" y1="0" x2="13.3679" y2="26.7357" gradientUnits="userSpaceOnUse">
<stop stop-color="#41AFFF"/>
<stop offset="1" stop-color="#1D71B8" stop-opacity="0"/>
</linearGradient>
<linearGradient id="paint26_linear_180_1641" x1="13.3679" y1="0" x2="13.3679" y2="26.7357" gradientUnits="userSpaceOnUse">
<stop stop-color="#41AFFF"/>
<stop offset="1" stop-color="#1D71B8" stop-opacity="0"/>
</linearGradient>
<linearGradient id="paint27_linear_180_1641" x1="13.3679" y1="0" x2="13.3679" y2="26.7357" gradientUnits="userSpaceOnUse">
<stop stop-color="#41AFFF"/>
<stop offset="1" stop-color="#1D71B8" stop-opacity="0"/>
</linearGradient>
<linearGradient id="paint28_linear_180_1641" x1="13.3679" y1="0" x2="13.3679" y2="26.7357" gradientUnits="userSpaceOnUse">
<stop stop-color="#41AFFF"/>
<stop offset="1" stop-color="#1D71B8" stop-opacity="0"/>
</linearGradient>
<linearGradient id="paint29_linear_180_1641" x1="10.0126" y1="104.477" x2="68.6478" y2="138.327" gradientUnits="userSpaceOnUse">
<stop stop-color="#BCBEFF"/>
<stop offset="0.23" stop-color="#AAADF8"/>
<stop offset="0.68" stop-color="#7C83E5"/>
<stop offset="1" stop-color="#5761D7"/>
</linearGradient>
<linearGradient id="paint30_linear_180_1641" x1="2.65555" y1="117.279" x2="76.5637" y2="117.279" gradientUnits="userSpaceOnUse">
<stop stop-color="#E9E9FD"/>
<stop offset="0.36" stop-color="#D3D2F9"/>
<stop offset="0.71" stop-color="#C5C4F7"/>
<stop offset="1" stop-color="#C0BFF6"/>
</linearGradient>
<linearGradient id="paint31_linear_180_1641" x1="3.79032" y1="117.279" x2="75.4284" y2="117.279" gradientUnits="userSpaceOnUse">
<stop stop-color="#E9E9FD"/>
<stop offset="0.36" stop-color="#D3D2F9"/>
<stop offset="0.71" stop-color="#C5C4F7"/>
<stop offset="1" stop-color="#C0BFF6"/>
</linearGradient>
<linearGradient id="paint32_linear_180_1641" x1="268.864" y1="44.1318" x2="327.499" y2="77.9825" gradientUnits="userSpaceOnUse">
<stop stop-color="#BCBEFF"/>
<stop offset="0.23" stop-color="#AAADF8"/>
<stop offset="0.68" stop-color="#7C83E5"/>
<stop offset="1" stop-color="#5761D7"/>
</linearGradient>
<linearGradient id="paint33_linear_180_1641" x1="261.509" y1="56.9336" x2="335.417" y2="56.9336" gradientUnits="userSpaceOnUse">
<stop stop-color="#E9E9FD"/>
<stop offset="0.36" stop-color="#D3D2F9"/>
<stop offset="0.71" stop-color="#C5C4F7"/>
<stop offset="1" stop-color="#C0BFF6"/>
</linearGradient>
<linearGradient id="paint34_linear_180_1641" x1="20.7382" y1="0" x2="20.7382" y2="41.4765" gradientUnits="userSpaceOnUse">
<stop stop-color="#0F054C"/>
<stop offset="1" stop-color="#1F0E31"/>
</linearGradient>
<linearGradient id="paint35_linear_180_1641" x1="270.338" y1="26.8904" x2="328.973" y2="60.741" gradientUnits="userSpaceOnUse">
<stop stop-color="#BCBEFF"/>
<stop offset="0.23" stop-color="#AAADF8"/>
<stop offset="0.68" stop-color="#7C83E5"/>
<stop offset="1" stop-color="#5761D7"/>
</linearGradient>
<linearGradient id="paint36_linear_180_1641" x1="262.982" y1="39.6922" x2="336.89" y2="39.6922" gradientUnits="userSpaceOnUse">
<stop stop-color="#E9E9FD"/>
<stop offset="0.36" stop-color="#D3D2F9"/>
<stop offset="0.71" stop-color="#C5C4F7"/>
<stop offset="1" stop-color="#C0BFF6"/>
</linearGradient>
<linearGradient id="paint37_linear_180_1641" x1="264.116" y1="39.6921" x2="335.755" y2="39.6921" gradientUnits="userSpaceOnUse">
<stop stop-color="#E9E9FD"/>
<stop offset="0.36" stop-color="#D3D2F9"/>
<stop offset="0.71" stop-color="#C5C4F7"/>
<stop offset="1" stop-color="#C0BFF6"/>
</linearGradient>
<linearGradient id="paint38_linear_180_1641" x1="310.77" y1="34.7126" x2="300.092" y2="53.2082" gradientUnits="userSpaceOnUse">
<stop stop-color="#41AFFF"/>
<stop offset="1" stop-color="#1D71B8"/>
</linearGradient>
<linearGradient id="paint39_linear_180_1641" x1="310.77" y1="31.5644" x2="300.092" y2="50.06" gradientUnits="userSpaceOnUse">
<stop stop-color="#1D71B8" stop-opacity="0"/>
<stop offset="1" stop-color="#41AFFF"/>
</linearGradient>
<linearGradient id="paint40_linear_180_1641" x1="310.77" y1="28.4162" x2="300.092" y2="46.9118" gradientUnits="userSpaceOnUse">
<stop stop-color="#1D71B8" stop-opacity="0"/>
<stop offset="1" stop-color="#41AFFF"/>
</linearGradient>
<linearGradient id="paint41_linear_180_1641" x1="310.77" y1="25.268" x2="300.092" y2="43.7637" gradientUnits="userSpaceOnUse">
<stop stop-color="#1D71B8" stop-opacity="0"/>
<stop offset="1" stop-color="#41AFFF"/>
</linearGradient>
<linearGradient id="paint42_linear_180_1641" x1="310.77" y1="22.1198" x2="300.092" y2="40.6155" gradientUnits="userSpaceOnUse">
<stop stop-color="#1D71B8" stop-opacity="0"/>
<stop offset="1" stop-color="#41AFFF"/>
</linearGradient>
</defs>
</svg>
