<svg width="60" height="68" viewBox="0 0 60 68" fill="none" xmlns="http://www.w3.org/2000/svg">
<path d="M27.0624 0.787217L2.93764 14.6578C2.04582 15.1723 1.30514 15.9108 0.789637 16.7997C0.274136 17.6885 0.00187222 18.6965 0 19.723V47.5056C0.00187222 48.5321 0.274136 49.5401 0.789637 50.429C1.30514 51.3178 2.04582 52.0564 2.93764 52.5708L27.0624 66.4415C27.9548 66.9571 28.9682 67.2287 30 67.2287C31.0318 67.2287 32.0452 66.9571 32.9376 66.4415L57.0624 52.5708C57.9542 52.0564 58.6949 51.3178 59.2104 50.429C59.7259 49.5401 59.9981 48.5321 60 47.5056V19.723C59.9981 18.6965 59.7259 17.6885 59.2104 16.7997C58.6949 15.9108 57.9542 15.1723 57.0624 14.6578L32.9376 0.787217C32.0452 0.271573 31.0318 0 30 0C28.9682 0 27.9548 0.271573 27.0624 0.787217ZM21.1663 41.985H16.2748L9.97688 32.7862V41.985H5.08543V25.2229H9.93531L16.2748 34.4976V25.2229H21.1732L21.1663 41.985ZM37.4965 28.8321H29.8753V31.758H36.3672V35.1394H29.8476V41.985H24.6235V25.2229H37.4757L37.4965 28.8321ZM54.9215 29.3703H49.6213V41.985H44.418V29.3634H39.1386V25.2229H54.9423L54.9215 29.3703Z" fill="white"/>
</svg>
