<svg width="60" height="60" viewBox="0 0 60 60" fill="none" xmlns="http://www.w3.org/2000/svg">
<path d="M39.8886 29.4078C39.9783 30.2225 39.8438 31.0902 38.8295 31.2409C37.6604 31.4161 37.3915 30.524 37.2245 29.5463C36.4994 25.3098 34.7804 23.6355 30.3564 22.8452C29.4195 22.6782 28.6781 22.3238 28.8003 21.3339C28.9225 20.3441 29.7535 20.1526 30.6783 20.1689C35.2325 20.2381 39.7787 24.7354 39.8886 29.4078Z" fill="#FEFEFE"/>
<path d="M31.2933 15.7274C24.0994 14.9982 17.4146 20.1106 15.9725 27.3412C15.1578 31.4148 16.1681 35.0403 18.3026 38.4499C20.8853 42.5805 23.0687 46.6623 22.6003 51.9498C22.2255 56.1497 25.9284 59.2823 30.0142 59.2823C34.2141 59.2823 37.7296 56.1008 37.5137 51.7543C37.2978 47.4077 38.2877 43.546 40.8378 40.0264C41.5488 38.9685 42.1845 37.8618 42.7401 36.7146C43.8329 34.6605 44.4023 32.3687 44.3981 30.042C44.3876 26.4529 43.0387 22.9967 40.6151 20.3494C38.1915 17.702 34.8676 16.0539 31.2933 15.7274V15.7274ZM26.4457 54.7484C28.5885 54.6424 30.5601 55.2046 32.6946 55.4694C30.6334 57.3351 28.2544 57.0336 26.4457 54.7484ZM34.9596 52.1698C34.8659 53.2819 34.1041 52.9478 33.6071 52.9519C31.0448 52.5975 28.6088 52.2512 26.1687 51.9294C25.3825 51.8235 24.967 51.4936 25.0566 50.6177C25.1666 49.5993 25.8184 49.9619 26.3683 50.0393C28.8125 50.3937 31.2363 50.7603 33.6723 51.1025C34.3404 51.1962 35.0451 51.1269 34.9596 52.1698ZM40.7522 34.7837C39.245 37.6352 37.587 40.3645 36.0431 43.1834C35.6358 43.8922 35.1673 44.1611 34.4137 43.9981C33.5256 43.7985 33.823 43.049 33.8434 42.5235C33.9412 40.0793 35.2651 37.9896 35.9128 35.7002C36.1898 34.7063 36.9271 33.5575 35.5054 33.032C34.0837 32.5065 33.8108 33.8223 33.5094 34.804C32.6946 37.4926 31.0652 39.9653 31.2811 42.9512C31.3544 43.8882 30.8737 44.0715 30.059 44.0715C29.2443 44.0715 28.7718 43.8759 28.8369 42.9512C29.008 39.8349 27.289 37.2482 26.4498 34.3967C26.1769 33.4842 25.7492 32.5962 24.5841 33.0402C23.4191 33.4842 23.6676 34.3559 24.0179 35.2929C24.7959 37.3908 25.5903 39.4927 26.181 41.6477C26.3806 42.3728 26.8205 43.5623 25.7043 44.0022C24.5882 44.4422 24.1768 43.4441 23.7327 42.6498C22.3029 40.1119 20.7305 37.6474 19.4432 35.0362C18.4294 32.9323 18.0789 30.5699 18.4383 28.2623C18.7976 25.9547 19.8499 23.8107 21.4556 22.1148C23.0556 20.3674 25.152 19.1514 27.4632 18.63C29.7745 18.1086 32.1899 18.3069 34.3852 19.1981C38.8417 20.9783 41.7176 25.2107 41.7176 30.2661C41.809 31.8314 41.4754 33.3924 40.7522 34.7837V34.7837Z" fill="#FEFEFE"/>
<path d="M9.58516 8.43575C10.2736 8.37058 10.685 8.84311 11.1087 9.25047C12.9663 11.0999 14.8197 12.952 16.6691 14.8069C17.3494 15.4871 17.9279 16.2774 17.0765 17.1207C16.2251 17.9639 15.4471 17.3488 14.7709 16.6726L9.06782 10.9695C8.5627 10.4644 8.2083 9.90225 8.53826 9.17307C8.62079 8.96076 8.76416 8.77753 8.95041 8.64636C9.13665 8.5152 9.35745 8.44193 9.58516 8.43575V8.43575Z" fill="#F8F9FB"/>
<path d="M51.5837 9.69086C51.6163 10.2815 51.2293 10.6604 50.8627 11.027C48.9617 12.928 47.0607 14.8358 45.1597 16.7504C44.4631 17.4429 43.6565 17.9399 42.854 17.0396C42.1615 16.2656 42.6259 15.512 43.2614 14.8806C45.2249 12.9253 47.1856 10.97 49.1436 9.01464C49.6651 8.49322 50.2476 8.22436 50.9523 8.60728C51.1519 8.70645 51.3181 8.86193 51.4303 9.0545C51.5425 9.24707 51.5959 9.4683 51.5837 9.69086Z" fill="#F8F9FB"/>
<path d="M16.0501 42.5977C16.2885 42.5586 16.533 42.5931 16.7513 42.6964C16.9696 42.7997 17.1513 42.967 17.2722 43.1761C17.4202 43.398 17.4916 43.6623 17.4754 43.9285C17.4593 44.1948 17.3564 44.4484 17.1826 44.6508C14.9856 46.9021 12.7654 49.1263 10.5223 51.3233C10.3079 51.5374 10.02 51.6617 9.71722 51.6708C9.41442 51.6799 9.11957 51.5731 8.89282 51.3722C8.34695 50.9648 8.14734 50.2357 8.58322 49.7794C10.8522 47.3964 13.1986 45.0866 15.5287 42.7688C15.6631 42.6343 15.9401 42.6343 16.0501 42.5977Z" fill="#F8F9FB"/>
<path d="M51.5762 50.2516C51.6073 50.4935 51.5653 50.739 51.4557 50.9568C51.3461 51.1746 51.1738 51.3546 50.9611 51.4737C50.7393 51.6228 50.4735 51.6923 50.2072 51.6708C49.9408 51.6493 49.6896 51.5382 49.4946 51.3556C47.25 49.1558 45.0136 46.9439 42.8261 44.6912C42.6177 44.4654 42.502 44.1695 42.502 43.8622C42.502 43.555 42.6177 43.259 42.8261 43.0332C43.262 42.4874 43.9912 42.3448 44.4311 42.7644C46.8019 45.0415 49.1035 47.392 51.4132 49.7343C51.5395 49.8687 51.5436 50.1579 51.5762 50.2516Z" fill="#F8F9FB"/>
<path d="M31.3352 6.11824C31.3352 7.53992 31.3352 8.96976 31.3352 10.3833C31.3352 11.1613 30.9278 11.6909 30.1131 11.7357C29.2047 11.7887 28.7158 11.2428 28.7077 10.3589C28.686 7.37155 28.686 4.37746 28.7077 1.37658C28.6938 1.20535 28.7148 1.03309 28.7694 0.870204C28.824 0.707316 28.911 0.557183 29.0252 0.428872C29.1394 0.300561 29.2785 0.196736 29.4339 0.123672C29.5894 0.050609 29.7581 0.00982188 29.9298 0.00377567C30.8219 -0.0532546 31.3107 0.54149 31.3311 1.40102C31.3352 2.97343 31.3352 4.53361 31.3352 6.11824Z" fill="#F8F9FB"/>
<path d="M5.76007 31.3501C4.33838 31.3501 2.90856 31.3501 1.49909 31.3501C0.627343 31.3501 0 30.9142 0 30.0425C0 29.1707 0.627339 28.7267 1.49501 28.7227C4.40628 28.7227 7.32161 28.7227 10.241 28.7227C11.1005 28.7227 11.7157 29.13 11.7197 30.0425C11.7238 30.955 11.1128 31.3501 10.2451 31.3583C8.75009 31.3623 7.25508 31.3542 5.76007 31.3501Z" fill="#F8F9FB"/>
<path d="M54.0603 31.3542H49.7952C48.9316 31.3542 48.3084 30.9876 48.2839 30.071C48.2595 29.1545 48.8542 28.7267 49.7219 28.7227C52.6345 28.7227 55.5512 28.7227 58.4679 28.7227C59.3315 28.7227 59.9955 29.13 59.9996 30.0058C59.9996 31.012 59.2663 31.3746 58.3213 31.3664C56.8996 31.346 55.4779 31.3542 54.0603 31.3542Z" fill="#F8F9FB"/>
<path d="M38.8295 31.2409C37.6604 31.4161 37.3915 30.524 37.2245 29.5463C36.4994 25.3098 34.7804 23.6355 30.3564 22.8452C29.4195 22.6782 28.6781 22.3238 28.8003 21.3339C28.9225 20.3441 29.7535 20.1526 30.6783 20.1689C35.2325 20.2381 39.7787 24.7354 39.8886 29.4078C39.9783 30.1981 39.8438 31.0902 38.8295 31.2409Z" fill="#003975"/>
<path d="M38.8295 31.2409C37.6604 31.4161 37.3915 30.524 37.2245 29.5463C36.4994 25.3098 34.7804 23.6355 30.3564 22.8452C29.4195 22.6782 28.6781 22.3238 28.8003 21.3339C28.9225 20.3441 29.7535 20.1526 30.6783 20.1689C35.2325 20.2381 39.7787 24.7354 39.8886 29.4078C39.9783 30.1981 39.8438 31.0902 38.8295 31.2409Z" fill="#FAFBFC"/>
</svg>
