<svg width="427" height="318" viewBox="0 0 427 318" fill="none" xmlns="http://www.w3.org/2000/svg">
<path d="M304.418 248.636C307.329 248.707 310.21 248.04 312.793 246.698L422.938 183.107C425.163 181.803 426.359 180.032 426.359 178.046C426.359 175.713 424.613 173.356 421.574 171.597L211.538 50.3497C205.831 47.0595 197.181 46.7006 192.192 49.5601L82.0471 113.151C79.8457 114.431 78.6253 116.202 78.6253 118.152C78.6253 120.485 80.3722 122.842 83.4111 124.601L293.494 245.884C296.844 247.711 300.603 248.658 304.418 248.636ZM312.602 246.243C307.816 249.019 299.309 248.636 293.734 245.442L83.6624 124.206C80.755 122.531 79.092 120.342 79.092 118.224C79.092 116.453 80.2884 114.826 82.2865 113.642L192.431 50.0267C197.217 47.2509 205.723 47.6338 211.299 50.8163L421.382 172.064C424.278 173.739 425.941 175.928 425.941 178.046C425.941 179.817 424.804 181.444 422.746 182.628L312.602 246.243Z" fill="#41AFFF"/>
<path d="M78.8646 88.7794L94.6816 91.4953L192.311 35.1309C197.217 32.3073 205.771 32.6543 211.454 35.9206L398.207 143.756L426.168 148.542V158.46C426.168 160.267 425.115 162.05 422.878 163.246L312.697 226.909C307.804 229.744 299.249 229.385 293.554 226.119L83.5427 104.836C80.4917 103.077 78.9244 100.828 78.8766 98.6979L78.8646 88.7794Z" fill="url(#paint0_linear_180_1478)"/>
<path d="M312.698 216.93L422.842 153.328C427.748 150.504 427.125 145.563 421.478 142.296L211.419 21.013C205.772 17.7467 197.217 17.4237 192.276 20.2234L82.1311 83.8143C77.2377 86.6499 77.8479 91.5792 83.5071 94.8455L293.555 216.141C299.274 219.395 307.828 219.754 312.698 216.93Z" fill="#C7C6F8"/>
<path d="M83.5435 94.8453L293.555 216.141C299.214 219.395 307.769 219.73 312.698 216.93L422.843 153.327C423.669 152.928 424.393 152.343 424.957 151.619C425.521 150.895 425.911 150.051 426.097 149.152C426.396 151.186 425.343 153.184 422.843 154.62L312.698 218.211C307.805 221.046 299.25 220.687 293.555 217.421L83.5435 96.1375C80.1576 94.1753 78.5902 91.6269 78.9252 89.2819C79.2124 91.244 80.7677 93.2421 83.5435 94.8453Z" fill="white"/>
<path d="M312.507 214.466L418.727 153.124C423.513 150.384 422.866 145.598 417.399 142.44L211.228 23.4417C205.748 20.2831 197.469 19.9361 192.731 22.676L86.5106 84.0176C81.7248 86.7574 82.3589 91.5312 87.8386 94.6898L294.01 213.7C299.537 216.859 307.769 217.194 312.507 214.466Z" fill="url(#paint1_linear_180_1478)"/>
<path style="mix-blend-mode:lighten" opacity="0.8" d="M304.478 213.939C307.337 214.013 310.166 213.354 312.698 212.025L418.918 150.671C419.873 150.231 420.691 149.54 421.285 148.672C421.879 147.804 422.227 146.792 422.292 145.742C422.292 143.445 420.581 141.136 417.59 139.413L211.419 20.4026C205.856 17.1962 197.409 16.8133 192.587 19.6369L86.3669 80.9785C85.4104 81.4217 84.5911 82.1145 83.9952 82.9841C83.3994 83.8537 83.049 84.8679 82.981 85.9198C82.981 88.217 84.6919 90.5261 87.683 92.249L293.842 211.259C297.103 213.039 300.763 213.961 304.478 213.939ZM312.327 211.463C307.697 214.143 299.549 213.796 294.189 210.697L88.006 91.6628C85.2422 90.0595 83.651 87.9657 83.651 85.9198C83.7209 84.9913 84.0386 84.0986 84.571 83.3347C85.1034 82.5708 85.8311 81.9637 86.678 81.5767L192.898 20.2352C197.54 17.5551 205.688 17.8422 211.048 21.0009L417.231 139.999C419.995 141.602 421.586 143.696 421.586 145.742C421.516 146.67 421.199 147.563 420.666 148.327C420.134 149.091 419.406 149.698 418.559 150.085L312.327 211.463Z" fill="url(#paint2_linear_180_1478)"/>
<path style="mix-blend-mode:lighten" opacity="0.3" d="M304.478 205.07C307.337 205.144 310.166 204.485 312.698 203.156L418.918 141.802C419.873 141.362 420.691 140.671 421.285 139.803C421.879 138.935 422.227 137.923 422.292 136.873C422.292 134.576 420.581 132.267 417.59 130.544L211.419 11.5336C205.856 8.32715 197.409 7.94431 192.587 10.7679L86.3669 72.1095C85.4104 72.5526 84.5911 73.2455 83.9952 74.1151C83.3994 74.9847 83.049 75.9988 82.981 77.0508C82.981 79.348 84.6919 81.6571 87.683 83.38L293.842 202.39C297.103 204.17 300.763 205.092 304.478 205.07ZM312.327 202.594C307.697 205.274 299.549 204.927 294.189 201.828L88.006 82.7937C85.2422 81.1905 83.651 79.0967 83.651 77.0508C83.7209 76.1223 84.0386 75.2296 84.571 74.4657C85.1034 73.7018 85.8311 73.0947 86.678 72.7077L192.898 11.3661C197.54 8.6861 205.688 8.97323 211.048 12.1318L417.231 131.13C419.995 132.733 421.586 134.827 421.586 136.873C421.516 137.801 421.199 138.694 420.666 139.458C420.134 140.222 419.406 140.829 418.559 141.216L312.327 202.594Z" fill="url(#paint3_linear_180_1478)"/>
<path style="mix-blend-mode:lighten" opacity="0.2" d="M304.478 196.201C307.337 196.275 310.166 195.616 312.698 194.287L418.918 132.933C419.873 132.493 420.691 131.802 421.285 130.934C421.879 130.066 422.227 129.054 422.292 128.004C422.292 125.707 420.581 123.398 417.59 121.675L211.419 2.6646C205.856 -0.54187 197.409 -0.924712 192.587 1.89889L86.3669 63.2405C85.4104 63.6836 84.5911 64.3765 83.9952 65.2461C83.3994 66.1157 83.049 67.1298 82.981 68.1818C82.981 70.479 84.6919 72.7881 87.683 74.511L293.842 193.521C297.103 195.3 300.763 196.223 304.478 196.201ZM312.327 193.725C307.697 196.405 299.549 196.058 294.189 192.959L88.006 73.9247C85.2422 72.3215 83.651 70.2277 83.651 68.1818C83.7209 67.2533 84.0386 66.3605 84.571 65.5966C85.1034 64.8327 85.8311 64.2257 86.678 63.8387L192.898 2.49711C197.54 -0.182918 205.688 0.104209 211.048 3.26282L417.231 122.261C419.995 123.864 421.586 125.958 421.586 128.004C421.516 128.932 421.199 129.825 420.666 130.589C420.134 131.353 419.406 131.96 418.559 132.347L312.327 193.725Z" fill="url(#paint4_linear_180_1478)"/>
<g opacity="0.1">
<path style="mix-blend-mode:lighten" d="M312.507 211.726L418.727 150.384C423.513 147.644 422.866 142.859 417.399 139.7L211.228 20.7018C205.748 17.5432 197.469 17.1963 192.731 19.9361L86.5106 81.2777C81.7248 84.0176 82.3589 88.7914 87.8386 91.95L294.01 210.96C299.537 214.119 307.769 214.466 312.507 211.726Z" fill="url(#paint5_radial_180_1478)"/>
</g>
<path d="M304.418 248.636C307.329 248.707 310.21 248.04 312.793 246.698L422.938 183.107C425.163 181.803 426.359 180.032 426.359 178.046C426.359 175.713 424.613 173.356 421.574 171.597L211.538 50.3497C205.831 47.0595 197.181 46.7006 192.192 49.5601L82.0471 113.151C79.8457 114.431 78.6253 116.202 78.6253 118.152C78.6253 120.485 80.3722 122.842 83.4111 124.601L293.494 245.884C296.844 247.711 300.603 248.658 304.418 248.636ZM312.602 246.243C307.816 249.019 299.309 248.636 293.734 245.442L83.6624 124.206C80.755 122.531 79.092 120.342 79.092 118.224C79.092 116.453 80.2884 114.826 82.2865 113.642L192.431 50.0267C197.217 47.2509 205.723 47.6338 211.299 50.8163L421.382 172.064C424.278 173.739 425.941 175.928 425.941 178.046C425.941 179.817 424.804 181.444 422.746 182.628L312.602 246.243Z" fill="#41AFFF"/>
<path d="M78.8646 88.7794L94.6816 91.4953L192.311 35.1309C197.217 32.3073 205.771 32.6543 211.454 35.9206L398.207 143.756L426.168 148.542V158.46C426.168 160.267 425.115 162.05 422.878 163.246L312.697 226.909C307.804 229.744 299.249 229.385 293.554 226.119L83.5427 104.836C80.4917 103.077 78.9244 100.828 78.8766 98.6979L78.8646 88.7794Z" fill="url(#paint6_linear_180_1478)"/>
<path d="M312.698 216.93L422.842 153.328C427.748 150.504 427.125 145.563 421.478 142.296L211.419 21.013C205.772 17.7467 197.217 17.4237 192.276 20.2234L82.1311 83.8143C77.2377 86.6499 77.8479 91.5792 83.5071 94.8455L293.555 216.141C299.274 219.395 307.828 219.754 312.698 216.93Z" fill="#C7C6F8"/>
<path d="M83.5435 94.8453L293.555 216.141C299.214 219.395 307.769 219.73 312.698 216.93L422.843 153.327C423.669 152.928 424.393 152.343 424.957 151.619C425.521 150.895 425.911 150.051 426.097 149.152C426.396 151.186 425.343 153.184 422.843 154.62L312.698 218.211C307.805 221.046 299.25 220.687 293.555 217.421L83.5435 96.1375C80.1576 94.1753 78.5902 91.6269 78.9252 89.2819C79.2124 91.244 80.7677 93.2421 83.5435 94.8453Z" fill="white"/>
<path d="M312.507 214.466L418.727 153.124C423.513 150.384 422.866 145.598 417.399 142.44L211.228 23.4417C205.748 20.2831 197.469 19.9361 192.731 22.676L86.5106 84.0176C81.7248 86.7574 82.3589 91.5312 87.8386 94.6898L294.01 213.7C299.537 216.859 307.769 217.194 312.507 214.466Z" fill="url(#paint7_linear_180_1478)"/>
<path style="mix-blend-mode:lighten" opacity="0.8" d="M304.478 213.939C307.337 214.013 310.166 213.354 312.698 212.025L418.918 150.671C419.873 150.231 420.691 149.54 421.285 148.672C421.879 147.804 422.227 146.792 422.292 145.742C422.292 143.445 420.581 141.136 417.59 139.413L211.419 20.4026C205.856 17.1962 197.409 16.8133 192.587 19.6369L86.3669 80.9785C85.4104 81.4217 84.5911 82.1145 83.9952 82.9841C83.3994 83.8537 83.049 84.8679 82.981 85.9198C82.981 88.217 84.6919 90.5261 87.683 92.249L293.842 211.259C297.103 213.039 300.763 213.961 304.478 213.939ZM312.327 211.463C307.697 214.143 299.549 213.796 294.189 210.697L88.006 91.6628C85.2422 90.0595 83.651 87.9657 83.651 85.9198C83.7209 84.9913 84.0386 84.0986 84.571 83.3347C85.1034 82.5708 85.8311 81.9637 86.678 81.5767L192.898 20.2352C197.54 17.5551 205.688 17.8422 211.048 21.0009L417.231 139.999C419.995 141.602 421.586 143.696 421.586 145.742C421.516 146.67 421.199 147.563 420.666 148.327C420.134 149.091 419.406 149.698 418.559 150.085L312.327 211.463Z" fill="url(#paint8_linear_180_1478)"/>
<path style="mix-blend-mode:lighten" opacity="0.3" d="M304.478 205.07C307.337 205.144 310.166 204.485 312.698 203.156L418.918 141.802C419.873 141.362 420.691 140.671 421.285 139.803C421.879 138.935 422.227 137.923 422.292 136.873C422.292 134.576 420.581 132.267 417.59 130.544L211.419 11.5336C205.856 8.32715 197.409 7.94431 192.587 10.7679L86.3669 72.1095C85.4104 72.5526 84.5911 73.2455 83.9952 74.1151C83.3994 74.9847 83.049 75.9988 82.981 77.0508C82.981 79.348 84.6919 81.6571 87.683 83.38L293.842 202.39C297.103 204.17 300.763 205.092 304.478 205.07ZM312.327 202.594C307.697 205.274 299.549 204.927 294.189 201.828L88.006 82.7937C85.2422 81.1905 83.651 79.0967 83.651 77.0508C83.7209 76.1223 84.0386 75.2296 84.571 74.4657C85.1034 73.7018 85.8311 73.0947 86.678 72.7077L192.898 11.3661C197.54 8.6861 205.688 8.97323 211.048 12.1318L417.231 131.13C419.995 132.733 421.586 134.827 421.586 136.873C421.516 137.801 421.199 138.694 420.666 139.458C420.134 140.222 419.406 140.829 418.559 141.216L312.327 202.594Z" fill="url(#paint9_linear_180_1478)"/>
<path style="mix-blend-mode:lighten" opacity="0.2" d="M304.478 196.201C307.337 196.275 310.166 195.616 312.698 194.287L418.918 132.933C419.873 132.493 420.691 131.802 421.285 130.934C421.879 130.066 422.227 129.054 422.292 128.004C422.292 125.707 420.581 123.398 417.59 121.675L211.419 2.6646C205.856 -0.54187 197.409 -0.924712 192.587 1.89889L86.3669 63.2405C85.4104 63.6836 84.5911 64.3765 83.9952 65.2461C83.3994 66.1157 83.049 67.1298 82.981 68.1818C82.981 70.479 84.6919 72.7881 87.683 74.511L293.842 193.521C297.103 195.3 300.763 196.223 304.478 196.201ZM312.327 193.725C307.697 196.405 299.549 196.058 294.189 192.959L88.006 73.9247C85.2422 72.3215 83.651 70.2277 83.651 68.1818C83.7209 67.2533 84.0386 66.3605 84.571 65.5966C85.1034 64.8327 85.8311 64.2257 86.678 63.8387L192.898 2.49711C197.54 -0.182918 205.688 0.104209 211.048 3.26282L417.231 122.261C419.995 123.864 421.586 125.958 421.586 128.004C421.516 128.932 421.199 129.825 420.666 130.589C420.134 131.353 419.406 131.96 418.559 132.347L312.327 193.725Z" fill="url(#paint10_linear_180_1478)"/>
<g opacity="0.1">
<path style="mix-blend-mode:lighten" d="M312.507 211.726L418.727 150.384C423.513 147.644 422.866 142.859 417.399 139.7L211.228 20.7018C205.748 17.5432 197.469 17.1963 192.731 19.9361L86.5106 81.2777C81.7248 84.0176 82.3589 88.7914 87.8386 91.95L294.01 210.96C299.537 214.119 307.769 214.466 312.507 211.726Z" fill="url(#paint11_radial_180_1478)"/>
</g>
<g filter="url(#filter0_d_180_1478)">
<path d="M277.255 179.308C305.498 163.118 374.795 123.391 387.308 116.186L223.395 21.6674C210.882 28.8719 141.585 68.5993 113.343 84.7893C105.903 89.0542 101.358 96.9488 101.358 105.524V137.722C101.358 137.722 102.197 144.818 99.5634 148.957C97.3694 152.405 92.3848 155.669 92.3848 155.669L20 192.627L183.913 287.146L256.297 250.188C256.297 250.188 261.282 246.924 263.476 243.476C266.11 239.337 265.271 232.241 265.271 232.241V200.043C265.271 191.468 269.816 183.573 277.255 179.308Z" fill="#E4F4FF"/>
</g>
<path d="M129.842 217.208C133.252 215.007 134.903 211.906 139.325 210.151C141.6 209.247 155.961 209.018 152.919 211.828C149.761 214.745 144.981 217.589 138.694 217.762C132.843 217.923 128.905 218.888 124.799 221.259C121.988 222.881 120.391 224.118 125.292 224.392C131.261 224.726 134.31 222.042 138.968 220.768C143.585 219.506 142.433 222.699 141.791 224.55C141.19 226.285 149.294 223.168 150.808 224.819C152.452 226.611 150.089 228.304 154.289 225.879C157.814 223.844 158.31 222.59 161.908 224.898C166.272 227.698 161.546 230.322 158.071 232.241C156.561 233.075 154.722 233.723 153.138 234.519C152.663 234.758 152.098 234.892 151.607 234.963M151.607 234.963C150.442 235.131 149.701 234.944 151.607 234.963ZM151.607 234.963C151.941 234.966 152.356 234.975 152.864 234.994C156.878 235.142 160.71 235.466 164.704 235.722C167.237 235.884 165.334 236.475 164.43 237.146C162.099 238.876 170.077 239.212 171.282 239.994C172.062 240.501 171.171 241.41 171.227 241.988C171.288 242.622 173.277 243.425 173.995 243.839L180.162 247.4M107.594 208.099L187.514 254.242" stroke="#1F0E31" stroke-linecap="round"/>
<path d="M228.418 61.6786C227.896 61.3769 227.51 61.0544 227.26 60.7109C227.017 60.3716 226.936 60.0381 227.017 59.7103C227.098 59.3826 227.356 59.0892 227.79 58.8301L229.401 59.76C229.125 59.9437 228.998 60.1412 229.019 60.3523C229.047 60.5677 229.233 60.7745 229.576 60.9729C229.927 61.1754 230.282 61.2887 230.641 61.3128C231.007 61.333 231.321 61.2673 231.584 61.116C231.798 60.9925 231.905 60.8516 231.907 60.6934C231.909 60.5352 231.845 60.3743 231.713 60.2106C231.595 60.0471 231.406 59.8341 231.144 59.5717C230.796 59.211 230.533 58.9039 230.356 58.6505C230.193 58.3972 230.136 58.1289 230.183 57.8454C230.244 57.5621 230.502 57.2889 230.958 57.026C231.385 56.7791 231.869 56.628 232.408 56.5729C232.948 56.5178 233.5 56.5581 234.067 56.694C234.64 56.8259 235.185 57.0406 235.7 57.3382C236.473 57.7845 236.917 58.2517 237.031 58.7398C237.159 59.228 236.924 59.6738 236.325 60.0771L234.671 59.1224C234.906 58.9707 234.998 58.7892 234.949 58.5777C234.914 58.3663 234.729 58.1636 234.392 57.9693C234.099 57.7998 233.79 57.7053 233.466 57.6856C233.149 57.6701 232.853 57.742 232.577 57.9013C232.384 58.0128 232.286 58.1436 232.284 58.2937C232.296 58.444 232.357 58.5988 232.468 58.7582C232.592 58.9177 232.782 59.1307 233.036 59.3971C233.385 59.7578 233.644 60.0669 233.814 60.3243C233.984 60.5817 234.042 60.8541 233.988 61.1415C233.934 61.429 233.682 61.7022 233.234 61.9611C232.847 62.1842 232.385 62.3314 231.846 62.4028C231.307 62.4741 230.737 62.4518 230.136 62.3359C229.542 62.216 228.97 61.9969 228.418 61.6786Z" fill="black"/>
<path d="M245.651 64.8279C246.381 65.2494 246.751 65.7138 246.76 66.2211C246.783 66.7284 246.408 67.2052 245.635 67.6513L242.272 69.5933L240.769 68.7253L243.935 66.8969C244.384 66.638 244.607 66.3726 244.606 66.1008C244.611 65.825 244.41 65.5693 244.001 65.3337C243.593 65.0981 243.147 64.9797 242.662 64.9786C242.191 64.9777 241.732 65.1067 241.283 65.3656L238.116 67.194L236.613 66.3261L239.78 64.4976C240.228 64.2387 240.452 63.9733 240.45 63.7015C240.455 63.4257 240.254 63.17 239.846 62.9344C239.431 62.6947 238.981 62.5743 238.496 62.5732C238.025 62.5722 237.565 62.7012 237.117 62.9601L233.95 64.7886L232.447 63.9206L238.18 60.6103L239.683 61.4783L238.99 61.8786C239.425 61.8508 239.862 61.8838 240.3 61.9778C240.746 62.0758 241.151 62.2302 241.517 62.441C241.982 62.7097 242.3 63.0052 242.472 63.3275C242.651 63.6458 242.665 63.9644 242.513 64.2833C243.038 64.2037 243.583 64.2115 244.148 64.3068C244.72 64.4062 245.221 64.5799 245.651 64.8279Z" fill="black"/>
<path d="M246.199 68.5266C246.779 68.192 247.411 67.9634 248.096 67.8409C248.788 67.7225 249.458 67.7114 250.108 67.8075C250.765 67.9078 251.347 68.1047 251.855 68.3982C252.299 68.6544 252.599 68.9274 252.756 69.2171C252.92 69.5109 252.971 69.7914 252.91 70.0585L253.727 69.5865L255.241 70.4606L249.508 73.7709L247.994 72.8967L248.832 72.4128C248.37 72.4565 247.877 72.431 247.354 72.3362C246.845 72.2415 246.369 72.066 245.925 71.8098C245.424 71.5205 245.09 71.1843 244.923 70.8011C244.763 70.4221 244.786 70.0329 244.991 69.6335C245.21 69.2342 245.613 68.8652 246.199 68.5266ZM250.86 71.2416C251.212 71.0385 251.441 70.8238 251.546 70.5978C251.658 70.3677 251.658 70.1446 251.546 69.9284C251.44 69.7082 251.248 69.5175 250.969 69.3563C250.69 69.1951 250.366 69.0842 249.999 69.0235C249.632 68.9628 249.245 68.9627 248.84 69.0233C248.448 69.084 248.08 69.214 247.735 69.4132C247.39 69.6123 247.158 69.8289 247.039 70.063C246.934 70.2972 246.931 70.5223 247.029 70.7383C247.134 70.9585 247.323 71.1472 247.595 71.3042C247.874 71.4654 248.201 71.5784 248.576 71.6433C248.957 71.7041 249.343 71.7042 249.735 71.6434C250.133 71.5787 250.509 71.4448 250.86 71.2416Z" fill="black"/>
<path d="M257.323 72.6901C257.82 72.6265 258.308 72.6337 258.789 72.7118C259.276 72.7941 259.72 72.951 260.121 73.1824L258.6 74.0608L258.202 73.8314C257.73 73.5586 257.265 73.4137 256.808 73.3966C256.358 73.3837 255.867 73.5307 255.336 73.8374L252.479 75.4865L250.976 74.6186L256.71 71.3083L258.213 72.1763L257.323 72.6901Z" fill="black"/>
<path d="M261.611 75.5125L258.837 77.1139C258.644 77.2254 258.549 77.3339 258.553 77.4394C258.57 77.5451 258.693 77.6641 258.922 77.7963L259.62 78.1993L258.399 78.9044L257.454 78.3588C256.187 77.6273 256.147 76.9189 257.334 76.2337L260.097 74.6384L259.388 74.2292L260.578 73.542L261.287 73.9512L262.705 73.1326L264.219 74.0067L262.801 74.8254L264.133 75.5941L262.943 76.2813L261.611 75.5125Z" fill="black"/>
<path d="M265.296 78.7038C266.007 78.2935 266.806 78.0221 267.695 77.8895C268.597 77.7571 269.49 77.7666 270.373 77.918C271.27 78.0696 272.076 78.352 272.792 78.7653C273.63 79.2489 274.157 79.792 274.373 80.3947C274.589 80.9975 274.456 81.5823 273.975 82.1492L272.247 81.151C272.42 80.8527 272.435 80.5628 272.293 80.2813C272.157 80.004 271.886 79.7476 271.478 79.512C271.041 79.2599 270.551 79.0924 270.007 79.0095C269.477 78.9268 268.937 78.9332 268.384 79.0288C267.84 79.1284 267.326 79.3177 266.843 79.5965C266.367 79.8714 266.039 80.1681 265.859 80.4867C265.694 80.8054 265.679 81.1197 265.816 81.4295C265.966 81.7394 266.259 82.0204 266.696 82.2725C267.104 82.5081 267.548 82.665 268.029 82.7431C268.523 82.8214 269.029 82.8106 269.545 82.7106L271.274 83.7087C270.285 83.9903 269.269 84.0687 268.225 83.944C267.195 83.8195 266.258 83.5133 265.413 83.0256C264.697 82.6123 264.205 82.1487 263.935 81.6346C263.68 81.1207 263.664 80.6053 263.886 80.0884C264.116 79.5756 264.586 79.1141 265.296 78.7038Z" fill="black"/>
<path d="M272.83 87.3435C272.257 87.0128 271.863 86.6455 271.646 86.2416C271.436 85.8337 271.423 85.4238 271.607 85.012C271.797 84.6042 272.186 84.2311 272.772 83.8925C273.359 83.5539 274.009 83.3316 274.722 83.2256C275.443 83.1237 276.156 83.1374 276.863 83.2666C277.577 83.3919 278.22 83.6198 278.793 83.9505C279.365 84.2811 279.76 84.6525 279.977 85.0645C280.201 85.4726 280.221 85.8826 280.037 86.2944C279.861 86.7104 279.48 87.0877 278.893 87.4263C278.307 87.7649 277.65 87.983 276.922 88.0808C276.201 88.1826 275.481 88.1689 274.76 88.0395C274.053 87.9103 273.41 87.6783 272.83 87.3435ZM274.093 86.6145C274.365 86.7716 274.681 86.8824 275.041 86.9471C275.416 87.012 275.802 87.012 276.201 86.9473C276.599 86.8826 276.981 86.7446 277.347 86.5335C277.892 86.2188 278.159 85.891 278.148 85.5501C278.151 85.2094 277.938 84.915 277.509 84.667C277.079 84.4191 276.569 84.296 275.979 84.2978C275.403 84.2998 274.842 84.4581 274.297 84.7728C273.752 85.0875 273.471 85.4111 273.453 85.7436C273.45 86.0762 273.663 86.3665 274.093 86.6145Z" fill="black"/>
<path d="M286.242 88.2633C286.951 88.6725 287.306 89.1286 287.308 89.6317C287.317 90.1308 286.935 90.6034 286.162 91.0495L282.799 92.9915L281.295 92.1235L284.462 90.2951C284.918 90.0322 285.148 89.7628 285.153 89.487C285.165 89.2072 284.967 88.9495 284.559 88.714C284.144 88.4742 283.691 88.3558 283.199 88.3587C282.721 88.3617 282.255 88.4947 281.799 88.7576L278.632 90.586L277.129 89.7181L282.863 86.4078L284.366 87.2758L283.652 87.688C284.101 87.6604 284.548 87.6956 284.994 87.7936C285.454 87.8918 285.87 88.0484 286.242 88.2633Z" fill="black"/>
<path d="M290.522 92.2043L287.748 93.8056C287.555 93.9172 287.46 94.0257 287.464 94.1312C287.481 94.2369 287.604 94.3558 287.833 94.4881L288.531 94.8911L287.31 95.5961L286.365 95.0506C285.098 94.319 285.058 93.6107 286.245 92.9255L289.008 91.3301L288.299 90.921L289.489 90.2338L290.198 90.643L291.616 89.8244L293.13 90.6985L291.712 91.5171L293.044 92.2859L291.854 92.973L290.522 92.2043Z" fill="black"/>
<path d="M294.738 94.292C295.235 94.2283 295.724 94.2355 296.204 94.3137C296.692 94.3959 297.136 94.5528 297.537 94.7842L296.015 95.6626L295.618 95.4332C295.145 95.1604 294.681 95.0155 294.223 94.9985C293.773 94.9856 293.283 95.1325 292.751 95.4392L289.895 97.0884L288.391 96.2204L294.125 92.9102L295.628 93.7781L294.738 94.292Z" fill="black"/>
<path d="M295.234 96.8366C295.813 96.502 296.445 96.2735 297.13 96.1509C297.822 96.0325 298.493 96.0214 299.142 96.1176C299.799 96.2179 300.381 96.4147 300.89 96.7082C301.334 96.9644 301.634 97.2374 301.791 97.5271C301.955 97.821 302.006 98.1014 301.944 98.3685L302.762 97.8965L304.276 98.7706L298.542 102.081L297.028 101.207L297.866 100.723C297.404 100.767 296.911 100.741 296.388 100.646C295.879 100.552 295.403 100.376 294.959 100.12C294.458 99.8305 294.124 99.4943 293.957 99.1111C293.798 98.7322 293.82 98.3429 294.025 97.9435C294.244 97.5442 294.647 97.1752 295.234 96.8366ZM299.895 99.5516C300.247 99.3485 300.475 99.1339 300.58 98.9078C300.693 98.6777 300.692 98.4546 300.58 98.2384C300.475 98.0182 300.282 97.8275 300.003 97.6663C299.724 97.5051 299.401 97.3942 299.034 97.3335C298.666 97.2728 298.28 97.2727 297.874 97.3333C297.483 97.3941 297.114 97.524 296.769 97.7232C296.424 97.9224 296.192 98.139 296.073 98.373C295.968 98.6072 295.965 98.8323 296.063 99.0484C296.169 99.2686 296.357 99.4572 296.629 99.6142C296.909 99.7754 297.235 99.8884 297.61 99.9533C297.991 100.014 298.378 100.014 298.769 99.9535C299.168 99.8887 299.543 99.7548 299.895 99.5516Z" fill="black"/>
<path d="M302.491 101.05C303.084 100.708 303.727 100.481 304.419 100.371C305.118 100.257 305.81 100.258 306.495 100.375C307.188 100.488 307.82 100.709 308.393 101.04C309.13 101.466 309.559 101.921 309.68 102.405C309.815 102.889 309.644 103.364 309.167 103.829L307.545 102.893C307.708 102.7 307.754 102.504 307.685 102.304C307.629 102.105 307.451 101.919 307.15 101.745C306.721 101.497 306.229 101.388 305.675 101.419C305.128 101.446 304.578 101.618 304.026 101.937C303.481 102.252 303.182 102.569 303.129 102.889C303.083 103.205 303.275 103.487 303.704 103.735C304.313 104.086 304.972 104.164 305.683 103.969L307.304 104.905C306.518 105.168 305.699 105.265 304.847 105.195C303.994 105.125 303.203 104.879 302.473 104.458C301.9 104.127 301.513 103.764 301.31 103.368C301.115 102.969 301.113 102.569 301.304 102.17C301.502 101.766 301.897 101.393 302.491 101.05Z" fill="black"/>
<path d="M312.764 105.045L309.99 106.647C309.797 106.758 309.702 106.867 309.705 106.972C309.723 107.078 309.846 107.197 310.075 107.329L310.773 107.732L309.552 108.437L308.607 107.892C307.34 107.16 307.3 106.452 308.486 105.767L311.25 104.171L310.541 103.762L311.731 103.075L312.44 103.484L313.858 102.666L315.372 103.54L313.954 104.358L315.285 105.127L314.095 105.814L312.764 105.045Z" fill="black"/>
<path d="M312.816 110.43C312.33 110.149 311.976 109.849 311.755 109.53C311.541 109.207 311.464 108.896 311.525 108.596C311.593 108.301 311.792 108.046 312.122 107.83L313.636 108.704C313.444 108.848 313.372 109.018 313.421 109.213C313.476 109.412 313.651 109.597 313.944 109.766C314.23 109.932 314.508 110.028 314.775 110.055C315.051 110.086 315.274 110.052 315.447 109.953C315.633 109.845 315.671 109.708 315.56 109.54C315.463 109.373 315.255 109.133 314.936 108.821C314.596 108.505 314.338 108.233 314.162 108.004C313.993 107.779 313.919 107.541 313.939 107.289C313.966 107.042 314.173 106.807 314.559 106.584C314.877 106.401 315.26 106.287 315.708 106.243C316.163 106.204 316.642 106.241 317.145 106.356C317.655 106.475 318.149 106.673 318.629 106.95C319.338 107.359 319.731 107.785 319.808 108.228C319.892 108.667 319.666 109.066 319.13 109.426L317.691 108.595C317.897 108.451 317.976 108.29 317.928 108.111C317.894 107.932 317.731 107.758 317.437 107.588C317.165 107.431 316.906 107.337 316.659 107.306C316.419 107.279 316.213 107.316 316.04 107.415C315.847 107.527 315.799 107.67 315.896 107.846C316 108.017 316.211 108.255 316.53 108.558C316.856 108.866 317.104 109.133 317.272 109.357C317.441 109.582 317.508 109.82 317.474 110.072C317.454 110.323 317.258 110.56 316.886 110.783C316.555 110.975 316.161 111.09 315.706 111.13C315.257 111.174 314.778 111.136 314.269 111.017C313.773 110.898 313.289 110.703 312.816 110.43Z" fill="black"/>
<rect width="139.951" height="4.56984" rx="2.28492" transform="matrix(0.866025 0.5 -0.866025 0.5 195.44 59.228)" fill="#1F0E31"/>
<rect width="132.525" height="4.56984" rx="2.28492" transform="matrix(0.866025 0.5 -0.866025 0.5 189.999 66.3684)" fill="#1F0E31"/>
<rect width="137.667" height="4.56984" rx="2.28492" transform="matrix(0.866025 0.5 -0.866025 0.5 178.62 70.0813)" fill="#1F0E31"/>
<rect width="86.2558" height="4.56984" rx="2.28492" transform="matrix(0.866025 0.5 -0.866025 0.5 191.977 88.0752)" fill="#1F0E31"/>
<path d="M331.075 35.5727L327.485 36.7691C327.485 48.3267 339.647 90.0547 352.316 102.873C364.985 104.683 373.557 99.1755 373.557 87.6179L373.557 60.0997L331.075 35.5727Z" fill="url(#paint12_linear_180_1478)"/>
<path d="M327.485 36.769L327.485 64.2872C327.485 75.8448 336.058 91.251 348.726 104.069C361.396 105.88 369.967 100.372 369.967 88.8143L369.967 61.2961L327.485 36.769Z" fill="#C7C6F8"/>
<path d="M330.568 42.1104L330.568 65.9256C330.568 76.0471 337.852 89.1829 348.615 100.16C359.378 101.611 366.661 96.8855 366.661 86.764L366.661 62.9487L330.568 42.1104Z" fill="url(#paint13_linear_180_1478)"/>
<path d="M357.154 68.2554L345.081 74.9787L340.05 66.4184L335.774 69.0106L340.805 77.5707L344.83 84.6583L345.081 85.1003L361.431 75.4878L357.154 68.2554Z" fill="#C7C6F8"/>
<ellipse opacity="0.2" cx="349.022" cy="113.064" rx="11.9644" ry="2.99111" transform="rotate(25.3388 349.022 113.064)" fill="url(#paint14_radial_180_1478)"/>
<defs>
<filter id="filter0_d_180_1478" x="0" y="11.6674" width="407.308" height="305.479" filterUnits="userSpaceOnUse" color-interpolation-filters="sRGB">
<feFlood flood-opacity="0" result="BackgroundImageFix"/>
<feColorMatrix in="SourceAlpha" type="matrix" values="0 0 0 0 0 0 0 0 0 0 0 0 0 0 0 0 0 0 127 0" result="hardAlpha"/>
<feOffset dy="10"/>
<feGaussianBlur stdDeviation="10"/>
<feComposite in2="hardAlpha" operator="out"/>
<feColorMatrix type="matrix" values="0 0 0 0 0.254167 0 0 0 0 0.68675 0 0 0 0 1 0 0 0 0.25 0"/>
<feBlend mode="normal" in2="BackgroundImageFix" result="effect1_dropShadow_180_1478"/>
<feBlend mode="normal" in="SourceGraphic" in2="effect1_dropShadow_180_1478" result="shape"/>
</filter>
<linearGradient id="paint0_linear_180_1478" x1="426.18" y1="131.026" x2="78.8646" y2="131.026" gradientUnits="userSpaceOnUse">
<stop stop-color="#BCBEFF"/>
<stop offset="1" stop-color="#5761D7"/>
</linearGradient>
<linearGradient id="paint1_linear_180_1478" x1="200.878" y1="20.8334" x2="303.772" y2="215.854" gradientUnits="userSpaceOnUse">
<stop stop-color="#0F054C"/>
<stop offset="1" stop-color="#1F0E31"/>
</linearGradient>
<linearGradient id="paint2_linear_180_1478" x1="204.145" y1="180.164" x2="301.092" y2="51.4982" gradientUnits="userSpaceOnUse">
<stop stop-color="#41AFFF"/>
<stop offset="1" stop-color="#0F054C"/>
</linearGradient>
<linearGradient id="paint3_linear_180_1478" x1="204.145" y1="171.295" x2="301.092" y2="42.6292" gradientUnits="userSpaceOnUse">
<stop stop-color="#41AFFF"/>
<stop offset="1" stop-color="#0F054C"/>
</linearGradient>
<linearGradient id="paint4_linear_180_1478" x1="204.145" y1="162.426" x2="301.092" y2="33.7602" gradientUnits="userSpaceOnUse">
<stop stop-color="#41AFFF"/>
<stop offset="1" stop-color="#0F054C"/>
</linearGradient>
<radialGradient id="paint5_radial_180_1478" cx="0" cy="0" r="1" gradientUnits="userSpaceOnUse" gradientTransform="translate(261.143 119.109) rotate(180) scale(271.844 271.844)">
<stop stop-color="#41AFFF"/>
<stop offset="1" stop-color="#0F054C"/>
</radialGradient>
<linearGradient id="paint6_linear_180_1478" x1="426.18" y1="131.026" x2="78.8646" y2="131.026" gradientUnits="userSpaceOnUse">
<stop stop-color="#BCBEFF"/>
<stop offset="1" stop-color="#5761D7"/>
</linearGradient>
<linearGradient id="paint7_linear_180_1478" x1="200.878" y1="20.8334" x2="303.772" y2="215.854" gradientUnits="userSpaceOnUse">
<stop stop-color="#0F054C"/>
<stop offset="1" stop-color="#1F0E31"/>
</linearGradient>
<linearGradient id="paint8_linear_180_1478" x1="204.145" y1="180.164" x2="301.092" y2="51.4982" gradientUnits="userSpaceOnUse">
<stop stop-color="#41AFFF"/>
<stop offset="1" stop-color="#0F054C"/>
</linearGradient>
<linearGradient id="paint9_linear_180_1478" x1="204.145" y1="171.295" x2="301.092" y2="42.6292" gradientUnits="userSpaceOnUse">
<stop stop-color="#41AFFF"/>
<stop offset="1" stop-color="#0F054C"/>
</linearGradient>
<linearGradient id="paint10_linear_180_1478" x1="204.145" y1="162.426" x2="301.092" y2="33.7602" gradientUnits="userSpaceOnUse">
<stop stop-color="#41AFFF"/>
<stop offset="1" stop-color="#0F054C"/>
</linearGradient>
<radialGradient id="paint11_radial_180_1478" cx="0" cy="0" r="1" gradientUnits="userSpaceOnUse" gradientTransform="translate(261.143 119.109) rotate(180) scale(271.844 271.844)">
<stop stop-color="#41AFFF"/>
<stop offset="1" stop-color="#0F054C"/>
</radialGradient>
<linearGradient id="paint12_linear_180_1478" x1="350.521" y1="46.8001" x2="326.69" y2="88.0773" gradientUnits="userSpaceOnUse">
<stop stop-color="#BCBEFF"/>
<stop offset="1" stop-color="#5761D7"/>
</linearGradient>
<linearGradient id="paint13_linear_180_1478" x1="330.593" y1="42.153" x2="361.405" y2="113.31" gradientUnits="userSpaceOnUse">
<stop stop-color="#0F054C"/>
<stop offset="1" stop-color="#1F0E31"/>
</linearGradient>
<radialGradient id="paint14_radial_180_1478" cx="0" cy="0" r="1" gradientUnits="userSpaceOnUse" gradientTransform="translate(349.022 113.064) rotate(90) scale(2.99111 11.9644)">
<stop stop-color="#1F0E31"/>
<stop offset="1" stop-color="#1F0E31" stop-opacity="0"/>
</radialGradient>
</defs>
</svg>
