<svg width="201" height="63" viewBox="0 0 201 63" fill="none" xmlns="http://www.w3.org/2000/svg">
<g filter="url(#filter0_d_2_11805)">
<path d="M41.5781 43C41.1988 43 40.8351 42.8444 40.567 42.5676C40.2988 42.2907 40.1481 41.9151 40.1481 41.5236V25.731C40.1474 25.6406 40.1166 25.5532 40.0609 25.4834C40.0052 25.4136 39.928 25.3657 39.8422 25.3476C39.7563 25.3296 39.6671 25.3425 39.5894 25.3842C39.5117 25.4259 39.4503 25.4939 39.4153 25.5768L32.5923 42.233C32.5011 42.4588 32.347 42.6515 32.1495 42.7866C31.9519 42.9217 31.72 42.9931 31.4831 42.9918C31.2467 42.9919 31.0154 42.9202 30.8182 42.7857C30.621 42.6511 30.4664 42.4596 30.3738 42.2351L23.4792 25.4308C23.4442 25.3479 23.3827 25.2799 23.305 25.2382C23.2273 25.1965 23.1381 25.1836 23.0523 25.2016C22.9665 25.2197 22.8893 25.2676 22.8336 25.3374C22.7779 25.4072 22.7471 25.4946 22.7463 25.585V41.575C22.7463 41.9507 22.6017 42.3111 22.3444 42.5768C22.0871 42.8425 21.7381 42.9918 21.3741 42.9918C21.1938 42.992 21.0151 42.9556 20.8484 42.8845C20.6817 42.8134 20.5302 42.7091 20.4026 42.5775C20.275 42.4459 20.1737 42.2897 20.1046 42.1176C20.0356 41.9456 20 41.7612 20 41.575V22.4162C20 22.0987 20.0606 21.7844 20.1783 21.4911C20.296 21.1978 20.4686 20.9313 20.6861 20.707C20.9036 20.4826 21.1618 20.3046 21.4459 20.1833C21.7301 20.062 22.0346 19.9997 22.342 20C22.8029 19.9996 23.2536 20.1399 23.6373 20.4034C24.0211 20.6668 24.3209 21.0416 24.4988 21.4806L30.7482 36.8372C30.807 36.9824 30.906 37.1064 31.0329 37.1937C31.1597 37.2809 31.3087 37.3274 31.4612 37.3274C31.6136 37.3274 31.7626 37.2809 31.8895 37.1937C32.0163 37.1064 32.1154 36.9824 32.1741 36.8372L38.3976 21.5176C38.581 21.068 38.8887 20.6842 39.2822 20.4142C39.6758 20.1443 40.1377 20.0002 40.6102 20C41.244 20 41.8519 20.26 42.3 20.7227C42.7482 21.1855 43 21.8131 43 22.4676V41.5153C43 41.7094 42.9629 41.9016 42.891 42.0808C42.819 42.2601 42.7135 42.4229 42.5805 42.5601C42.4475 42.6972 42.2896 42.8059 42.1159 42.88C41.9422 42.9541 41.756 42.992 41.5681 42.9918L41.5781 43Z" fill="white"/>
</g>
<g filter="url(#filter1_d_2_11805)">
<path d="M56.7234 43H47.2746C46.9366 43 46.6124 42.8616 46.3733 42.6152C46.1343 42.3688 46 42.0346 46 41.6861V21.3139C46 20.9654 46.1343 20.6312 46.3733 20.3848C46.6124 20.1384 46.9366 20 47.2746 20H56.2207C56.5588 20 56.883 20.1384 57.122 20.3848C57.3611 20.6312 57.4953 20.9654 57.4953 21.3139V21.3283C57.4953 21.6767 57.3611 22.0109 57.122 22.2573C56.883 22.5037 56.5588 22.6421 56.2207 22.6421H50.1569C49.8187 22.6421 49.4943 22.7805 49.2549 23.0268C49.0156 23.2732 48.8808 23.6074 48.8803 23.956V28.6851C48.8808 29.0338 49.0156 29.368 49.2549 29.6143C49.4943 29.8607 49.8187 29.999 50.1569 29.999H55.5864C55.9245 29.999 56.2487 30.1375 56.4877 30.3838C56.7267 30.6302 56.861 30.9644 56.861 31.3129C56.861 31.6614 56.7267 31.9955 56.4877 32.2419C56.2487 32.4883 55.9245 32.6268 55.5864 32.6268H50.1569C49.8187 32.6268 49.4943 32.7651 49.2549 33.0115C49.0156 33.2578 48.8808 33.592 48.8803 33.9406V39.0584C48.8808 39.407 49.0156 39.7412 49.2549 39.9876C49.4943 40.2339 49.8187 40.3723 50.1569 40.3723H56.7234C57.0616 40.3723 57.386 40.5106 57.6254 40.757C57.8647 41.0033 57.9995 41.3375 58 41.6861C57.9995 42.0348 57.8647 42.369 57.6254 42.6153C57.386 42.8616 57.0616 43 56.7234 43Z" fill="white"/>
</g>
<g filter="url(#filter2_d_2_11805)">
<path d="M74.7788 22.6424H71.081C70.7572 22.6424 70.4465 22.7817 70.2175 23.0296C69.9885 23.2776 69.8598 23.6139 69.8598 23.9646V41.6798C69.8598 41.8534 69.8282 42.0252 69.7668 42.1855C69.7054 42.3458 69.6155 42.4914 69.502 42.6141C69.3886 42.7367 69.254 42.8339 69.1058 42.9001C68.9577 42.9663 68.7989 43.0003 68.6386 43H68.3215C68.1612 43.0003 68.0024 42.9663 67.8543 42.9001C67.7061 42.8339 67.5715 42.7367 67.4581 42.6141C67.3447 42.4914 67.2547 42.3458 67.1933 42.1855C67.1319 42.0252 67.1003 41.8534 67.1003 41.6798V23.9646C67.1003 23.6143 66.9719 23.2783 66.7433 23.0304C66.5147 22.7825 66.2045 22.6429 65.881 22.6424H62.2212C61.8973 22.6424 61.5867 22.5031 61.3577 22.2551C61.1287 22.0071 61 21.6708 61 21.3202C61 21.1466 61.0316 20.9748 61.093 20.8145C61.1544 20.6542 61.2444 20.5086 61.3578 20.3859C61.4712 20.2633 61.6059 20.1661 61.754 20.0999C61.9022 20.0337 62.0609 19.9997 62.2212 20H74.7788C74.9391 19.9997 75.0978 20.0337 75.246 20.0999C75.3941 20.1661 75.5288 20.2633 75.6422 20.3859C75.7556 20.5086 75.8456 20.6542 75.907 20.8145C75.9684 20.9748 76 21.1466 76 21.3202C76 21.6708 75.8713 22.0071 75.6423 22.2551C75.4133 22.5031 75.1027 22.6424 74.7788 22.6424Z" fill="white"/>
</g>
<g filter="url(#filter3_d_2_11805)">
<path d="M141.533 43H141.513C141.208 43.0005 140.91 42.906 140.659 42.7291C140.409 42.5523 140.217 42.3016 140.111 42.0108L138.529 37.6922C138.423 37.4014 138.231 37.1507 137.981 36.9739C137.73 36.797 137.432 36.7025 137.127 36.703H129.801C129.491 36.7018 129.188 36.799 128.934 36.981C128.68 37.1631 128.488 37.421 128.385 37.7189L126.91 41.982C126.808 42.2801 126.616 42.5382 126.362 42.7203C126.108 42.9024 125.805 42.9995 125.494 42.998C125.253 42.9978 125.014 42.9381 124.8 42.8239C124.586 42.7097 124.403 42.5443 124.265 42.3421C124.128 42.1399 124.04 41.9069 124.011 41.6629C123.982 41.4189 124.011 41.1714 124.096 40.9414L131.379 21.4848C131.543 21.0482 131.834 20.6724 132.212 20.4073C132.591 20.1421 133.04 20.0001 133.5 20C133.959 20.0001 134.408 20.1421 134.787 20.4073C135.165 20.6724 135.456 21.0482 135.62 21.4848L142.903 40.9414C142.988 41.1692 143.018 41.4145 142.99 41.6565C142.962 41.8984 142.878 42.1301 142.743 42.3319C142.609 42.5337 142.429 42.6998 142.218 42.816C142.008 42.9323 141.773 42.9954 141.533 43ZM136.844 32.884L134.317 25.4559C134.256 25.2744 134.141 25.1169 133.987 25.0053C133.834 24.8938 133.65 24.8338 133.461 24.8338C133.272 24.8338 133.089 24.8938 132.935 25.0053C132.782 25.1169 132.666 25.2744 132.605 25.4559L130.079 32.884C130.032 33.0227 130.018 33.1708 130.038 33.316C130.059 33.4612 130.113 33.5992 130.197 33.7187C130.281 33.8382 130.391 33.9356 130.52 34.0029C130.648 34.0702 130.79 34.1054 130.934 34.1056H135.992C136.136 34.1052 136.278 34.0698 136.406 34.0024C136.534 33.935 136.644 33.8374 136.727 33.7179C136.811 33.5984 136.865 33.4603 136.885 33.3153C136.905 33.1702 136.891 33.0224 136.844 32.884Z" fill="white"/>
</g>
<g filter="url(#filter4_d_2_11805)">
<path d="M159.778 22.6424H156.087C155.763 22.6424 155.453 22.7817 155.223 23.0296C154.994 23.2776 154.865 23.6139 154.865 23.9646V41.6798C154.865 41.8534 154.834 42.0252 154.772 42.1855C154.711 42.3458 154.621 42.4914 154.507 42.6141C154.394 42.7367 154.259 42.8339 154.111 42.9001C153.963 42.9663 153.804 43.0003 153.643 43H153.328C153.168 43.0003 153.009 42.9663 152.861 42.9001C152.712 42.8339 152.578 42.7367 152.464 42.6141C152.351 42.4914 152.261 42.3458 152.199 42.1855C152.138 42.0252 152.106 41.8534 152.106 41.6798V23.9646C152.106 23.7911 152.075 23.6192 152.014 23.4588C151.953 23.2984 151.863 23.1526 151.749 23.0298C151.636 22.907 151.501 22.8095 151.353 22.7431C151.205 22.6766 151.046 22.6424 150.886 22.6424H147.222C146.898 22.6424 146.587 22.5031 146.358 22.2551C146.129 22.0071 146 21.6708 146 21.3202C146 21.1466 146.032 20.9748 146.093 20.8145C146.154 20.6542 146.245 20.5086 146.358 20.3859C146.472 20.2633 146.606 20.1661 146.754 20.0999C146.903 20.0337 147.062 19.9997 147.222 20H159.778C159.938 19.9997 160.097 20.0337 160.246 20.0999C160.394 20.1661 160.528 20.2633 160.642 20.3859C160.755 20.5086 160.846 20.6542 160.907 20.8145C160.968 20.9748 161 21.1466 161 21.3202C161 21.6708 160.871 22.0071 160.642 22.2551C160.413 22.5031 160.102 22.6424 159.778 22.6424Z" fill="white"/>
</g>
<g filter="url(#filter5_d_2_11805)">
<path d="M179.564 43C179.376 43 179.189 42.9616 179.015 42.887C178.841 42.8124 178.683 42.703 178.549 42.5652C178.416 42.4273 178.31 42.2636 178.238 42.0835C178.166 41.9034 178.129 41.7103 178.129 41.5153V34.1126C178.129 33.7188 177.978 33.3412 177.708 33.0627C177.439 32.7843 177.074 32.6279 176.693 32.6279H168.307C167.926 32.6279 167.561 32.7843 167.292 33.0627C167.022 33.3412 166.871 33.7188 166.871 34.1126V41.5153C166.871 41.9091 166.72 42.2867 166.451 42.5652C166.181 42.8436 165.816 43 165.436 43C165.055 43 164.69 42.8436 164.42 42.5652C164.151 42.2867 164 41.9091 164 41.5153V21.4847C164 21.0909 164.151 20.7133 164.42 20.4348C164.69 20.1564 165.055 20 165.436 20C165.816 20 166.181 20.1564 166.451 20.4348C166.72 20.7133 166.871 21.0909 166.871 21.4847V28.5091C166.871 28.903 167.022 29.2809 167.291 29.5596C167.561 29.8384 167.926 29.9953 168.307 29.9958H176.693C177.074 29.9953 177.439 29.8384 177.709 29.5596C177.978 29.2809 178.129 28.903 178.129 28.5091V21.4847C178.129 21.2897 178.166 21.0966 178.238 20.9165C178.31 20.7364 178.416 20.5727 178.549 20.4348C178.683 20.297 178.841 20.1876 179.015 20.113C179.189 20.0384 179.376 20 179.564 20C179.945 20 180.31 20.1564 180.58 20.4348C180.849 20.7133 181 21.0909 181 21.4847V41.5153C181 41.9091 180.849 42.2867 180.58 42.5652C180.31 42.8436 179.945 43 179.564 43Z" fill="white"/>
</g>
<path d="M89.7253 26.3491C89.6336 26.0954 89.4652 25.8762 89.2434 25.7218C89.0216 25.5674 88.7572 25.4853 88.4866 25.4869C88.2161 25.4884 87.9526 25.5735 87.7325 25.7304C87.5125 25.8873 87.3467 26.1083 87.2579 26.363L81.9056 41.5419C81.8033 41.8328 81.6128 42.0849 81.3605 42.2632C81.1082 42.4415 80.8064 42.5373 80.4971 42.5373C80.2547 42.5381 80.0158 42.48 79.801 42.3681C79.5862 42.2562 79.4019 42.0938 79.2642 41.895C79.1265 41.6962 79.0395 41.467 79.0106 41.2272C78.9818 40.9874 79.012 40.7441 79.0986 40.5185L86.3848 21.4514C86.5485 21.0248 86.8381 20.6577 87.2155 20.3986C87.5929 20.1395 88.0403 20.0005 88.4986 20C88.9588 19.9999 89.4082 20.1397 89.7866 20.4009C90.165 20.662 90.4545 21.0319 90.6163 21.4613L102.905 53.9912C102.99 54.2162 103.018 54.4584 102.989 54.6968C102.959 54.9353 102.871 55.1631 102.734 55.3605C102.596 55.558 102.413 55.7193 102.199 55.8307C101.985 55.9421 101.748 56.0001 101.507 56C101.201 56 100.902 55.9059 100.652 55.7306C100.402 55.5553 100.212 55.3073 100.108 55.0205C98.5219 50.6444 92.0608 32.8315 89.7253 26.3491Z" fill="url(#paint0_linear_2_11805)"/>
<path d="M119.493 43C119.181 43.0006 118.877 42.9032 118.622 42.7214C118.368 42.5395 118.174 42.2819 118.069 41.984L112.556 26.2422C112.477 26.0158 112.33 25.8199 112.137 25.6814C111.943 25.5429 111.712 25.4685 111.476 25.4685C111.239 25.4685 111.008 25.5429 110.815 25.6814C110.621 25.8199 110.474 26.0158 110.395 26.2422L105.112 41.2789C104.933 41.7809 104.608 42.2151 104.179 42.5229C103.749 42.8307 103.238 42.9972 102.712 43C102.192 43.0003 101.684 42.8397 101.255 42.5396C100.827 42.2395 100.498 41.8139 100.313 41.3196L93.0986 22.0747C93.012 21.8436 92.9818 21.5946 93.0106 21.3491C93.0393 21.1036 93.1262 20.8688 93.2638 20.6649C93.4014 20.4609 93.5856 20.2939 93.8006 20.1781C94.0156 20.0623 94.255 20.0012 94.4983 20C94.8026 20.0021 95.0992 20.0978 95.349 20.2744C95.5988 20.451 95.7902 20.7003 95.898 20.9896L101.697 36.6521C101.779 36.8747 101.927 37.0661 102.12 37.2C102.313 37.3339 102.543 37.4037 102.776 37.3999C103.01 37.3961 103.237 37.3189 103.426 37.1788C103.615 37.0388 103.757 36.8427 103.832 36.6175L108.787 21.9223C108.976 21.3615 109.333 20.8748 109.808 20.5301C110.282 20.1855 110.851 20.0001 111.435 20C112.009 19.9996 112.57 20.1788 113.04 20.5132C113.511 20.8477 113.869 21.3211 114.066 21.8694L120.909 40.9375C120.992 41.1693 121.019 41.4179 120.987 41.6625C120.956 41.9071 120.867 42.1404 120.728 42.3427C120.589 42.545 120.405 42.7103 120.19 42.8247C119.975 42.9392 119.736 42.9993 119.493 43Z" fill="url(#paint1_linear_2_11805)"/>
<defs>
<filter id="filter0_d_2_11805" x="0" y="0" width="63" height="63" filterUnits="userSpaceOnUse" color-interpolation-filters="sRGB">
<feFlood flood-opacity="0" result="BackgroundImageFix"/>
<feColorMatrix in="SourceAlpha" type="matrix" values="0 0 0 0 0 0 0 0 0 0 0 0 0 0 0 0 0 0 127 0" result="hardAlpha"/>
<feOffset/>
<feGaussianBlur stdDeviation="10"/>
<feComposite in2="hardAlpha" operator="out"/>
<feColorMatrix type="matrix" values="0 0 0 0 1 0 0 0 0 1 0 0 0 0 1 0 0 0 0.25 0"/>
<feBlend mode="normal" in2="BackgroundImageFix" result="effect1_dropShadow_2_11805"/>
<feBlend mode="normal" in="SourceGraphic" in2="effect1_dropShadow_2_11805" result="shape"/>
</filter>
<filter id="filter1_d_2_11805" x="26" y="0" width="52" height="63" filterUnits="userSpaceOnUse" color-interpolation-filters="sRGB">
<feFlood flood-opacity="0" result="BackgroundImageFix"/>
<feColorMatrix in="SourceAlpha" type="matrix" values="0 0 0 0 0 0 0 0 0 0 0 0 0 0 0 0 0 0 127 0" result="hardAlpha"/>
<feOffset/>
<feGaussianBlur stdDeviation="10"/>
<feComposite in2="hardAlpha" operator="out"/>
<feColorMatrix type="matrix" values="0 0 0 0 1 0 0 0 0 1 0 0 0 0 1 0 0 0 0.25 0"/>
<feBlend mode="normal" in2="BackgroundImageFix" result="effect1_dropShadow_2_11805"/>
<feBlend mode="normal" in="SourceGraphic" in2="effect1_dropShadow_2_11805" result="shape"/>
</filter>
<filter id="filter2_d_2_11805" x="41" y="0" width="55" height="63" filterUnits="userSpaceOnUse" color-interpolation-filters="sRGB">
<feFlood flood-opacity="0" result="BackgroundImageFix"/>
<feColorMatrix in="SourceAlpha" type="matrix" values="0 0 0 0 0 0 0 0 0 0 0 0 0 0 0 0 0 0 127 0" result="hardAlpha"/>
<feOffset/>
<feGaussianBlur stdDeviation="10"/>
<feComposite in2="hardAlpha" operator="out"/>
<feColorMatrix type="matrix" values="0 0 0 0 1 0 0 0 0 1 0 0 0 0 1 0 0 0 0.25 0"/>
<feBlend mode="normal" in2="BackgroundImageFix" result="effect1_dropShadow_2_11805"/>
<feBlend mode="normal" in="SourceGraphic" in2="effect1_dropShadow_2_11805" result="shape"/>
</filter>
<filter id="filter3_d_2_11805" x="104" y="0" width="59" height="63" filterUnits="userSpaceOnUse" color-interpolation-filters="sRGB">
<feFlood flood-opacity="0" result="BackgroundImageFix"/>
<feColorMatrix in="SourceAlpha" type="matrix" values="0 0 0 0 0 0 0 0 0 0 0 0 0 0 0 0 0 0 127 0" result="hardAlpha"/>
<feOffset/>
<feGaussianBlur stdDeviation="10"/>
<feComposite in2="hardAlpha" operator="out"/>
<feColorMatrix type="matrix" values="0 0 0 0 1 0 0 0 0 1 0 0 0 0 1 0 0 0 0.25 0"/>
<feBlend mode="normal" in2="BackgroundImageFix" result="effect1_dropShadow_2_11805"/>
<feBlend mode="normal" in="SourceGraphic" in2="effect1_dropShadow_2_11805" result="shape"/>
</filter>
<filter id="filter4_d_2_11805" x="126" y="0" width="55" height="63" filterUnits="userSpaceOnUse" color-interpolation-filters="sRGB">
<feFlood flood-opacity="0" result="BackgroundImageFix"/>
<feColorMatrix in="SourceAlpha" type="matrix" values="0 0 0 0 0 0 0 0 0 0 0 0 0 0 0 0 0 0 127 0" result="hardAlpha"/>
<feOffset/>
<feGaussianBlur stdDeviation="10"/>
<feComposite in2="hardAlpha" operator="out"/>
<feColorMatrix type="matrix" values="0 0 0 0 1 0 0 0 0 1 0 0 0 0 1 0 0 0 0.25 0"/>
<feBlend mode="normal" in2="BackgroundImageFix" result="effect1_dropShadow_2_11805"/>
<feBlend mode="normal" in="SourceGraphic" in2="effect1_dropShadow_2_11805" result="shape"/>
</filter>
<filter id="filter5_d_2_11805" x="144" y="0" width="57" height="63" filterUnits="userSpaceOnUse" color-interpolation-filters="sRGB">
<feFlood flood-opacity="0" result="BackgroundImageFix"/>
<feColorMatrix in="SourceAlpha" type="matrix" values="0 0 0 0 0 0 0 0 0 0 0 0 0 0 0 0 0 0 127 0" result="hardAlpha"/>
<feOffset/>
<feGaussianBlur stdDeviation="10"/>
<feComposite in2="hardAlpha" operator="out"/>
<feColorMatrix type="matrix" values="0 0 0 0 1 0 0 0 0 1 0 0 0 0 1 0 0 0 0.25 0"/>
<feBlend mode="normal" in2="BackgroundImageFix" result="effect1_dropShadow_2_11805"/>
<feBlend mode="normal" in="SourceGraphic" in2="effect1_dropShadow_2_11805" result="shape"/>
</filter>
<linearGradient id="paint0_linear_2_11805" x1="114.659" y1="53.3222" x2="75.4629" y2="24.3414" gradientUnits="userSpaceOnUse">
<stop stop-color="#1D71B8"/>
<stop offset="1" stop-color="#662483"/>
</linearGradient>
<linearGradient id="paint1_linear_2_11805" x1="122.324" y1="42.8882" x2="82.5579" y2="14.0537" gradientUnits="userSpaceOnUse">
<stop stop-color="#1D71B8"/>
<stop offset="1" stop-color="#662483"/>
</linearGradient>
</defs>
</svg>