<svg width="200" viewBox="0 0 42 36" fill="none" xmlns="http://www.w3.org/2000/svg">
<path d="M10.7253 6.34908C10.6336 6.09539 10.4652 5.87625 10.2434 5.72184C10.0216 5.56742 9.7572 5.48533 9.48663 5.48686C9.21605 5.48839 8.9526 5.57346 8.73255 5.73037C8.5125 5.88727 8.34667 6.1083 8.25788 6.36301L2.90559 21.5419C2.8033 21.8328 2.61282 22.0849 2.36049 22.2632C2.10816 22.4415 1.80645 22.5373 1.4971 22.5373C1.25471 22.5381 1.01577 22.48 0.800966 22.3681C0.586157 22.2562 0.401934 22.0938 0.264228 21.895C0.126521 21.6962 0.0394763 21.467 0.0106164 21.2272C-0.0182435 20.9874 0.0119502 20.7441 0.0985901 20.5185L7.38482 1.45139C7.54849 1.02481 7.83814 0.657725 8.21552 0.398599C8.5929 0.139473 9.04027 0.000488458 9.49856 6.58649e-08C9.95884 -0.000110799 10.4082 0.139737 10.7866 0.40086C11.165 0.661982 11.4545 1.03195 11.6163 1.46134L23.9052 33.9912C23.9898 34.2162 24.0184 34.4584 23.9885 34.6968C23.9587 34.9353 23.8713 35.1631 23.7338 35.3605C23.5963 35.558 23.4129 35.7193 23.1992 35.8307C22.9855 35.9421 22.7479 36.0001 22.5067 36C22.2008 36 21.9023 35.9059 21.652 35.7306C21.4017 35.5553 21.2118 35.3073 21.1082 35.0205C19.5219 30.6444 13.0608 12.8315 10.7253 6.34908Z" fill="url(#paint0_linear_0_1)"/>
<path d="M40.4928 23C40.1814 23.0006 39.8774 22.9032 39.6225 22.7214C39.3676 22.5395 39.1743 22.2819 39.0691 21.984L33.5563 6.24225C33.4767 6.01578 33.3301 5.81989 33.1366 5.68138C32.9431 5.54287 32.7122 5.46852 32.4756 5.46852C32.2389 5.46852 32.008 5.54287 31.8146 5.68138C31.6211 5.81989 31.4745 6.01578 31.3948 6.24225L26.112 21.2789C25.9335 21.7809 25.6077 22.2151 25.1786 22.5229C24.7495 22.8307 24.2377 22.9972 23.7125 23C23.192 23.0003 22.6837 22.8397 22.2552 22.5396C21.8266 22.2395 21.498 21.8139 21.313 21.3196L14.0986 2.07465C14.012 1.84358 13.9818 1.59463 14.0106 1.3491C14.0393 1.10358 14.1262 0.868788 14.2638 0.664853C14.4014 0.460918 14.5856 0.293911 14.8006 0.178121C15.0156 0.0623319 15.255 0.00121234 15.4983 5.33679e-07C15.8026 0.00211289 16.0992 0.0977692 16.349 0.274394C16.5988 0.451018 16.7902 0.70034 16.898 0.989575L22.6967 16.6521C22.7788 16.8747 22.9266 17.0661 23.1199 17.2C23.3132 17.3339 23.5426 17.4037 23.7765 17.3999C24.0104 17.3961 24.2374 17.3189 24.4264 17.1788C24.6154 17.0388 24.7572 16.8427 24.8322 16.6175L29.7872 1.92225C29.9763 1.36147 30.3332 0.874759 30.8078 0.530122C31.2825 0.185485 31.8512 0.000145719 32.4346 5.33679e-07C33.0089 -0.000356891 33.5695 0.178829 34.0402 0.513248C34.511 0.847667 34.8691 1.32114 35.066 1.86943L41.9085 20.9375C41.9917 21.1693 42.0187 21.4179 41.9873 21.6625C41.9559 21.9071 41.867 22.1404 41.7282 22.3427C41.5893 22.545 41.4046 22.7103 41.1895 22.8247C40.9745 22.9392 40.7355 22.9993 40.4928 23Z" fill="url(#paint1_linear_0_1)"/>
<defs>
<linearGradient id="paint0_linear_0_1" x1="35.6587" y1="33.3222" x2="-3.53713" y2="4.34139" gradientUnits="userSpaceOnUse">
<stop stop-color="#1D71B8"/>
<stop offset="1" stop-color="#662483"/>
</linearGradient>
<linearGradient id="paint1_linear_0_1" x1="43.3242" y1="22.8882" x2="3.55786" y2="-5.94632" gradientUnits="userSpaceOnUse">
<stop stop-color="#1D71B8"/>
<stop offset="1" stop-color="#662483"/>
</linearGradient>
</defs>
</svg>